<?xml version="1.0" encoding="UTF-8"?>
<!DOCTYPE svg PUBLIC "-//W3C//DTD SVG 1.1//EN" "http://www.w3.org/Graphics/SVG/1.1/DTD/svg11.dtd">
<!-- Creator: CorelDRAW 2019 (64-Bit) -->
<svg xmlns="http://www.w3.org/2000/svg" xml:space="preserve" width="16.2918cm" height="0.36313cm" version="1.1" style="shape-rendering:geometricPrecision; text-rendering:geometricPrecision; image-rendering:optimizeQuality; fill-rule:evenodd; clip-rule:evenodd"
viewBox="0 0 134.531 2.999"
 xmlns:xlink="http://www.w3.org/1999/xlink"
 xmlns:xodm="http://www.corel.com/coreldraw/odm/2003">
 <defs>
  <style type="text/css">
   <![CDATA[
    .fil0 {fill:white;fill-rule:nonzero}
   ]]>
  </style>
 </defs>
 <g id="Слой_x0020_1">
  <metadata id="CorelCorpID_0Corel-Layer"/>
  <path class="fil0" d="M0.458 0.409l0 0.625 0.587 0c0.105,0 0.186,-0.008 0.242,-0.024 0.056,-0.017 0.097,-0.048 0.123,-0.096 0.026,-0.047 0.039,-0.119 0.039,-0.215 0,-0.112 -0.025,-0.188 -0.075,-0.229 -0.05,-0.041 -0.133,-0.061 -0.25,-0.061l-0.665 0zm0 0.97l0 0.677 0.587 0c0.16,0 0.276,-0.025 0.349,-0.075 0.073,-0.05 0.109,-0.14 0.109,-0.27 0,-0.085 -0.012,-0.153 -0.037,-0.201 -0.025,-0.048 -0.064,-0.082 -0.118,-0.102 -0.054,-0.02 -0.127,-0.03 -0.219,-0.03l-0.671 0zm-0.458 1.061l0 -2.415 1.238 0c0.147,0 0.27,0.021 0.369,0.063 0.099,0.042 0.175,0.109 0.227,0.199 0.052,0.09 0.078,0.205 0.078,0.344 0,0.306 -0.115,0.492 -0.345,0.555l0 0.016c0.129,0.02 0.228,0.078 0.297,0.171 0.069,0.094 0.103,0.219 0.103,0.373 0,0.107 -0.014,0.203 -0.042,0.289 -0.028,0.085 -0.071,0.158 -0.129,0.219 -0.057,0.061 -0.129,0.106 -0.215,0.138 -0.086,0.032 -0.188,0.048 -0.304,0.048l-1.277 0z"/>
  <path id="1" class="fil0" d="M4.414 0.026l-0.664 0 -0.822 1.618c-0.027,0.055 -0.052,0.103 -0.072,0.143 -0.02,0.04 -0.063,0.125 -0.128,0.254 0.024,-0.116 0.035,-0.259 0.035,-0.429l0 -1.586 -0.464 0 0 2.415 0.664 0 0.822 -1.624c0.028,-0.057 0.055,-0.11 0.079,-0.157 0.024,-0.047 0.064,-0.127 0.12,-0.24 -0.024,0.116 -0.035,0.259 -0.035,0.429l0 1.592 0.464 0 0 -2.415z"/>
  <path id="2" class="fil0" d="M4.89 2.044c0.048,-0.05 0.088,-0.105 0.119,-0.165 0.032,-0.061 0.057,-0.13 0.076,-0.207 0.019,-0.078 0.033,-0.168 0.041,-0.271 0.009,-0.103 0.013,-0.222 0.015,-0.359l0 -1.019 1.747 0 0 2.021 0.216 0 0 0.955 -0.432 0 0 -0.558 -1.531 0 0 0.558 -0.435 0 0 -0.955 0.183 0zm0.703 -1.625l0 0.622c0,0.173 -0.006,0.321 -0.018,0.444 -0.012,0.123 -0.034,0.231 -0.066,0.324 -0.031,0.093 -0.074,0.171 -0.128,0.235l1.045 0 0 -1.625 -0.832 0z"/>
  <polygon id="3" class="fil0" points="7.873,0.409 7.873,1.038 9.005,1.038 9.005,1.383 7.873,1.383 7.873,2.06 9.072,2.06 9.072,2.44 7.415,2.44 7.415,0.026 9.062,0.026 9.062,0.409 "/>
  <path id="4" class="fil0" d="M9.372 1.184c0,-0.239 0.016,-0.434 0.047,-0.583 0.031,-0.149 0.085,-0.268 0.161,-0.356 0.076,-0.088 0.179,-0.15 0.31,-0.189 0.131,-0.038 0.303,-0.056 0.514,-0.056 0.21,0 0.38,0.019 0.511,0.056 0.131,0.038 0.235,0.1 0.311,0.189 0.076,0.088 0.131,0.206 0.163,0.357 0.033,0.15 0.049,0.344 0.049,0.582 0,0.275 -0.017,0.494 -0.049,0.659 -0.033,0.165 -0.087,0.294 -0.163,0.385 -0.076,0.091 -0.18,0.155 -0.308,0.191 -0.129,0.036 -0.301,0.054 -0.514,0.054 -0.226,0 -0.404,-0.018 -0.536,-0.053 -0.131,-0.035 -0.233,-0.098 -0.305,-0.189 -0.072,-0.091 -0.122,-0.218 -0.149,-0.382 -0.027,-0.163 -0.041,-0.385 -0.041,-0.665zm0.471 0.051c0,0.201 0.007,0.355 0.021,0.462 0.014,0.107 0.04,0.188 0.078,0.243 0.038,0.055 0.092,0.091 0.162,0.109 0.07,0.018 0.17,0.027 0.3,0.027 0.128,0 0.228,-0.01 0.3,-0.03 0.072,-0.02 0.126,-0.057 0.164,-0.113 0.038,-0.056 0.064,-0.136 0.078,-0.242 0.015,-0.106 0.021,-0.258 0.021,-0.456 0,-0.201 -0.008,-0.356 -0.023,-0.465 -0.016,-0.11 -0.043,-0.191 -0.082,-0.245 -0.039,-0.054 -0.093,-0.089 -0.16,-0.104 -0.068,-0.016 -0.168,-0.024 -0.299,-0.024 -0.135,0 -0.237,0.008 -0.305,0.024 -0.068,0.016 -0.12,0.05 -0.158,0.104 -0.038,0.054 -0.063,0.134 -0.077,0.241 -0.014,0.107 -0.021,0.263 -0.021,0.47z"/>
  <path id="5" class="fil0" d="M11.815 2.44l0 -2.415 1.028 0c0.211,0 0.38,0.021 0.509,0.063 0.129,0.042 0.227,0.121 0.294,0.236 0.066,0.116 0.099,0.28 0.099,0.494 0,0.165 -0.015,0.302 -0.046,0.408 -0.031,0.106 -0.079,0.191 -0.145,0.252 -0.067,0.061 -0.154,0.105 -0.261,0.13 -0.107,0.025 -0.244,0.038 -0.409,0.038l-0.606 0 0 0.793 -0.464 0zm0.464 -1.18l0.571 0c0.11,0 0.194,-0.011 0.254,-0.034 0.06,-0.023 0.104,-0.062 0.131,-0.119 0.027,-0.057 0.04,-0.139 0.04,-0.247 0,-0.117 -0.013,-0.207 -0.04,-0.271 -0.027,-0.064 -0.071,-0.109 -0.132,-0.134 -0.061,-0.026 -0.146,-0.039 -0.253,-0.039l-0.571 0 0 0.845z"/>
  <path id="6" class="fil0" d="M14.056 1.184c0,-0.239 0.016,-0.434 0.047,-0.583 0.031,-0.149 0.085,-0.268 0.161,-0.356 0.076,-0.088 0.179,-0.15 0.31,-0.189 0.131,-0.038 0.303,-0.056 0.514,-0.056 0.21,0 0.38,0.019 0.511,0.056 0.131,0.038 0.235,0.1 0.311,0.189 0.076,0.088 0.131,0.206 0.163,0.357 0.033,0.15 0.049,0.344 0.049,0.582 0,0.275 -0.017,0.494 -0.049,0.659 -0.033,0.165 -0.087,0.294 -0.163,0.385 -0.076,0.091 -0.18,0.155 -0.308,0.191 -0.129,0.036 -0.301,0.054 -0.514,0.054 -0.226,0 -0.404,-0.018 -0.536,-0.053 -0.131,-0.035 -0.233,-0.098 -0.305,-0.189 -0.072,-0.091 -0.122,-0.218 -0.149,-0.382 -0.027,-0.163 -0.041,-0.385 -0.041,-0.665zm0.471 0.051c0,0.201 0.007,0.355 0.021,0.462 0.014,0.107 0.04,0.188 0.078,0.243 0.038,0.055 0.092,0.091 0.162,0.109 0.07,0.018 0.17,0.027 0.3,0.027 0.128,0 0.228,-0.01 0.3,-0.03 0.072,-0.02 0.126,-0.057 0.164,-0.113 0.038,-0.056 0.064,-0.136 0.078,-0.242 0.015,-0.106 0.021,-0.258 0.021,-0.456 0,-0.201 -0.008,-0.356 -0.023,-0.465 -0.016,-0.11 -0.043,-0.191 -0.082,-0.245 -0.039,-0.054 -0.093,-0.089 -0.16,-0.104 -0.068,-0.016 -0.168,-0.024 -0.299,-0.024 -0.135,0 -0.237,0.008 -0.305,0.024 -0.068,0.016 -0.12,0.05 -0.158,0.104 -0.038,0.054 -0.063,0.134 -0.077,0.241 -0.014,0.107 -0.021,0.263 -0.021,0.47z"/>
  <path id="7" class="fil0" d="M18.562 0.026l0 2.415 -0.461 0 0 -2.018 -0.919 0 0 1.351c0,0.195 -0.048,0.356 -0.146,0.483 -0.097,0.127 -0.252,0.191 -0.464,0.191 -0.077,0 -0.157,-0.008 -0.238,-0.022l0 -0.381c0.038,0.006 0.086,0.01 0.146,0.01 0.093,0 0.158,-0.022 0.194,-0.065 0.036,-0.044 0.054,-0.103 0.054,-0.18l0 -1.783 1.834 0z"/>
  <path id="8" class="fil0" d="M21.103 0.026l-0.664 0 -0.822 1.618c-0.027,0.055 -0.052,0.103 -0.072,0.143 -0.02,0.04 -0.063,0.125 -0.128,0.254 0.024,-0.116 0.035,-0.259 0.035,-0.429l0 -1.586 -0.464 0 0 2.415 0.664 0 0.822 -1.624c0.028,-0.057 0.055,-0.11 0.079,-0.157 0.024,-0.047 0.064,-0.127 0.12,-0.24 -0.024,0.116 -0.035,0.259 -0.035,0.429l0 1.592 0.464 0 0 -2.415z"/>
  <polygon id="9" class="fil0" points="22.005,0.026 22.005,1.012 22.221,1.012 23.027,0.026 23.594,0.026 22.617,1.202 23.697,2.44 23.111,2.44 22.221,1.409 22.005,1.409 22.005,2.44 21.541,2.44 21.541,0.026 "/>
  <path id="10" class="fil0" d="M24.817 2.44l0 -2.415 1.028 0c0.211,0 0.38,0.021 0.509,0.063 0.129,0.042 0.227,0.121 0.294,0.236 0.066,0.116 0.099,0.28 0.099,0.494 0,0.165 -0.015,0.302 -0.046,0.408 -0.031,0.106 -0.079,0.191 -0.145,0.252 -0.067,0.061 -0.154,0.105 -0.261,0.13 -0.107,0.025 -0.244,0.038 -0.409,0.038l-0.606 0 0 0.793 -0.464 0zm0.464 -1.18l0.571 0c0.11,0 0.194,-0.011 0.254,-0.034 0.06,-0.023 0.104,-0.062 0.131,-0.119 0.027,-0.057 0.04,-0.139 0.04,-0.247 0,-0.117 -0.013,-0.207 -0.04,-0.271 -0.027,-0.064 -0.071,-0.109 -0.132,-0.134 -0.061,-0.026 -0.146,-0.039 -0.253,-0.039l-0.571 0 0 0.845z"/>
  <polygon id="11" class="fil0" points="27.547,0.409 27.547,1.038 28.679,1.038 28.679,1.383 27.547,1.383 27.547,2.06 28.747,2.06 28.747,2.44 27.09,2.44 27.09,0.026 28.737,0.026 28.737,0.409 "/>
  <path id="12" class="fil0" d="M30.581 1.576l0.454 0 0 0.141c0,0.187 -0.032,0.334 -0.096,0.443 -0.064,0.109 -0.168,0.186 -0.313,0.234 -0.145,0.048 -0.342,0.071 -0.591,0.071 -0.205,0 -0.372,-0.019 -0.501,-0.058 -0.128,-0.038 -0.231,-0.104 -0.307,-0.198 -0.076,-0.093 -0.13,-0.221 -0.162,-0.384 -0.032,-0.162 -0.048,-0.374 -0.048,-0.637 0,-0.289 0.029,-0.518 0.087,-0.689 0.058,-0.17 0.16,-0.296 0.305,-0.378 0.145,-0.082 0.349,-0.123 0.611,-0.123 0.26,0 0.46,0.03 0.601,0.09 0.14,0.061 0.239,0.15 0.296,0.269 0.057,0.119 0.092,0.277 0.106,0.476l-0.451 0c-0.008,-0.127 -0.028,-0.221 -0.06,-0.282 -0.032,-0.06 -0.085,-0.1 -0.16,-0.122 -0.074,-0.021 -0.185,-0.032 -0.332,-0.032 -0.152,0 -0.264,0.02 -0.336,0.059 -0.072,0.039 -0.122,0.116 -0.15,0.231 -0.028,0.114 -0.042,0.296 -0.042,0.545 0,0.176 0.008,0.318 0.024,0.426 0.016,0.108 0.044,0.191 0.083,0.251 0.04,0.059 0.093,0.1 0.16,0.124 0.068,0.023 0.158,0.034 0.271,0.034 0.145,0 0.256,-0.01 0.334,-0.03 0.078,-0.02 0.134,-0.054 0.168,-0.103 0.033,-0.049 0.049,-0.119 0.049,-0.21l0 -0.151z"/>
  <polygon id="13" class="fil0" points="33.372,0.026 33.372,2.44 32.908,2.44 32.908,0.422 31.783,0.422 31.783,2.44 31.319,2.44 31.319,0.026 "/>
  <path id="14" class="fil0" d="M35.291 0.026l-0.467 1.212c-0.039,0.113 -0.07,0.229 -0.093,0.349 -0.016,-0.172 -0.037,-0.284 -0.064,-0.335l-0.483 -1.226 -0.558 0 0.832 1.779c0.021,0.046 0.032,0.083 0.032,0.109 0,0.026 -0.009,0.051 -0.026,0.075 -0.034,0.047 -0.119,0.07 -0.254,0.07 -0.027,0 -0.082,-0.005 -0.164,-0.016l0 0.394c0.096,0.01 0.194,0.016 0.293,0.016 0.093,0 0.178,-0.016 0.254,-0.046 0.075,-0.031 0.147,-0.085 0.215,-0.164 0.068,-0.079 0.133,-0.188 0.195,-0.328l0.838 -1.889 -0.548 0z"/>
  <path id="15" class="fil0" d="M36.089 2.44l0 -2.415 1.686 0 0 0.384 -1.225 0 0 0.558 0.765 0c0.148,0 0.273,0.03 0.376,0.088 0.103,0.059 0.18,0.144 0.232,0.256 0.052,0.112 0.078,0.245 0.078,0.4 0,0.153 -0.026,0.284 -0.077,0.394 -0.052,0.109 -0.128,0.192 -0.23,0.249 -0.102,0.057 -0.226,0.085 -0.373,0.085l-1.231 0zm0.461 -0.384l0.591 0c0.1,0 0.178,-0.01 0.234,-0.028 0.056,-0.019 0.097,-0.054 0.123,-0.103 0.026,-0.049 0.039,-0.12 0.039,-0.214 0,-0.138 -0.028,-0.233 -0.086,-0.284 -0.057,-0.051 -0.156,-0.077 -0.294,-0.077l-0.606 0 0 0.706z"/>
  <path id="16" class="fil0" d="M40.383 0.026l0 2.415 -0.461 0 0 -2.018 -0.919 0 0 1.351c0,0.195 -0.048,0.356 -0.146,0.483 -0.097,0.127 -0.252,0.191 -0.464,0.191 -0.077,0 -0.157,-0.008 -0.238,-0.022l0 -0.381c0.038,0.006 0.086,0.01 0.146,0.01 0.093,0 0.158,-0.022 0.194,-0.065 0.036,-0.044 0.054,-0.103 0.054,-0.18l0 -1.783 1.834 0z"/>
  <path id="17" class="fil0" d="M42.923 0.026l-0.664 0 -0.822 1.618c-0.027,0.055 -0.052,0.103 -0.072,0.143 -0.02,0.04 -0.063,0.125 -0.128,0.254 0.024,-0.116 0.035,-0.259 0.035,-0.429l0 -1.586 -0.464 0 0 2.415 0.664 0 0.822 -1.624c0.028,-0.057 0.055,-0.11 0.079,-0.157 0.024,-0.047 0.064,-0.127 0.12,-0.24 -0.024,0.116 -0.035,0.259 -0.035,0.429l0 1.592 0.464 0 0 -2.415z"/>
  <polygon id="18" class="fil0" points="43.826,0.026 43.826,1.012 44.041,1.012 44.847,0.026 45.414,0.026 44.438,1.202 45.518,2.44 44.931,2.44 44.041,1.409 43.826,1.409 43.826,2.44 43.362,2.44 43.362,0.026 "/>
  <path id="19" class="fil0" d="M47.298 1.979l-1.045 0 -0.151 0.461 -0.48 0 0.803 -2.415 0.68 0 0.819 2.415 -0.471 0 -0.154 -0.461zm-0.107 -0.345l-0.418 -1.254 -0.413 1.254 0.831 0z"/>
  <polygon id="20" class="fil0" points="50.241,0.026 50.241,2.44 49.777,2.44 49.777,1.409 48.652,1.409 48.652,2.44 48.187,2.44 48.187,0.026 48.652,0.026 48.652,1.016 49.777,1.016 49.777,0.026 "/>
  <path id="21" class="fil0" d="M52.165 1.576l0.454 0 0 0.141c0,0.187 -0.032,0.334 -0.096,0.443 -0.064,0.109 -0.168,0.186 -0.313,0.234 -0.145,0.048 -0.342,0.071 -0.591,0.071 -0.205,0 -0.372,-0.019 -0.501,-0.058 -0.128,-0.038 -0.231,-0.104 -0.307,-0.198 -0.076,-0.093 -0.13,-0.221 -0.162,-0.384 -0.032,-0.162 -0.048,-0.374 -0.048,-0.637 0,-0.289 0.029,-0.518 0.087,-0.689 0.058,-0.17 0.16,-0.296 0.305,-0.378 0.145,-0.082 0.349,-0.123 0.611,-0.123 0.26,0 0.46,0.03 0.601,0.09 0.14,0.061 0.239,0.15 0.296,0.269 0.057,0.119 0.092,0.277 0.106,0.476l-0.451 0c-0.008,-0.127 -0.028,-0.221 -0.06,-0.282 -0.032,-0.06 -0.085,-0.1 -0.16,-0.122 -0.074,-0.021 -0.185,-0.032 -0.332,-0.032 -0.152,0 -0.264,0.02 -0.336,0.059 -0.072,0.039 -0.122,0.116 -0.15,0.231 -0.028,0.114 -0.042,0.296 -0.042,0.545 0,0.176 0.008,0.318 0.024,0.426 0.016,0.108 0.044,0.191 0.083,0.251 0.04,0.059 0.093,0.1 0.16,0.124 0.068,0.023 0.158,0.034 0.271,0.034 0.145,0 0.256,-0.01 0.334,-0.03 0.078,-0.02 0.134,-0.054 0.168,-0.103 0.033,-0.049 0.049,-0.119 0.049,-0.21l0 -0.151z"/>
  <polygon id="22" class="fil0" points="53.368,0.026 53.368,1.012 53.583,1.012 54.389,0.026 54.957,0.026 53.98,1.202 55.06,2.44 54.474,2.44 53.583,1.409 53.368,1.409 53.368,2.44 52.904,2.44 52.904,0.026 "/>
  <path id="23" class="fil0" d="M55.286 1.184c0,-0.239 0.016,-0.434 0.047,-0.583 0.031,-0.149 0.085,-0.268 0.161,-0.356 0.076,-0.088 0.179,-0.15 0.31,-0.189 0.131,-0.038 0.303,-0.056 0.514,-0.056 0.21,0 0.38,0.019 0.511,0.056 0.131,0.038 0.235,0.1 0.311,0.189 0.076,0.088 0.131,0.206 0.163,0.357 0.033,0.15 0.049,0.344 0.049,0.582 0,0.275 -0.017,0.494 -0.049,0.659 -0.033,0.165 -0.087,0.294 -0.163,0.385 -0.076,0.091 -0.18,0.155 -0.308,0.191 -0.129,0.036 -0.301,0.054 -0.514,0.054 -0.226,0 -0.404,-0.018 -0.536,-0.053 -0.131,-0.035 -0.233,-0.098 -0.305,-0.189 -0.072,-0.091 -0.122,-0.218 -0.149,-0.382 -0.027,-0.163 -0.041,-0.385 -0.041,-0.665zm0.471 0.051c0,0.201 0.007,0.355 0.021,0.462 0.014,0.107 0.04,0.188 0.078,0.243 0.038,0.055 0.092,0.091 0.162,0.109 0.07,0.018 0.17,0.027 0.3,0.027 0.128,0 0.228,-0.01 0.3,-0.03 0.072,-0.02 0.126,-0.057 0.164,-0.113 0.038,-0.056 0.064,-0.136 0.078,-0.242 0.015,-0.106 0.021,-0.258 0.021,-0.456 0,-0.201 -0.008,-0.356 -0.023,-0.465 -0.016,-0.11 -0.043,-0.191 -0.082,-0.245 -0.039,-0.054 -0.093,-0.089 -0.16,-0.104 -0.068,-0.016 -0.168,-0.024 -0.299,-0.024 -0.135,0 -0.237,0.008 -0.305,0.024 -0.068,0.016 -0.12,0.05 -0.158,0.104 -0.038,0.054 -0.063,0.134 -0.077,0.241 -0.014,0.107 -0.021,0.263 -0.021,0.47z"/>
  <polygon id="24" class="fil0" points="58.197,2.44 58.197,0.429 59.312,0.429 59.312,0.026 57.729,0.026 57.729,2.44 "/>
  <path id="25" class="fil0" d="M59.529 1.184c0,-0.239 0.016,-0.434 0.047,-0.583 0.031,-0.149 0.085,-0.268 0.161,-0.356 0.076,-0.088 0.179,-0.15 0.31,-0.189 0.131,-0.038 0.303,-0.056 0.514,-0.056 0.21,0 0.38,0.019 0.511,0.056 0.131,0.038 0.235,0.1 0.311,0.189 0.076,0.088 0.131,0.206 0.163,0.357 0.033,0.15 0.049,0.344 0.049,0.582 0,0.275 -0.017,0.494 -0.049,0.659 -0.033,0.165 -0.087,0.294 -0.163,0.385 -0.076,0.091 -0.18,0.155 -0.308,0.191 -0.129,0.036 -0.301,0.054 -0.514,0.054 -0.226,0 -0.404,-0.018 -0.536,-0.053 -0.131,-0.035 -0.233,-0.098 -0.305,-0.189 -0.072,-0.091 -0.122,-0.218 -0.149,-0.382 -0.027,-0.163 -0.041,-0.385 -0.041,-0.665zm0.471 0.051c0,0.201 0.007,0.355 0.021,0.462 0.014,0.107 0.04,0.188 0.078,0.243 0.038,0.055 0.092,0.091 0.162,0.109 0.07,0.018 0.17,0.027 0.3,0.027 0.128,0 0.228,-0.01 0.3,-0.03 0.072,-0.02 0.126,-0.057 0.164,-0.113 0.038,-0.056 0.064,-0.136 0.078,-0.242 0.015,-0.106 0.021,-0.258 0.021,-0.456 0,-0.201 -0.008,-0.356 -0.023,-0.465 -0.016,-0.11 -0.043,-0.191 -0.082,-0.245 -0.039,-0.054 -0.093,-0.089 -0.16,-0.104 -0.068,-0.016 -0.168,-0.024 -0.299,-0.024 -0.135,0 -0.237,0.008 -0.305,0.024 -0.068,0.016 -0.12,0.05 -0.158,0.104 -0.038,0.054 -0.063,0.134 -0.077,0.241 -0.014,0.107 -0.021,0.263 -0.021,0.47z"/>
  <path id="26" class="fil0" d="M62.872 2.044c0.048,-0.05 0.088,-0.105 0.119,-0.165 0.032,-0.061 0.057,-0.13 0.076,-0.207 0.019,-0.078 0.033,-0.168 0.041,-0.271 0.009,-0.103 0.013,-0.222 0.015,-0.359l0 -1.019 1.747 0 0 2.021 0.216 0 0 0.955 -0.432 0 0 -0.558 -1.531 0 0 0.558 -0.435 0 0 -0.955 0.183 0zm0.703 -1.625l0 0.622c0,0.173 -0.006,0.321 -0.018,0.444 -0.012,0.123 -0.034,0.231 -0.066,0.324 -0.031,0.093 -0.074,0.171 -0.128,0.235l1.045 0 0 -1.625 -0.832 0z"/>
  <path id="27" class="fil0" d="M65.364 1.184c0,-0.239 0.016,-0.434 0.047,-0.583 0.031,-0.149 0.085,-0.268 0.161,-0.356 0.076,-0.088 0.179,-0.15 0.31,-0.189 0.131,-0.038 0.303,-0.056 0.514,-0.056 0.21,0 0.38,0.019 0.511,0.056 0.131,0.038 0.235,0.1 0.311,0.189 0.076,0.088 0.131,0.206 0.163,0.357 0.033,0.15 0.049,0.344 0.049,0.582 0,0.275 -0.017,0.494 -0.049,0.659 -0.033,0.165 -0.087,0.294 -0.163,0.385 -0.076,0.091 -0.18,0.155 -0.308,0.191 -0.129,0.036 -0.301,0.054 -0.514,0.054 -0.226,0 -0.404,-0.018 -0.536,-0.053 -0.131,-0.035 -0.233,-0.098 -0.305,-0.189 -0.072,-0.091 -0.122,-0.218 -0.149,-0.382 -0.027,-0.163 -0.041,-0.385 -0.041,-0.665zm0.471 0.051c0,0.201 0.007,0.355 0.021,0.462 0.014,0.107 0.04,0.188 0.078,0.243 0.038,0.055 0.092,0.091 0.162,0.109 0.07,0.018 0.17,0.027 0.3,0.027 0.128,0 0.228,-0.01 0.3,-0.03 0.072,-0.02 0.126,-0.057 0.164,-0.113 0.038,-0.056 0.064,-0.136 0.078,-0.242 0.015,-0.106 0.021,-0.258 0.021,-0.456 0,-0.201 -0.008,-0.356 -0.023,-0.465 -0.016,-0.11 -0.043,-0.191 -0.082,-0.245 -0.039,-0.054 -0.093,-0.089 -0.16,-0.104 -0.068,-0.016 -0.168,-0.024 -0.299,-0.024 -0.135,0 -0.237,0.008 -0.305,0.024 -0.068,0.016 -0.12,0.05 -0.158,0.104 -0.038,0.054 -0.063,0.134 -0.077,0.241 -0.014,0.107 -0.021,0.263 -0.021,0.47z"/>
  <polygon id="28" class="fil0" points="70.651,0.026 70.651,2.44 70.193,2.44 70.193,0.406 69.433,2.44 69.017,2.44 68.259,0.419 68.259,2.44 67.801,2.44 67.801,0.026 68.559,0.026 69.213,1.818 69.226,1.818 69.868,0.026 "/>
  <path id="29" class="fil0" d="M72.582 1.979l-1.045 0 -0.151 0.461 -0.48 0 0.803 -2.415 0.68 0 0.819 2.415 -0.471 0 -0.154 -0.461zm-0.107 -0.345l-0.418 -1.254 -0.413 1.254 0.831 0z"/>
  <polygon id="30" class="fil0" points="76.386,0.026 76.386,2.44 75.922,2.44 75.922,1.409 74.797,1.409 74.797,2.44 74.333,2.44 74.333,0.026 74.797,0.026 74.797,1.016 75.922,1.016 75.922,0.026 "/>
  <path id="31" class="fil0" d="M78.331 1.979l-1.045 0 -0.151 0.461 -0.48 0 0.803 -2.415 0.68 0 0.819 2.415 -0.471 0 -0.154 -0.461zm-0.107 -0.345l-0.418 -1.254 -0.413 1.254 0.831 0z"/>
  <path id="32" class="fil0" d="M79.22 2.44l0 -2.415 1.028 0c0.211,0 0.38,0.021 0.509,0.063 0.129,0.042 0.227,0.121 0.294,0.236 0.066,0.116 0.099,0.28 0.099,0.494 0,0.165 -0.015,0.302 -0.046,0.408 -0.031,0.106 -0.079,0.191 -0.145,0.252 -0.067,0.061 -0.154,0.105 -0.261,0.13 -0.107,0.025 -0.244,0.038 -0.409,0.038l-0.606 0 0 0.793 -0.464 0zm0.464 -1.18l0.571 0c0.11,0 0.194,-0.011 0.254,-0.034 0.06,-0.023 0.104,-0.062 0.131,-0.119 0.027,-0.057 0.04,-0.139 0.04,-0.247 0,-0.117 -0.013,-0.207 -0.04,-0.271 -0.027,-0.064 -0.071,-0.109 -0.132,-0.134 -0.061,-0.026 -0.146,-0.039 -0.253,-0.039l-0.571 0 0 0.845z"/>
  <path id="33" class="fil0" d="M81.46 1.184c0,-0.239 0.016,-0.434 0.047,-0.583 0.031,-0.149 0.085,-0.268 0.161,-0.356 0.076,-0.088 0.179,-0.15 0.31,-0.189 0.131,-0.038 0.303,-0.056 0.514,-0.056 0.21,0 0.38,0.019 0.511,0.056 0.131,0.038 0.235,0.1 0.311,0.189 0.076,0.088 0.131,0.206 0.163,0.357 0.033,0.15 0.049,0.344 0.049,0.582 0,0.275 -0.017,0.494 -0.049,0.659 -0.033,0.165 -0.087,0.294 -0.163,0.385 -0.076,0.091 -0.18,0.155 -0.308,0.191 -0.129,0.036 -0.301,0.054 -0.514,0.054 -0.226,0 -0.404,-0.018 -0.536,-0.053 -0.131,-0.035 -0.233,-0.098 -0.305,-0.189 -0.072,-0.091 -0.122,-0.218 -0.149,-0.382 -0.027,-0.163 -0.041,-0.385 -0.041,-0.665zm0.471 0.051c0,0.201 0.007,0.355 0.021,0.462 0.014,0.107 0.04,0.188 0.078,0.243 0.038,0.055 0.092,0.091 0.162,0.109 0.07,0.018 0.17,0.027 0.3,0.027 0.128,0 0.228,-0.01 0.3,-0.03 0.072,-0.02 0.126,-0.057 0.164,-0.113 0.038,-0.056 0.064,-0.136 0.078,-0.242 0.015,-0.106 0.021,-0.258 0.021,-0.456 0,-0.201 -0.008,-0.356 -0.023,-0.465 -0.016,-0.11 -0.043,-0.191 -0.082,-0.245 -0.039,-0.054 -0.093,-0.089 -0.16,-0.104 -0.068,-0.016 -0.168,-0.024 -0.299,-0.024 -0.135,0 -0.237,0.008 -0.305,0.024 -0.068,0.016 -0.12,0.05 -0.158,0.104 -0.038,0.054 -0.063,0.134 -0.077,0.241 -0.014,0.107 -0.021,0.263 -0.021,0.47z"/>
  <path id="34" class="fil0" d="M83.942 2.044c0.048,-0.05 0.088,-0.105 0.119,-0.165 0.032,-0.061 0.057,-0.13 0.076,-0.207 0.019,-0.078 0.033,-0.168 0.041,-0.271 0.009,-0.103 0.013,-0.222 0.015,-0.359l0 -1.019 1.747 0 0 2.021 0.216 0 0 0.955 -0.432 0 0 -0.558 -1.531 0 0 0.558 -0.435 0 0 -0.955 0.183 0zm0.703 -1.625l0 0.622c0,0.173 -0.006,0.321 -0.018,0.444 -0.012,0.123 -0.034,0.231 -0.066,0.324 -0.031,0.093 -0.074,0.171 -0.128,0.235l1.045 0 0 -1.625 -0.832 0z"/>
  <polygon id="35" class="fil0" points="88.52,0.026 88.52,2.44 88.056,2.44 88.056,1.409 86.931,1.409 86.931,2.44 86.467,2.44 86.467,0.026 86.931,0.026 86.931,1.016 88.056,1.016 88.056,0.026 "/>
  <path id="36" class="fil0" d="M88.91 1.184c0,-0.239 0.016,-0.434 0.047,-0.583 0.031,-0.149 0.085,-0.268 0.161,-0.356 0.076,-0.088 0.179,-0.15 0.31,-0.189 0.131,-0.038 0.303,-0.056 0.514,-0.056 0.21,0 0.38,0.019 0.511,0.056 0.131,0.038 0.235,0.1 0.311,0.189 0.076,0.088 0.131,0.206 0.163,0.357 0.033,0.15 0.049,0.344 0.049,0.582 0,0.275 -0.017,0.494 -0.049,0.659 -0.033,0.165 -0.087,0.294 -0.163,0.385 -0.076,0.091 -0.18,0.155 -0.308,0.191 -0.129,0.036 -0.301,0.054 -0.514,0.054 -0.226,0 -0.404,-0.018 -0.536,-0.053 -0.131,-0.035 -0.233,-0.098 -0.305,-0.189 -0.072,-0.091 -0.122,-0.218 -0.149,-0.382 -0.027,-0.163 -0.041,-0.385 -0.041,-0.665zm0.471 0.051c0,0.201 0.007,0.355 0.021,0.462 0.014,0.107 0.04,0.188 0.078,0.243 0.038,0.055 0.092,0.091 0.162,0.109 0.07,0.018 0.17,0.027 0.3,0.027 0.128,0 0.228,-0.01 0.3,-0.03 0.072,-0.02 0.126,-0.057 0.164,-0.113 0.038,-0.056 0.064,-0.136 0.078,-0.242 0.015,-0.106 0.021,-0.258 0.021,-0.456 0,-0.201 -0.008,-0.356 -0.023,-0.465 -0.016,-0.11 -0.043,-0.191 -0.082,-0.245 -0.039,-0.054 -0.093,-0.089 -0.16,-0.104 -0.068,-0.016 -0.168,-0.024 -0.299,-0.024 -0.135,0 -0.237,0.008 -0.305,0.024 -0.068,0.016 -0.12,0.05 -0.158,0.104 -0.038,0.054 -0.063,0.134 -0.077,0.241 -0.014,0.107 -0.021,0.263 -0.021,0.47z"/>
  <polygon id="37" class="fil0" points="91.821,2.44 91.821,0.429 92.937,0.429 92.937,0.026 91.354,0.026 91.354,2.44 "/>
  <path id="38" class="fil0" d="M93.153 1.184c0,-0.239 0.016,-0.434 0.047,-0.583 0.031,-0.149 0.085,-0.268 0.161,-0.356 0.076,-0.088 0.179,-0.15 0.31,-0.189 0.131,-0.038 0.303,-0.056 0.514,-0.056 0.21,0 0.38,0.019 0.511,0.056 0.131,0.038 0.235,0.1 0.311,0.189 0.076,0.088 0.131,0.206 0.163,0.357 0.033,0.15 0.049,0.344 0.049,0.582 0,0.275 -0.017,0.494 -0.049,0.659 -0.033,0.165 -0.087,0.294 -0.163,0.385 -0.076,0.091 -0.18,0.155 -0.308,0.191 -0.129,0.036 -0.301,0.054 -0.514,0.054 -0.226,0 -0.404,-0.018 -0.536,-0.053 -0.131,-0.035 -0.233,-0.098 -0.305,-0.189 -0.072,-0.091 -0.122,-0.218 -0.149,-0.382 -0.027,-0.163 -0.041,-0.385 -0.041,-0.665zm0.471 0.051c0,0.201 0.007,0.355 0.021,0.462 0.014,0.107 0.04,0.188 0.078,0.243 0.038,0.055 0.092,0.091 0.162,0.109 0.07,0.018 0.17,0.027 0.3,0.027 0.128,0 0.228,-0.01 0.3,-0.03 0.072,-0.02 0.126,-0.057 0.164,-0.113 0.038,-0.056 0.064,-0.136 0.078,-0.242 0.015,-0.106 0.021,-0.258 0.021,-0.456 0,-0.201 -0.008,-0.356 -0.023,-0.465 -0.016,-0.11 -0.043,-0.191 -0.082,-0.245 -0.039,-0.054 -0.093,-0.089 -0.16,-0.104 -0.068,-0.016 -0.168,-0.024 -0.299,-0.024 -0.135,0 -0.237,0.008 -0.305,0.024 -0.068,0.016 -0.12,0.05 -0.158,0.104 -0.038,0.054 -0.063,0.134 -0.077,0.241 -0.014,0.107 -0.021,0.263 -0.021,0.47z"/>
  <polygon id="39" class="fil0" points="97.025,2.44 97.025,0.429 96.326,0.429 96.326,0.026 98.208,0.026 98.208,0.429 97.493,0.429 97.493,2.44 "/>
  <path id="40" class="fil0" d="M98.963 0.409l0 0.625 0.587 0c0.105,0 0.186,-0.008 0.242,-0.024 0.056,-0.017 0.097,-0.048 0.123,-0.096 0.026,-0.047 0.039,-0.119 0.039,-0.215 0,-0.112 -0.025,-0.188 -0.075,-0.229 -0.05,-0.041 -0.133,-0.061 -0.25,-0.061l-0.665 0zm0 0.97l0 0.677 0.587 0c0.16,0 0.276,-0.025 0.349,-0.075 0.073,-0.05 0.109,-0.14 0.109,-0.27 0,-0.085 -0.012,-0.153 -0.037,-0.201 -0.025,-0.048 -0.064,-0.082 -0.118,-0.102 -0.054,-0.02 -0.127,-0.03 -0.219,-0.03l-0.671 0zm-0.458 1.061l0 -2.415 1.238 0c0.147,0 0.27,0.021 0.369,0.063 0.099,0.042 0.175,0.109 0.227,0.199 0.052,0.09 0.078,0.205 0.078,0.344 0,0.306 -0.115,0.492 -0.345,0.555l0 0.016c0.129,0.02 0.228,0.078 0.297,0.171 0.069,0.094 0.103,0.219 0.103,0.373 0,0.107 -0.014,0.203 -0.042,0.289 -0.028,0.085 -0.071,0.158 -0.129,0.219 -0.057,0.061 -0.129,0.106 -0.215,0.138 -0.086,0.032 -0.188,0.048 -0.304,0.048l-1.277 0z"/>
  <path id="41" class="fil0" d="M100.772 1.184c0,-0.239 0.016,-0.434 0.047,-0.583 0.031,-0.149 0.085,-0.268 0.161,-0.356 0.076,-0.088 0.179,-0.15 0.31,-0.189 0.131,-0.038 0.303,-0.056 0.514,-0.056 0.21,0 0.38,0.019 0.511,0.056 0.131,0.038 0.235,0.1 0.311,0.189 0.076,0.088 0.131,0.206 0.163,0.357 0.033,0.15 0.049,0.344 0.049,0.582 0,0.275 -0.017,0.494 -0.049,0.659 -0.033,0.165 -0.087,0.294 -0.163,0.385 -0.076,0.091 -0.18,0.155 -0.308,0.191 -0.129,0.036 -0.301,0.054 -0.514,0.054 -0.226,0 -0.404,-0.018 -0.536,-0.053 -0.131,-0.035 -0.233,-0.098 -0.305,-0.189 -0.072,-0.091 -0.122,-0.218 -0.149,-0.382 -0.027,-0.163 -0.041,-0.385 -0.041,-0.665zm0.471 0.051c0,0.201 0.007,0.355 0.021,0.462 0.014,0.107 0.04,0.188 0.078,0.243 0.038,0.055 0.092,0.091 0.162,0.109 0.07,0.018 0.17,0.027 0.3,0.027 0.128,0 0.228,-0.01 0.3,-0.03 0.072,-0.02 0.126,-0.057 0.164,-0.113 0.038,-0.056 0.064,-0.136 0.078,-0.242 0.015,-0.106 0.021,-0.258 0.021,-0.456 0,-0.201 -0.008,-0.356 -0.023,-0.465 -0.016,-0.11 -0.043,-0.191 -0.082,-0.245 -0.039,-0.054 -0.093,-0.089 -0.16,-0.104 -0.068,-0.016 -0.168,-0.024 -0.299,-0.024 -0.135,0 -0.237,0.008 -0.305,0.024 -0.068,0.016 -0.12,0.05 -0.158,0.104 -0.038,0.054 -0.063,0.134 -0.077,0.241 -0.014,0.107 -0.021,0.263 -0.021,0.47z"/>
  <path id="42" class="fil0" d="M103.215 2.44l0 -2.415 1.028 0c0.211,0 0.38,0.021 0.509,0.063 0.129,0.042 0.227,0.121 0.294,0.236 0.066,0.116 0.099,0.28 0.099,0.494 0,0.165 -0.015,0.302 -0.046,0.408 -0.031,0.106 -0.079,0.191 -0.145,0.252 -0.067,0.061 -0.154,0.105 -0.261,0.13 -0.107,0.025 -0.244,0.038 -0.409,0.038l-0.606 0 0 0.793 -0.464 0zm0.464 -1.18l0.571 0c0.11,0 0.194,-0.011 0.254,-0.034 0.06,-0.023 0.104,-0.062 0.131,-0.119 0.027,-0.057 0.04,-0.139 0.04,-0.247 0,-0.117 -0.013,-0.207 -0.04,-0.271 -0.027,-0.064 -0.071,-0.109 -0.132,-0.134 -0.061,-0.026 -0.146,-0.039 -0.253,-0.039l-0.571 0 0 0.845z"/>
  <path id="43" class="fil0" d="M107.419 0.026l-0.464 0 0 0.99c-0.069,0.028 -0.142,0.046 -0.22,0.053 -0.077,0.008 -0.193,0.011 -0.348,0.011 -0.116,0 -0.206,-0.012 -0.27,-0.036 -0.063,-0.024 -0.108,-0.062 -0.134,-0.114 -0.025,-0.052 -0.038,-0.122 -0.038,-0.21l0 -0.693 -0.464 0 0 0.68c0,0.18 0.025,0.327 0.076,0.438 0.051,0.112 0.136,0.196 0.257,0.25 0.121,0.055 0.287,0.082 0.499,0.082 0.321,0 0.535,-0.027 0.641,-0.081l0 1.045 0.464 0 0 -2.415z"/>
  <polygon id="44" class="fil0" points="108.296,0.409 108.296,1.038 109.428,1.038 109.428,1.383 108.296,1.383 108.296,2.06 109.496,2.06 109.496,2.44 107.838,2.44 107.838,0.026 109.485,0.026 109.485,0.409 "/>
  <path id="45" class="fil0" d="M111.329 1.576l0.454 0 0 0.141c0,0.187 -0.032,0.334 -0.096,0.443 -0.064,0.109 -0.168,0.186 -0.313,0.234 -0.145,0.048 -0.342,0.071 -0.591,0.071 -0.205,0 -0.372,-0.019 -0.501,-0.058 -0.128,-0.038 -0.231,-0.104 -0.307,-0.198 -0.076,-0.093 -0.13,-0.221 -0.162,-0.384 -0.032,-0.162 -0.048,-0.374 -0.048,-0.637 0,-0.289 0.029,-0.518 0.087,-0.689 0.058,-0.17 0.16,-0.296 0.305,-0.378 0.145,-0.082 0.349,-0.123 0.611,-0.123 0.26,0 0.46,0.03 0.601,0.09 0.14,0.061 0.239,0.15 0.296,0.269 0.057,0.119 0.092,0.277 0.106,0.476l-0.451 0c-0.008,-0.127 -0.028,-0.221 -0.06,-0.282 -0.032,-0.06 -0.085,-0.1 -0.16,-0.122 -0.074,-0.021 -0.185,-0.032 -0.332,-0.032 -0.152,0 -0.264,0.02 -0.336,0.059 -0.072,0.039 -0.122,0.116 -0.15,0.231 -0.028,0.114 -0.042,0.296 -0.042,0.545 0,0.176 0.008,0.318 0.024,0.426 0.016,0.108 0.044,0.191 0.083,0.251 0.04,0.059 0.093,0.1 0.16,0.124 0.068,0.023 0.158,0.034 0.271,0.034 0.145,0 0.256,-0.01 0.334,-0.03 0.078,-0.02 0.134,-0.054 0.168,-0.103 0.033,-0.049 0.049,-0.119 0.049,-0.21l0 -0.151z"/>
  <polygon id="46" class="fil0" points="112.635,2.44 112.635,0.429 111.935,0.429 111.935,0.026 113.817,0.026 113.817,0.429 113.102,0.429 113.102,2.44 "/>
  <path id="47" class="fil0" d="M114.572 0.409l0 0.625 0.587 0c0.105,0 0.186,-0.008 0.242,-0.024 0.056,-0.017 0.097,-0.048 0.123,-0.096 0.026,-0.047 0.039,-0.119 0.039,-0.215 0,-0.112 -0.025,-0.188 -0.075,-0.229 -0.05,-0.041 -0.133,-0.061 -0.25,-0.061l-0.665 0zm0 0.97l0 0.677 0.587 0c0.16,0 0.276,-0.025 0.349,-0.075 0.073,-0.05 0.109,-0.14 0.109,-0.27 0,-0.085 -0.012,-0.153 -0.037,-0.201 -0.025,-0.048 -0.064,-0.082 -0.118,-0.102 -0.054,-0.02 -0.127,-0.03 -0.219,-0.03l-0.671 0zm-0.458 1.061l0 -2.415 1.238 0c0.147,0 0.27,0.021 0.369,0.063 0.099,0.042 0.175,0.109 0.227,0.199 0.052,0.09 0.078,0.205 0.078,0.344 0,0.306 -0.115,0.492 -0.345,0.555l0 0.016c0.129,0.02 0.228,0.078 0.297,0.171 0.069,0.094 0.103,0.219 0.103,0.373 0,0.107 -0.014,0.203 -0.042,0.289 -0.028,0.085 -0.071,0.158 -0.129,0.219 -0.057,0.061 -0.129,0.106 -0.215,0.138 -0.086,0.032 -0.188,0.048 -0.304,0.048l-1.277 0z"/>
  <path id="48" class="fil0" d="M117.936 1.979l-1.045 0 -0.151 0.461 -0.48 0 0.803 -2.415 0.68 0 0.819 2.415 -0.471 0 -0.154 -0.461zm-0.107 -0.345l-0.418 -1.254 -0.413 1.254 0.831 0z"/>
  <path id="49" class="fil0" d="M121.801 0.026l-0.664 0 -0.822 1.618c-0.027,0.055 -0.052,0.103 -0.072,0.143 -0.02,0.04 -0.063,0.125 -0.128,0.254 0.024,-0.116 0.035,-0.259 0.035,-0.429l0 -1.586 -0.464 0 0 2.415 0.664 0 0.822 -1.624c0.028,-0.057 0.055,-0.11 0.079,-0.157 0.024,-0.047 0.064,-0.127 0.12,-0.24 -0.024,0.116 -0.035,0.259 -0.035,0.429l0 1.592 0.464 0 0 -2.415z"/>
  <polygon id="50" class="fil0" points="124.057,0.026 123.594,0.026 123.594,1.009 123.371,1.009 122.665,0.026 122.159,0.026 123.029,1.199 122.068,2.44 122.591,2.44 123.371,1.399 123.594,1.399 123.594,2.44 124.057,2.44 124.057,1.399 124.274,1.399 125.063,2.44 125.579,2.44 124.628,1.199 125.495,0.026 124.983,0.026 124.274,1.009 124.057,1.009 "/>
  <polygon id="51" class="fil0" points="126.301,0.409 126.301,1.038 127.433,1.038 127.433,1.383 126.301,1.383 126.301,2.06 127.501,2.06 127.501,2.44 125.844,2.44 125.844,0.026 127.491,0.026 127.491,0.409 "/>
  <path id="52" class="fil0" d="M128.293 0.409l0 0.625 0.587 0c0.105,0 0.186,-0.008 0.242,-0.024 0.056,-0.017 0.097,-0.048 0.123,-0.096 0.026,-0.047 0.039,-0.119 0.039,-0.215 0,-0.112 -0.025,-0.188 -0.075,-0.229 -0.05,-0.041 -0.133,-0.061 -0.25,-0.061l-0.665 0zm0 0.97l0 0.677 0.587 0c0.16,0 0.276,-0.025 0.349,-0.075 0.073,-0.05 0.109,-0.14 0.109,-0.27 0,-0.085 -0.012,-0.153 -0.037,-0.201 -0.025,-0.048 -0.064,-0.082 -0.118,-0.102 -0.054,-0.02 -0.127,-0.03 -0.219,-0.03l-0.671 0zm-0.458 1.061l0 -2.415 1.238 0c0.147,0 0.27,0.021 0.369,0.063 0.099,0.042 0.175,0.109 0.227,0.199 0.052,0.09 0.078,0.205 0.078,0.344 0,0.306 -0.115,0.492 -0.345,0.555l0 0.016c0.129,0.02 0.228,0.078 0.297,0.171 0.069,0.094 0.103,0.219 0.103,0.373 0,0.107 -0.014,0.203 -0.042,0.289 -0.028,0.085 -0.071,0.158 -0.129,0.219 -0.057,0.061 -0.129,0.106 -0.215,0.138 -0.086,0.032 -0.188,0.048 -0.304,0.048l-1.277 0z"/>
  <path id="53" class="fil0" d="M131.637 1.576l0.454 0 0 0.141c0,0.187 -0.032,0.334 -0.096,0.443 -0.064,0.109 -0.168,0.186 -0.313,0.234 -0.145,0.048 -0.342,0.071 -0.591,0.071 -0.205,0 -0.372,-0.019 -0.501,-0.058 -0.128,-0.038 -0.231,-0.104 -0.307,-0.198 -0.076,-0.093 -0.13,-0.221 -0.162,-0.384 -0.032,-0.162 -0.048,-0.374 -0.048,-0.637 0,-0.289 0.029,-0.518 0.087,-0.689 0.058,-0.17 0.16,-0.296 0.305,-0.378 0.145,-0.082 0.349,-0.123 0.611,-0.123 0.26,0 0.46,0.03 0.601,0.09 0.14,0.061 0.239,0.15 0.296,0.269 0.057,0.119 0.092,0.277 0.106,0.476l-0.451 0c-0.008,-0.127 -0.028,-0.221 -0.06,-0.282 -0.032,-0.06 -0.085,-0.1 -0.16,-0.122 -0.074,-0.021 -0.185,-0.032 -0.332,-0.032 -0.152,0 -0.264,0.02 -0.336,0.059 -0.072,0.039 -0.122,0.116 -0.15,0.231 -0.028,0.114 -0.042,0.296 -0.042,0.545 0,0.176 0.008,0.318 0.024,0.426 0.016,0.108 0.044,0.191 0.083,0.251 0.04,0.059 0.093,0.1 0.16,0.124 0.068,0.023 0.158,0.034 0.271,0.034 0.145,0 0.256,-0.01 0.334,-0.03 0.078,-0.02 0.134,-0.054 0.168,-0.103 0.033,-0.049 0.049,-0.119 0.049,-0.21l0 -0.151z"/>
  <polygon id="54" class="fil0" points="132.839,0.026 132.839,1.012 133.055,1.012 133.861,0.026 134.428,0.026 133.451,1.202 134.531,2.44 133.945,2.44 133.055,1.409 132.839,1.409 132.839,2.44 132.375,2.44 132.375,0.026 "/>
 </g>
</svg>
