<?xml version="1.0" encoding="UTF-8"?>
<!DOCTYPE svg PUBLIC "-//W3C//DTD SVG 1.1//EN" "http://www.w3.org/Graphics/SVG/1.1/DTD/svg11.dtd">
<!-- Creator: CorelDRAW 2019 (64-Bit) -->
<svg xmlns="http://www.w3.org/2000/svg" xml:space="preserve" width="1.12903cm" height="0.14724cm" version="1.1" style="shape-rendering:geometricPrecision; text-rendering:geometricPrecision; image-rendering:optimizeQuality; fill-rule:evenodd; clip-rule:evenodd"
viewBox="0 0 2.862 0.373"
 xmlns:xlink="http://www.w3.org/1999/xlink"
 xmlns:xodm="http://www.corel.com/coreldraw/odm/2003">
 <defs>
  <style type="text/css">
   <![CDATA[
    .fil0 {fill:#454545;fill-rule:nonzero}
   ]]>
  </style>
 </defs>
 <g id="Слой_x0020_1">
  <metadata id="CorelCorpID_0Corel-Layer"/>
  <path class="fil0" d="M-0 0.001l0.031 0 0.077 0.177 0.067 -0.177 0.031 0 -0.088 0.224c-0.011,0.029 -0.021,0.047 -0.028,0.055 -0.007,0.008 -0.017,0.012 -0.03,0.012 -0.009,0 -0.019,-0.002 -0.03,-0.007l0 -0.033c0.008,0.006 0.017,0.009 0.026,0.009 0.008,0 0.014,-0.003 0.02,-0.009 0.005,-0.006 0.012,-0.02 0.018,-0.041l-0.096 -0.212z"/>
  <path id="1" class="fil0" d="M0.253 0.08l0.119 0 0 0.18 0.019 0 0 0.088 -0.024 0 0 -0.059 -0.134 0 0 0.059 -0.024 0 0 -0.088 0.015 0c0.02,-0.033 0.03,-0.093 0.029,-0.18zm0.024 0.029c-0.002,0.068 -0.011,0.118 -0.026,0.151l0.091 0 0 -0.151 -0.066 0z"/>
  <polygon id="2" class="fil0" points="0.423,0.08 0.467,0.08 0.513,0.247 0.563,0.08 0.605,0.08 0.605,0.289 0.576,0.289 0.576,0.121 0.525,0.289 0.499,0.289 0.451,0.112 0.451,0.289 0.423,0.289 "/>
  <path id="3" class="fil0" d="M0.648 0.369l-0.003 -0.033c0.006,0.002 0.012,0.003 0.016,0.003 0.006,0 0.011,-0.001 0.015,-0.004 0.004,-0.002 0.007,-0.006 0.01,-0.012 0.001,-0.002 0.005,-0.014 0.011,-0.036l-0.064 -0.208 0.031 0 0.036 0.12c0.004,0.015 0.009,0.031 0.012,0.048 0.003,-0.016 0.007,-0.032 0.012,-0.047l0.037 -0.121 0.029 0 -0.065 0.212c-0.009,0.027 -0.015,0.046 -0.02,0.055 -0.005,0.009 -0.01,0.016 -0.017,0.02 -0.006,0.004 -0.013,0.006 -0.021,0.006 -0.006,0 -0.012,-0.001 -0.019,-0.004z"/>
  <path id="4" class="fil0" d="M0.814 0.369l0 -0.289 0.027 0 0 0.027c0.007,-0.011 0.014,-0.019 0.022,-0.024 0.008,-0.005 0.017,-0.008 0.027,-0.008 0.013,0 0.026,0.004 0.036,0.012 0.011,0.008 0.02,0.02 0.026,0.036 0.007,0.016 0.01,0.036 0.01,0.059 0,0.035 -0.007,0.063 -0.022,0.082 -0.015,0.019 -0.032,0.029 -0.052,0.029 -0.009,0 -0.017,-0.002 -0.025,-0.007 -0.008,-0.005 -0.014,-0.011 -0.02,-0.019l0 0.101 -0.029 0zm0.027 -0.183c0,0.027 0.004,0.047 0.013,0.06 0.009,0.013 0.02,0.019 0.033,0.019 0.012,0 0.023,-0.007 0.032,-0.02 0.009,-0.013 0.014,-0.034 0.014,-0.061 0,-0.027 -0.005,-0.047 -0.013,-0.061 -0.009,-0.013 -0.02,-0.02 -0.033,-0.02 -0.012,0 -0.022,0.007 -0.032,0.021 -0.009,0.014 -0.014,0.035 -0.014,0.061z"/>
  <polygon id="5" class="fil0" points="0.982,0.08 1.121,0.08 1.121,0.109 1.066,0.109 1.066,0.289 1.037,0.289 1.037,0.109 0.982,0.109 "/>
  <path id="6" class="fil0" d="M1.26 0.213l0.029 0.004c-0.003,0.025 -0.012,0.044 -0.025,0.057 -0.013,0.013 -0.029,0.02 -0.047,0.02 -0.022,0 -0.041,-0.009 -0.055,-0.028 -0.014,-0.018 -0.022,-0.046 -0.022,-0.082 0,-0.036 0.007,-0.064 0.022,-0.082 0.015,-0.018 0.033,-0.027 0.056,-0.027 0.018,0 0.033,0.006 0.045,0.017 0.012,0.011 0.02,0.028 0.023,0.05l-0.028 0.005c-0.003,-0.014 -0.008,-0.025 -0.014,-0.032 -0.007,-0.007 -0.015,-0.011 -0.025,-0.011 -0.014,0 -0.026,0.006 -0.035,0.019 -0.009,0.013 -0.014,0.033 -0.014,0.06 0,0.028 0.004,0.049 0.013,0.062 0.009,0.013 0.02,0.019 0.034,0.019 0.011,0 0.02,-0.004 0.028,-0.013 0.008,-0.008 0.013,-0.022 0.015,-0.039z"/>
  <path id="7" class="fil0" d="M1.314 0.08l0.029 0 0 0.09c0.009,0 0.016,-0.002 0.02,-0.007 0.004,-0.004 0.009,-0.017 0.016,-0.038 0.006,-0.017 0.01,-0.028 0.014,-0.033 0.004,-0.005 0.008,-0.009 0.012,-0.011 0.004,-0.002 0.012,-0.003 0.024,-0.003l0.004 0 0 0.029 -0.009 -0c-0.006,0 -0.01,0.001 -0.013,0.003 -0.003,0.002 -0.005,0.007 -0.007,0.013 -0.007,0.021 -0.012,0.035 -0.016,0.041 -0.004,0.006 -0.01,0.011 -0.018,0.016 0.012,0.004 0.025,0.018 0.037,0.043l0.032 0.065 -0.032 0 -0.031 -0.064c-0.006,-0.013 -0.012,-0.022 -0.016,-0.026 -0.005,-0.004 -0.01,-0.006 -0.017,-0.006l0 0.097 -0.029 0 0 -0.209z"/>
  <polygon id="8" class="fil0" points="1.458,0.08 1.487,0.08 1.487,0.239 1.568,0.08 1.599,0.08 1.599,0.289 1.57,0.289 1.57,0.13 1.489,0.289 1.458,0.289 "/>
  <path id="9" class="fil0" d="M1.759 0.222l0.03 0.004c-0.005,0.022 -0.014,0.039 -0.027,0.05 -0.013,0.011 -0.029,0.017 -0.048,0.017 -0.024,0 -0.044,-0.009 -0.059,-0.028 -0.015,-0.018 -0.023,-0.045 -0.023,-0.08 0,-0.036 0.008,-0.063 0.023,-0.082 0.015,-0.019 0.034,-0.028 0.058,-0.028 0.022,0 0.041,0.009 0.055,0.028 0.015,0.019 0.022,0.045 0.022,0.081l-0 0.009 -0.128 0c0.001,0.024 0.007,0.041 0.016,0.053 0.01,0.012 0.022,0.018 0.035,0.018 0.022,0 0.037,-0.014 0.046,-0.043zm-0.096 -0.058l0.096 0c-0.001,-0.018 -0.005,-0.032 -0.012,-0.041 -0.009,-0.013 -0.021,-0.019 -0.036,-0.019 -0.013,0 -0.024,0.005 -0.033,0.016 -0.009,0.011 -0.014,0.025 -0.015,0.044z"/>
  <path id="10" class="fil0" d="M1.922 0.001l0.031 0 0 0.126c0.014,0 0.025,-0.003 0.03,-0.01 0.006,-0.007 0.013,-0.023 0.022,-0.049 0.007,-0.02 0.013,-0.034 0.017,-0.042 0.005,-0.008 0.011,-0.014 0.019,-0.019 0.008,-0.004 0.019,-0.007 0.032,-0.007 0.004,0 0.008,0 0.012,0.001l0 0.033 -0.006 -0 -0.007 -0c-0.009,0 -0.015,0.002 -0.02,0.007 -0.005,0.005 -0.011,0.018 -0.018,0.039 -0.008,0.024 -0.014,0.039 -0.02,0.045 -0.005,0.007 -0.012,0.012 -0.02,0.016 0.015,0.005 0.03,0.022 0.045,0.051l0.049 0.096 -0.039 0 -0.04 -0.078c-0.012,-0.025 -0.022,-0.04 -0.03,-0.047 -0.008,-0.006 -0.015,-0.01 -0.023,-0.01 -0.001,0 -0.002,0 -0.003,0l0 0.135 -0.031 0 0 -0.288z"/>
  <path id="11" class="fil0" d="M2.124 0.08l0.135 0 0 0.209 -0.029 0 0 -0.18 -0.077 0 0 0.104c0,0.024 -0.001,0.04 -0.002,0.048 -0.001,0.008 -0.005,0.015 -0.011,0.021 -0.006,0.006 -0.015,0.008 -0.026,0.008 -0.007,0 -0.014,-0 -0.023,-0.001l0 -0.03c0.014,-0 0.022,-0.001 0.024,-0.001 0.002,-0.001 0.004,-0.003 0.006,-0.006 0.001,-0.003 0.002,-0.015 0.002,-0.034l0 -0.138z"/>
  <path id="12" class="fil0" d="M2.303 0.08l0.029 0 0 0.087 0.035 0c0.006,-0.061 0.03,-0.092 0.074,-0.092 0.023,0 0.041,0.01 0.054,0.029 0.013,0.019 0.02,0.046 0.02,0.08 0,0.036 -0.007,0.063 -0.02,0.082 -0.013,0.019 -0.032,0.028 -0.055,0.028 -0.022,0 -0.039,-0.009 -0.051,-0.026 -0.013,-0.017 -0.02,-0.041 -0.022,-0.071l-0.035 0 0 0.093 -0.029 0 0 -0.209zm0.139 0.026c-0.014,0 -0.025,0.007 -0.033,0.02 -0.008,0.013 -0.012,0.032 -0.012,0.056 0,0.028 0.004,0.049 0.012,0.063 0.008,0.013 0.018,0.02 0.032,0.02 0.012,0 0.023,-0.006 0.032,-0.017 0.009,-0.012 0.013,-0.032 0.013,-0.061 0,-0.054 -0.015,-0.081 -0.044,-0.081z"/>
  <path id="13" class="fil0" d="M2.539 0.08l0.029 0 0 0.039c0,0.017 0.001,0.03 0.003,0.038 0.002,0.008 0.006,0.014 0.012,0.02 0.006,0.005 0.014,0.008 0.023,0.008 0.011,0 0.025,-0.004 0.043,-0.011l0 -0.094 0.029 0 0 0.209 -0.029 0 0 -0.084c-0.018,0.007 -0.035,0.01 -0.05,0.01 -0.017,0 -0.031,-0.007 -0.043,-0.02 -0.011,-0.013 -0.017,-0.033 -0.017,-0.06l0 -0.055z"/>
  <polygon id="14" class="fil0" points="2.721,0.08 2.75,0.08 2.75,0.239 2.831,0.08 2.862,0.08 2.862,0.289 2.833,0.289 2.833,0.13 2.753,0.289 2.721,0.289 "/>
 </g>
</svg>
