<?xml version="1.0" encoding="UTF-8"?>
<!DOCTYPE svg PUBLIC "-//W3C//DTD SVG 1.1//EN" "http://www.w3.org/Graphics/SVG/1.1/DTD/svg11.dtd">
<!-- Creator: CorelDRAW 2019 (64-Bit) -->
<svg xmlns="http://www.w3.org/2000/svg" xml:space="preserve" width="0.28543cm" height="0.14701cm" version="1.1" style="shape-rendering:geometricPrecision; text-rendering:geometricPrecision; image-rendering:optimizeQuality; fill-rule:evenodd; clip-rule:evenodd"
viewBox="0 0 0.183 0.094"
 xmlns:xlink="http://www.w3.org/1999/xlink"
 xmlns:xodm="http://www.corel.com/coreldraw/odm/2003">
 <defs>
  <style type="text/css">
   <![CDATA[
    .fil0 {fill:#454545;fill-rule:nonzero}
   ]]>
  </style>
 </defs>
 <g id="Слой_x0020_1">
  <metadata id="CorelCorpID_0Corel-Layer"/>
  <path class="fil0" d="M0.046 0.073l-0.008 0 0 -0.029c-0.007,0.003 -0.013,0.005 -0.019,0.005 -0.004,0 -0.008,-0.001 -0.011,-0.003 -0.003,-0.002 -0.005,-0.005 -0.006,-0.009 -0.001,-0.004 -0.002,-0.008 -0.002,-0.015l0 -0.021 0.008 0 0 0.021c0,0.007 0.001,0.012 0.003,0.015 0.002,0.003 0.005,0.004 0.009,0.004 0.005,0 0.011,-0.001 0.017,-0.004l0 -0.036 0.008 0 0 0.073z"/>
  <path id="1" class="fil0" d="M0.057 0.093l-0.001 -0.008c0.002,0.001 0.003,0.001 0.004,0.001 0.002,0 0.003,-0 0.004,-0.001 0.001,-0.001 0.002,-0.002 0.002,-0.003 0,-0 0.001,-0.003 0.003,-0.009l-0.016 -0.053 0.008 0 0.009 0.03c0.001,0.004 0.002,0.008 0.003,0.012 0.001,-0.004 0.002,-0.008 0.003,-0.012l0.009 -0.031 0.007 0 -0.016 0.054c-0.002,0.007 -0.004,0.012 -0.005,0.014 -0.001,0.002 -0.003,0.004 -0.004,0.005 -0.002,0.001 -0.003,0.002 -0.005,0.002 -0.001,0 -0.003,-0 -0.005,-0.001z"/>
  <path id="2" class="fil0" d="M0.099 0.093l0 -0.073 0.007 0 0 0.007c0.002,-0.003 0.003,-0.005 0.005,-0.006 0.002,-0.001 0.004,-0.002 0.007,-0.002 0.003,0 0.006,0.001 0.009,0.003 0.003,0.002 0.005,0.005 0.007,0.009 0.002,0.004 0.002,0.009 0.002,0.015 0,0.009 -0.002,0.016 -0.006,0.021 -0.004,0.005 -0.008,0.007 -0.013,0.007 -0.002,0 -0.004,-0.001 -0.006,-0.002 -0.002,-0.001 -0.004,-0.003 -0.005,-0.005l0 0.026 -0.007 0zm0.007 -0.046c0,0.007 0.001,0.012 0.003,0.015 0.002,0.003 0.005,0.005 0.008,0.005 0.003,0 0.006,-0.002 0.008,-0.005 0.002,-0.003 0.004,-0.009 0.004,-0.015 0,-0.007 -0.001,-0.012 -0.003,-0.015 -0.002,-0.003 -0.005,-0.005 -0.008,-0.005 -0.003,0 -0.006,0.002 -0.008,0.005 -0.002,0.004 -0.004,0.009 -0.004,0.016z"/>
  <path id="3" class="fil0" d="M0.174 0.066c-0.002,0.003 -0.005,0.004 -0.008,0.006 -0.003,0.001 -0.005,0.002 -0.008,0.002 -0.005,0 -0.008,-0.001 -0.011,-0.004 -0.003,-0.003 -0.004,-0.006 -0.004,-0.011 0,-0.003 0.001,-0.006 0.002,-0.008 0.001,-0.002 0.003,-0.004 0.005,-0.006 0.002,-0.001 0.006,-0.002 0.01,-0.003 0.006,-0.001 0.01,-0.002 0.013,-0.003l0 -0.002c0,-0.004 -0.001,-0.006 -0.002,-0.008 -0.002,-0.002 -0.005,-0.003 -0.008,-0.003 -0.003,0 -0.006,0.001 -0.008,0.002 -0.002,0.001 -0.003,0.004 -0.004,0.008l-0.007 -0.001c0.001,-0.006 0.003,-0.01 0.006,-0.012 0.003,-0.003 0.008,-0.004 0.013,-0.004 0.005,0 0.008,0.001 0.011,0.003 0.003,0.002 0.004,0.004 0.005,0.006 0.001,0.003 0.001,0.006 0.001,0.011l0 0.012c0,0.008 0,0.014 0,0.016 0,0.002 0.001,0.004 0.002,0.006l-0.008 0c-0.001,-0.002 -0.001,-0.004 -0.002,-0.006zm-0.001 -0.02c-0.003,0.001 -0.007,0.002 -0.012,0.003 -0.003,0.001 -0.005,0.001 -0.006,0.002 -0.001,0.001 -0.002,0.002 -0.003,0.003 -0.001,0.001 -0.001,0.003 -0.001,0.004 0,0.003 0.001,0.005 0.002,0.006 0.002,0.002 0.004,0.002 0.006,0.002 0.003,0 0.005,-0.001 0.007,-0.002 0.002,-0.001 0.004,-0.003 0.005,-0.005 0.001,-0.002 0.002,-0.006 0.002,-0.01l0 -0.003z"/>
 </g>
</svg>
