<?xml version="1.0" encoding="UTF-8"?>
<!DOCTYPE svg PUBLIC "-//W3C//DTD SVG 1.1//EN" "http://www.w3.org/Graphics/SVG/1.1/DTD/svg11.dtd">
<!-- Creator: CorelDRAW 2019 (64-Bit) -->
<svg xmlns="http://www.w3.org/2000/svg" xml:space="preserve" width="0.97055cm" height="0.14891cm" version="1.1" style="shape-rendering:geometricPrecision; text-rendering:geometricPrecision; image-rendering:optimizeQuality; fill-rule:evenodd; clip-rule:evenodd"
viewBox="0 0 2.124 0.326"
 xmlns:xlink="http://www.w3.org/1999/xlink"
 xmlns:xodm="http://www.corel.com/coreldraw/odm/2003">
 <defs>
  <style type="text/css">
   <![CDATA[
    .fil0 {fill:white;fill-rule:nonzero}
   ]]>
  </style>
 </defs>
 <g id="Слой_x0020_1">
  <metadata id="CorelCorpID_0Corel-Layer"/>
  <path class="fil0" d="M-0 0.253l0 -0.249 0.077 0c0.016,0 0.028,0.002 0.037,0.007 0.009,0.005 0.016,0.012 0.022,0.022 0.006,0.01 0.009,0.021 0.009,0.034 0,0.011 -0.002,0.022 -0.007,0.031 -0.005,0.009 -0.012,0.016 -0.021,0.022 0.012,0.004 0.021,0.012 0.028,0.022 0.007,0.01 0.01,0.023 0.01,0.038 0,0.015 -0.003,0.028 -0.009,0.04 -0.006,0.011 -0.014,0.02 -0.025,0.025 -0.01,0.005 -0.024,0.008 -0.042,0.008l-0.078 0zm0.027 -0.144l0.044 0c0.012,0 0.02,-0.001 0.025,-0.002 0.007,-0.002 0.012,-0.006 0.016,-0.012 0.004,-0.006 0.006,-0.013 0.006,-0.023 0,-0.009 -0.002,-0.016 -0.005,-0.022 -0.003,-0.006 -0.008,-0.01 -0.014,-0.012 -0.006,-0.002 -0.016,-0.003 -0.031,-0.003l-0.041 0 0 0.075zm0 0.115l0.051 0c0.011,0 0.019,-0.001 0.025,-0.003 0.008,-0.003 0.014,-0.008 0.018,-0.015 0.004,-0.007 0.006,-0.015 0.006,-0.025 0,-0.009 -0.002,-0.017 -0.006,-0.024 -0.004,-0.007 -0.009,-0.011 -0.015,-0.014 -0.007,-0.003 -0.017,-0.005 -0.031,-0.005l-0.047 0 0 0.086z"/>
  <path id="1" class="fil0" d="M0.288 0.195l0.026 0.004c-0.004,0.019 -0.012,0.034 -0.023,0.043 -0.011,0.01 -0.025,0.015 -0.042,0.015 -0.021,0 -0.038,-0.008 -0.051,-0.024 -0.013,-0.016 -0.019,-0.039 -0.019,-0.069 0,-0.031 0.007,-0.055 0.02,-0.071 0.013,-0.016 0.03,-0.024 0.05,-0.024 0.019,0 0.035,0.008 0.048,0.024 0.013,0.016 0.019,0.039 0.019,0.07l-0 0.008 -0.11 0c0.001,0.02 0.006,0.036 0.014,0.046 0.008,0.01 0.019,0.016 0.031,0.016 0.019,0 0.032,-0.012 0.039,-0.037zm-0.083 -0.05l0.083 0c-0.001,-0.016 -0.004,-0.027 -0.01,-0.035 -0.008,-0.011 -0.018,-0.017 -0.031,-0.017 -0.011,0 -0.021,0.005 -0.029,0.014 -0.008,0.009 -0.012,0.022 -0.013,0.038z"/>
  <path id="2" class="fil0" d="M0.346 0.322l0 -0.249 0.023 0 0 0.024c0.006,-0.01 0.012,-0.017 0.019,-0.021 0.007,-0.004 0.015,-0.006 0.024,-0.006 0.012,0 0.022,0.003 0.031,0.01 0.009,0.007 0.017,0.017 0.023,0.031 0.006,0.014 0.009,0.031 0.009,0.051 0,0.031 -0.006,0.054 -0.019,0.071 -0.013,0.017 -0.028,0.025 -0.045,0.025 -0.008,0 -0.015,-0.002 -0.022,-0.006 -0.007,-0.004 -0.012,-0.01 -0.017,-0.017l0 0.088 -0.025 0zm0.023 -0.158c0,0.023 0.004,0.04 0.012,0.051 0.008,0.011 0.017,0.017 0.028,0.017 0.011,0 0.02,-0.006 0.028,-0.017 0.008,-0.011 0.012,-0.029 0.012,-0.053 0,-0.024 -0.004,-0.041 -0.012,-0.052 -0.008,-0.011 -0.017,-0.017 -0.028,-0.017 -0.01,0 -0.019,0.006 -0.027,0.018 -0.008,0.012 -0.012,0.03 -0.012,0.053z"/>
  <path id="3" class="fil0" d="M0.488 0.253l0.054 -0.093 -0.05 -0.087 0.031 0 0.023 0.042c0.004,0.008 0.008,0.014 0.01,0.02 0.004,-0.007 0.008,-0.014 0.011,-0.019l0.025 -0.043 0.03 0 -0.051 0.084 0.055 0.096 -0.031 0 -0.031 -0.056 -0.008 -0.015 -0.039 0.071 -0.03 0z"/>
  <polygon id="4" class="fil0" points="0.646,0.073 0.671,0.073 0.671,0.148 0.741,0.148 0.741,0.073 0.766,0.073 0.766,0.253 0.741,0.253 0.741,0.173 0.671,0.173 0.671,0.253 0.646,0.253 "/>
  <path id="5" class="fil0" d="M0.92 0.073l0 0.18 -0.025 0 0 -0.07 -0.014 0c-0.008,0 -0.015,0.001 -0.019,0.004 -0.004,0.003 -0.011,0.012 -0.019,0.027l-0.022 0.039 -0.031 0 0.027 -0.048c0.008,-0.015 0.016,-0.023 0.025,-0.025 -0.014,-0.002 -0.025,-0.009 -0.032,-0.019 -0.007,-0.01 -0.01,-0.022 -0.01,-0.035 0,-0.017 0.005,-0.029 0.014,-0.039 0.009,-0.009 0.022,-0.014 0.039,-0.014l0.068 0zm-0.025 0.025l-0.035 0c-0.015,0 -0.024,0.003 -0.029,0.009 -0.004,0.006 -0.006,0.012 -0.006,0.02 0,0.011 0.003,0.019 0.01,0.024 0.006,0.005 0.017,0.007 0.033,0.007l0.027 0 0 -0.06z"/>
  <path id="6" class="fil0" d="M1.075 0.073l0 0.18 -0.025 0 0 -0.07 -0.014 0c-0.008,0 -0.015,0.001 -0.019,0.004 -0.004,0.003 -0.011,0.012 -0.019,0.027l-0.022 0.039 -0.031 0 0.027 -0.048c0.008,-0.015 0.016,-0.023 0.025,-0.025 -0.014,-0.002 -0.025,-0.009 -0.032,-0.019 -0.007,-0.01 -0.01,-0.022 -0.01,-0.035 0,-0.017 0.005,-0.029 0.014,-0.039 0.009,-0.009 0.022,-0.014 0.039,-0.014l0.068 0zm-0.025 0.025l-0.035 0c-0.015,0 -0.024,0.003 -0.029,0.009 -0.004,0.006 -0.006,0.012 -0.006,0.02 0,0.011 0.003,0.019 0.01,0.024 0.006,0.005 0.017,0.007 0.033,0.007l0.027 0 0 -0.06z"/>
  <path id="7" class="fil0" d="M1.34 0.166l0.027 0.008c-0.006,0.028 -0.016,0.049 -0.031,0.062 -0.015,0.014 -0.033,0.021 -0.055,0.021 -0.019,0 -0.035,-0.005 -0.048,-0.014 -0.013,-0.009 -0.024,-0.024 -0.033,-0.044 -0.009,-0.02 -0.013,-0.044 -0.013,-0.072 0,-0.027 0.004,-0.051 0.013,-0.069 0.009,-0.019 0.02,-0.033 0.035,-0.043 0.015,-0.01 0.031,-0.014 0.049,-0.014 0.02,0 0.037,0.006 0.051,0.018 0.014,0.012 0.024,0.03 0.03,0.054l-0.026 0.008c-0.009,-0.035 -0.027,-0.052 -0.055,-0.052 -0.014,0 -0.025,0.003 -0.035,0.01 -0.01,0.007 -0.018,0.018 -0.024,0.032 -0.006,0.015 -0.009,0.033 -0.009,0.056 0,0.034 0.006,0.06 0.018,0.077 0.012,0.017 0.028,0.026 0.048,0.026 0.015,0 0.027,-0.005 0.038,-0.016 0.011,-0.01 0.018,-0.026 0.021,-0.048z"/>
  <path id="8" class="fil0" d="M1.41 0.073l0.117 0 0 0.18 -0.025 0 0 -0.155 -0.067 0 0 0.09c0,0.02 -0.001,0.034 -0.002,0.041 -0.001,0.007 -0.004,0.013 -0.009,0.018 -0.005,0.005 -0.013,0.007 -0.022,0.007 -0.006,0 -0.012,-0 -0.02,-0.001l0 -0.026c0.012,-0 0.019,-0.001 0.021,-0.001 0.002,-0.001 0.004,-0.002 0.005,-0.005 0.001,-0.003 0.002,-0.013 0.002,-0.029l0 -0.119z"/>
  <path id="9" class="fil0" d="M1.563 0.322l-0.003 -0.028c0.005,0.002 0.01,0.003 0.014,0.003 0.005,0 0.01,-0.001 0.013,-0.003 0.003,-0.002 0.006,-0.005 0.009,-0.01 0.001,-0.002 0.004,-0.012 0.01,-0.031l-0.056 -0.18 0.027 0 0.031 0.104c0.004,0.013 0.007,0.027 0.011,0.041 0.003,-0.014 0.006,-0.028 0.01,-0.041l0.032 -0.104 0.025 0 -0.056 0.183c-0.007,0.024 -0.013,0.039 -0.017,0.047 -0.004,0.008 -0.009,0.014 -0.014,0.017 -0.005,0.004 -0.011,0.005 -0.018,0.005 -0.005,0 -0.01,-0.001 -0.016,-0.004z"/>
  <path id="10" class="fil0" d="M1.726 0.073l0.102 0 0 0.155 0.016 0 0 0.076 -0.021 0 0 -0.051 -0.116 0 0 0.051 -0.021 0 0 -0.076 0.013 0c0.017,-0.029 0.026,-0.081 0.025,-0.155zm0.021 0.025c-0.002,0.059 -0.009,0.102 -0.022,0.13l0.079 0 0 -0.13 -0.057 0z"/>
  <path id="11" class="fil0" d="M1.872 0.073l0.025 0 0 0.078c0.008,0 0.014,-0.002 0.017,-0.006 0.003,-0.004 0.008,-0.015 0.014,-0.032 0.005,-0.014 0.009,-0.024 0.012,-0.028 0.003,-0.005 0.007,-0.008 0.01,-0.009 0.004,-0.001 0.011,-0.002 0.02,-0.002l0.004 0 0 0.025 -0.007 -0c-0.005,0 -0.009,0.001 -0.011,0.003 -0.002,0.002 -0.004,0.006 -0.006,0.011 -0.006,0.018 -0.01,0.03 -0.013,0.035 -0.003,0.005 -0.009,0.01 -0.016,0.014 0.011,0.004 0.021,0.016 0.032,0.037l0.027 0.056 -0.028 0 -0.027 -0.056c-0.005,-0.011 -0.01,-0.019 -0.014,-0.022 -0.004,-0.004 -0.009,-0.005 -0.014,-0.005l0 0.083 -0.025 0 0 -0.18z"/>
  <path id="12" class="fil0" d="M2.092 0.231c-0.008,0.009 -0.017,0.015 -0.026,0.02 -0.009,0.004 -0.018,0.007 -0.028,0.007 -0.015,0 -0.028,-0.005 -0.037,-0.014 -0.009,-0.009 -0.014,-0.022 -0.014,-0.038 0,-0.01 0.002,-0.02 0.006,-0.028 0.004,-0.008 0.01,-0.014 0.018,-0.019 0.007,-0.005 0.019,-0.008 0.034,-0.01 0.02,-0.003 0.035,-0.006 0.045,-0.01l0 -0.008c0,-0.012 -0.002,-0.021 -0.007,-0.026 -0.006,-0.007 -0.016,-0.011 -0.029,-0.011 -0.012,0 -0.02,0.002 -0.026,0.007 -0.006,0.005 -0.01,0.014 -0.013,0.027l-0.025 -0.005c0.004,-0.019 0.011,-0.033 0.021,-0.042 0.011,-0.009 0.026,-0.013 0.046,-0.013 0.016,0 0.028,0.003 0.037,0.009 0.009,0.006 0.014,0.013 0.017,0.022 0.002,0.009 0.003,0.021 0.003,0.038l0 0.041c0,0.028 0.001,0.046 0.002,0.054 0.001,0.007 0.003,0.015 0.006,0.022l-0.026 0c-0.003,-0.006 -0.004,-0.014 -0.005,-0.022zm-0.002 -0.068c-0.009,0.005 -0.023,0.008 -0.041,0.011 -0.011,0.002 -0.018,0.004 -0.022,0.006 -0.004,0.002 -0.007,0.006 -0.01,0.01 -0.002,0.004 -0.003,0.009 -0.003,0.015 0,0.009 0.003,0.015 0.008,0.021 0.005,0.005 0.013,0.008 0.022,0.008 0.009,0 0.017,-0.002 0.024,-0.007 0.007,-0.005 0.013,-0.011 0.016,-0.019 0.004,-0.008 0.005,-0.019 0.005,-0.034l0 -0.011z"/>
 </g>
</svg>
