<?xml version="1.0" encoding="UTF-8"?>
<!DOCTYPE svg PUBLIC "-//W3C//DTD SVG 1.1//EN" "http://www.w3.org/Graphics/SVG/1.1/DTD/svg11.dtd">
<!-- Creator: CorelDRAW 2019 (64-Bit) -->
<svg xmlns="http://www.w3.org/2000/svg" xml:space="preserve" width="0.46897cm" height="0.14891cm" version="1.1" style="shape-rendering:geometricPrecision; text-rendering:geometricPrecision; image-rendering:optimizeQuality; fill-rule:evenodd; clip-rule:evenodd"
viewBox="0 0 0.493 0.156"
 xmlns:xlink="http://www.w3.org/1999/xlink"
 xmlns:xodm="http://www.corel.com/coreldraw/odm/2003">
 <defs>
  <style type="text/css">
   <![CDATA[
    .fil0 {fill:white;fill-rule:nonzero}
   ]]>
  </style>
 </defs>
 <g id="Слой_x0020_1">
  <metadata id="CorelCorpID_0Corel-Layer"/>
  <path class="fil0" d="M-0 0.063c0,-0.02 0.004,-0.036 0.013,-0.047 0.009,-0.011 0.02,-0.016 0.033,-0.016 0.009,0 0.017,0.002 0.024,0.007 0.007,0.005 0.013,0.012 0.017,0.021 0.004,0.009 0.006,0.02 0.006,0.033 0,0.018 -0.004,0.032 -0.012,0.043 -0.009,0.012 -0.02,0.018 -0.035,0.018 -0.014,0 -0.026,-0.006 -0.035,-0.019 -0.008,-0.011 -0.012,-0.025 -0.012,-0.041zm0.013 0c0,0.015 0.003,0.026 0.01,0.034 0.006,0.008 0.014,0.012 0.024,0.012 0.01,0 0.017,-0.004 0.024,-0.012 0.006,-0.008 0.01,-0.02 0.01,-0.036 0,-0.01 -0.002,-0.019 -0.005,-0.028 -0.003,-0.006 -0.006,-0.011 -0.012,-0.015 -0.005,-0.004 -0.011,-0.006 -0.017,-0.006 -0.01,0 -0.018,0.004 -0.024,0.012 -0.006,0.008 -0.01,0.021 -0.01,0.038z"/>
  <polygon id="1" class="fil0" points="0.102,0.035 0.16,0.035 0.16,0.047 0.137,0.047 0.137,0.121 0.125,0.121 0.125,0.047 0.102,0.047 "/>
  <path id="2" class="fil0" d="M0.166 0.078c0,-0.015 0.003,-0.026 0.009,-0.034 0.006,-0.008 0.014,-0.011 0.024,-0.011 0.009,0 0.017,0.004 0.024,0.011 0.006,0.008 0.01,0.019 0.01,0.033 0,0.016 -0.003,0.027 -0.009,0.035 -0.006,0.008 -0.014,0.011 -0.024,0.011 -0.009,0 -0.017,-0.004 -0.024,-0.011 -0.006,-0.008 -0.009,-0.019 -0.009,-0.034zm0.012 -0c0,0.011 0.002,0.02 0.006,0.025 0.004,0.005 0.009,0.008 0.015,0.008 0.006,0 0.01,-0.003 0.014,-0.008 0.004,-0.006 0.006,-0.014 0.006,-0.025 0,-0.011 -0.002,-0.019 -0.006,-0.025 -0.004,-0.005 -0.009,-0.008 -0.015,-0.008 -0.006,0 -0.011,0.003 -0.015,0.008 -0.004,0.005 -0.006,0.014 -0.006,0.025z"/>
  <polygon id="3" class="fil0" points="0.247,0.035 0.288,0.035 0.288,0.047 0.259,0.047 0.259,0.121 0.247,0.121 "/>
  <path id="4" class="fil0" d="M0.296 0.155l-0.001 -0.014c0.003,0.001 0.005,0.001 0.007,0.001 0.003,0 0.005,-0.001 0.006,-0.002 0.002,-0.001 0.003,-0.003 0.004,-0.005 0,-0.001 0.002,-0.006 0.005,-0.015l-0.027 -0.086 0.013 0 0.015 0.05c0.002,0.006 0.004,0.013 0.005,0.02 0.001,-0.007 0.003,-0.013 0.005,-0.02l0.015 -0.05 0.012 0 -0.027 0.088c-0.004,0.011 -0.006,0.019 -0.008,0.023 -0.002,0.004 -0.004,0.007 -0.007,0.008 -0.003,0.002 -0.006,0.003 -0.009,0.003 -0.002,0 -0.005,-0.001 -0.008,-0.002z"/>
  <path id="5" class="fil0" d="M0.365 0.155l0 -0.12 0.011 0 0 0.011c0.003,-0.005 0.006,-0.008 0.009,-0.01 0.003,-0.002 0.007,-0.003 0.011,-0.003 0.006,0 0.011,0.002 0.015,0.005 0.005,0.003 0.008,0.008 0.011,0.015 0.003,0.007 0.004,0.015 0.004,0.024 0,0.015 -0.003,0.026 -0.009,0.034 -0.006,0.008 -0.013,0.012 -0.022,0.012 -0.004,0 -0.007,-0.001 -0.01,-0.003 -0.003,-0.002 -0.006,-0.005 -0.008,-0.008l0 0.042 -0.012 0zm0.011 -0.076c0,0.011 0.002,0.019 0.006,0.025 0.004,0.005 0.008,0.008 0.013,0.008 0.005,0 0.01,-0.003 0.013,-0.008 0.004,-0.005 0.006,-0.014 0.006,-0.025 0,-0.011 -0.002,-0.02 -0.006,-0.025 -0.004,-0.005 -0.008,-0.008 -0.014,-0.008 -0.005,0 -0.009,0.003 -0.013,0.009 -0.004,0.006 -0.006,0.014 -0.006,0.025z"/>
  <polygon id="6" class="fil0" points="0.435,0.035 0.493,0.035 0.493,0.047 0.47,0.047 0.47,0.121 0.458,0.121 0.458,0.047 0.435,0.047 "/>
 </g>
</svg>
