<?xml version="1.0" encoding="UTF-8"?>
<!DOCTYPE svg PUBLIC "-//W3C//DTD SVG 1.1//EN" "http://www.w3.org/Graphics/SVG/1.1/DTD/svg11.dtd">
<!-- Creator: CorelDRAW 2019 (64-Bit) -->
<svg xmlns="http://www.w3.org/2000/svg" xml:space="preserve" width="0.352cm" height="0.14526cm" version="1.1" style="shape-rendering:geometricPrecision; text-rendering:geometricPrecision; image-rendering:optimizeQuality; fill-rule:evenodd; clip-rule:evenodd"
viewBox="0 0 0.277 0.114"
 xmlns:xlink="http://www.w3.org/1999/xlink"
 xmlns:xodm="http://www.corel.com/coreldraw/odm/2003">
 <defs>
  <style type="text/css">
   <![CDATA[
    .fil0 {fill:#454545;fill-rule:nonzero}
   ]]>
  </style>
 </defs>
 <g id="Слой_x0020_1">
  <metadata id="CorelCorpID_0Corel-Layer"/>
  <polygon class="fil0" points="0.01,0.09 -0,0.09 -0,0 0.058,0 0.058,0.09 0.048,0.09 0.048,0.011 0.01,0.011 "/>
  <path id="1" class="fil0" d="M0.107 0.082c-0.003,0.003 -0.006,0.005 -0.009,0.007 -0.003,0.002 -0.007,0.002 -0.01,0.002 -0.006,0 -0.01,-0.002 -0.013,-0.005 -0.003,-0.003 -0.005,-0.008 -0.005,-0.014 0,-0.004 0.001,-0.007 0.002,-0.01 0.002,-0.003 0.004,-0.005 0.006,-0.007 0.003,-0.002 0.007,-0.003 0.012,-0.004 0.007,-0.001 0.013,-0.002 0.016,-0.004l0 -0.003c0,-0.004 -0.001,-0.008 -0.002,-0.009 -0.002,-0.003 -0.006,-0.004 -0.01,-0.004 -0.004,0 -0.007,0.001 -0.009,0.003 -0.002,0.002 -0.004,0.005 -0.005,0.01l-0.009 -0.002c0.001,-0.007 0.004,-0.012 0.008,-0.015 0.004,-0.003 0.009,-0.005 0.017,-0.005 0.006,0 0.01,0.001 0.013,0.003 0.003,0.002 0.005,0.005 0.006,0.008 0.001,0.003 0.001,0.008 0.001,0.014l0 0.015c0,0.01 0,0.017 0.001,0.019 0,0.003 0.001,0.005 0.002,0.008l-0.009 0c-0.001,-0.002 -0.002,-0.005 -0.002,-0.008zm-0.001 -0.025c-0.003,0.002 -0.008,0.003 -0.015,0.004 -0.004,0.001 -0.006,0.001 -0.008,0.002 -0.002,0.001 -0.003,0.002 -0.004,0.004 -0.001,0.002 -0.001,0.003 -0.001,0.005 0,0.003 0.001,0.006 0.003,0.007 0.002,0.002 0.005,0.003 0.008,0.003 0.003,0 0.006,-0.001 0.009,-0.002 0.003,-0.002 0.005,-0.004 0.006,-0.007 0.001,-0.003 0.002,-0.007 0.002,-0.012l0 -0.004z"/>
  <path id="2" class="fil0" d="M0.129 0.114l0 -0.09 0.008 0 0 0.009c0.002,-0.003 0.004,-0.006 0.007,-0.008 0.002,-0.002 0.005,-0.002 0.009,-0.002 0.004,0 0.008,0.001 0.011,0.004 0.003,0.002 0.006,0.006 0.008,0.011 0.002,0.005 0.003,0.011 0.003,0.018 0,0.011 -0.002,0.02 -0.007,0.025 -0.005,0.006 -0.01,0.009 -0.016,0.009 -0.003,0 -0.005,-0.001 -0.008,-0.002 -0.002,-0.001 -0.004,-0.003 -0.006,-0.006l0 0.032 -0.009 0zm0.008 -0.057c0,0.008 0.001,0.015 0.004,0.019 0.003,0.004 0.006,0.006 0.01,0.006 0.004,0 0.007,-0.002 0.01,-0.006 0.003,-0.004 0.004,-0.01 0.004,-0.019 0,-0.008 -0.001,-0.015 -0.004,-0.019 -0.003,-0.004 -0.006,-0.006 -0.01,-0.006 -0.004,0 -0.007,0.002 -0.01,0.007 -0.003,0.004 -0.004,0.011 -0.004,0.019z"/>
  <path id="3" class="fil0" d="M0.198 0.06l0 -0.008c0.004,-0 0.006,-0 0.008,-0.001 0.001,-0 0.003,-0.001 0.004,-0.003 0.001,-0.002 0.002,-0.004 0.002,-0.006 0,-0.003 -0.001,-0.005 -0.002,-0.007 -0.002,-0.002 -0.004,-0.003 -0.006,-0.003 -0.005,0 -0.009,0.004 -0.011,0.011l-0.008 -0.002c0.003,-0.012 0.009,-0.018 0.019,-0.018 0.006,0 0.01,0.002 0.013,0.006 0.003,0.004 0.005,0.008 0.005,0.014 0,0.005 -0.002,0.009 -0.006,0.013 0.005,0.004 0.008,0.009 0.008,0.016 0,0.006 -0.002,0.011 -0.005,0.014 -0.003,0.004 -0.008,0.005 -0.014,0.005 -0.012,0 -0.019,-0.007 -0.021,-0.02l0.008 -0.002c0.001,0.004 0.002,0.007 0.005,0.01 0.002,0.002 0.005,0.003 0.008,0.003 0.003,0 0.006,-0.001 0.008,-0.003 0.002,-0.002 0.003,-0.005 0.003,-0.008 0,-0.003 -0.001,-0.005 -0.002,-0.007 -0.001,-0.002 -0.003,-0.003 -0.004,-0.003 -0.001,-0 -0.004,-0.001 -0.007,-0.001l-0.003 0z"/>
  <polygon id="4" class="fil0" points="0.233,0.025 0.242,0.025 0.242,0.074 0.268,0.025 0.277,0.025 0.277,0.09 0.268,0.09 0.268,0.04 0.243,0.09 0.233,0.09 "/>
 </g>
</svg>
