<?xml version="1.0" encoding="UTF-8"?>
<!DOCTYPE svg PUBLIC "-//W3C//DTD SVG 1.1//EN" "http://www.w3.org/Graphics/SVG/1.1/DTD/svg11.dtd">
<!-- Creator: CorelDRAW 2019 (64-Bit) -->
<svg xmlns="http://www.w3.org/2000/svg" xml:space="preserve" width="0.53181cm" height="0.14724cm" version="1.1" style="shape-rendering:geometricPrecision; text-rendering:geometricPrecision; image-rendering:optimizeQuality; fill-rule:evenodd; clip-rule:evenodd"
viewBox="0 0 0.634 0.176"
 xmlns:xlink="http://www.w3.org/1999/xlink"
 xmlns:xodm="http://www.corel.com/coreldraw/odm/2003">
 <defs>
  <style type="text/css">
   <![CDATA[
    .fil0 {fill:#454545;fill-rule:nonzero}
   ]]>
  </style>
 </defs>
 <g id="Слой_x0020_1">
  <metadata id="CorelCorpID_0Corel-Layer"/>
  <path class="fil0" d="M-0 0l0.015 0 0 0.059c0.007,0 0.012,-0.002 0.014,-0.005 0.003,-0.003 0.006,-0.011 0.01,-0.023 0.003,-0.009 0.006,-0.016 0.008,-0.02 0.002,-0.004 0.005,-0.007 0.009,-0.009 0.004,-0.002 0.009,-0.003 0.015,-0.003 0.002,0 0.004,0 0.006,0l0 0.016 -0.003 -0 -0.003 -0c-0.004,0 -0.007,0.001 -0.01,0.003 -0.002,0.002 -0.005,0.008 -0.008,0.019 -0.004,0.011 -0.007,0.018 -0.009,0.021 -0.003,0.003 -0.006,0.006 -0.009,0.007 0.007,0.002 0.014,0.01 0.021,0.024l0.023 0.045 -0.018 0 -0.019 -0.037c-0.006,-0.012 -0.011,-0.019 -0.014,-0.022 -0.004,-0.003 -0.007,-0.005 -0.011,-0.005 -0,0 -0.001,0 -0.001,0l0 0.063 -0.015 0 0 -0.136z"/>
  <path id="1" class="fil0" d="M0.088 0.174l-0.002 -0.016c0.003,0.001 0.006,0.002 0.008,0.002 0.003,0 0.005,-0.001 0.007,-0.002 0.002,-0.001 0.003,-0.003 0.005,-0.005 0,-0.001 0.002,-0.006 0.005,-0.017l-0.03 -0.098 0.015 0 0.017 0.056c0.002,0.007 0.004,0.015 0.006,0.023 0.002,-0.008 0.003,-0.015 0.006,-0.022l0.017 -0.057 0.014 0 -0.031 0.1c-0.004,0.013 -0.007,0.022 -0.009,0.026 -0.002,0.004 -0.005,0.007 -0.008,0.009 -0.003,0.002 -0.006,0.003 -0.01,0.003 -0.003,0 -0.005,-0.001 -0.009,-0.002z"/>
  <path id="2" class="fil0" d="M0.166 0.174l0 -0.136 0.013 0 0 0.013c0.003,-0.005 0.006,-0.009 0.01,-0.011 0.004,-0.002 0.008,-0.004 0.013,-0.004 0.006,0 0.012,0.002 0.017,0.006 0.005,0.004 0.009,0.009 0.012,0.017 0.003,0.008 0.005,0.017 0.005,0.028 0,0.017 -0.003,0.03 -0.01,0.039 -0.007,0.009 -0.015,0.014 -0.025,0.014 -0.004,0 -0.008,-0.001 -0.012,-0.003 -0.004,-0.002 -0.007,-0.005 -0.009,-0.009l0 0.048 -0.014 0zm0.013 -0.086c0,0.013 0.002,0.022 0.006,0.028 0.004,0.006 0.009,0.009 0.015,0.009 0.006,0 0.011,-0.003 0.015,-0.009 0.004,-0.006 0.007,-0.016 0.007,-0.029 0,-0.013 -0.002,-0.022 -0.006,-0.028 -0.004,-0.006 -0.009,-0.009 -0.015,-0.009 -0.005,0 -0.01,0.003 -0.015,0.01 -0.004,0.007 -0.007,0.016 -0.007,0.029z"/>
  <path id="3" class="fil0" d="M0.307 0.104l0.014 0.002c-0.002,0.01 -0.007,0.018 -0.013,0.024 -0.006,0.005 -0.014,0.008 -0.023,0.008 -0.011,0 -0.021,-0.004 -0.028,-0.013 -0.007,-0.009 -0.011,-0.021 -0.011,-0.037 0,-0.017 0.004,-0.03 0.011,-0.039 0.007,-0.009 0.016,-0.013 0.027,-0.013 0.01,0 0.019,0.004 0.026,0.013 0.007,0.009 0.01,0.021 0.01,0.038l-0 0.004 -0.06 0c0.001,0.011 0.003,0.019 0.008,0.025 0.005,0.006 0.01,0.008 0.017,0.008 0.01,0 0.017,-0.007 0.021,-0.02zm-0.045 -0.027l0.045 0c-0.001,-0.009 -0.002,-0.015 -0.005,-0.019 -0.004,-0.006 -0.01,-0.009 -0.017,-0.009 -0.006,0 -0.011,0.003 -0.016,0.008 -0.004,0.005 -0.007,0.012 -0.007,0.021z"/>
  <polygon id="4" class="fil0" points="0.339,0.038 0.385,0.038 0.385,0.051 0.353,0.051 0.353,0.136 0.339,0.136 "/>
  <path id="5" class="fil0" d="M0.39 0.087c0,-0.017 0.004,-0.03 0.011,-0.038 0.007,-0.009 0.016,-0.013 0.027,-0.013 0.011,0 0.02,0.004 0.027,0.013 0.007,0.009 0.011,0.021 0.011,0.037 0,0.018 -0.004,0.031 -0.011,0.039 -0.007,0.009 -0.016,0.013 -0.027,0.013 -0.011,0 -0.02,-0.004 -0.027,-0.013 -0.007,-0.009 -0.011,-0.021 -0.011,-0.038zm0.014 -0c0,0.013 0.002,0.022 0.007,0.028 0.005,0.006 0.01,0.009 0.017,0.009 0.006,0 0.012,-0.003 0.016,-0.009 0.005,-0.006 0.007,-0.016 0.007,-0.028 0,-0.013 -0.002,-0.022 -0.007,-0.028 -0.005,-0.006 -0.01,-0.009 -0.017,-0.009 -0.006,0 -0.012,0.003 -0.016,0.009 -0.005,0.006 -0.007,0.016 -0.007,0.028z"/>
  <path id="6" class="fil0" d="M0.482 0.038l0.032 0c0.007,0 0.013,0.001 0.016,0.002 0.004,0.001 0.007,0.004 0.01,0.008 0.003,0.004 0.005,0.009 0.005,0.016 0,0.009 -0.003,0.016 -0.01,0.021 0.009,0.004 0.013,0.012 0.013,0.024 0,0.008 -0.002,0.014 -0.007,0.019 -0.005,0.005 -0.012,0.008 -0.023,0.008l-0.037 0 0 -0.098zm0.014 0.041l0.015 0c0.006,0 0.01,-0 0.012,-0.001 0.002,-0.001 0.004,-0.002 0.006,-0.004 0.002,-0.002 0.003,-0.005 0.003,-0.008 0,-0.005 -0.002,-0.009 -0.005,-0.011 -0.003,-0.002 -0.008,-0.003 -0.015,-0.003l-0.015 0 0 0.027zm0 0.043l0.018 0c0.008,0 0.013,-0.001 0.016,-0.004 0.003,-0.002 0.004,-0.006 0.004,-0.011 0,-0.005 -0.002,-0.009 -0.005,-0.011 -0.003,-0.002 -0.009,-0.003 -0.017,-0.003l-0.017 0 0 0.03z"/>
  <path id="7" class="fil0" d="M0.559 0.087c0,-0.017 0.004,-0.03 0.011,-0.038 0.007,-0.009 0.016,-0.013 0.027,-0.013 0.011,0 0.02,0.004 0.027,0.013 0.007,0.009 0.011,0.021 0.011,0.037 0,0.018 -0.004,0.031 -0.011,0.039 -0.007,0.009 -0.016,0.013 -0.027,0.013 -0.011,0 -0.02,-0.004 -0.027,-0.013 -0.007,-0.009 -0.011,-0.021 -0.011,-0.038zm0.014 -0c0,0.013 0.002,0.022 0.007,0.028 0.005,0.006 0.01,0.009 0.017,0.009 0.006,0 0.012,-0.003 0.016,-0.009 0.005,-0.006 0.007,-0.016 0.007,-0.028 0,-0.013 -0.002,-0.022 -0.007,-0.028 -0.005,-0.006 -0.01,-0.009 -0.017,-0.009 -0.006,0 -0.012,0.003 -0.016,0.009 -0.005,0.006 -0.007,0.016 -0.007,0.028z"/>
 </g>
</svg>
