<?xml version="1.0" encoding="UTF-8"?>
<!DOCTYPE svg PUBLIC "-//W3C//DTD SVG 1.1//EN" "http://www.w3.org/Graphics/SVG/1.1/DTD/svg11.dtd">
<!-- Creator: CorelDRAW 2019 (64-Bit) -->
<svg xmlns="http://www.w3.org/2000/svg" xml:space="preserve" width="0.70758cm" height="0.14716cm" version="1.1" style="shape-rendering:geometricPrecision; text-rendering:geometricPrecision; image-rendering:optimizeQuality; fill-rule:evenodd; clip-rule:evenodd"
viewBox="0 0 1.125 0.234"
 xmlns:xlink="http://www.w3.org/1999/xlink"
 xmlns:xodm="http://www.corel.com/coreldraw/odm/2003">
 <defs>
  <style type="text/css">
   <![CDATA[
    .fil0 {fill:white;fill-rule:nonzero}
   ]]>
  </style>
 </defs>
 <g id="Слой_x0020_1">
  <metadata id="CorelCorpID_0Corel-Layer"/>
  <path class="fil0" d="M-0 0.133l0.019 -0.006c0.001,0.009 0.005,0.017 0.011,0.026 0.006,0.009 0.014,0.013 0.025,0.013 0.01,0 0.018,-0.003 0.024,-0.009 0.006,-0.006 0.009,-0.014 0.009,-0.024 0,-0.01 -0.003,-0.018 -0.01,-0.024 -0.006,-0.006 -0.015,-0.009 -0.026,-0.009l-0.009 0 0 -0.021c0.009,0 0.016,-0.001 0.02,-0.002 0.005,-0.001 0.009,-0.004 0.013,-0.01 0.004,-0.005 0.006,-0.011 0.006,-0.018 0,-0.007 -0.002,-0.014 -0.007,-0.02 -0.005,-0.006 -0.012,-0.009 -0.021,-0.009 -0.007,0 -0.013,0.002 -0.018,0.006 -0.005,0.004 -0.009,0.01 -0.011,0.017 -0.002,0.007 -0.003,0.013 -0.003,0.018l-0.019 -0.005c0.005,-0.038 0.022,-0.058 0.052,-0.058 0.015,0 0.026,0.005 0.034,0.015 0.008,0.01 0.013,0.021 0.013,0.034 0,0.017 -0.007,0.03 -0.02,0.039 0.008,0.003 0.014,0.008 0.019,0.016 0.005,0.008 0.008,0.017 0.008,0.028 0,0.016 -0.005,0.029 -0.015,0.039 -0.01,0.01 -0.023,0.016 -0.039,0.016 -0.028,0 -0.046,-0.018 -0.055,-0.054z"/>
  <path id="1" class="fil0" d="M0.124 0.118c0,-0.023 0.005,-0.04 0.014,-0.051 0.009,-0.011 0.022,-0.017 0.036,-0.017 0.014,0 0.026,0.006 0.036,0.017 0.01,0.012 0.014,0.028 0.014,0.05 0,0.023 -0.005,0.041 -0.014,0.053 -0.009,0.011 -0.021,0.017 -0.036,0.017 -0.014,0 -0.026,-0.006 -0.036,-0.017 -0.01,-0.012 -0.014,-0.029 -0.014,-0.051zm0.019 -0c0,0.017 0.003,0.03 0.009,0.038 0.006,0.008 0.014,0.012 0.023,0.012 0.008,0 0.016,-0.004 0.022,-0.013 0.006,-0.008 0.009,-0.021 0.009,-0.038 0,-0.017 -0.003,-0.029 -0.009,-0.038 -0.006,-0.008 -0.014,-0.012 -0.023,-0.012 -0.009,0 -0.016,0.004 -0.022,0.012 -0.006,0.008 -0.009,0.021 -0.009,0.038z"/>
  <path id="2" class="fil0" d="M0.255 0.053l0.085 0 0 0.131 -0.018 0 0 -0.113 -0.048 0 0 0.065c0,0.015 -0,0.025 -0.001,0.03 -0.001,0.005 -0.003,0.009 -0.007,0.013 -0.004,0.004 -0.009,0.005 -0.016,0.005 -0.004,0 -0.009,-0 -0.014,-0.001l0 -0.019c0.009,-0 0.014,-0 0.015,-0.001 0.002,-0 0.003,-0.002 0.004,-0.004 0.001,-0.002 0.001,-0.009 0.001,-0.021l0 -0.086z"/>
  <path id="3" class="fil0" d="M0.36 0.118c0,-0.023 0.005,-0.04 0.014,-0.051 0.009,-0.011 0.022,-0.017 0.036,-0.017 0.014,0 0.026,0.006 0.036,0.017 0.01,0.012 0.014,0.028 0.014,0.05 0,0.023 -0.005,0.041 -0.014,0.053 -0.009,0.011 -0.021,0.017 -0.036,0.017 -0.014,0 -0.026,-0.006 -0.036,-0.017 -0.01,-0.012 -0.014,-0.029 -0.014,-0.051zm0.019 -0c0,0.017 0.003,0.03 0.009,0.038 0.006,0.008 0.014,0.012 0.023,0.012 0.008,0 0.016,-0.004 0.022,-0.013 0.006,-0.008 0.009,-0.021 0.009,-0.038 0,-0.017 -0.003,-0.029 -0.009,-0.038 -0.006,-0.008 -0.014,-0.012 -0.023,-0.012 -0.009,0 -0.016,0.004 -0.022,0.012 -0.006,0.008 -0.009,0.021 -0.009,0.038z"/>
  <polygon id="4" class="fil0" points="0.472,0.053 0.559,0.053 0.559,0.071 0.525,0.071 0.525,0.184 0.506,0.184 0.506,0.071 0.472,0.071 "/>
  <path id="5" class="fil0" d="M0.646 0.168c-0.006,0.006 -0.012,0.011 -0.019,0.014 -0.007,0.003 -0.013,0.005 -0.02,0.005 -0.011,0 -0.02,-0.003 -0.027,-0.01 -0.007,-0.007 -0.01,-0.016 -0.01,-0.027 0,-0.008 0.002,-0.014 0.005,-0.02 0.003,-0.006 0.007,-0.01 0.013,-0.014 0.005,-0.003 0.014,-0.006 0.025,-0.007 0.015,-0.002 0.026,-0.005 0.033,-0.008l0 -0.006c0,-0.009 -0.002,-0.015 -0.005,-0.019 -0.005,-0.005 -0.011,-0.008 -0.021,-0.008 -0.008,0 -0.015,0.002 -0.019,0.005 -0.004,0.003 -0.007,0.01 -0.009,0.02l-0.018 -0.003c0.003,-0.014 0.008,-0.024 0.015,-0.03 0.008,-0.006 0.019,-0.01 0.033,-0.01 0.011,0 0.02,0.002 0.027,0.006 0.006,0.004 0.01,0.009 0.012,0.016 0.002,0.006 0.003,0.015 0.003,0.027l0 0.03c0,0.021 0,0.034 0.001,0.039 0.001,0.005 0.002,0.011 0.005,0.016l-0.019 0c-0.002,-0.005 -0.003,-0.01 -0.004,-0.016zm-0.001 -0.05c-0.007,0.003 -0.017,0.006 -0.03,0.008 -0.008,0.001 -0.013,0.003 -0.016,0.005 -0.003,0.002 -0.005,0.004 -0.007,0.007 -0.002,0.003 -0.003,0.007 -0.003,0.011 0,0.006 0.002,0.011 0.006,0.015 0.004,0.004 0.009,0.006 0.016,0.006 0.007,0 0.012,-0.002 0.018,-0.005 0.005,-0.003 0.009,-0.008 0.012,-0.014 0.003,-0.006 0.004,-0.014 0.004,-0.025l0 -0.008z"/>
  <path id="6" class="fil0" d="M0.691 0.234l0 -0.181 0.017 0 0 0.017c0.004,-0.007 0.009,-0.012 0.014,-0.015 0.005,-0.003 0.011,-0.005 0.017,-0.005 0.008,0 0.016,0.003 0.023,0.008 0.007,0.005 0.012,0.013 0.016,0.023 0.004,0.01 0.006,0.023 0.006,0.037 0,0.022 -0.005,0.039 -0.014,0.051 -0.009,0.012 -0.02,0.018 -0.033,0.018 -0.006,0 -0.011,-0.001 -0.016,-0.004 -0.005,-0.003 -0.009,-0.007 -0.013,-0.012l0 0.064 -0.018 0zm0.017 -0.115c0,0.017 0.003,0.029 0.008,0.037 0.006,0.008 0.012,0.012 0.02,0.012 0.008,0 0.014,-0.004 0.02,-0.012 0.006,-0.008 0.009,-0.021 0.009,-0.038 0,-0.017 -0.003,-0.03 -0.008,-0.038 -0.006,-0.008 -0.012,-0.012 -0.021,-0.012 -0.007,0 -0.014,0.004 -0.02,0.013 -0.006,0.009 -0.009,0.022 -0.009,0.039z"/>
  <path id="7" class="fil0" d="M0.88 0.142l0.019 0.003c-0.003,0.014 -0.009,0.024 -0.017,0.032 -0.008,0.007 -0.018,0.011 -0.03,0.011 -0.015,0 -0.028,-0.006 -0.037,-0.017 -0.009,-0.012 -0.014,-0.028 -0.014,-0.05 0,-0.023 0.005,-0.04 0.014,-0.052 0.01,-0.012 0.022,-0.018 0.036,-0.018 0.014,0 0.025,0.006 0.035,0.017 0.009,0.012 0.014,0.029 0.014,0.051l-0 0.006 -0.08 0c0.001,0.015 0.004,0.026 0.01,0.033 0.006,0.008 0.014,0.011 0.022,0.011 0.014,0 0.023,-0.009 0.029,-0.027zm-0.06 -0.036l0.06 0c-0.001,-0.011 -0.003,-0.02 -0.007,-0.025 -0.006,-0.008 -0.013,-0.012 -0.022,-0.012 -0.008,0 -0.015,0.003 -0.021,0.01 -0.006,0.007 -0.009,0.016 -0.01,0.027z"/>
  <path id="8" class="fil0" d="M0.922 0.053l0.042 0c0.01,0 0.017,0.001 0.022,0.003 0.005,0.002 0.01,0.006 0.014,0.011 0.004,0.006 0.006,0.013 0.006,0.021 0,0.012 -0.004,0.022 -0.013,0.028 0.012,0.005 0.018,0.016 0.018,0.032 0,0.01 -0.003,0.019 -0.009,0.026 -0.006,0.007 -0.016,0.011 -0.031,0.011l-0.049 0 0 -0.131zm0.018 0.055l0.02 0c0.008,0 0.013,-0.001 0.016,-0.001 0.003,-0.001 0.006,-0.003 0.008,-0.006 0.002,-0.003 0.003,-0.007 0.003,-0.011 0,-0.007 -0.002,-0.012 -0.006,-0.014 -0.004,-0.003 -0.011,-0.004 -0.021,-0.004l-0.02 0 0 0.037zm0 0.058l0.024 0c0.01,0 0.018,-0.002 0.022,-0.005 0.004,-0.003 0.006,-0.008 0.006,-0.015 0,-0.007 -0.002,-0.012 -0.006,-0.015 -0.004,-0.003 -0.012,-0.005 -0.023,-0.005l-0.022 0 0 0.04z"/>
  <path id="9" class="fil0" d="M1.025 0.118c0,-0.023 0.005,-0.04 0.014,-0.051 0.009,-0.011 0.022,-0.017 0.036,-0.017 0.014,0 0.026,0.006 0.036,0.017 0.01,0.012 0.014,0.028 0.014,0.05 0,0.023 -0.005,0.041 -0.014,0.053 -0.009,0.011 -0.021,0.017 -0.036,0.017 -0.014,0 -0.026,-0.006 -0.036,-0.017 -0.01,-0.012 -0.014,-0.029 -0.014,-0.051zm0.019 -0c0,0.017 0.003,0.03 0.009,0.038 0.006,0.008 0.014,0.012 0.023,0.012 0.008,0 0.016,-0.004 0.022,-0.013 0.006,-0.008 0.009,-0.021 0.009,-0.038 0,-0.017 -0.003,-0.029 -0.009,-0.038 -0.006,-0.008 -0.014,-0.012 -0.023,-0.012 -0.009,0 -0.016,0.004 -0.022,0.012 -0.006,0.008 -0.009,0.021 -0.009,0.038z"/>
 </g>
</svg>
