<?xml version="1.0" encoding="UTF-8"?>
<!DOCTYPE svg PUBLIC "-//W3C//DTD SVG 1.1//EN" "http://www.w3.org/Graphics/SVG/1.1/DTD/svg11.dtd">
<!-- Creator: CorelDRAW 2019 (64-Bit) -->
<svg xmlns="http://www.w3.org/2000/svg" xml:space="preserve" width="0.37157cm" height="0.14701cm" version="1.1" style="shape-rendering:geometricPrecision; text-rendering:geometricPrecision; image-rendering:optimizeQuality; fill-rule:evenodd; clip-rule:evenodd"
viewBox="0 0 0.311 0.123"
 xmlns:xlink="http://www.w3.org/1999/xlink"
 xmlns:xodm="http://www.corel.com/coreldraw/odm/2003">
 <defs>
  <style type="text/css">
   <![CDATA[
    .fil0 {fill:#454545;fill-rule:nonzero}
   ]]>
  </style>
 </defs>
 <g id="Слой_x0020_1">
  <metadata id="CorelCorpID_0Corel-Layer"/>
  <polygon class="fil0" points="-0,0 0.01,0 0.01,0.084 0.036,0.084 0.036,0 0.046,0 0.046,0.084 0.072,0.084 0.072,0 0.083,0 0.083,0.095 -0,0.095 "/>
  <path id="1" class="fil0" d="M0.098 0.122l-0.001 -0.011c0.002,0.001 0.004,0.001 0.005,0.001 0.002,0 0.004,-0 0.005,-0.001 0.001,-0.001 0.002,-0.002 0.003,-0.004 0,-0.001 0.002,-0.005 0.004,-0.012l-0.021 -0.069 0.01 0 0.012 0.04c0.001,0.005 0.003,0.01 0.004,0.016 0.001,-0.005 0.002,-0.011 0.004,-0.016l0.012 -0.04 0.01 0 -0.021 0.07c-0.003,0.009 -0.005,0.015 -0.007,0.018 -0.002,0.003 -0.003,0.005 -0.006,0.007 -0.002,0.001 -0.004,0.002 -0.007,0.002 -0.002,0 -0.004,-0 -0.006,-0.001z"/>
  <path id="2" class="fil0" d="M0.161 0.026l0.039 0 0 0.059 0.006 0 0 0.029 -0.008 0 0 -0.02 -0.044 0 0 0.02 -0.008 0 0 -0.029 0.005 0c0.007,-0.011 0.01,-0.031 0.01,-0.059zm0.008 0.01c-0.001,0.022 -0.004,0.039 -0.009,0.05l0.03 0 0 -0.05 -0.022 0z"/>
  <path id="3" class="fil0" d="M0.229 0.064l0 -0.009c0.004,-0 0.007,-0 0.008,-0.001 0.001,-0 0.003,-0.001 0.004,-0.003 0.001,-0.002 0.002,-0.004 0.002,-0.007 0,-0.003 -0.001,-0.006 -0.003,-0.008 -0.002,-0.002 -0.004,-0.003 -0.007,-0.003 -0.005,0 -0.009,0.004 -0.011,0.012l-0.009 -0.002c0.003,-0.013 0.01,-0.019 0.02,-0.019 0.006,0 0.011,0.002 0.014,0.006 0.003,0.004 0.005,0.009 0.005,0.014 0,0.005 -0.002,0.01 -0.007,0.013 0.006,0.004 0.009,0.01 0.009,0.017 0,0.006 -0.002,0.011 -0.005,0.015 -0.004,0.004 -0.009,0.006 -0.015,0.006 -0.013,0 -0.02,-0.007 -0.022,-0.021l0.009 -0.002c0.001,0.004 0.002,0.008 0.005,0.01 0.003,0.002 0.005,0.004 0.009,0.004 0.003,0 0.006,-0.001 0.008,-0.003 0.002,-0.002 0.003,-0.005 0.003,-0.009 0,-0.003 -0.001,-0.005 -0.002,-0.007 -0.001,-0.002 -0.003,-0.003 -0.004,-0.004 -0.001,-0.001 -0.004,-0.001 -0.007,-0.001l-0.003 0z"/>
  <path id="4" class="fil0" d="M0.311 0.026l0 0.069 -0.01 0 0 -0.027 -0.006 0c-0.003,0 -0.006,0.001 -0.007,0.002 -0.002,0.001 -0.004,0.004 -0.007,0.01l-0.008 0.015 -0.012 0 0.01 -0.019c0.003,-0.006 0.006,-0.009 0.009,-0.01 -0.005,-0.001 -0.01,-0.003 -0.012,-0.007 -0.003,-0.004 -0.004,-0.008 -0.004,-0.013 0,-0.006 0.002,-0.011 0.005,-0.015 0.004,-0.004 0.009,-0.005 0.015,-0.005l0.026 0zm-0.01 0.01l-0.014 0c-0.006,0 -0.009,0.001 -0.011,0.003 -0.002,0.002 -0.002,0.005 -0.002,0.008 0,0.004 0.001,0.007 0.004,0.009 0.002,0.002 0.007,0.003 0.013,0.003l0.011 0 0 -0.023z"/>
 </g>
</svg>
