<?xml version="1.0" encoding="UTF-8"?>
<!DOCTYPE svg PUBLIC "-//W3C//DTD SVG 1.1//EN" "http://www.w3.org/Graphics/SVG/1.1/DTD/svg11.dtd">
<!-- Creator: CorelDRAW 2019 (64-Bit) -->
<svg xmlns="http://www.w3.org/2000/svg" xml:space="preserve" width="0.75537cm" height="0.14795cm" version="1.1" style="shape-rendering:geometricPrecision; text-rendering:geometricPrecision; image-rendering:optimizeQuality; fill-rule:evenodd; clip-rule:evenodd"
viewBox="0 0 1.278 0.25"
 xmlns:xlink="http://www.w3.org/1999/xlink"
 xmlns:xodm="http://www.corel.com/coreldraw/odm/2003">
 <defs>
  <style type="text/css">
   <![CDATA[
    .fil0 {fill:white;fill-rule:nonzero}
   ]]>
  </style>
 </defs>
 <g id="Слой_x0020_1">
  <metadata id="CorelCorpID_0Corel-Layer"/>
  <path class="fil0" d="M-0 0.103c0,-0.033 0.007,-0.058 0.022,-0.076 0.014,-0.018 0.032,-0.026 0.054,-0.026 0.014,0 0.027,0.004 0.038,0.012 0.011,0.008 0.021,0.019 0.027,0.034 0.007,0.015 0.01,0.033 0.01,0.053 0,0.028 -0.006,0.052 -0.019,0.07 -0.014,0.02 -0.033,0.03 -0.056,0.03 -0.023,0 -0.042,-0.01 -0.056,-0.03 -0.013,-0.018 -0.019,-0.04 -0.019,-0.066zm0.021 0c0,0.024 0.005,0.042 0.016,0.055 0.01,0.013 0.023,0.02 0.038,0.02 0.015,0 0.028,-0.007 0.039,-0.02 0.01,-0.013 0.016,-0.033 0.016,-0.058 0,-0.017 -0.003,-0.031 -0.008,-0.044 -0.004,-0.01 -0.01,-0.018 -0.019,-0.024 -0.008,-0.006 -0.017,-0.009 -0.027,-0.009 -0.016,0 -0.029,0.007 -0.039,0.02 -0.01,0.013 -0.015,0.033 -0.015,0.061z"/>
  <path id="1" class="fil0" d="M0.175 0.057l0.019 0 0 0.06c0.006,0 0.011,-0.001 0.013,-0.004 0.002,-0.003 0.006,-0.011 0.011,-0.025 0.004,-0.011 0.007,-0.018 0.009,-0.022 0.002,-0.004 0.005,-0.006 0.008,-0.007 0.003,-0.001 0.008,-0.002 0.016,-0.002l0.003 0 0 0.019 -0.006 -0c-0.004,0 -0.007,0.001 -0.009,0.002 -0.002,0.002 -0.003,0.004 -0.004,0.008 -0.004,0.014 -0.008,0.023 -0.01,0.027 -0.003,0.004 -0.007,0.008 -0.012,0.011 0.008,0.003 0.016,0.012 0.024,0.028l0.021 0.043 -0.022 0 -0.021 -0.043c-0.004,-0.009 -0.008,-0.015 -0.011,-0.017 -0.003,-0.003 -0.007,-0.004 -0.011,-0.004l0 0.064 -0.019 0 0 -0.139z"/>
  <polygon id="2" class="fil0" points="0.26,0.057 0.353,0.057 0.353,0.077 0.317,0.077 0.317,0.197 0.297,0.197 0.297,0.077 0.26,0.077 "/>
  <path id="3" class="fil0" d="M0.462 0.057l0 0.139 -0.019 0 0 -0.054 -0.011 0c-0.007,0 -0.011,0.001 -0.015,0.003 -0.003,0.002 -0.008,0.009 -0.015,0.021l-0.017 0.03 -0.024 0 0.021 -0.037c0.006,-0.011 0.013,-0.018 0.019,-0.019 -0.011,-0.002 -0.019,-0.007 -0.025,-0.015 -0.005,-0.008 -0.008,-0.017 -0.008,-0.027 0,-0.013 0.004,-0.023 0.011,-0.03 0.007,-0.007 0.017,-0.011 0.03,-0.011l0.053 0zm-0.019 0.02l-0.027 0c-0.011,0 -0.019,0.002 -0.022,0.007 -0.003,0.004 -0.005,0.01 -0.005,0.015 0,0.008 0.002,0.015 0.007,0.018 0.005,0.004 0.014,0.006 0.026,0.006l0.021 0 0 -0.046z"/>
  <path id="4" class="fil0" d="M0.575 0l0.017 0c-0.001,0.01 -0.003,0.016 -0.005,0.02 -0.003,0.004 -0.006,0.006 -0.01,0.007 -0.004,0.001 -0.012,0.001 -0.024,0.001 -0.016,0 -0.026,0.002 -0.032,0.005 -0.006,0.004 -0.01,0.01 -0.013,0.018 -0.003,0.008 -0.004,0.019 -0.004,0.032 0.01,-0.018 0.023,-0.026 0.039,-0.026 0.015,0 0.028,0.006 0.038,0.019 0.01,0.013 0.015,0.03 0.015,0.051 0,0.02 -0.005,0.037 -0.014,0.052 -0.009,0.014 -0.022,0.021 -0.039,0.021 -0.013,0 -0.023,-0.004 -0.031,-0.01 -0.008,-0.007 -0.014,-0.017 -0.018,-0.029 -0.004,-0.012 -0.006,-0.033 -0.006,-0.061 0,-0.038 0.005,-0.063 0.015,-0.076 0.01,-0.013 0.026,-0.019 0.047,-0.019 0.013,0 0.021,-0 0.022,-0.001 0.002,-0.001 0.003,-0.002 0.003,-0.004zm-0.001 0.127c0,-0.016 -0.003,-0.028 -0.009,-0.037 -0.006,-0.009 -0.014,-0.013 -0.023,-0.013 -0.011,0 -0.019,0.005 -0.025,0.014 -0.006,0.01 -0.009,0.023 -0.009,0.04 0,0.017 0.003,0.029 0.01,0.038 0.007,0.008 0.015,0.012 0.024,0.012 0.009,0 0.017,-0.005 0.023,-0.015 0.006,-0.01 0.009,-0.023 0.009,-0.04z"/>
  <path id="5" class="fil0" d="M0.617 0.25l0 -0.193 0.018 0 0 0.018c0.004,-0.008 0.009,-0.013 0.014,-0.016 0.005,-0.003 0.011,-0.005 0.018,-0.005 0.009,0 0.017,0.003 0.024,0.008 0.007,0.005 0.013,0.013 0.017,0.024 0.004,0.011 0.007,0.024 0.007,0.039 0,0.024 -0.005,0.042 -0.015,0.055 -0.01,0.013 -0.022,0.019 -0.035,0.019 -0.006,0 -0.011,-0.002 -0.017,-0.005 -0.005,-0.003 -0.01,-0.007 -0.013,-0.013l0 0.068 -0.019 0zm0.018 -0.122c0,0.018 0.003,0.031 0.009,0.04 0.006,0.009 0.013,0.013 0.022,0.013 0.008,0 0.015,-0.004 0.021,-0.013 0.006,-0.009 0.009,-0.022 0.009,-0.041 0,-0.018 -0.003,-0.032 -0.009,-0.04 -0.006,-0.009 -0.013,-0.013 -0.022,-0.013 -0.008,0 -0.015,0.005 -0.021,0.014 -0.006,0.009 -0.009,0.023 -0.009,0.041z"/>
  <path id="6" class="fil0" d="M0.739 0.057l0.019 0 0 0.055 0.025 0c0.018,0 0.03,0.004 0.038,0.012 0.008,0.008 0.012,0.018 0.012,0.03 0,0.011 -0.004,0.021 -0.011,0.03 -0.007,0.008 -0.019,0.013 -0.035,0.013l-0.048 0 0 -0.139zm0.019 0.12l0.02 0c0.015,0 0.024,-0.002 0.028,-0.007 0.004,-0.005 0.006,-0.01 0.006,-0.016 0,-0.007 -0.002,-0.013 -0.007,-0.017 -0.005,-0.004 -0.013,-0.006 -0.025,-0.006l-0.023 0 0 0.046z"/>
  <path id="7" class="fil0" d="M0.929 0.146l0.019 0.003c-0.002,0.017 -0.008,0.029 -0.016,0.038 -0.009,0.009 -0.019,0.013 -0.032,0.013 -0.015,0 -0.027,-0.006 -0.037,-0.018 -0.01,-0.012 -0.014,-0.03 -0.014,-0.054 0,-0.024 0.005,-0.042 0.015,-0.054 0.01,-0.012 0.022,-0.018 0.038,-0.018 0.012,0 0.022,0.004 0.03,0.011 0.008,0.007 0.013,0.018 0.016,0.033l-0.019 0.003c-0.002,-0.009 -0.005,-0.017 -0.01,-0.021 -0.005,-0.005 -0.01,-0.007 -0.016,-0.007 -0.01,0 -0.017,0.004 -0.024,0.013 -0.006,0.008 -0.009,0.022 -0.009,0.04 0,0.019 0.003,0.033 0.009,0.041 0.006,0.009 0.014,0.013 0.023,0.013 0.007,0 0.014,-0.003 0.019,-0.008 0.005,-0.006 0.008,-0.014 0.01,-0.026z"/>
  <path id="8" class="fil0" d="M0.965 0.057l0.019 0 0 0.06c0.006,0 0.011,-0.001 0.013,-0.004 0.002,-0.003 0.006,-0.011 0.011,-0.025 0.004,-0.011 0.007,-0.018 0.009,-0.022 0.002,-0.004 0.005,-0.006 0.008,-0.007 0.003,-0.001 0.008,-0.002 0.016,-0.002l0.003 0 0 0.019 -0.006 -0c-0.004,0 -0.007,0.001 -0.009,0.002 -0.002,0.002 -0.003,0.004 -0.004,0.008 -0.004,0.014 -0.008,0.023 -0.01,0.027 -0.003,0.004 -0.007,0.008 -0.012,0.011 0.008,0.003 0.016,0.012 0.024,0.028l0.021 0.043 -0.022 0 -0.021 -0.043c-0.004,-0.009 -0.008,-0.015 -0.011,-0.017 -0.003,-0.003 -0.007,-0.004 -0.011,-0.004l0 0.064 -0.019 0 0 -0.139z"/>
  <polygon id="9" class="fil0" points="1.06,0.057 1.08,0.057 1.08,0.163 1.134,0.057 1.155,0.057 1.155,0.197 1.135,0.197 1.135,0.091 1.081,0.197 1.06,0.197 "/>
  <path id="10" class="fil0" d="M1.184 0.057l0.019 0 0 0.106 0.054 -0.106 0.021 0 0 0.139 -0.019 0 0 -0.106 -0.054 0.106 -0.021 0 0 -0.139zm0.066 -0.053l0.013 0c-0.001,0.011 -0.005,0.02 -0.01,0.026 -0.006,0.006 -0.013,0.009 -0.022,0.009 -0.009,0 -0.016,-0.003 -0.022,-0.009 -0.006,-0.006 -0.009,-0.014 -0.01,-0.026l0.013 0c0.002,0.012 0.008,0.018 0.018,0.018 0.006,0 0.01,-0.001 0.013,-0.004 0.003,-0.003 0.005,-0.007 0.006,-0.014z"/>
 </g>
</svg>
