<?xml version="1.0" encoding="UTF-8"?>
<!DOCTYPE svg PUBLIC "-//W3C//DTD SVG 1.1//EN" "http://www.w3.org/Graphics/SVG/1.1/DTD/svg11.dtd">
<!-- Creator: CorelDRAW 2019 (64-Bit) -->
<svg xmlns="http://www.w3.org/2000/svg" xml:space="preserve" width="0.53848cm" height="0.14701cm" version="1.1" style="shape-rendering:geometricPrecision; text-rendering:geometricPrecision; image-rendering:optimizeQuality; fill-rule:evenodd; clip-rule:evenodd"
viewBox="0 0 0.653 0.178"
 xmlns:xlink="http://www.w3.org/1999/xlink"
 xmlns:xodm="http://www.corel.com/coreldraw/odm/2003">
 <defs>
  <style type="text/css">
   <![CDATA[
    .fil0 {fill:#454545;fill-rule:nonzero}
   ]]>
  </style>
 </defs>
 <g id="Слой_x0020_1">
  <metadata id="CorelCorpID_0Corel-Layer"/>
  <polygon class="fil0" points="-0,0 0.069,0 0.069,0.016 0.015,0.016 0.015,0.138 -0,0.138 "/>
  <path id="1" class="fil0" d="M0.082 0.176l-0.002 -0.016c0.003,0.001 0.006,0.002 0.008,0.002 0.003,0 0.005,-0.001 0.007,-0.002 0.002,-0.001 0.003,-0.003 0.005,-0.006 0,-0.001 0.002,-0.007 0.005,-0.017l-0.031 -0.1 0.015 0 0.017 0.057c0.002,0.007 0.004,0.015 0.006,0.023 0.002,-0.008 0.003,-0.015 0.006,-0.023l0.017 -0.058 0.014 0 -0.031 0.102c-0.004,0.013 -0.007,0.022 -0.01,0.026 -0.002,0.004 -0.005,0.008 -0.008,0.01 -0.003,0.002 -0.006,0.003 -0.01,0.003 -0.003,0 -0.006,-0.001 -0.009,-0.002z"/>
  <path id="2" class="fil0" d="M0.168 0.038l0.065 0 0 0.1 -0.014 0 0 -0.086 -0.037 0 0 0.05c0,0.011 -0,0.019 -0.001,0.023 -0.001,0.004 -0.002,0.007 -0.005,0.01 -0.003,0.003 -0.007,0.004 -0.012,0.004 -0.003,0 -0.007,-0 -0.011,-0.001l0 -0.014c0.007,-0 0.01,-0 0.012,-0.001 0.001,-0 0.002,-0.001 0.003,-0.003 0.001,-0.002 0.001,-0.007 0.001,-0.016l0 -0.066z"/>
  <path id="3" class="fil0" d="M0.309 0.106l0.014 0.002c-0.002,0.011 -0.007,0.019 -0.013,0.024 -0.006,0.005 -0.014,0.008 -0.023,0.008 -0.012,0 -0.021,-0.004 -0.028,-0.013 -0.007,-0.009 -0.011,-0.022 -0.011,-0.038 0,-0.017 0.004,-0.03 0.011,-0.039 0.007,-0.009 0.016,-0.014 0.028,-0.014 0.011,0 0.019,0.004 0.027,0.013 0.007,0.009 0.011,0.022 0.011,0.039l-0 0.005 -0.061 0c0.001,0.011 0.003,0.02 0.008,0.025 0.005,0.006 0.01,0.009 0.017,0.009 0.01,0 0.018,-0.007 0.022,-0.02zm-0.046 -0.028l0.046 0c-0.001,-0.009 -0.002,-0.015 -0.006,-0.019 -0.004,-0.006 -0.01,-0.009 -0.017,-0.009 -0.006,0 -0.012,0.003 -0.016,0.008 -0.004,0.005 -0.007,0.012 -0.007,0.021z"/>
  <path id="4" class="fil0" d="M0.341 0.038l0.014 0 0 0.043c0.004,0 0.008,-0.001 0.009,-0.003 0.002,-0.002 0.004,-0.008 0.008,-0.018 0.003,-0.008 0.005,-0.013 0.007,-0.016 0.002,-0.003 0.004,-0.004 0.006,-0.005 0.002,-0.001 0.006,-0.001 0.011,-0.001l0.002 0 0 0.014 -0.004 -0c-0.003,0 -0.005,0.001 -0.006,0.002 -0.001,0.001 -0.002,0.003 -0.003,0.006 -0.003,0.01 -0.006,0.017 -0.007,0.019 -0.002,0.003 -0.005,0.005 -0.009,0.008 0.006,0.002 0.012,0.009 0.017,0.02l0.015 0.031 -0.015 0 -0.015 -0.031c-0.003,-0.006 -0.006,-0.01 -0.008,-0.012 -0.002,-0.002 -0.005,-0.003 -0.008,-0.003l0 0.046 -0.014 0 0 -0.1z"/>
  <path id="5" class="fil0" d="M0.405 0.088c0,-0.017 0.004,-0.03 0.011,-0.039 0.007,-0.009 0.016,-0.013 0.027,-0.013 0.011,0 0.02,0.004 0.027,0.013 0.007,0.009 0.011,0.021 0.011,0.038 0,0.018 -0.004,0.031 -0.011,0.04 -0.007,0.009 -0.016,0.013 -0.028,0.013 -0.011,0 -0.02,-0.004 -0.027,-0.013 -0.007,-0.009 -0.011,-0.022 -0.011,-0.039zm0.014 -0c0,0.013 0.002,0.023 0.007,0.029 0.005,0.006 0.01,0.009 0.017,0.009 0.006,0 0.012,-0.003 0.017,-0.01 0.005,-0.006 0.007,-0.016 0.007,-0.029 0,-0.013 -0.002,-0.022 -0.007,-0.029 -0.005,-0.006 -0.01,-0.009 -0.017,-0.009 -0.007,0 -0.012,0.003 -0.017,0.01 -0.005,0.006 -0.007,0.016 -0.007,0.029z"/>
  <path id="6" class="fil0" d="M0.498 0.038l0.032 0c0.007,0 0.013,0.001 0.017,0.002 0.004,0.001 0.007,0.004 0.01,0.009 0.003,0.004 0.005,0.01 0.005,0.016 0,0.01 -0.003,0.017 -0.01,0.021 0.009,0.004 0.014,0.012 0.014,0.024 0,0.008 -0.002,0.014 -0.007,0.02 -0.005,0.005 -0.012,0.008 -0.024,0.008l-0.037 0 0 -0.1zm0.014 0.042l0.015 0c0.006,0 0.01,-0 0.012,-0.001 0.002,-0.001 0.004,-0.002 0.006,-0.005 0.002,-0.002 0.003,-0.005 0.003,-0.008 0,-0.005 -0.002,-0.009 -0.005,-0.011 -0.003,-0.002 -0.008,-0.003 -0.016,-0.003l-0.015 0 0 0.028zm0 0.044l0.019 0c0.008,0 0.013,-0.001 0.016,-0.004 0.003,-0.002 0.005,-0.006 0.005,-0.011 0,-0.005 -0.002,-0.009 -0.005,-0.012 -0.003,-0.002 -0.009,-0.004 -0.018,-0.004l-0.017 0 0 0.03z"/>
  <path id="7" class="fil0" d="M0.577 0.088c0,-0.017 0.004,-0.03 0.011,-0.039 0.007,-0.009 0.016,-0.013 0.027,-0.013 0.011,0 0.02,0.004 0.027,0.013 0.007,0.009 0.011,0.021 0.011,0.038 0,0.018 -0.004,0.031 -0.011,0.04 -0.007,0.009 -0.016,0.013 -0.028,0.013 -0.011,0 -0.02,-0.004 -0.027,-0.013 -0.007,-0.009 -0.011,-0.022 -0.011,-0.039zm0.014 -0c0,0.013 0.002,0.023 0.007,0.029 0.005,0.006 0.01,0.009 0.017,0.009 0.006,0 0.012,-0.003 0.017,-0.01 0.005,-0.006 0.007,-0.016 0.007,-0.029 0,-0.013 -0.002,-0.022 -0.007,-0.029 -0.005,-0.006 -0.01,-0.009 -0.017,-0.009 -0.007,0 -0.012,0.003 -0.017,0.01 -0.005,0.006 -0.007,0.016 -0.007,0.029z"/>
 </g>
</svg>
