<?xml version="1.0" encoding="UTF-8"?>
<!DOCTYPE svg PUBLIC "-//W3C//DTD SVG 1.1//EN" "http://www.w3.org/Graphics/SVG/1.1/DTD/svg11.dtd">
<!-- Creator: CorelDRAW 2019 (64-Bit) -->
<svg xmlns="http://www.w3.org/2000/svg" xml:space="preserve" width="0.43968cm" height="0.11558cm" version="1.1" style="shape-rendering:geometricPrecision; text-rendering:geometricPrecision; image-rendering:optimizeQuality; fill-rule:evenodd; clip-rule:evenodd"
viewBox="0 0 0.435 0.114"
 xmlns:xlink="http://www.w3.org/1999/xlink"
 xmlns:xodm="http://www.corel.com/coreldraw/odm/2003">
 <defs>
  <style type="text/css">
   <![CDATA[
    .fil0 {fill:#454545;fill-rule:nonzero}
   ]]>
  </style>
 </defs>
 <g id="Слой_x0020_1">
  <metadata id="CorelCorpID_0Corel-Layer"/>
  <polygon class="fil0" points="0.012,0.112 -0,0.112 -0,0 0.072,0 0.072,0.112 0.06,0.112 0.06,0.013 0.012,0.013 "/>
  <path id="1" class="fil0" d="M0.087 0.072c0,-0.014 0.003,-0.025 0.009,-0.032 0.006,-0.007 0.013,-0.011 0.022,-0.011 0.009,0 0.016,0.004 0.022,0.011 0.006,0.007 0.009,0.017 0.009,0.031 0,0.015 -0.003,0.025 -0.009,0.033 -0.006,0.007 -0.013,0.011 -0.022,0.011 -0.009,0 -0.016,-0.004 -0.022,-0.011 -0.006,-0.007 -0.009,-0.018 -0.009,-0.032zm0.012 -0c0,0.011 0.002,0.018 0.006,0.024 0.004,0.005 0.009,0.008 0.014,0.008 0.005,0 0.01,-0.003 0.014,-0.008 0.004,-0.005 0.006,-0.013 0.006,-0.023 0,-0.01 -0.002,-0.018 -0.006,-0.023 -0.004,-0.005 -0.009,-0.008 -0.014,-0.008 -0.005,0 -0.01,0.003 -0.014,0.008 -0.004,0.005 -0.006,0.013 -0.006,0.023z"/>
  <polygon id="2" class="fil0" points="0.162,0.031 0.174,0.031 0.174,0.065 0.205,0.065 0.205,0.031 0.216,0.031 0.216,0.112 0.205,0.112 0.205,0.076 0.174,0.076 0.174,0.112 0.162,0.112 "/>
  <polygon id="3" class="fil0" points="0.233,0.031 0.245,0.031 0.245,0.093 0.276,0.031 0.288,0.031 0.288,0.112 0.277,0.112 0.277,0.05 0.246,0.112 0.233,0.112 "/>
  <polygon id="4" class="fil0" points="0.305,0.031 0.317,0.031 0.317,0.065 0.348,0.065 0.348,0.031 0.359,0.031 0.359,0.112 0.348,0.112 0.348,0.076 0.317,0.076 0.317,0.112 0.305,0.112 "/>
  <path id="5" class="fil0" d="M0.372 0.072c0,-0.014 0.003,-0.025 0.009,-0.032 0.006,-0.007 0.013,-0.011 0.022,-0.011 0.009,0 0.016,0.004 0.022,0.011 0.006,0.007 0.009,0.017 0.009,0.031 0,0.015 -0.003,0.025 -0.009,0.033 -0.006,0.007 -0.013,0.011 -0.022,0.011 -0.009,0 -0.016,-0.004 -0.022,-0.011 -0.006,-0.007 -0.009,-0.018 -0.009,-0.032zm0.012 -0c0,0.011 0.002,0.018 0.006,0.024 0.004,0.005 0.009,0.008 0.014,0.008 0.005,0 0.01,-0.003 0.014,-0.008 0.004,-0.005 0.006,-0.013 0.006,-0.023 0,-0.01 -0.002,-0.018 -0.006,-0.023 -0.004,-0.005 -0.009,-0.008 -0.014,-0.008 -0.005,0 -0.01,0.003 -0.014,0.008 -0.004,0.005 -0.006,0.013 -0.006,0.023z"/>
 </g>
</svg>
