<?xml version="1.0" encoding="UTF-8"?>
<!DOCTYPE svg PUBLIC "-//W3C//DTD SVG 1.1//EN" "http://www.w3.org/Graphics/SVG/1.1/DTD/svg11.dtd">
<!-- Creator: CorelDRAW 2019 (64-Bit) -->
<svg xmlns="http://www.w3.org/2000/svg" xml:space="preserve" width="0.31589cm" height="0.13701cm" version="1.1" style="shape-rendering:geometricPrecision; text-rendering:geometricPrecision; image-rendering:optimizeQuality; fill-rule:evenodd; clip-rule:evenodd"
viewBox="0 0 0.226 0.098"
 xmlns:xlink="http://www.w3.org/1999/xlink"
 xmlns:xodm="http://www.corel.com/coreldraw/odm/2003">
 <defs>
  <style type="text/css">
   <![CDATA[
    .fil0 {fill:#454545;fill-rule:nonzero}
   ]]>
  </style>
 </defs>
 <g id="Слой_x0020_1">
  <metadata id="CorelCorpID_0Corel-Layer"/>
  <path class="fil0" d="M-0 0.081l0.026 -0.081 0.009 0 0.027 0.081 -0.01 0 -0.008 -0.025 -0.028 0 -0.007 0.025 -0.009 0zm0.019 -0.033l0.023 0 -0.007 -0.022c-0.002,-0.007 -0.004,-0.013 -0.005,-0.017 -0.001,0.005 -0.002,0.01 -0.004,0.016l-0.007 0.024z"/>
  <path id="1" class="fil0" d="M0.075 0.022l0.033 0 0 0.051 0.005 0 0 0.025 -0.007 0 0 -0.017 -0.038 0 0 0.017 -0.007 0 0 -0.025 0.004 0c0.006,-0.009 0.008,-0.026 0.008,-0.051zm0.007 0.008c-0.001,0.019 -0.003,0.033 -0.007,0.042l0.026 0 0 -0.042 -0.018 0z"/>
  <path id="2" class="fil0" d="M0.154 0.074c-0.003,0.003 -0.006,0.005 -0.009,0.006 -0.003,0.001 -0.006,0.002 -0.009,0.002 -0.005,0 -0.009,-0.002 -0.012,-0.005 -0.003,-0.003 -0.004,-0.007 -0.004,-0.012 0,-0.003 0.001,-0.006 0.002,-0.009 0.001,-0.003 0.003,-0.005 0.006,-0.006 0.002,-0.001 0.006,-0.003 0.011,-0.003 0.007,-0.001 0.012,-0.002 0.015,-0.003l0 -0.003c0,-0.004 -0.001,-0.007 -0.002,-0.009 -0.002,-0.002 -0.005,-0.004 -0.009,-0.004 -0.004,0 -0.007,0.001 -0.009,0.002 -0.002,0.002 -0.003,0.005 -0.004,0.009l-0.008 -0.001c0.001,-0.006 0.003,-0.011 0.007,-0.014 0.003,-0.003 0.008,-0.004 0.015,-0.004 0.005,0 0.009,0.001 0.012,0.003 0.003,0.002 0.005,0.004 0.005,0.007 0.001,0.003 0.001,0.007 0.001,0.012l0 0.013c0,0.009 0,0.015 0.001,0.018 0,0.002 0.001,0.005 0.002,0.007l-0.009 0c-0.001,-0.002 -0.001,-0.004 -0.002,-0.007zm-0.001 -0.022c-0.003,0.001 -0.007,0.003 -0.013,0.004 -0.003,0.001 -0.006,0.001 -0.007,0.002 -0.001,0.001 -0.002,0.002 -0.003,0.003 -0.001,0.001 -0.001,0.003 -0.001,0.005 0,0.003 0.001,0.005 0.003,0.007 0.002,0.002 0.004,0.003 0.007,0.003 0.003,0 0.006,-0.001 0.008,-0.002 0.002,-0.002 0.004,-0.004 0.005,-0.006 0.001,-0.003 0.002,-0.006 0.002,-0.011l0 -0.004z"/>
  <polygon id="3" class="fil0" points="0.174,0.022 0.187,0.022 0.2,0.069 0.214,0.022 0.226,0.022 0.226,0.081 0.217,0.081 0.217,0.034 0.203,0.081 0.196,0.081 0.182,0.032 0.182,0.081 0.174,0.081 "/>
 </g>
</svg>
