<?xml version="1.0" encoding="UTF-8"?>
<!DOCTYPE svg PUBLIC "-//W3C//DTD SVG 1.1//EN" "http://www.w3.org/Graphics/SVG/1.1/DTD/svg11.dtd">
<!-- Creator: CorelDRAW 2019 (64-Bit) -->
<svg xmlns="http://www.w3.org/2000/svg" xml:space="preserve" width="1.16627cm" height="0.14526cm" version="1.1" style="shape-rendering:geometricPrecision; text-rendering:geometricPrecision; image-rendering:optimizeQuality; fill-rule:evenodd; clip-rule:evenodd"
viewBox="0 0 3.075 0.383"
 xmlns:xlink="http://www.w3.org/1999/xlink"
 xmlns:xodm="http://www.corel.com/coreldraw/odm/2003">
 <defs>
  <style type="text/css">
   <![CDATA[
    .fil0 {fill:white;fill-rule:nonzero}
   ]]>
  </style>
 </defs>
 <g id="Слой_x0020_1">
  <metadata id="CorelCorpID_0Corel-Layer"/>
  <path class="fil0" d="M-0 0.3l0 -0.3 0.092 0c0.019,0 0.034,0.003 0.045,0.009 0.011,0.006 0.02,0.015 0.027,0.027 0.007,0.012 0.01,0.026 0.01,0.041 0,0.014 -0.003,0.026 -0.009,0.037 -0.006,0.011 -0.014,0.02 -0.025,0.027 0.014,0.005 0.025,0.014 0.033,0.026 0.008,0.012 0.012,0.028 0.012,0.046 0,0.018 -0.004,0.034 -0.011,0.048 -0.007,0.014 -0.017,0.024 -0.03,0.03 -0.012,0.006 -0.029,0.009 -0.051,0.009l-0.094 0zm0.033 -0.174l0.053 0c0.014,0 0.024,-0.001 0.03,-0.003 0.008,-0.003 0.015,-0.008 0.02,-0.014 0.005,-0.007 0.007,-0.016 0.007,-0.028 0,-0.011 -0.002,-0.02 -0.006,-0.027 -0.004,-0.007 -0.01,-0.012 -0.017,-0.015 -0.007,-0.003 -0.019,-0.004 -0.037,-0.004l-0.049 0 0 0.091zm0 0.139l0.061 0c0.013,0 0.023,-0.001 0.03,-0.004 0.009,-0.004 0.016,-0.009 0.021,-0.018 0.005,-0.008 0.007,-0.018 0.007,-0.031 0,-0.011 -0.002,-0.021 -0.007,-0.029 -0.005,-0.008 -0.011,-0.014 -0.019,-0.017 -0.008,-0.004 -0.02,-0.005 -0.037,-0.005l-0.057 0 0 0.103z"/>
  <path id="1" class="fil0" d="M0.347 0.23l0.031 0.005c-0.005,0.023 -0.015,0.041 -0.028,0.052 -0.014,0.012 -0.03,0.018 -0.05,0.018 -0.025,0 -0.046,-0.01 -0.061,-0.029 -0.016,-0.019 -0.023,-0.047 -0.023,-0.083 0,-0.037 0.008,-0.066 0.024,-0.086 0.016,-0.02 0.036,-0.03 0.06,-0.03 0.023,0 0.042,0.01 0.058,0.029 0.015,0.019 0.023,0.047 0.023,0.084l-0 0.01 -0.133 0c0.001,0.024 0.007,0.043 0.017,0.055 0.01,0.012 0.022,0.019 0.037,0.019 0.023,0 0.039,-0.015 0.047,-0.044zm-0.099 -0.06l0.099 0c-0.001,-0.019 -0.005,-0.033 -0.012,-0.042 -0.01,-0.013 -0.022,-0.02 -0.037,-0.02 -0.014,0 -0.025,0.006 -0.035,0.017 -0.01,0.011 -0.015,0.026 -0.016,0.045z"/>
  <path id="2" class="fil0" d="M0.416 0.383l0 -0.3 0.028 0 0 0.029c0.007,-0.012 0.014,-0.02 0.023,-0.025 0.008,-0.005 0.018,-0.008 0.028,-0.008 0.014,0 0.027,0.004 0.038,0.012 0.011,0.008 0.02,0.021 0.027,0.038 0.007,0.017 0.01,0.037 0.01,0.061 0,0.037 -0.008,0.065 -0.023,0.085 -0.016,0.02 -0.034,0.03 -0.054,0.03 -0.009,0 -0.018,-0.002 -0.026,-0.007 -0.008,-0.005 -0.015,-0.012 -0.021,-0.02l0 0.106 -0.03 0zm0.028 -0.19c0,0.028 0.005,0.049 0.014,0.062 0.009,0.013 0.021,0.02 0.034,0.02 0.013,0 0.024,-0.007 0.033,-0.021 0.01,-0.014 0.014,-0.035 0.014,-0.064 0,-0.028 -0.005,-0.049 -0.014,-0.063 -0.009,-0.014 -0.021,-0.02 -0.034,-0.02 -0.012,0 -0.023,0.007 -0.033,0.022 -0.01,0.015 -0.015,0.036 -0.015,0.064z"/>
  <path id="3" class="fil0" d="M0.588 0.3l0.065 -0.113 -0.06 -0.105 0.037 0 0.028 0.051c0.005,0.009 0.009,0.017 0.012,0.024 0.005,-0.009 0.01,-0.017 0.013,-0.023l0.03 -0.051 0.036 0 -0.061 0.102 0.066 0.115 -0.037 0 -0.037 -0.067 -0.009 -0.018 -0.047 0.086 -0.037 0z"/>
  <polygon id="4" class="fil0" points="0.779,0.082 0.809,0.082 0.809,0.173 0.893,0.173 0.893,0.082 0.923,0.082 0.923,0.3 0.893,0.3 0.893,0.203 0.809,0.203 0.809,0.3 0.779,0.3 "/>
  <path id="5" class="fil0" d="M1.109 0.082l0 0.217 -0.03 0 0 -0.085 -0.017 0c-0.01,0 -0.018,0.002 -0.023,0.005 -0.005,0.003 -0.013,0.014 -0.023,0.032l-0.026 0.047 -0.037 0 0.033 -0.058c0.01,-0.018 0.02,-0.028 0.03,-0.03 -0.017,-0.003 -0.03,-0.011 -0.038,-0.023 -0.008,-0.012 -0.013,-0.026 -0.013,-0.042 0,-0.02 0.006,-0.036 0.017,-0.047 0.011,-0.011 0.027,-0.017 0.047,-0.017l0.083 0zm-0.03 0.031l-0.043 0c-0.018,0 -0.029,0.003 -0.035,0.01 -0.005,0.007 -0.008,0.015 -0.008,0.024 0,0.013 0.004,0.023 0.011,0.029 0.008,0.006 0.021,0.009 0.04,0.009l0.033 0 0 -0.072z"/>
  <path id="6" class="fil0" d="M1.295 0.082l0 0.217 -0.03 0 0 -0.085 -0.017 0c-0.01,0 -0.018,0.002 -0.023,0.005 -0.005,0.003 -0.013,0.014 -0.023,0.032l-0.026 0.047 -0.037 0 0.033 -0.058c0.01,-0.018 0.02,-0.028 0.03,-0.03 -0.017,-0.003 -0.03,-0.011 -0.038,-0.023 -0.008,-0.012 -0.013,-0.026 -0.013,-0.042 0,-0.02 0.006,-0.036 0.017,-0.047 0.011,-0.011 0.027,-0.017 0.047,-0.017l0.083 0zm-0.03 0.031l-0.043 0c-0.018,0 -0.029,0.003 -0.035,0.01 -0.005,0.007 -0.008,0.015 -0.008,0.024 0,0.013 0.004,0.023 0.011,0.029 0.008,0.006 0.021,0.009 0.04,0.009l0.033 0 0 -0.072z"/>
  <path id="7" class="fil0" d="M1.442 0l0.159 0 0 0.035 -0.126 0 0 0.092 0.059 0c0.022,0 0.039,0.003 0.052,0.008 0.013,0.005 0.023,0.014 0.031,0.028 0.008,0.014 0.012,0.03 0.012,0.049 0,0.018 -0.004,0.034 -0.011,0.048 -0.007,0.014 -0.017,0.024 -0.028,0.03 -0.012,0.006 -0.028,0.009 -0.05,0.009l-0.096 0 0 -0.3zm0.033 0.266l0.065 0c0.017,0 0.03,-0.004 0.039,-0.012 0.009,-0.008 0.014,-0.021 0.014,-0.04 0,-0.013 -0.003,-0.023 -0.008,-0.031 -0.005,-0.008 -0.012,-0.014 -0.021,-0.016 -0.009,-0.003 -0.024,-0.004 -0.045,-0.004l-0.043 0 0 0.104z"/>
  <path id="8" class="fil0" d="M1.65 0.191c0,-0.037 0.008,-0.066 0.024,-0.085 0.016,-0.019 0.036,-0.029 0.06,-0.029 0.024,0 0.043,0.01 0.059,0.029 0.016,0.019 0.024,0.047 0.024,0.083 0,0.039 -0.008,0.068 -0.024,0.087 -0.016,0.019 -0.036,0.029 -0.06,0.029 -0.024,0 -0.044,-0.01 -0.06,-0.029 -0.016,-0.019 -0.024,-0.047 -0.024,-0.085zm0.031 -0c0,0.028 0.005,0.049 0.015,0.063 0.01,0.014 0.023,0.021 0.038,0.021 0.014,0 0.026,-0.007 0.036,-0.021 0.01,-0.014 0.015,-0.035 0.015,-0.063 0,-0.028 -0.005,-0.049 -0.015,-0.063 -0.01,-0.014 -0.023,-0.021 -0.038,-0.021 -0.014,0 -0.026,0.007 -0.036,0.021 -0.01,0.014 -0.015,0.035 -0.015,0.062z"/>
  <polygon id="9" class="fil0" points="1.853,0.082 1.955,0.082 1.955,0.113 1.883,0.113 1.883,0.3 1.853,0.3 "/>
  <path id="10" class="fil0" d="M2.093 0.273c-0.01,0.011 -0.021,0.018 -0.031,0.024 -0.011,0.005 -0.022,0.008 -0.034,0.008 -0.019,0 -0.033,-0.006 -0.044,-0.017 -0.011,-0.011 -0.017,-0.026 -0.017,-0.045 0,-0.013 0.003,-0.024 0.008,-0.033 0.005,-0.01 0.012,-0.017 0.021,-0.023 0.009,-0.005 0.023,-0.009 0.041,-0.012 0.025,-0.003 0.043,-0.008 0.054,-0.013l0 -0.009c0,-0.015 -0.003,-0.025 -0.008,-0.031 -0.007,-0.009 -0.019,-0.013 -0.034,-0.013 -0.014,0 -0.024,0.003 -0.031,0.009 -0.007,0.006 -0.012,0.017 -0.015,0.033l-0.03 -0.005c0.004,-0.023 0.013,-0.04 0.026,-0.05 0.013,-0.011 0.031,-0.016 0.055,-0.016 0.019,0 0.033,0.004 0.044,0.011 0.011,0.007 0.017,0.016 0.02,0.026 0.003,0.01 0.004,0.025 0.004,0.045l0 0.049c0,0.034 0.001,0.056 0.002,0.065 0.001,0.009 0.004,0.018 0.008,0.026l-0.031 0c-0.003,-0.007 -0.005,-0.016 -0.006,-0.027zm-0.002 -0.082c-0.011,0.005 -0.027,0.01 -0.049,0.014 -0.013,0.002 -0.022,0.005 -0.027,0.007 -0.005,0.003 -0.009,0.007 -0.012,0.012 -0.003,0.005 -0.004,0.011 -0.004,0.018 0,0.01 0.003,0.019 0.01,0.025 0.006,0.006 0.015,0.009 0.027,0.009 0.011,0 0.021,-0.003 0.029,-0.008 0.009,-0.006 0.015,-0.013 0.02,-0.022 0.004,-0.009 0.007,-0.023 0.007,-0.041l0 -0.013z"/>
  <polygon id="11" class="fil0" points="2.152,0.082 2.297,0.082 2.297,0.113 2.239,0.113 2.239,0.3 2.209,0.3 2.209,0.113 2.152,0.113 "/>
  <path id="12" class="fil0" d="M2.325 0.082l0.03 0 0 0.085 0.038 0c0.027,0 0.047,0.007 0.059,0.019 0.012,0.013 0.018,0.029 0.018,0.047 0,0.017 -0.006,0.033 -0.016,0.046 -0.011,0.013 -0.029,0.02 -0.054,0.02l-0.075 0 0 -0.217zm0.03 0.187l0.032 0c0.023,0 0.038,-0.004 0.044,-0.011 0.006,-0.007 0.009,-0.016 0.009,-0.024 0,-0.012 -0.004,-0.021 -0.011,-0.027 -0.007,-0.006 -0.02,-0.009 -0.038,-0.009l-0.036 0 0 0.072zm0.146 0.03l0 -0.217 0.03 0 0 0.217 -0.03 0z"/>
  <path id="13" class="fil0" d="M2.58 0.383l0 -0.3 0.028 0 0 0.029c0.007,-0.012 0.014,-0.02 0.023,-0.025 0.008,-0.005 0.018,-0.008 0.028,-0.008 0.014,0 0.027,0.004 0.038,0.012 0.011,0.008 0.02,0.021 0.027,0.038 0.007,0.017 0.01,0.037 0.01,0.061 0,0.037 -0.008,0.065 -0.023,0.085 -0.016,0.02 -0.034,0.03 -0.054,0.03 -0.009,0 -0.018,-0.002 -0.026,-0.007 -0.008,-0.005 -0.015,-0.012 -0.021,-0.02l0 0.106 -0.03 0zm0.028 -0.19c0,0.028 0.005,0.049 0.014,0.062 0.009,0.013 0.021,0.02 0.034,0.02 0.013,0 0.024,-0.007 0.033,-0.021 0.01,-0.014 0.014,-0.035 0.014,-0.064 0,-0.028 -0.005,-0.049 -0.014,-0.063 -0.009,-0.014 -0.021,-0.02 -0.034,-0.02 -0.012,0 -0.023,0.007 -0.033,0.022 -0.01,0.015 -0.015,0.036 -0.015,0.064z"/>
  <path id="14" class="fil0" d="M2.771 0.082l0.03 0 0 0.094c0.01,0 0.016,-0.002 0.02,-0.007 0.004,-0.005 0.01,-0.018 0.017,-0.039 0.006,-0.017 0.011,-0.029 0.014,-0.034 0.004,-0.006 0.008,-0.009 0.013,-0.011 0.005,-0.002 0.013,-0.003 0.025,-0.003l0.004 0 0 0.03 -0.009 -0c-0.006,0 -0.011,0.001 -0.014,0.004 -0.003,0.002 -0.005,0.007 -0.007,0.013 -0.007,0.022 -0.012,0.036 -0.016,0.042 -0.004,0.006 -0.01,0.012 -0.019,0.017 0.013,0.004 0.026,0.019 0.038,0.044l0.033 0.067 -0.034 0 -0.032 -0.067c-0.006,-0.014 -0.012,-0.023 -0.017,-0.027 -0.005,-0.004 -0.011,-0.006 -0.017,-0.006l0 0.1 -0.03 0 0 -0.217z"/>
  <path id="15" class="fil0" d="M3.037 0.273c-0.01,0.011 -0.021,0.018 -0.031,0.024 -0.011,0.005 -0.022,0.008 -0.034,0.008 -0.019,0 -0.033,-0.006 -0.044,-0.017 -0.011,-0.011 -0.017,-0.026 -0.017,-0.045 0,-0.013 0.003,-0.024 0.008,-0.033 0.005,-0.01 0.012,-0.017 0.021,-0.023 0.009,-0.005 0.023,-0.009 0.041,-0.012 0.025,-0.003 0.043,-0.008 0.054,-0.013l0 -0.009c0,-0.015 -0.003,-0.025 -0.008,-0.031 -0.007,-0.009 -0.019,-0.013 -0.034,-0.013 -0.014,0 -0.024,0.003 -0.031,0.009 -0.007,0.006 -0.012,0.017 -0.015,0.033l-0.03 -0.005c0.004,-0.023 0.013,-0.04 0.026,-0.05 0.013,-0.011 0.031,-0.016 0.055,-0.016 0.019,0 0.033,0.004 0.044,0.011 0.011,0.007 0.017,0.016 0.02,0.026 0.003,0.01 0.004,0.025 0.004,0.045l0 0.049c0,0.034 0.001,0.056 0.002,0.065 0.001,0.009 0.004,0.018 0.008,0.026l-0.031 0c-0.003,-0.007 -0.005,-0.016 -0.006,-0.027zm-0.002 -0.082c-0.011,0.005 -0.027,0.01 -0.049,0.014 -0.013,0.002 -0.022,0.005 -0.027,0.007 -0.005,0.003 -0.009,0.007 -0.012,0.012 -0.003,0.005 -0.004,0.011 -0.004,0.018 0,0.01 0.003,0.019 0.01,0.025 0.006,0.006 0.015,0.009 0.027,0.009 0.011,0 0.021,-0.003 0.029,-0.008 0.009,-0.006 0.015,-0.013 0.02,-0.022 0.004,-0.009 0.007,-0.023 0.007,-0.041l0 -0.013z"/>
 </g>
</svg>
