<?xml version="1.0" encoding="UTF-8"?>
<!DOCTYPE svg PUBLIC "-//W3C//DTD SVG 1.1//EN" "http://www.w3.org/Graphics/SVG/1.1/DTD/svg11.dtd">
<!-- Creator: CorelDRAW 2019 (64-Bit) -->
<svg xmlns="http://www.w3.org/2000/svg" xml:space="preserve" width="0.57154cm" height="0.14724cm" version="1.1" style="shape-rendering:geometricPrecision; text-rendering:geometricPrecision; image-rendering:optimizeQuality; fill-rule:evenodd; clip-rule:evenodd"
viewBox="0 0 0.734 0.189"
 xmlns:xlink="http://www.w3.org/1999/xlink"
 xmlns:xodm="http://www.corel.com/coreldraw/odm/2003">
 <defs>
  <style type="text/css">
   <![CDATA[
    .fil0 {fill:white;fill-rule:nonzero}
   ]]>
  </style>
 </defs>
 <g id="Слой_x0020_1">
  <metadata id="CorelCorpID_0Corel-Layer"/>
  <path class="fil0" d="M-0 0l0.016 0 0 0.064c0.007,0 0.012,-0.002 0.015,-0.005 0.003,-0.003 0.007,-0.012 0.011,-0.025 0.003,-0.01 0.006,-0.017 0.009,-0.021 0.002,-0.004 0.006,-0.007 0.01,-0.01 0.004,-0.002 0.009,-0.003 0.016,-0.003 0.002,0 0.004,0 0.006,0l0 0.017 -0.003 -0 -0.004 -0c-0.004,0 -0.008,0.001 -0.01,0.004 -0.003,0.002 -0.006,0.009 -0.009,0.02 -0.004,0.012 -0.007,0.02 -0.01,0.023 -0.003,0.003 -0.006,0.006 -0.01,0.008 0.008,0.003 0.015,0.011 0.023,0.026l0.025 0.049 -0.02 0 -0.02 -0.04c-0.006,-0.013 -0.011,-0.02 -0.015,-0.024 -0.004,-0.003 -0.008,-0.005 -0.011,-0.005 -0,0 -0.001,0 -0.002,0l0 0.068 -0.016 0 0 -0.146z"/>
  <path id="1" class="fil0" d="M0.152 0.133c-0.005,0.005 -0.01,0.009 -0.015,0.012 -0.005,0.003 -0.011,0.004 -0.017,0.004 -0.009,0 -0.016,-0.003 -0.022,-0.008 -0.005,-0.005 -0.008,-0.013 -0.008,-0.022 0,-0.006 0.001,-0.012 0.004,-0.016 0.003,-0.005 0.006,-0.008 0.01,-0.011 0.004,-0.003 0.011,-0.005 0.02,-0.006 0.012,-0.002 0.021,-0.004 0.026,-0.006l0 -0.005c0,-0.007 -0.001,-0.012 -0.004,-0.015 -0.004,-0.004 -0.009,-0.006 -0.017,-0.006 -0.007,0 -0.012,0.001 -0.015,0.004 -0.003,0.003 -0.006,0.008 -0.007,0.016l-0.015 -0.003c0.002,-0.011 0.006,-0.019 0.013,-0.025 0.006,-0.005 0.015,-0.008 0.027,-0.008 0.009,0 0.016,0.002 0.021,0.005 0.005,0.003 0.008,0.008 0.01,0.013 0.001,0.005 0.002,0.012 0.002,0.022l0 0.024c0,0.017 0,0.027 0.001,0.032 0.001,0.004 0.002,0.009 0.004,0.013l-0.015 0c-0.002,-0.004 -0.003,-0.008 -0.003,-0.013zm-0.001 -0.04c-0.005,0.003 -0.013,0.005 -0.024,0.007 -0.006,0.001 -0.011,0.002 -0.013,0.004 -0.002,0.001 -0.004,0.003 -0.006,0.006 -0.001,0.002 -0.002,0.005 -0.002,0.009 0,0.005 0.002,0.009 0.005,0.012 0.003,0.003 0.007,0.005 0.013,0.005 0.005,0 0.01,-0.001 0.014,-0.004 0.004,-0.003 0.008,-0.006 0.01,-0.011 0.002,-0.005 0.003,-0.011 0.003,-0.02l0 -0.007z"/>
  <path id="2" class="fil0" d="M0.183 0.04l0.015 0 0 0.02c0,0.009 0,0.015 0.001,0.019 0.001,0.004 0.003,0.007 0.006,0.01 0.003,0.003 0.007,0.004 0.012,0.004 0.006,0 0.013,-0.002 0.022,-0.005l0 -0.048 0.015 0 0 0.106 -0.015 0 0 -0.043c-0.009,0.003 -0.018,0.005 -0.025,0.005 -0.009,0 -0.016,-0.003 -0.022,-0.01 -0.006,-0.007 -0.009,-0.017 -0.009,-0.031l0 -0.028z"/>
  <path id="3" class="fil0" d="M0.275 0.04l0.015 0 0 0.046c0.005,0 0.008,-0.001 0.01,-0.003 0.002,-0.002 0.005,-0.009 0.008,-0.019 0.003,-0.008 0.005,-0.014 0.007,-0.017 0.002,-0.003 0.004,-0.004 0.006,-0.005 0.002,-0.001 0.006,-0.001 0.012,-0.001l0.002 0 0 0.015 -0.004 -0c-0.003,0 -0.005,0.001 -0.007,0.002 -0.001,0.001 -0.002,0.003 -0.003,0.006 -0.003,0.011 -0.006,0.018 -0.008,0.021 -0.002,0.003 -0.005,0.006 -0.009,0.008 0.006,0.002 0.013,0.009 0.019,0.022l0.016 0.033 -0.016 0 -0.016 -0.033c-0.003,-0.007 -0.006,-0.011 -0.008,-0.013 -0.002,-0.002 -0.005,-0.003 -0.008,-0.003l0 0.049 -0.015 0 0 -0.106z"/>
  <path id="4" class="fil0" d="M0.405 0.133c-0.005,0.005 -0.01,0.009 -0.015,0.012 -0.005,0.003 -0.011,0.004 -0.017,0.004 -0.009,0 -0.016,-0.003 -0.022,-0.008 -0.005,-0.005 -0.008,-0.013 -0.008,-0.022 0,-0.006 0.001,-0.012 0.004,-0.016 0.003,-0.005 0.006,-0.008 0.01,-0.011 0.004,-0.003 0.011,-0.005 0.02,-0.006 0.012,-0.002 0.021,-0.004 0.026,-0.006l0 -0.005c0,-0.007 -0.001,-0.012 -0.004,-0.015 -0.004,-0.004 -0.009,-0.006 -0.017,-0.006 -0.007,0 -0.012,0.001 -0.015,0.004 -0.003,0.003 -0.006,0.008 -0.007,0.016l-0.015 -0.003c0.002,-0.011 0.006,-0.019 0.013,-0.025 0.006,-0.005 0.015,-0.008 0.027,-0.008 0.009,0 0.016,0.002 0.021,0.005 0.005,0.003 0.008,0.008 0.01,0.013 0.001,0.005 0.002,0.012 0.002,0.022l0 0.024c0,0.017 0,0.027 0.001,0.032 0.001,0.004 0.002,0.009 0.004,0.013l-0.015 0c-0.002,-0.004 -0.003,-0.008 -0.003,-0.013zm-0.001 -0.04c-0.005,0.003 -0.013,0.005 -0.024,0.007 -0.006,0.001 -0.011,0.002 -0.013,0.004 -0.002,0.001 -0.004,0.003 -0.006,0.006 -0.001,0.002 -0.002,0.005 -0.002,0.009 0,0.005 0.002,0.009 0.005,0.012 0.003,0.003 0.007,0.005 0.013,0.005 0.005,0 0.01,-0.001 0.014,-0.004 0.004,-0.003 0.008,-0.006 0.01,-0.011 0.002,-0.005 0.003,-0.011 0.003,-0.02l0 -0.007z"/>
  <polygon id="5" class="fil0" points="0.442,0.04 0.457,0.04 0.457,0.132 0.49,0.132 0.49,0.04 0.505,0.04 0.505,0.132 0.538,0.132 0.538,0.04 0.553,0.04 0.553,0.146 0.442,0.146 "/>
  <path id="6" class="fil0" d="M0.575 0.187l-0.002 -0.017c0.003,0.001 0.006,0.002 0.008,0.002 0.003,0 0.006,-0.001 0.008,-0.002 0.002,-0.001 0.004,-0.003 0.005,-0.006 0,-0.001 0.002,-0.007 0.006,-0.018l-0.033 -0.105 0.016 0 0.018 0.061c0.002,0.008 0.004,0.016 0.006,0.024 0.002,-0.008 0.004,-0.016 0.006,-0.024l0.019 -0.061 0.015 0 -0.033 0.108c-0.004,0.014 -0.008,0.023 -0.01,0.028 -0.002,0.005 -0.005,0.008 -0.008,0.01 -0.003,0.002 -0.007,0.003 -0.011,0.003 -0.003,0 -0.006,-0.001 -0.009,-0.002z"/>
  <path id="7" class="fil0" d="M0.659 0.187l0 -0.146 0.014 0 0 0.014c0.003,-0.006 0.007,-0.01 0.011,-0.012 0.004,-0.003 0.009,-0.004 0.014,-0.004 0.007,0 0.013,0.002 0.018,0.006 0.006,0.004 0.01,0.01 0.013,0.018 0.003,0.008 0.005,0.018 0.005,0.03 0,0.018 -0.004,0.032 -0.011,0.042 -0.008,0.01 -0.016,0.015 -0.027,0.015 -0.005,0 -0.009,-0.001 -0.013,-0.003 -0.004,-0.002 -0.007,-0.006 -0.01,-0.01l0 0.051 -0.015 0zm0.014 -0.093c0,0.014 0.002,0.024 0.007,0.03 0.005,0.006 0.01,0.01 0.017,0.01 0.006,0 0.012,-0.003 0.016,-0.01 0.005,-0.007 0.007,-0.017 0.007,-0.031 0,-0.014 -0.002,-0.024 -0.007,-0.031 -0.005,-0.007 -0.01,-0.01 -0.017,-0.01 -0.006,0 -0.011,0.004 -0.016,0.011 -0.005,0.007 -0.007,0.018 -0.007,0.031z"/>
 </g>
</svg>
