<?xml version="1.0" encoding="UTF-8"?>
<!DOCTYPE svg PUBLIC "-//W3C//DTD SVG 1.1//EN" "http://www.w3.org/Graphics/SVG/1.1/DTD/svg11.dtd">
<!-- Creator: CorelDRAW 2019 (64-Bit) -->
<svg xmlns="http://www.w3.org/2000/svg" xml:space="preserve" width="0.51461cm" height="0.11558cm" version="1.1" style="shape-rendering:geometricPrecision; text-rendering:geometricPrecision; image-rendering:optimizeQuality; fill-rule:evenodd; clip-rule:evenodd"
viewBox="0 0 0.595 0.134"
 xmlns:xlink="http://www.w3.org/1999/xlink"
 xmlns:xodm="http://www.corel.com/coreldraw/odm/2003">
 <defs>
  <style type="text/css">
   <![CDATA[
    .fil0 {fill:#454545;fill-rule:nonzero}
   ]]>
  </style>
 </defs>
 <g id="Слой_x0020_1">
  <metadata id="CorelCorpID_0Corel-Layer"/>
  <polygon class="fil0" points="0.014,0.131 -0,0.131 -0,0 0.085,0 0.085,0.131 0.07,0.131 0.07,0.015 0.014,0.015 "/>
  <path id="1" class="fil0" d="M0.101 0.084c0,-0.016 0.003,-0.029 0.01,-0.037 0.007,-0.008 0.016,-0.013 0.026,-0.013 0.01,0 0.019,0.004 0.026,0.013 0.007,0.008 0.01,0.02 0.01,0.036 0,0.017 -0.003,0.03 -0.01,0.038 -0.007,0.008 -0.016,0.013 -0.026,0.013 -0.01,0 -0.019,-0.004 -0.026,-0.013 -0.007,-0.008 -0.01,-0.021 -0.01,-0.037zm0.014 -0c0,0.012 0.002,0.022 0.007,0.028 0.004,0.006 0.01,0.009 0.017,0.009 0.006,0 0.011,-0.003 0.016,-0.009 0.004,-0.006 0.007,-0.015 0.007,-0.027 0,-0.012 -0.002,-0.021 -0.007,-0.027 -0.004,-0.006 -0.01,-0.009 -0.017,-0.009 -0.006,0 -0.012,0.003 -0.016,0.009 -0.004,0.006 -0.007,0.015 -0.007,0.027z"/>
  <path id="2" class="fil0" d="M0.196 0.036l0.062 0 0 0.095 -0.013 0 0 -0.082 -0.035 0 0 0.047c0,0.011 -0,0.018 -0.001,0.022 -0.001,0.004 -0.002,0.007 -0.005,0.009 -0.003,0.003 -0.007,0.004 -0.012,0.004 -0.003,0 -0.007,-0 -0.01,-0.001l0 -0.014c0.006,-0 0.01,-0 0.011,-0.001 0.001,-0 0.002,-0.001 0.003,-0.003 0.001,-0.001 0.001,-0.007 0.001,-0.016l0 -0.063z"/>
  <path id="3" class="fil0" d="M0.277 0.036l0.013 0 0 0.037 0.017 0c0.012,0 0.021,0.003 0.026,0.009 0.005,0.006 0.008,0.013 0.008,0.021 0,0.008 -0.002,0.014 -0.007,0.02 -0.005,0.006 -0.013,0.009 -0.024,0.009l-0.033 0 0 -0.095zm0.013 0.082l0.014 0c0.01,0 0.016,-0.002 0.019,-0.005 0.003,-0.003 0.004,-0.007 0.004,-0.011 0,-0.005 -0.002,-0.009 -0.005,-0.012 -0.003,-0.003 -0.009,-0.004 -0.017,-0.004l-0.016 0 0 0.032zm0.064 0.013l0 -0.095 0.013 0 0 0.095 -0.013 0z"/>
  <polygon id="4" class="fil0" points="0.389,0.036 0.403,0.036 0.403,0.076 0.439,0.076 0.439,0.036 0.453,0.036 0.453,0.131 0.439,0.131 0.439,0.089 0.403,0.089 0.403,0.131 0.389,0.131 "/>
  <polygon id="5" class="fil0" points="0.473,0.036 0.517,0.036 0.517,0.05 0.486,0.05 0.486,0.131 0.473,0.131 "/>
  <path id="6" class="fil0" d="M0.578 0.12c-0.004,0.005 -0.009,0.008 -0.014,0.01 -0.005,0.002 -0.01,0.004 -0.015,0.004 -0.008,0 -0.015,-0.002 -0.019,-0.007 -0.005,-0.005 -0.007,-0.011 -0.007,-0.02 0,-0.005 0.001,-0.01 0.003,-0.015 0.002,-0.004 0.005,-0.008 0.009,-0.01 0.004,-0.002 0.01,-0.004 0.018,-0.005 0.011,-0.002 0.019,-0.003 0.024,-0.005l0 -0.004c0,-0.007 -0.001,-0.011 -0.003,-0.014 -0.003,-0.004 -0.008,-0.006 -0.015,-0.006 -0.006,0 -0.011,0.001 -0.014,0.004 -0.003,0.003 -0.005,0.007 -0.007,0.014l-0.013 -0.002c0.002,-0.01 0.006,-0.017 0.011,-0.022 0.006,-0.005 0.014,-0.007 0.024,-0.007 0.008,0 0.015,0.002 0.019,0.005 0.005,0.003 0.008,0.007 0.009,0.011 0.001,0.005 0.002,0.011 0.002,0.02l0 0.021c0,0.015 0,0.025 0.001,0.028 0.001,0.004 0.002,0.008 0.003,0.011l-0.014 0c-0.001,-0.003 -0.002,-0.007 -0.003,-0.012zm-0.001 -0.036c-0.005,0.002 -0.012,0.004 -0.022,0.006 -0.006,0.001 -0.009,0.002 -0.012,0.003 -0.002,0.001 -0.004,0.003 -0.005,0.005 -0.001,0.002 -0.002,0.005 -0.002,0.008 0,0.005 0.001,0.008 0.004,0.011 0.003,0.003 0.007,0.004 0.012,0.004 0.005,0 0.009,-0.001 0.013,-0.004 0.004,-0.002 0.007,-0.006 0.009,-0.01 0.002,-0.004 0.003,-0.01 0.003,-0.018l0 -0.006z"/>
 </g>
</svg>
