<?xml version="1.0" encoding="UTF-8"?>
<!DOCTYPE svg PUBLIC "-//W3C//DTD SVG 1.1//EN" "http://www.w3.org/Graphics/SVG/1.1/DTD/svg11.dtd">
<!-- Creator: CorelDRAW 2019 (64-Bit) -->
<svg xmlns="http://www.w3.org/2000/svg" xml:space="preserve" width="0.48713cm" height="0.14018cm" version="1.1" style="shape-rendering:geometricPrecision; text-rendering:geometricPrecision; image-rendering:optimizeQuality; fill-rule:evenodd; clip-rule:evenodd"
viewBox="0 0 0.534 0.154"
 xmlns:xlink="http://www.w3.org/1999/xlink"
 xmlns:xodm="http://www.corel.com/coreldraw/odm/2003">
 <defs>
  <style type="text/css">
   <![CDATA[
    .fil0 {fill:#454545;fill-rule:nonzero}
   ]]>
  </style>
 </defs>
 <g id="Слой_x0020_1">
  <metadata id="CorelCorpID_0Corel-Layer"/>
  <path class="fil0" d="M0.02 0l0.062 0 0 0.11 0.009 0 0 0.044 -0.012 0 0 -0.029 -0.068 0 0 0.029 -0.012 0 0 -0.044 0.008 0c0.008,-0.015 0.013,-0.046 0.013,-0.092l0 -0.018zm0.049 0.015l-0.035 0 0 0.006c0,0.01 -0.001,0.025 -0.002,0.043 -0.002,0.018 -0.005,0.034 -0.009,0.046l0.047 0 0 -0.095z"/>
  <path id="1" class="fil0" d="M0.123 0.084l0 -0.012c0.005,-0 0.009,-0 0.011,-0.001 0.002,-0 0.004,-0.002 0.005,-0.004 0.002,-0.002 0.002,-0.005 0.002,-0.009 0,-0.004 -0.001,-0.008 -0.003,-0.01 -0.002,-0.002 -0.005,-0.004 -0.009,-0.004 -0.007,0 -0.012,0.005 -0.015,0.015l-0.012 -0.002c0.004,-0.017 0.013,-0.025 0.027,-0.025 0.008,0 0.014,0.003 0.018,0.008 0.004,0.005 0.007,0.012 0.007,0.019 0,0.007 -0.003,0.013 -0.009,0.018 0.007,0.005 0.011,0.013 0.011,0.023 0,0.008 -0.002,0.015 -0.007,0.02 -0.005,0.005 -0.011,0.008 -0.02,0.008 -0.017,0 -0.026,-0.009 -0.029,-0.028l0.012 -0.003c0.001,0.006 0.003,0.01 0.006,0.013 0.003,0.003 0.007,0.005 0.011,0.005 0.004,0 0.008,-0.001 0.011,-0.004 0.003,-0.003 0.004,-0.007 0.004,-0.011 0,-0.004 -0.001,-0.007 -0.003,-0.009 -0.002,-0.003 -0.004,-0.004 -0.006,-0.005 -0.002,-0.001 -0.005,-0.001 -0.01,-0.001l-0.004 0z"/>
  <path id="2" class="fil0" d="M0.23 0.034l0 0.09 -0.013 0 0 -0.035 -0.007 0c-0.004,0 -0.007,0.001 -0.01,0.002 -0.002,0.001 -0.005,0.006 -0.01,0.013l-0.011 0.02 -0.016 0 0.014 -0.024c0.004,-0.007 0.008,-0.012 0.012,-0.013 -0.007,-0.001 -0.012,-0.004 -0.016,-0.01 -0.003,-0.005 -0.005,-0.011 -0.005,-0.018 0,-0.008 0.002,-0.015 0.007,-0.019 0.005,-0.005 0.011,-0.007 0.019,-0.007l0.034 0zm-0.013 0.013l-0.018 0c-0.007,0 -0.012,0.001 -0.014,0.004 -0.002,0.003 -0.003,0.006 -0.003,0.01 0,0.005 0.002,0.009 0.005,0.012 0.003,0.002 0.009,0.004 0.017,0.004l0.014 0 0 -0.03z"/>
  <path id="3" class="fil0" d="M0.249 0.034l0.013 0 0 0.039c0.004,0 0.007,-0.001 0.008,-0.003 0.002,-0.002 0.004,-0.007 0.007,-0.016 0.002,-0.007 0.004,-0.012 0.006,-0.014 0.002,-0.002 0.003,-0.004 0.005,-0.005 0.002,-0.001 0.005,-0.001 0.01,-0.001l0.002 0 0 0.013 -0.004 -0c-0.003,0 -0.005,0 -0.006,0.002 -0.001,0.001 -0.002,0.003 -0.003,0.006 -0.003,0.009 -0.005,0.015 -0.007,0.018 -0.002,0.003 -0.004,0.005 -0.008,0.007 0.005,0.002 0.011,0.008 0.016,0.018l0.014 0.028 -0.014 0 -0.013 -0.028c-0.003,-0.006 -0.005,-0.009 -0.007,-0.011 -0.002,-0.002 -0.004,-0.003 -0.007,-0.003l0 0.042 -0.013 0 0 -0.09z"/>
  <polygon id="4" class="fil0" points="0.311,0.034 0.323,0.034 0.323,0.103 0.358,0.034 0.372,0.034 0.372,0.125 0.359,0.125 0.359,0.056 0.324,0.125 0.311,0.125 "/>
  <polygon id="5" class="fil0" points="0.391,0.034 0.403,0.034 0.403,0.072 0.438,0.072 0.438,0.034 0.451,0.034 0.451,0.125 0.438,0.125 0.438,0.085 0.403,0.085 0.403,0.125 0.391,0.125 "/>
  <path id="6" class="fil0" d="M0.465 0.08c0,-0.016 0.003,-0.027 0.01,-0.035 0.007,-0.008 0.015,-0.012 0.025,-0.012 0.01,0 0.018,0.004 0.025,0.012 0.007,0.008 0.01,0.019 0.01,0.034 0,0.016 -0.003,0.028 -0.01,0.036 -0.006,0.008 -0.015,0.012 -0.025,0.012 -0.01,0 -0.018,-0.004 -0.025,-0.012 -0.007,-0.008 -0.01,-0.02 -0.01,-0.035zm0.013 -0c0,0.012 0.002,0.02 0.006,0.026 0.004,0.006 0.009,0.009 0.016,0.009 0.006,0 0.011,-0.003 0.015,-0.009 0.004,-0.006 0.006,-0.014 0.006,-0.026 0,-0.012 -0.002,-0.02 -0.006,-0.026 -0.004,-0.006 -0.009,-0.009 -0.016,-0.009 -0.006,0 -0.011,0.003 -0.015,0.009 -0.004,0.006 -0.006,0.014 -0.006,0.026z"/>
 </g>
</svg>
