<?xml version="1.0" encoding="UTF-8"?>
<!DOCTYPE svg PUBLIC "-//W3C//DTD SVG 1.1//EN" "http://www.w3.org/Graphics/SVG/1.1/DTD/svg11.dtd">
<!-- Creator: CorelDRAW -->
<svg xmlns="http://www.w3.org/2000/svg" xml:space="preserve" width="5.2258mm" height="1.4701mm" version="1.1" style="shape-rendering:geometricPrecision; text-rendering:geometricPrecision; image-rendering:optimizeQuality; fill-rule:evenodd; clip-rule:evenodd"
viewBox="0 0 6.64 1.87"
 xmlns:xlink="http://www.w3.org/1999/xlink"
 xmlns:xodm="http://www.corel.com/coreldraw/odm/2003">
 <defs>
  <style type="text/css">
   <![CDATA[
    .fil0 {fill:white;fill-rule:nonzero}
   ]]>
  </style>
 </defs>
 <g id="Слой_x0020_1">
  <metadata id="CorelCorpID_0Corel-Layer"/>
  <polygon class="fil0" points="0.16,1.44 -0,1.44 -0,0 0.93,0 0.93,1.44 0.77,1.44 0.77,0.17 0.16,0.17 "/>
  <path id="_1" class="fil0" d="M1.16 1.85l-0.02 -0.17c0.03,0.01 0.06,0.02 0.08,0.02 0.03,0 0.06,-0.01 0.08,-0.02 0.02,-0.01 0.04,-0.03 0.05,-0.06 0,-0.01 0.02,-0.07 0.06,-0.18l-0.32 -1.04 0.16 0 0.18 0.6c0.02,0.07 0.04,0.15 0.06,0.24 0.02,-0.08 0.04,-0.16 0.06,-0.24l0.18 -0.61 0.15 0 -0.33 1.06c-0.04,0.14 -0.08,0.23 -0.1,0.28 -0.02,0.05 -0.05,0.08 -0.08,0.1 -0.03,0.02 -0.07,0.03 -0.11,0.03 -0.03,0 -0.06,-0.01 -0.09,-0.02z"/>
  <path id="_2" class="fil0" d="M2.55 1.06l0.15 0.02c-0.02,0.12 -0.06,0.22 -0.12,0.29 -0.07,0.07 -0.15,0.1 -0.24,0.1 -0.11,0 -0.21,-0.05 -0.28,-0.14 -0.07,-0.09 -0.11,-0.23 -0.11,-0.41 0,-0.18 0.04,-0.32 0.11,-0.41 0.07,-0.09 0.17,-0.14 0.28,-0.14 0.09,0 0.16,0.03 0.22,0.08 0.06,0.06 0.1,0.14 0.12,0.25l-0.14 0.03c-0.01,-0.07 -0.04,-0.12 -0.07,-0.16 -0.03,-0.04 -0.08,-0.05 -0.12,-0.05 -0.07,0 -0.13,0.03 -0.18,0.1 -0.05,0.06 -0.07,0.16 -0.07,0.3 0,0.14 0.02,0.25 0.07,0.31 0.04,0.06 0.1,0.1 0.17,0.1 0.06,0 0.1,-0.02 0.14,-0.06 0.04,-0.04 0.06,-0.11 0.07,-0.2z"/>
  <path id="_3" class="fil0" d="M2.77 0.92c0,-0.18 0.04,-0.32 0.11,-0.41 0.08,-0.09 0.17,-0.14 0.29,-0.14 0.11,0 0.21,0.05 0.29,0.14 0.08,0.09 0.11,0.22 0.11,0.4 0,0.19 -0.04,0.33 -0.11,0.42 -0.08,0.09 -0.17,0.14 -0.29,0.14 -0.11,0 -0.21,-0.05 -0.29,-0.14 -0.08,-0.09 -0.11,-0.23 -0.11,-0.41zm0.15 -0c0,0.14 0.02,0.24 0.07,0.3 0.05,0.07 0.11,0.1 0.18,0.1 0.07,0 0.13,-0.03 0.18,-0.1 0.05,-0.07 0.07,-0.17 0.07,-0.3 0,-0.13 -0.02,-0.24 -0.07,-0.3 -0.05,-0.07 -0.11,-0.1 -0.18,-0.1 -0.07,0 -0.13,0.03 -0.18,0.1 -0.05,0.07 -0.07,0.17 -0.07,0.3z"/>
  <polygon id="_4" class="fil0" points="3.75,0.4 3.89,0.4 3.89,1.3 4.22,1.3 4.22,0.4 4.37,0.4 4.37,1.3 4.7,1.3 4.7,0.4 4.85,0.4 4.85,1.44 3.75,1.44 "/>
  <path id="_5" class="fil0" d="M5.06 1.85l-0.02 -0.17c0.03,0.01 0.06,0.02 0.08,0.02 0.03,0 0.06,-0.01 0.08,-0.02 0.02,-0.01 0.04,-0.03 0.05,-0.06 0,-0.01 0.02,-0.07 0.06,-0.18l-0.32 -1.04 0.16 0 0.18 0.6c0.02,0.07 0.04,0.15 0.06,0.24 0.02,-0.08 0.04,-0.16 0.06,-0.24l0.18 -0.61 0.15 0 -0.33 1.06c-0.04,0.14 -0.08,0.23 -0.1,0.28 -0.02,0.05 -0.05,0.08 -0.08,0.1 -0.03,0.02 -0.07,0.03 -0.11,0.03 -0.03,0 -0.06,-0.01 -0.09,-0.02z"/>
  <path id="_6" class="fil0" d="M5.89 1.85l0 -1.45 0.14 0 0 0.14c0.03,-0.06 0.07,-0.1 0.11,-0.12 0.04,-0.03 0.09,-0.04 0.14,-0.04 0.07,0 0.13,0.02 0.18,0.06 0.05,0.04 0.1,0.1 0.13,0.18 0.03,0.08 0.05,0.18 0.05,0.3 0,0.18 -0.04,0.31 -0.11,0.41 -0.07,0.1 -0.16,0.14 -0.26,0.14 -0.04,0 -0.09,-0.01 -0.12,-0.03 -0.04,-0.02 -0.07,-0.06 -0.1,-0.1l0 0.51 -0.15 0zm0.13 -0.92c0,0.14 0.02,0.23 0.07,0.3 0.04,0.06 0.1,0.1 0.16,0.1 0.06,0 0.11,-0.03 0.16,-0.1 0.05,-0.07 0.07,-0.17 0.07,-0.31 0,-0.14 -0.02,-0.24 -0.07,-0.3 -0.05,-0.07 -0.1,-0.1 -0.16,-0.1 -0.06,0 -0.11,0.04 -0.16,0.11 -0.05,0.07 -0.07,0.17 -0.07,0.31z"/>
 </g>
</svg>
