<?xml version="1.0" encoding="UTF-8"?>
<!DOCTYPE svg PUBLIC "-//W3C//DTD SVG 1.1//EN" "http://www.w3.org/Graphics/SVG/1.1/DTD/svg11.dtd">
<!-- Creator: CorelDRAW 2019 (64-Bit) -->
<svg xmlns="http://www.w3.org/2000/svg" xml:space="preserve" width="0.43749cm" height="0.11581cm" version="1.1" style="shape-rendering:geometricPrecision; text-rendering:geometricPrecision; image-rendering:optimizeQuality; fill-rule:evenodd; clip-rule:evenodd"
viewBox="0 0 0.43 0.114"
 xmlns:xlink="http://www.w3.org/1999/xlink"
 xmlns:xodm="http://www.corel.com/coreldraw/odm/2003">
 <defs>
  <style type="text/css">
   <![CDATA[
    .fil0 {fill:white;fill-rule:nonzero}
   ]]>
  </style>
 </defs>
 <g id="Слой_x0020_1">
  <metadata id="CorelCorpID_0Corel-Layer"/>
  <path class="fil0" d="M-0 0l0.012 0 0 0.049c0.006,0 0.01,-0.001 0.012,-0.004 0.002,-0.003 0.005,-0.009 0.009,-0.019 0.003,-0.008 0.005,-0.013 0.007,-0.016 0.002,-0.003 0.004,-0.006 0.007,-0.007 0.003,-0.002 0.007,-0.003 0.012,-0.003 0.002,0 0.003,0 0.005,0l0 0.013 -0.002 -0 -0.003 -0c-0.003,0 -0.006,0.001 -0.008,0.003 -0.002,0.002 -0.004,0.007 -0.007,0.015 -0.003,0.009 -0.005,0.015 -0.008,0.018 -0.002,0.003 -0.005,0.005 -0.008,0.006 0.006,0.002 0.012,0.009 0.017,0.02l0.019 0.037 -0.015 0 -0.015 -0.03c-0.005,-0.01 -0.009,-0.016 -0.012,-0.018 -0.003,-0.003 -0.006,-0.004 -0.009,-0.004 -0,0 -0.001,0 -0.001,0l0 0.052 -0.012 0 0 -0.112z"/>
  <path id="1" class="fil0" d="M0.068 0.071c0,-0.014 0.003,-0.024 0.009,-0.032 0.006,-0.007 0.013,-0.011 0.022,-0.011 0.009,0 0.016,0.004 0.022,0.011 0.006,0.007 0.009,0.017 0.009,0.031 0,0.014 -0.003,0.025 -0.009,0.032 -0.006,0.007 -0.013,0.011 -0.022,0.011 -0.009,0 -0.016,-0.004 -0.022,-0.011 -0.006,-0.007 -0.009,-0.018 -0.009,-0.032zm0.012 -0c0,0.011 0.002,0.018 0.006,0.023 0.004,0.005 0.008,0.008 0.014,0.008 0.005,0 0.01,-0.003 0.014,-0.008 0.004,-0.005 0.006,-0.013 0.006,-0.023 0,-0.01 -0.002,-0.018 -0.006,-0.023 -0.004,-0.005 -0.008,-0.008 -0.014,-0.008 -0.005,0 -0.01,0.003 -0.014,0.008 -0.004,0.005 -0.006,0.013 -0.006,0.023z"/>
  <path id="2" class="fil0" d="M0.184 0.031l0 0.035c0.004,0 0.006,-0.001 0.008,-0.002 0.001,-0.002 0.004,-0.007 0.006,-0.015 0.002,-0.006 0.004,-0.011 0.005,-0.013 0.001,-0.002 0.003,-0.003 0.005,-0.004 0.002,-0.001 0.005,-0.001 0.009,-0.001l0.002 0 0 0.011 -0.003 -0c-0.002,0 -0.004,0 -0.005,0.001 -0.001,0.001 -0.002,0.002 -0.003,0.005 -0.003,0.008 -0.005,0.013 -0.006,0.016 -0.001,0.002 -0.004,0.004 -0.007,0.006 0.005,0.002 0.01,0.007 0.014,0.016l0.012 0.025 -0.013 0 -0.012 -0.025c-0.002,-0.005 -0.005,-0.009 -0.006,-0.01 -0.002,-0.002 -0.004,-0.002 -0.006,-0.002l0 0.037 -0.012 0 0 -0.037c-0.002,0 -0.005,0.001 -0.006,0.002 -0.002,0.002 -0.004,0.005 -0.006,0.01l-0.012 0.025 -0.012 0 0.012 -0.025c0.005,-0.009 0.009,-0.015 0.014,-0.016 -0.003,-0.002 -0.005,-0.004 -0.007,-0.006 -0.001,-0.002 -0.004,-0.008 -0.006,-0.016 -0.001,-0.003 -0.002,-0.004 -0.003,-0.005 -0.001,-0.001 -0.003,-0.001 -0.005,-0.001l-0.003 0 0 -0.011 0.002 0c0.005,0 0.008,0 0.01,0.001 0.002,0.001 0.003,0.002 0.005,0.005 0.001,0.002 0.003,0.007 0.006,0.015 0.002,0.006 0.004,0.01 0.005,0.012 0.001,0.002 0.004,0.002 0.008,0.002l0 -0.035 0.012 0z"/>
  <polygon id="3" class="fil0" points="0.229,0.031 0.241,0.031 0.241,0.092 0.272,0.031 0.284,0.031 0.284,0.112 0.273,0.112 0.273,0.05 0.241,0.112 0.229,0.112 "/>
  <path id="4" class="fil0" d="M0.306 0.031l0.052 0 0 0.081 -0.011 0 0 -0.07 -0.03 0 0 0.04c0,0.009 -0,0.015 -0.001,0.019 -0,0.003 -0.002,0.006 -0.004,0.008 -0.002,0.002 -0.006,0.003 -0.01,0.003 -0.003,0 -0.006,-0 -0.009,-0l0 -0.012c0.005,-0 0.008,-0 0.009,-0.001 0.001,-0 0.002,-0.001 0.002,-0.002 0.001,-0.001 0.001,-0.006 0.001,-0.013l0 -0.053z"/>
  <path id="5" class="fil0" d="M0.375 0.031l0.011 0 0 0.032 0.014 0c0.01,0 0.018,0.002 0.022,0.007 0.004,0.005 0.007,0.011 0.007,0.018 0,0.007 -0.002,0.012 -0.006,0.017 -0.004,0.005 -0.011,0.007 -0.02,0.007l-0.028 0 0 -0.081zm0.011 0.07l0.012 0c0.009,0 0.014,-0.001 0.016,-0.004 0.002,-0.003 0.004,-0.006 0.004,-0.009 0,-0.004 -0.001,-0.008 -0.004,-0.01 -0.003,-0.002 -0.007,-0.004 -0.014,-0.004l-0.013 0 0 0.027z"/>
 </g>
</svg>
