<?xml version="1.0" encoding="utf-8"?>
<!-- Generator: Adobe Illustrator 19.2.1, SVG Export Plug-In . SVG Version: 6.00 Build 0)  -->
<svg version="1.1" id="Layer_1" xmlns="http://www.w3.org/2000/svg" xmlns:xlink="http://www.w3.org/1999/xlink" x="0px" y="0px"
	 viewBox="0 0 220 34.7" style="enable-background:new 0 0 220 34.7;" xml:space="preserve">
<style type="text/css">
	.st0{fill:#EE3F58;}
	.st1{fill:#0065B1;}
</style>
<path class="st0" d="M143.6,0.8h-18c-0.2,0-0.3,0.1-0.3,0.3c-0.5,8.1-2,16.9-4.2,24c0,0.1,0,0.2,0,0.3c0.1,0.1,0.2,0.1,0.3,0.1h6.2
	c0.1,0,0.3-0.1,0.3-0.2c1.7-5.5,3.1-12.7,3.6-18.8h5.9v18.7c0,0.2,0.1,0.3,0.3,0.3h5.9c0.2,0,0.3-0.1,0.3-0.3V1.2
	C143.9,1,143.8,0.8,143.6,0.8"/>
<path class="st0" d="M219.7,0.8h-5.9c-0.2,0-0.3,0.1-0.3,0.3v18.6c-1.3,0.4-2.6,0.5-4,0.5c-3.9,0-4.8-1.2-4.8-6.4V1.2
	c0-0.2-0.1-0.3-0.3-0.3h-5.9c-0.2,0-0.3,0.1-0.3,0.3v13.4c0,8.4,2.8,11.7,10.1,11.7c4.1,0,8.8-1.1,11.5-2.1c0.1,0,0.2-0.2,0.2-0.3
	V1.2C220,1,219.9,0.8,219.7,0.8"/>
<path class="st0" d="M95.2,0.9h-6c-0.2,0-0.3,0.1-0.3,0.2C88,4.8,86.1,11,83.5,17.5l-6-16.5c0-0.1-0.2-0.2-0.3-0.2h-6
	c-0.1,0-0.2,0.1-0.3,0.1c-0.1,0.1-0.1,0.2,0,0.3l9,24.6c-0.9,1.9-1.8,3.5-2.6,5c-0.6,1.1-1.2,2.2-1.8,3.4c-0.1,0.1,0,0.2,0,0.3
	c0.1,0.1,0.2,0.2,0.3,0.2h6.5c0.1,0,0.2-0.1,0.3-0.2c1.1-2.1,2.5-5.1,3.8-8.1c3.8-9,6.9-17.4,9.2-25.1c0-0.1,0-0.2-0.1-0.3
	C95.4,0.9,95.3,0.9,95.2,0.9"/>
<path class="st0" d="M116.6,19.8c0-0.1-0.1-0.2-0.2-0.2c-0.1,0-0.2,0-0.3,0c-1.4,0.5-4.1,1-6,1c-4.1,0-6-1.1-6-7.4
	c0-5,0.6-7.4,6-7.4c1.5,0,3,0.2,4.8,0.8c0.2,0,0.3,0,0.4-0.2c0.7-1.3,1.5-2.8,2.4-4.8c0-0.1,0-0.2,0-0.3c0-0.1-0.1-0.2-0.2-0.2
	c-2.4-0.8-5.3-1.2-7.8-1.2c-8.6,0-12.4,4-12.4,13.1c0,9.2,3.8,13.3,12.4,13.3c2.1,0,6.4-0.5,8.4-1.3c0.2-0.1,0.2-0.2,0.2-0.4
	L116.6,19.8z"/>
<path class="st0" d="M172.5,0.9h-6c-0.1,0-0.3,0.1-0.3,0.2c-0.9,3.7-2.8,9.9-5.4,16.4l-6-16.5c0-0.1-0.2-0.2-0.3-0.2h-6
	c-0.1,0-0.2,0.1-0.3,0.1c-0.1,0.1-0.1,0.2,0,0.3l9,24.6c-0.9,1.9-1.8,3.4-2.6,5c-0.6,1.1-1.2,2.2-1.8,3.4c-0.1,0.1,0,0.2,0,0.3
	c0.1,0.1,0.2,0.2,0.3,0.2h6.5c0.1,0,0.2-0.1,0.3-0.2c1.1-2.1,2.5-5.1,3.8-8.1c3.8-9,6.9-17.4,9.1-25.1c0-0.1,0-0.2-0.1-0.3
	C172.7,0.9,172.6,0.9,172.5,0.9"/>
<path class="st0" d="M194.5,0.8h-17.4c-0.2,0-0.3,0.1-0.3,0.3v24.1c0,0.2,0.1,0.3,0.3,0.3h5.9c0.2,0,0.3-0.1,0.3-0.3V6.6h9.1
	c0.1,0,0.3-0.1,0.3-0.2c0.7-1.6,1.4-3.4,2.1-5.1c0-0.1,0-0.2,0-0.3C194.7,0.9,194.6,0.8,194.5,0.8"/>
<path class="st1" d="M31.3,20.8c-3.9,0-5.1-1.1-5.1-7.6c0-7,1.3-7.6,5.1-7.6c3.8,0,5.2,0.6,5.2,7.6C36.5,19.8,35.2,20.8,31.3,20.8
	 M31.3,0.1c-8.5,0-11.8,3.6-11.8,13c0,9.5,3.3,13.2,11.8,13.2c8.5,0,11.9-3.7,11.9-13.2C43.2,3.8,39.8,0.1,31.3,0.1"/>
<path class="st1" d="M66.6,19.8c0-0.1-0.1-0.2-0.2-0.2c-0.1,0-0.2,0-0.3,0c-1.4,0.5-4.1,1-6,1c-4.1,0-6-1.1-6-7.4c0-5,0.6-7.4,6-7.4
	c1.5,0,3,0.2,4.8,0.8c0.1,0,0.3,0,0.4-0.2c0.7-1.3,1.5-2.8,2.4-4.8c0-0.1,0-0.2,0-0.3c0-0.1-0.1-0.2-0.2-0.2C65.2,0.4,62.3,0,59.8,0
	c-8.6,0-12.4,4-12.4,13.1c0,9.2,3.8,13.3,12.4,13.3c2.1,0,6.4-0.5,8.4-1.3c0.2-0.1,0.2-0.2,0.2-0.4L66.6,19.8z"/>
<path class="st1" d="M17.7,0.8H0.3C0.1,0.8,0,1,0,1.2v24.1c0,0.2,0.1,0.3,0.3,0.3h5.9c0.2,0,0.3-0.1,0.3-0.3V6.6h9.1
	c0.1,0,0.2-0.1,0.3-0.2c0.7-1.6,1.4-3.4,2.1-5.1c0-0.1,0-0.2,0-0.3C17.9,0.9,17.8,0.8,17.7,0.8"/>
</svg>
