<?xml version="1.0" encoding="UTF-8"?>
<!DOCTYPE svg PUBLIC "-//W3C//DTD SVG 1.1//EN" "http://www.w3.org/Graphics/SVG/1.1/DTD/svg11.dtd">
<!-- Creator: CorelDRAW 2019 (64-Bit) -->
<svg xmlns="http://www.w3.org/2000/svg" xml:space="preserve" width="2.51533cm" height="0.56213cm" version="1.1" style="shape-rendering:geometricPrecision; text-rendering:geometricPrecision; image-rendering:optimizeQuality; fill-rule:evenodd; clip-rule:evenodd"
viewBox="0 0 3.192 0.713"
 xmlns:xlink="http://www.w3.org/1999/xlink"
 xmlns:xodm="http://www.corel.com/coreldraw/odm/2003">
 <defs>
  <style type="text/css">
   <![CDATA[
    .fil0 {fill:#099156}
    .fil1 {fill:#0AAF68}
    .fil2 {fill:#D68056}
    .fil3 {fill:#66FFCC;fill-rule:nonzero}
   ]]>
  </style>
 </defs>
 <g id="Слой_x0020_1">
  <metadata id="CorelCorpID_0Corel-Layer"/>
  <g id="_1739895369776">
   <polygon class="fil0" points="2.618,0.389 3.192,0 3.192,0.324 2.618,0.713 "/>
   <polygon class="fil1" points="2.618,0.389 -0,0.389 -0,0.713 2.618,0.713 "/>
   <polygon class="fil2" points="0.044,0.356 2.668,0.355 2.618,0.389 -0,0.389 "/>
   <polygon class="fil2" points="3.147,0 2.607,0.356 2.618,0.389 3.192,0 "/>
  </g>
  <polygon class="fil3" points="0.219,0.624 0.219,0.531 0.158,0.531 0.158,0.624 0.11,0.624 0.11,0.494 0.267,0.494 0.267,0.624 "/>
  <path id="1" class="fil3" d="M0.448 0.607c0,0.005 -0.001,0.009 -0.004,0.012 -0.003,0.003 -0.007,0.005 -0.012,0.005l-0.126 0c-0.005,0 -0.009,-0.002 -0.012,-0.005 -0.003,-0.003 -0.004,-0.007 -0.004,-0.012l0 -0.096c0,-0.005 0.001,-0.009 0.004,-0.013 0.003,-0.003 0.007,-0.005 0.012,-0.005l0.126 0c0.005,0 0.009,0.002 0.012,0.005 0.003,0.003 0.004,0.007 0.004,0.013l0 0.096zm-0.048 -0.078l-0.061 0 0 0.06 0.061 0 0 -0.06z"/>
  <path id="2" class="fil3" d="M0.629 0.607c0,0.005 -0.001,0.009 -0.004,0.012 -0.003,0.003 -0.007,0.005 -0.012,0.005l-0.125 0c-0.005,0 -0.009,-0.002 -0.012,-0.005 -0.003,-0.003 -0.004,-0.007 -0.004,-0.012l0 -0.096c0,-0.005 0.001,-0.009 0.004,-0.013 0.003,-0.003 0.007,-0.005 0.012,-0.005l0.125 0c0.005,0 0.009,0.002 0.012,0.005 0.003,0.003 0.004,0.007 0.004,0.013l0 0.038 -0.048 0 0 -0.02 -0.061 0 0 0.06 0.061 0 0 -0.02 0.048 0 0 0.038z"/>
  <polygon id="3" class="fil3" points="0.746,0.531 0.746,0.624 0.698,0.624 0.698,0.531 0.644,0.531 0.644,0.494 0.801,0.494 0.801,0.531 "/>
  <polygon id="4" class="fil3" points="0.908,0.624 0.857,0.624 0.874,0.589 0.804,0.494 0.861,0.494 0.896,0.546 0.922,0.494 0.975,0.494 "/>
  <polygon id="5" class="fil3" points="1.097,0.624 1.097,0.531 1.035,0.531 1.035,0.624 0.987,0.624 0.987,0.494 1.145,0.494 1.145,0.624 "/>
  <polygon id="6" class="fil3" points="1.168,0.624 1.168,0.494 1.216,0.494 1.216,0.557 1.278,0.494 1.326,0.494 1.326,0.624 1.278,0.624 1.278,0.556 1.216,0.624 "/>
  <polygon id="7" class="fil3" points="1.349,0.587 1.349,0.552 1.43,0.552 1.43,0.587 "/>
  <path id="8" class="fil3" d="M1.611 0.607c0,0.005 -0.001,0.009 -0.004,0.012 -0.003,0.003 -0.007,0.005 -0.012,0.005l-0.126 0c-0.005,0 -0.009,-0.002 -0.012,-0.005 -0.003,-0.003 -0.004,-0.007 -0.004,-0.012l0 -0.096c0,-0.005 0.001,-0.009 0.004,-0.013 0.003,-0.003 0.007,-0.005 0.012,-0.005l0.126 0c0.005,0 0.009,0.002 0.012,0.005 0.003,0.003 0.004,0.007 0.004,0.013l0 0.096zm-0.048 -0.078l-0.061 0 0 0.06 0.061 0 0 -0.06z"/>
  <polygon id="9" class="fil3" points="1.744,0.624 1.744,0.582 1.683,0.582 1.683,0.624 1.635,0.624 1.635,0.494 1.683,0.494 1.683,0.541 1.744,0.541 1.744,0.494 1.792,0.494 1.792,0.624 "/>
  <polygon id="10" class="fil3" points="1.854,0.624 1.804,0.624 1.804,0.624 1.867,0.494 1.917,0.494 1.98,0.624 1.98,0.624 1.93,0.624 1.892,0.536 "/>
  <path id="11" class="fil3" d="M2.107 0.624l-0.007 -0.018 -0.061 0 -0.008 0.018 -0.049 0 0 -0 0.063 -0.13 0.05 0 0.063 0.13 0 0 -0.05 0zm-0.038 -0.088l-0.015 0.038 0.031 0 -0.016 -0.038z"/>
  <path id="12" class="fil3" d="M2.169 0.624l0 -0.13 0.048 0 0 0.063 0.062 -0.063 0.047 0 0 0.13 -0.048 0 0 -0.068 -0.062 0.068 -0.047 0zm0.041 -0.137c-0.003,0 -0.005,-0.001 -0.007,-0.003 -0.002,-0.002 -0.003,-0.005 -0.003,-0.007l0 -0.024 0.03 0 0 0.007 0.034 0 0 -0.007 0.03 0 0 0.024c0,0.003 -0.001,0.005 -0.003,0.007 -0.002,0.002 -0.004,0.003 -0.007,0.003l-0.074 0z"/>
  <polygon id="13" class="fil3" points="2.459,0.624 2.459,0.582 2.398,0.582 2.398,0.624 2.35,0.624 2.35,0.494 2.398,0.494 2.398,0.541 2.459,0.541 2.459,0.494 2.507,0.494 2.507,0.624 "/>
 </g>
</svg>
