<?xml version="1.0" encoding="UTF-8"?>
<!DOCTYPE svg PUBLIC "-//W3C//DTD SVG 1.1//EN" "http://www.w3.org/Graphics/SVG/1.1/DTD/svg11.dtd">
<!-- Creator: CorelDRAW 2019 (64-Bit) -->
<svg xmlns="http://www.w3.org/2000/svg" xml:space="preserve" width="2.51533cm" height="0.56213cm" version="1.1" style="shape-rendering:geometricPrecision; text-rendering:geometricPrecision; image-rendering:optimizeQuality; fill-rule:evenodd; clip-rule:evenodd"
viewBox="0 0 3.194 0.714"
 xmlns:xlink="http://www.w3.org/1999/xlink"
 xmlns:xodm="http://www.corel.com/coreldraw/odm/2003">
 <defs>
  <style type="text/css">
   <![CDATA[
    .fil0 {fill:#099156}
    .fil1 {fill:#0AAF68}
    .fil2 {fill:#D68056}
    .fil3 {fill:#66FFCC;fill-rule:nonzero}
   ]]>
  </style>
 </defs>
 <g id="Слой_x0020_1">
  <metadata id="CorelCorpID_0Corel-Layer"/>
  <g id="_2862040552480">
   <polygon class="fil0" points="2.619,0.389 3.194,0 3.194,0.325 2.619,0.714 "/>
   <polygon class="fil1" points="2.619,0.389 -0,0.389 -0,0.714 2.619,0.714 "/>
   <polygon class="fil2" points="0.044,0.356 2.669,0.355 2.619,0.389 -0,0.389 "/>
   <polygon class="fil2" points="3.148,0 2.608,0.356 2.619,0.389 3.194,0 "/>
  </g>
  <polygon class="fil3" points="0.176,0.602 0.133,0.602 0.148,0.572 0.089,0.492 0.137,0.492 0.166,0.535 0.188,0.492 0.233,0.492 "/>
  <path id="1" class="fil3" d="M0.33 0.492l0.04 0 0 0.11 -0.04 0 0 -0.028 -0.073 0c-0.004,0 -0.008,-0.001 -0.01,-0.004 -0.002,-0.003 -0.004,-0.006 -0.004,-0.011l0 -0.067 0.04 0 0 0.053 0.046 0 0 -0.053z"/>
  <polygon id="2" class="fil3" points="0.389,0.602 0.389,0.492 0.512,0.492 0.512,0.523 0.429,0.523 0.429,0.533 0.492,0.533 0.492,0.561 0.429,0.561 0.429,0.571 0.513,0.571 0.513,0.602 "/>
  <path id="3" class="fil3" d="M0.615 0.558l-0.046 0 0 0.015 0.046 0 0 -0.015zm-0.046 -0.035l0 0.012 0.073 0c0.004,0 0.008,0.001 0.01,0.004 0.002,0.003 0.004,0.006 0.004,0.011l0 0.037c0,0.004 -0.001,0.008 -0.004,0.011 -0.002,0.003 -0.006,0.004 -0.01,0.004l-0.113 0 0 -0.11 0.12 0 0 0.031 -0.08 0z"/>
  <polygon id="4" class="fil3" points="0.766,0.602 0.766,0.566 0.714,0.566 0.714,0.602 0.674,0.602 0.674,0.492 0.714,0.492 0.714,0.532 0.766,0.532 0.766,0.492 0.806,0.492 0.806,0.602 "/>
  <path id="5" class="fil3" d="M0.953 0.544l0 0.043c0,0.004 -0.001,0.008 -0.004,0.011 -0.002,0.003 -0.006,0.004 -0.01,0.004l-0.113 0 0 -0.11 0.04 0 0 0.037 0.073 0c0.004,0 0.008,0.001 0.01,0.004 0.002,0.003 0.004,0.006 0.004,0.011zm-0.04 0.014l-0.046 0 0 0.015 0.046 0 0 -0.015zm0.049 0.044l0 -0.11 0.04 0 0 0.11 -0.04 0z"/>
  <polygon id="6" class="fil3" points="1.012,0.602 1.012,0.492 1.135,0.492 1.135,0.523 1.052,0.523 1.052,0.533 1.115,0.533 1.115,0.561 1.052,0.561 1.052,0.571 1.136,0.571 1.136,0.602 "/>
  <path id="7" class="fil3" d="M1.334 0.587c0,0.004 -0.001,0.008 -0.004,0.011 -0.002,0.003 -0.006,0.004 -0.01,0.004l-0.106 0c-0.004,0 -0.007,-0.001 -0.01,-0.004 -0.002,-0.003 -0.004,-0.006 -0.004,-0.011l0 -0.023 0.04 0 0 0.008 0.052 0 0 -0.006 -0.043 -0.014 0 -0.013 0.043 -0.014 0 -0.004 -0.052 0 0 0.008 -0.04 0 0 -0.023c0,-0.004 0.001,-0.008 0.004,-0.011 0.002,-0.003 0.006,-0.004 0.01,-0.004l0.106 0c0.004,0 0.007,0.001 0.01,0.004 0.002,0.003 0.004,0.006 0.004,0.011l0 0.022c0,0.007 -0.004,0.011 -0.011,0.013l-0.015 0.004 0.015 0.002c0.004,0 0.006,0.002 0.008,0.004 0.002,0.002 0.003,0.005 0.003,0.008l0 0.028z"/>
  <path id="8" class="fil3" d="M1.45 0.602l-0.006 -0.015 -0.052 0 -0.006 0.015 -0.042 0 0 -0 0.053 -0.109 0.042 0 0.053 0.109 0 0 -0.042 0zm-0.032 -0.075l-0.013 0.032 0.026 0 -0.013 -0.032z"/>
  <path id="9" class="fil3" d="M1.634 0.587c0,0.004 -0.001,0.008 -0.004,0.011 -0.002,0.003 -0.006,0.004 -0.01,0.004l-0.117 0 0 -0.11 0.117 0c0.004,0 0.007,0.001 0.01,0.004 0.002,0.003 0.004,0.006 0.004,0.011l0 0.021c0,0.003 -0.001,0.005 -0.002,0.007 -0.001,0.002 -0.003,0.004 -0.006,0.005l-0.013 0.007 0.014 0.007c0.002,0.001 0.004,0.003 0.006,0.005 0.001,0.002 0.002,0.004 0.002,0.007l0 0.022zm-0.041 -0.067l-0.049 0 0 0.015 0.037 0 0.012 -0.008 0 -0.006zm0.001 0.045l-0.013 -0.008 -0.037 0 0 0.015 0.05 0 0 -0.008z"/>
  <polygon id="10" class="fil3" points="1.654,0.602 1.654,0.492 1.777,0.492 1.777,0.523 1.695,0.523 1.695,0.533 1.758,0.533 1.758,0.561 1.695,0.561 1.695,0.571 1.778,0.571 1.778,0.602 "/>
  <path id="11" class="fil3" d="M1.842 0.571l0.037 0 -0.019 -0.043 -0.019 0.043zm0.078 0l0.02 0 0 0.042 -0.04 0 0 -0.011 -0.075 0 0 0.011 -0.04 0 0 -0.042 0.017 0 0.038 -0.078 0.042 0 0.038 0.078z"/>
  <polygon id="12" class="fil3" points="1.952,0.602 1.952,0.492 2.075,0.492 2.075,0.523 1.992,0.523 1.992,0.533 2.055,0.533 2.055,0.561 1.992,0.561 1.992,0.571 2.076,0.571 2.076,0.602 "/>
  <polygon id="13" class="fil3" points="2.183,0.602 2.183,0.566 2.132,0.566 2.132,0.602 2.091,0.602 2.091,0.492 2.132,0.492 2.132,0.532 2.183,0.532 2.183,0.492 2.224,0.492 2.224,0.602 "/>
  <polygon id="14" class="fil3" points="2.244,0.602 2.244,0.492 2.284,0.492 2.284,0.545 2.336,0.492 2.376,0.492 2.376,0.602 2.336,0.602 2.336,0.544 2.284,0.602 "/>
  <path id="15" class="fil3" d="M2.389 0.602l0 -0.001 0.033 -0.031 -0.013 0c-0.004,0 -0.007,-0.001 -0.01,-0.004 -0.002,-0.002 -0.004,-0.006 -0.004,-0.01l0 -0.049c0,-0.004 0.001,-0.008 0.004,-0.011 0.002,-0.003 0.006,-0.004 0.01,-0.004l0.113 0 0 0.11 -0.04 0 0 -0.08 -0.046 0 0 0.022 0.039 0 0 0.017 -0.04 0.04 -0.046 0z"/>
 </g>
</svg>
