<?xml version="1.0" encoding="UTF-8"?>
<!DOCTYPE svg PUBLIC "-//W3C//DTD SVG 1.1//EN" "http://www.w3.org/Graphics/SVG/1.1/DTD/svg11.dtd">
<!-- Creator: CorelDRAW 2019 (64-Bit) -->
<svg xmlns="http://www.w3.org/2000/svg" xml:space="preserve" width="2.51533cm" height="0.56213cm" version="1.1" style="shape-rendering:geometricPrecision; text-rendering:geometricPrecision; image-rendering:optimizeQuality; fill-rule:evenodd; clip-rule:evenodd"
viewBox="0 0 4.442 0.993"
 xmlns:xlink="http://www.w3.org/1999/xlink"
 xmlns:xodm="http://www.corel.com/coreldraw/odm/2003">
 <defs>
  <style type="text/css">
   <![CDATA[
    .fil0 {fill:#3175CF}
    .fil2 {fill:#357EDE}
    .fil1 {fill:#748AE8}
    .fil3 {fill:white;fill-rule:nonzero}
   ]]>
  </style>
 </defs>
 <g id="Слой_x0020_1">
  <metadata id="CorelCorpID_0Corel-Layer"/>
  <polygon class="fil0" points="3.643,0.541 4.442,0 4.442,0.451 3.643,0.993 "/>
  <polygon class="fil1" points="3.643,0.541 -0,0.541 -0,0.993 3.643,0.993 "/>
  <polygon class="fil2" points="0.061,0.495 3.713,0.494 3.643,0.541 -0,0.541 "/>
  <polygon class="fil0" points="4.379,0 3.627,0.495 3.643,0.541 4.442,0 "/>
  <polygon class="fil3" points="0.25,0.847 0.19,0.847 0.211,0.806 0.129,0.695 0.195,0.695 0.236,0.755 0.267,0.694 0.329,0.694 "/>
  <path id="1" class="fil3" d="M0.463 0.695l0.056 0 0 0.152 -0.056 0 0 -0.038 -0.101 0c-0.006,0 -0.01,-0.002 -0.014,-0.005 -0.003,-0.004 -0.005,-0.009 -0.005,-0.015l0 -0.094 0.056 0 0 0.074 0.064 0 0 -0.074z"/>
  <polygon id="2" class="fil3" points="0.545,0.847 0.545,0.695 0.717,0.695 0.717,0.738 0.602,0.738 0.602,0.752 0.689,0.752 0.689,0.79 0.602,0.79 0.602,0.804 0.718,0.804 0.718,0.847 "/>
  <path id="3" class="fil3" d="M0.86 0.786l-0.064 0 0 0.022 0.064 0 0 -0.022zm-0.064 -0.048l0 0.017 0.101 0c0.006,0 0.01,0.002 0.014,0.005 0.003,0.004 0.005,0.009 0.005,0.015l0 0.052c0,0.006 -0.002,0.011 -0.005,0.015 -0.003,0.004 -0.008,0.005 -0.014,0.005l-0.158 0 0 -0.152 0.167 0 0 0.043 -0.111 0z"/>
  <polygon id="4" class="fil3" points="1.07,0.847 1.07,0.798 0.998,0.798 0.998,0.847 0.942,0.847 0.942,0.695 0.998,0.695 0.998,0.75 1.07,0.75 1.07,0.695 1.126,0.695 1.126,0.847 "/>
  <path id="5" class="fil3" d="M1.33 0.767l0 0.06c0,0.006 -0.002,0.011 -0.005,0.015 -0.003,0.004 -0.008,0.005 -0.014,0.005l-0.158 0 0 -0.152 0.056 0 0 0.052 0.101 0c0.006,0 0.01,0.002 0.014,0.005 0.003,0.004 0.005,0.009 0.005,0.015zm-0.056 0.02l-0.064 0 0 0.022 0.064 0 0 -0.022zm0.068 0.061l0 -0.152 0.056 0 0 0.152 -0.056 0z"/>
  <polygon id="6" class="fil3" points="1.412,0.847 1.412,0.695 1.584,0.695 1.584,0.738 1.469,0.738 1.469,0.752 1.556,0.752 1.556,0.79 1.469,0.79 1.469,0.804 1.585,0.804 1.585,0.847 "/>
  <path id="7" class="fil3" d="M1.861 0.827c0,0.006 -0.002,0.011 -0.005,0.015 -0.003,0.004 -0.008,0.005 -0.014,0.005l-0.147 0c-0.006,0 -0.01,-0.002 -0.014,-0.005 -0.003,-0.004 -0.005,-0.009 -0.005,-0.015l0 -0.032 0.056 0 0 0.011 0.072 0 0 -0.009 -0.06 -0.019 0 -0.018 0.06 -0.019 0 -0.005 -0.072 0 0 0.011 -0.056 0 0 -0.032c0,-0.006 0.002,-0.011 0.005,-0.015 0.003,-0.004 0.008,-0.005 0.014,-0.005l0.147 0c0.006,0 0.01,0.002 0.014,0.005 0.003,0.004 0.005,0.009 0.005,0.015l0 0.031c0,0.009 -0.005,0.015 -0.016,0.018l-0.021 0.005 0.021 0.003c0.005,0.001 0.009,0.002 0.012,0.005 0.003,0.003 0.004,0.006 0.004,0.011l0 0.039z"/>
  <path id="8" class="fil3" d="M2.023 0.847l-0.008 -0.021 -0.072 0 -0.009 0.021 -0.058 0 0 -0 0.073 -0.152 0.059 0 0.073 0.152 0 0 -0.059 0zm-0.044 -0.104l-0.018 0.044 0.037 0 -0.019 -0.044z"/>
  <path id="9" class="fil3" d="M2.278 0.827c0,0.006 -0.002,0.011 -0.005,0.015 -0.003,0.004 -0.008,0.005 -0.014,0.005l-0.163 0 0 -0.152 0.162 0c0.006,0 0.01,0.002 0.014,0.005 0.003,0.004 0.005,0.009 0.005,0.015l0 0.029c0,0.004 -0.001,0.008 -0.002,0.01 -0.002,0.003 -0.004,0.005 -0.008,0.007l-0.019 0.01 0.02 0.01c0.003,0.002 0.006,0.004 0.008,0.006 0.002,0.002 0.003,0.006 0.003,0.01l0 0.03zm-0.058 -0.093l-0.068 0 0 0.021 0.051 0 0.017 -0.012 0 -0.009zm0.001 0.063l-0.019 -0.011 -0.051 0 0 0.022 0.07 0 0 -0.011z"/>
  <polygon id="10" class="fil3" points="2.306,0.847 2.306,0.695 2.477,0.695 2.477,0.738 2.362,0.738 2.362,0.752 2.45,0.752 2.45,0.79 2.362,0.79 2.362,0.804 2.479,0.804 2.479,0.847 "/>
  <path id="11" class="fil3" d="M2.567 0.804l0.052 0 -0.026 -0.06 -0.026 0.06zm0.108 0l0.029 0 0 0.059 -0.056 0 0 -0.016 -0.104 0 0 0.016 -0.056 0 0 -0.059 0.024 0 0.053 -0.109 0.059 0 0.053 0.109z"/>
  <polygon id="12" class="fil3" points="2.72,0.847 2.72,0.695 2.891,0.695 2.891,0.738 2.776,0.738 2.776,0.752 2.863,0.752 2.863,0.79 2.776,0.79 2.776,0.804 2.892,0.804 2.892,0.847 "/>
  <polygon id="13" class="fil3" points="3.042,0.847 3.042,0.798 2.97,0.798 2.97,0.847 2.914,0.847 2.914,0.695 2.97,0.695 2.97,0.75 3.042,0.75 3.042,0.695 3.098,0.695 3.098,0.847 "/>
  <polygon id="14" class="fil3" points="3.126,0.847 3.126,0.695 3.183,0.695 3.183,0.768 3.255,0.695 3.31,0.695 3.31,0.847 3.254,0.847 3.254,0.767 3.182,0.847 "/>
  <path id="15" class="fil3" d="M3.329 0.847l0 -0.002 0.046 -0.043 -0.018 0c-0.006,0 -0.01,-0.002 -0.014,-0.005 -0.003,-0.003 -0.005,-0.008 -0.005,-0.014l0 -0.068c0,-0.006 0.002,-0.011 0.005,-0.015 0.003,-0.004 0.008,-0.005 0.014,-0.005l0.157 0 0 0.152 -0.056 0 0 -0.111 -0.063 0 0 0.031 0.055 0 0 0.024 -0.056 0.056 -0.064 0z"/>
 </g>
</svg>
