<?xml version="1.0" encoding="UTF-8"?>
<!DOCTYPE svg PUBLIC "-//W3C//DTD SVG 1.1//EN" "http://www.w3.org/Graphics/SVG/1.1/DTD/svg11.dtd">
<!-- Creator: CorelDRAW 2019 (64-Bit) -->
<svg xmlns="http://www.w3.org/2000/svg" xml:space="preserve" width="2.51533cm" height="0.56213cm" version="1.1" style="shape-rendering:geometricPrecision; text-rendering:geometricPrecision; image-rendering:optimizeQuality; fill-rule:evenodd; clip-rule:evenodd"
viewBox="0 0 4.423 0.988"
 xmlns:xlink="http://www.w3.org/1999/xlink"
 xmlns:xodm="http://www.corel.com/coreldraw/odm/2003">
 <defs>
  <style type="text/css">
   <![CDATA[
    .fil0 {fill:#3175CF}
    .fil2 {fill:#357EDE}
    .fil1 {fill:#748AE8}
    .fil3 {fill:white;fill-rule:nonzero}
   ]]>
  </style>
 </defs>
 <g id="Слой_x0020_1">
  <metadata id="CorelCorpID_0Corel-Layer"/>
  <polygon class="fil0" points="3.627,0.539 4.423,0 4.423,0.449 3.627,0.988 "/>
  <polygon class="fil1" points="3.627,0.539 -0,0.539 -0,0.988 3.627,0.988 "/>
  <polygon class="fil2" points="0.06,0.493 3.697,0.492 3.627,0.539 -0,0.539 "/>
  <polygon class="fil0" points="4.36,0 3.612,0.493 3.627,0.539 4.423,0 "/>
  <polygon class="fil3" points="0.884,0.724 0.884,0.88 0.803,0.88 0.803,0.662 1.043,0.662 1.043,0.724 "/>
  <polygon id="1" class="fil3" points="1.13,0.88 1.047,0.88 1.047,0.879 1.152,0.662 1.237,0.662 1.342,0.879 1.342,0.88 1.258,0.88 1.194,0.731 "/>
  <path id="2" class="fil3" d="M1.554 0.88l-0.012 -0.029 -0.103 0 -0.013 0.029 -0.083 0 0 -0.001 0.105 -0.217 0.084 0 0.105 0.217 0 0.001 -0.084 0zm-0.064 -0.148l-0.026 0.063 0.053 0 -0.027 -0.063z"/>
  <path id="3" class="fil3" d="M1.92 0.851c0,0.009 -0.002,0.016 -0.007,0.021 -0.005,0.005 -0.011,0.008 -0.02,0.008l-0.234 0 0 -0.218 0.232 0c0.008,0 0.015,0.003 0.02,0.008 0.005,0.005 0.007,0.012 0.007,0.021l0 0.041c0,0.006 -0.001,0.011 -0.004,0.015 -0.002,0.004 -0.006,0.007 -0.011,0.01l-0.027 0.015 0.028 0.014c0.005,0.002 0.009,0.005 0.011,0.009 0.003,0.004 0.004,0.008 0.004,0.014l0 0.043zm-0.082 -0.133l-0.098 0 0 0.03 0.073 0 0.025 -0.017 0 -0.013zm0.002 0.09l-0.027 -0.015 -0.073 0 0 0.031 0.1 0 0 -0.015z"/>
  <polygon id="4" class="fil3" points="2.143,0.88 2.143,0.809 2.04,0.809 2.04,0.88 1.96,0.88 1.96,0.662 2.04,0.662 2.04,0.741 2.143,0.741 2.143,0.662 2.224,0.662 2.224,0.88 "/>
  <path id="5" class="fil3" d="M2.455 0.88l-0.012 -0.029 -0.103 0 -0.013 0.029 -0.083 0 0 -0.001 0.105 -0.217 0.084 0 0.105 0.217 0 0.001 -0.084 0zm-0.064 -0.148l-0.026 0.063 0.053 0 -0.027 -0.063z"/>
  <path id="6" class="fil3" d="M2.546 0.88l0 -0.002 0.066 -0.062 -0.025 0c-0.008,0 -0.015,-0.002 -0.02,-0.007 -0.005,-0.005 -0.007,-0.012 -0.007,-0.021l0 -0.097c0,-0.009 0.002,-0.016 0.007,-0.021 0.005,-0.005 0.011,-0.008 0.02,-0.008l0.225 0 0 0.218 -0.08 0 0 -0.159 -0.091 0 0 0.044 0.078 0 0 0.035 -0.08 0.08 -0.092 0z"/>
 </g>
</svg>
