<?xml version="1.0" encoding="UTF-8"?>
<!DOCTYPE svg PUBLIC "-//W3C//DTD SVG 1.1//EN" "http://www.w3.org/Graphics/SVG/1.1/DTD/svg11.dtd">
<!-- Creator: CorelDRAW 2019 (64-Bit) -->
<svg xmlns="http://www.w3.org/2000/svg" xml:space="preserve" width="2.51533cm" height="0.56213cm" version="1.1" style="shape-rendering:geometricPrecision; text-rendering:geometricPrecision; image-rendering:optimizeQuality; fill-rule:evenodd; clip-rule:evenodd"
viewBox="0 0 4.404 0.984"
 xmlns:xlink="http://www.w3.org/1999/xlink"
 xmlns:xodm="http://www.corel.com/coreldraw/odm/2003">
 <defs>
  <style type="text/css">
   <![CDATA[
    .fil0 {fill:#3175CF}
    .fil2 {fill:#357EDE}
    .fil1 {fill:#748AE8}
    .fil3 {fill:white;fill-rule:nonzero}
   ]]>
  </style>
 </defs>
 <g id="Слой_x0020_1">
  <metadata id="CorelCorpID_0Corel-Layer"/>
  <polygon class="fil0" points="3.612,0.537 4.404,0 4.404,0.448 3.612,0.984 "/>
  <polygon class="fil1" points="3.612,0.537 -0,0.537 -0,0.984 3.612,0.984 "/>
  <polygon class="fil2" points="0.06,0.491 3.681,0.49 3.612,0.537 -0,0.537 "/>
  <polygon class="fil0" points="4.342,0 3.597,0.491 3.612,0.537 4.404,0 "/>
  <path class="fil3" d="M1.035 0.747c0,0.007 -0.002,0.013 -0.006,0.018 -0.004,0.004 -0.01,0.007 -0.017,0.007l-0.197 0 0 -0.184 0.196 0c0.007,0 0.013,0.002 0.016,0.007 0.004,0.004 0.006,0.01 0.006,0.018l0 0.034c0,0.005 -0.001,0.009 -0.003,0.012 -0.002,0.003 -0.005,0.006 -0.009,0.008l-0.022 0.012 0.024 0.012c0.004,0.002 0.007,0.005 0.01,0.008 0.002,0.003 0.003,0.007 0.003,0.012l0 0.036zm-0.07 -0.112l-0.083 0 0 0.025 0.062 0 0.021 -0.014 0 -0.011zm0.002 0.076l-0.022 -0.013 -0.062 0 0 0.026 0.084 0 0 -0.013z"/>
  <path id="1" class="fil3" d="M1.23 0.772l-0.01 -0.025 -0.087 0 -0.011 0.025 -0.07 0 0 -0 0.089 -0.184 0.071 0 0.089 0.184 0 0 -0.071 0zm-0.054 -0.125l-0.022 0.053 0.044 0 -0.022 -0.053z"/>
  <polygon id="2" class="fil3" points="1.449,0.772 1.387,0.706 1.387,0.772 1.319,0.772 1.319,0.588 1.387,0.588 1.387,0.649 1.437,0.588 1.523,0.588 1.523,0.589 1.442,0.675 1.537,0.77 1.537,0.772 "/>
  <path id="3" class="fil3" d="M1.709 0.772l-0.01 -0.025 -0.087 0 -0.011 0.025 -0.07 0 0 -0 0.089 -0.184 0.071 0 0.089 0.184 0 0 -0.071 0zm-0.054 -0.125l-0.022 0.053 0.044 0 -0.022 -0.053z"/>
  <polygon id="4" class="fil3" points="1.952,0.772 1.952,0.712 1.865,0.712 1.865,0.772 1.797,0.772 1.797,0.588 1.865,0.588 1.865,0.654 1.952,0.654 1.952,0.588 2.02,0.588 2.02,0.772 "/>
  <path id="5" class="fil3" d="M2.276 0.747c0,0.007 -0.002,0.013 -0.006,0.018 -0.004,0.004 -0.01,0.007 -0.017,0.007l-0.177 0c-0.007,0 -0.013,-0.002 -0.017,-0.007 -0.004,-0.004 -0.006,-0.01 -0.006,-0.018l0 -0.135c0,-0.007 0.002,-0.013 0.006,-0.018 0.004,-0.004 0.009,-0.007 0.017,-0.007l0.177 0c0.007,0 0.013,0.002 0.017,0.007 0.004,0.004 0.006,0.01 0.006,0.018l0 0.053 -0.068 0 0 -0.028 -0.087 0 0 0.084 0.087 0 0 -0.028 0.068 0 0 0.053z"/>
  <polygon id="6" class="fil3" points="2.31,0.772 2.31,0.588 2.378,0.588 2.378,0.677 2.466,0.588 2.533,0.588 2.533,0.772 2.465,0.772 2.465,0.675 2.377,0.772 "/>
  <polygon id="7" class="fil3" points="2.566,0.772 2.566,0.588 2.635,0.588 2.635,0.677 2.722,0.588 2.789,0.588 2.789,0.772 2.721,0.772 2.721,0.675 2.634,0.772 "/>
  <polygon id="8" class="fil3" points="0.847,0.868 0.847,0.929 0.816,0.929 0.816,0.844 0.909,0.844 0.909,0.868 "/>
  <polygon id="9" class="fil3" points="0.943,0.929 0.911,0.929 0.911,0.928 0.952,0.844 0.985,0.844 1.026,0.928 1.026,0.929 0.993,0.929 0.968,0.871 "/>
  <path id="10" class="fil3" d="M1.108 0.929l-0.005 -0.011 -0.04 0 -0.005 0.011 -0.032 0 0 -0 0.041 -0.085 0.033 0 0.041 0.085 0 0 -0.033 0zm-0.025 -0.058l-0.01 0.025 0.02 0 -0.01 -0.025z"/>
  <path id="11" class="fil3" d="M1.252 0.917c0,0.003 -0.001,0.006 -0.003,0.008 -0.002,0.002 -0.004,0.003 -0.008,0.003l-0.082 0c-0.003,0 -0.006,-0.001 -0.008,-0.003 -0.002,-0.002 -0.003,-0.005 -0.003,-0.008l0 -0.018 0.031 0 0 0.006 0.04 0 0 -0.005 -0.033 -0.011 0 -0.01 0.033 -0.011 0 -0.003 -0.04 0 0 0.006 -0.031 0 0 -0.018c0,-0.003 0.001,-0.006 0.003,-0.008 0.002,-0.002 0.004,-0.003 0.008,-0.003l0.082 0c0.003,0 0.006,0.001 0.008,0.003 0.002,0.002 0.003,0.005 0.003,0.008l0 0.017c0,0.005 -0.003,0.009 -0.009,0.01l-0.012 0.003 0.012 0.002c0.003,0 0.005,0.001 0.007,0.003 0.002,0.001 0.002,0.004 0.002,0.006l0 0.022z"/>
  <path id="12" class="fil3" d="M1.37 0.917c0,0.003 -0.001,0.006 -0.003,0.008 -0.002,0.002 -0.004,0.003 -0.008,0.003l-0.082 0c-0.003,0 -0.006,-0.001 -0.008,-0.003 -0.002,-0.002 -0.003,-0.005 -0.003,-0.008l0 -0.062c0,-0.003 0.001,-0.006 0.003,-0.008 0.002,-0.002 0.004,-0.003 0.008,-0.003l0.082 0c0.003,0 0.006,0.001 0.008,0.003 0.002,0.002 0.003,0.005 0.003,0.008l0 0.062zm-0.031 -0.051l-0.04 0 0 0.039 0.04 0 0 -0.039z"/>
  <path id="13" class="fil3" d="M1.488 0.917c0,0.003 -0.001,0.006 -0.003,0.008 -0.002,0.002 -0.004,0.003 -0.008,0.003l-0.091 0 0 -0.085 0.091 0c0.003,0 0.006,0.001 0.008,0.003 0.002,0.002 0.003,0.005 0.003,0.008l0 0.016c0,0.002 -0,0.004 -0.001,0.006 -0.001,0.002 -0.002,0.003 -0.004,0.004l-0.01 0.006 0.011 0.006c0.002,0.001 0.003,0.002 0.004,0.004 0.001,0.001 0.001,0.003 0.001,0.006l0 0.017zm-0.032 -0.052l-0.038 0 0 0.012 0.029 0 0.01 -0.007 0 -0.005zm0.001 0.035l-0.01 -0.006 -0.029 0 0 0.012 0.039 0 0 -0.006z"/>
  <path id="14" class="fil3" d="M1.606 0.917c0,0.003 -0.001,0.006 -0.003,0.008 -0.002,0.002 -0.004,0.003 -0.008,0.003l-0.082 0c-0.003,0 -0.006,-0.001 -0.008,-0.003 -0.002,-0.002 -0.003,-0.005 -0.003,-0.008l0 -0.062c0,-0.003 0.001,-0.006 0.003,-0.008 0.002,-0.002 0.004,-0.003 0.008,-0.003l0.082 0c0.003,0 0.006,0.001 0.008,0.003 0.002,0.002 0.003,0.005 0.003,0.008l0 0.025 -0.031 0 0 -0.013 -0.04 0 0 0.039 0.04 0 0 -0.013 0.031 0 0 0.025z"/>
  <polygon id="15" class="fil3" points="1.681,0.929 1.653,0.898 1.653,0.929 1.621,0.929 1.621,0.844 1.653,0.844 1.653,0.872 1.676,0.844 1.716,0.844 1.716,0.844 1.678,0.884 1.722,0.928 1.722,0.929 "/>
  <path id="16" class="fil3" d="M1.83 0.917c0,0.003 -0.001,0.006 -0.003,0.008 -0.002,0.002 -0.004,0.003 -0.008,0.003l-0.082 0c-0.003,0 -0.006,-0.001 -0.008,-0.003 -0.002,-0.002 -0.003,-0.005 -0.003,-0.008l0 -0.062c0,-0.003 0.001,-0.006 0.003,-0.008 0.002,-0.002 0.004,-0.003 0.008,-0.003l0.082 0c0.003,0 0.006,0.001 0.008,0.003 0.002,0.002 0.003,0.005 0.003,0.008l0 0.062zm-0.031 -0.051l-0.04 0 0 0.039 0.04 0 0 -0.039z"/>
  <polygon id="17" class="fil3" points="1.876,0.868 1.876,0.929 1.845,0.929 1.845,0.844 1.938,0.844 1.938,0.868 "/>
  <path id="18" class="fil3" d="M2.05 0.917c0,0.003 -0.001,0.006 -0.003,0.008 -0.002,0.002 -0.004,0.003 -0.008,0.003l-0.082 0c-0.003,0 -0.006,-0.001 -0.008,-0.003 -0.002,-0.002 -0.003,-0.005 -0.003,-0.008l0 -0.062c0,-0.003 0.001,-0.006 0.003,-0.008 0.002,-0.002 0.004,-0.003 0.008,-0.003l0.082 0c0.003,0 0.006,0.001 0.008,0.003 0.002,0.002 0.003,0.005 0.003,0.008l0 0.062zm-0.031 -0.051l-0.04 0 0 0.039 0.04 0 0 -0.039z"/>
  <path id="19" class="fil3" d="M2.203 0.896c0,0.003 -0.001,0.006 -0.003,0.008 -0.002,0.002 -0.004,0.003 -0.008,0.003l-0.056 0 0 0.021 -0.031 0 0 -0.085 0.088 0c0.003,0 0.006,0.001 0.008,0.003 0.002,0.002 0.003,0.005 0.003,0.008l0 0.041zm-0.031 -0.029l-0.036 0 0 0.018 0.036 0 0 -0.018z"/>
  <path id="20" class="fil3" d="M2.292 0.929l-0.005 -0.011 -0.04 0 -0.005 0.011 -0.032 0 0 -0 0.041 -0.085 0.033 0 0.041 0.085 0 0 -0.033 0zm-0.025 -0.058l-0.01 0.025 0.02 0 -0.01 -0.025z"/>
  <path id="21" class="fil3" d="M2.333 0.929l0 -0.085 0.031 0 0 0.041 0.04 -0.041 0.031 0 0 0.085 -0.031 0 0 -0.045 -0.04 0.045 -0.031 0zm0.027 -0.09c-0.002,0 -0.003,-0.001 -0.005,-0.002 -0.001,-0.001 -0.002,-0.003 -0.002,-0.005l0 -0.015 0.02 0 0 0.005 0.022 0 0 -0.005 0.02 0 0 0.015c0,0.002 -0.001,0.003 -0.002,0.005 -0.001,0.001 -0.003,0.002 -0.005,0.002l-0.048 0z"/>
  <path id="22" class="fil3" d="M2.554 0.917c0,0.003 -0.001,0.006 -0.003,0.008 -0.002,0.002 -0.004,0.003 -0.008,0.003l-0.082 0c-0.003,0 -0.006,-0.001 -0.008,-0.003 -0.002,-0.002 -0.003,-0.005 -0.003,-0.008l0 -0.062c0,-0.003 0.001,-0.006 0.003,-0.008 0.002,-0.002 0.004,-0.003 0.008,-0.003l0.082 0c0.003,0 0.006,0.001 0.008,0.003 0.002,0.002 0.003,0.005 0.003,0.008l0 0.062zm-0.031 -0.051l-0.04 0 0 0.039 0.04 0 0 -0.039z"/>
  <polygon id="23" class="fil3" points="2.641,0.929 2.641,0.901 2.601,0.901 2.601,0.929 2.57,0.929 2.57,0.844 2.601,0.844 2.601,0.874 2.641,0.874 2.641,0.844 2.672,0.844 2.672,0.929 "/>
  <path id="24" class="fil3" d="M2.763 0.929l-0.005 -0.011 -0.04 0 -0.005 0.011 -0.032 0 0 -0 0.041 -0.085 0.033 0 0.041 0.085 0 0 -0.033 0zm-0.025 -0.058l-0.01 0.025 0.02 0 -0.01 -0.025z"/>
 </g>
</svg>
