<?xml version="1.0" encoding="UTF-8"?>
<!DOCTYPE svg PUBLIC "-//W3C//DTD SVG 1.1//EN" "http://www.w3.org/Graphics/SVG/1.1/DTD/svg11.dtd">
<!-- Creator: CorelDRAW 2019 (64-Bit) -->
<svg xmlns="http://www.w3.org/2000/svg" xml:space="preserve" width="2.51533cm" height="0.56213cm" version="1.1" style="shape-rendering:geometricPrecision; text-rendering:geometricPrecision; image-rendering:optimizeQuality; fill-rule:evenodd; clip-rule:evenodd"
viewBox="0 0 3.19 0.713"
 xmlns:xlink="http://www.w3.org/1999/xlink"
 xmlns:xodm="http://www.corel.com/coreldraw/odm/2003">
 <defs>
  <style type="text/css">
   <![CDATA[
    .fil0 {fill:#099156}
    .fil1 {fill:#0AAF68}
    .fil2 {fill:#D68056}
    .fil3 {fill:#66FFCC;fill-rule:nonzero}
   ]]>
  </style>
 </defs>
 <g id="Слой_x0020_1">
  <metadata id="CorelCorpID_0Corel-Layer"/>
  <g id="_2008606473920">
   <polygon class="fil0" points="2.616,0.389 3.19,0 3.19,0.324 2.616,0.713 "/>
   <polygon class="fil1" points="2.616,0.389 -0,0.389 -0,0.713 2.616,0.713 "/>
   <polygon class="fil2" points="0.044,0.355 2.667,0.355 2.616,0.389 -0,0.389 "/>
   <polygon class="fil2" points="3.145,0 2.605,0.355 2.616,0.389 3.19,0 "/>
  </g>
  <path class="fil3" d="M0.764 0.542c0,0.005 -0.001,0.009 -0.004,0.012 -0.003,0.003 -0.007,0.005 -0.012,0.005l-0.139 0 0 -0.13 0.138 0c0.005,0 0.009,0.002 0.012,0.005 0.003,0.003 0.004,0.007 0.004,0.013l0 0.024c0,0.004 -0.001,0.006 -0.002,0.009 -0.001,0.002 -0.004,0.004 -0.007,0.006l-0.016 0.009 0.017 0.008c0.003,0.001 0.005,0.003 0.007,0.005 0.002,0.002 0.002,0.005 0.002,0.008l0 0.026zm-0.049 -0.079l-0.058 0 0 0.018 0.044 0 0.015 -0.01 0 -0.008zm0.001 0.054l-0.016 -0.009 -0.044 0 0 0.018 0.06 0 0 -0.009z"/>
  <path id="1" class="fil3" d="M0.902 0.559l-0.007 -0.018 -0.061 0 -0.008 0.018 -0.049 0 0 -0 0.063 -0.13 0.05 0 0.063 0.13 0 0 -0.05 0zm-0.038 -0.088l-0.015 0.038 0.031 0 -0.016 -0.038z"/>
  <polygon id="2" class="fil3" points="1.056,0.559 1.012,0.513 1.012,0.559 0.964,0.559 0.964,0.429 1.012,0.429 1.012,0.472 1.047,0.429 1.108,0.429 1.108,0.43 1.051,0.491 1.118,0.558 1.118,0.559 "/>
  <path id="3" class="fil3" d="M1.24 0.559l-0.007 -0.018 -0.061 0 -0.008 0.018 -0.049 0 0 -0 0.063 -0.13 0.05 0 0.063 0.13 0 0 -0.05 0zm-0.038 -0.088l-0.015 0.038 0.031 0 -0.016 -0.038z"/>
  <polygon id="4" class="fil3" points="1.411,0.559 1.411,0.517 1.35,0.517 1.35,0.559 1.302,0.559 1.302,0.429 1.35,0.429 1.35,0.476 1.411,0.476 1.411,0.429 1.459,0.429 1.459,0.559 "/>
  <path id="5" class="fil3" d="M1.64 0.542c0,0.005 -0.001,0.009 -0.004,0.012 -0.003,0.003 -0.007,0.005 -0.012,0.005l-0.125 0c-0.005,0 -0.009,-0.002 -0.012,-0.005 -0.003,-0.003 -0.004,-0.007 -0.004,-0.012l0 -0.096c0,-0.005 0.001,-0.009 0.004,-0.013 0.003,-0.003 0.007,-0.005 0.012,-0.005l0.125 0c0.005,0 0.009,0.002 0.012,0.005 0.003,0.003 0.004,0.007 0.004,0.013l0 0.038 -0.048 0 0 -0.02 -0.061 0 0 0.06 0.061 0 0 -0.02 0.048 0 0 0.038z"/>
  <polygon id="6" class="fil3" points="1.664,0.559 1.664,0.429 1.712,0.429 1.712,0.492 1.774,0.429 1.821,0.429 1.821,0.559 1.773,0.559 1.773,0.491 1.711,0.559 "/>
  <polygon id="7" class="fil3" points="1.845,0.559 1.845,0.429 1.893,0.429 1.893,0.492 1.955,0.429 2.002,0.429 2.002,0.559 1.954,0.559 1.954,0.491 1.892,0.559 "/>
  <polygon id="8" class="fil3" points="0.614,0.629 0.614,0.673 0.591,0.673 0.591,0.611 0.658,0.611 0.658,0.629 "/>
  <polygon id="9" class="fil3" points="0.683,0.673 0.66,0.673 0.66,0.672 0.689,0.611 0.713,0.611 0.743,0.672 0.743,0.673 0.719,0.673 0.701,0.631 "/>
  <path id="10" class="fil3" d="M0.803 0.673l-0.003 -0.008 -0.029 0 -0.004 0.008 -0.023 0 0 -0 0.03 -0.061 0.024 0 0.03 0.061 0 0 -0.024 0zm-0.018 -0.042l-0.007 0.018 0.015 0 -0.007 -0.018z"/>
  <path id="11" class="fil3" d="M0.907 0.664c0,0.002 -0.001,0.004 -0.002,0.006 -0.001,0.001 -0.003,0.002 -0.006,0.002l-0.059 0c-0.002,0 -0.004,-0.001 -0.006,-0.002 -0.001,-0.001 -0.002,-0.003 -0.002,-0.006l0 -0.013 0.023 0 0 0.004 0.029 0 0 -0.004 -0.024 -0.008 0 -0.007 0.024 -0.008 0 -0.002 -0.029 0 0 0.004 -0.023 0 0 -0.013c0,-0.002 0.001,-0.004 0.002,-0.006 0.001,-0.001 0.003,-0.002 0.006,-0.002l0.059 0c0.002,0 0.004,0.001 0.006,0.002 0.001,0.001 0.002,0.003 0.002,0.006l0 0.012c0,0.004 -0.002,0.006 -0.006,0.007l-0.009 0.002 0.009 0.001c0.002,0 0.004,0.001 0.005,0.002 0.001,0.001 0.002,0.003 0.002,0.005l0 0.016z"/>
  <path id="12" class="fil3" d="M0.993 0.664c0,0.002 -0.001,0.004 -0.002,0.006 -0.001,0.001 -0.003,0.002 -0.006,0.002l-0.059 0c-0.002,0 -0.004,-0.001 -0.006,-0.002 -0.001,-0.001 -0.002,-0.003 -0.002,-0.006l0 -0.045c0,-0.002 0.001,-0.004 0.002,-0.006 0.001,-0.001 0.003,-0.002 0.006,-0.002l0.059 0c0.002,0 0.004,0.001 0.006,0.002 0.001,0.001 0.002,0.003 0.002,0.006l0 0.045zm-0.023 -0.037l-0.029 0 0 0.028 0.029 0 0 -0.028z"/>
  <path id="13" class="fil3" d="M1.078 0.664c0,0.002 -0.001,0.004 -0.002,0.006 -0.001,0.001 -0.003,0.002 -0.006,0.002l-0.066 0 0 -0.062 0.066 0c0.002,0 0.004,0.001 0.006,0.002 0.001,0.001 0.002,0.003 0.002,0.006l0 0.012c0,0.002 -0,0.003 -0.001,0.004 -0.001,0.001 -0.002,0.002 -0.003,0.003l-0.007 0.004 0.008 0.004c0.001,0.001 0.002,0.002 0.003,0.003 0.001,0.001 0.001,0.002 0.001,0.004l0 0.012zm-0.023 -0.038l-0.028 0 0 0.008 0.021 0 0.007 -0.005 0 -0.004zm0.001 0.025l-0.007 -0.004 -0.021 0 0 0.009 0.028 0 0 -0.004z"/>
  <path id="14" class="fil3" d="M1.163 0.664c0,0.002 -0.001,0.004 -0.002,0.006 -0.001,0.001 -0.003,0.002 -0.006,0.002l-0.059 0c-0.002,0 -0.004,-0.001 -0.006,-0.002 -0.001,-0.001 -0.002,-0.003 -0.002,-0.006l0 -0.045c0,-0.002 0.001,-0.004 0.002,-0.006 0.001,-0.001 0.003,-0.002 0.006,-0.002l0.059 0c0.002,0 0.004,0.001 0.006,0.002 0.001,0.001 0.002,0.003 0.002,0.006l0 0.018 -0.023 0 0 -0.009 -0.029 0 0 0.028 0.029 0 0 -0.009 0.023 0 0 0.018z"/>
  <polygon id="15" class="fil3" points="1.218,0.673 1.197,0.651 1.197,0.673 1.174,0.673 1.174,0.611 1.197,0.611 1.197,0.632 1.214,0.611 1.243,0.611 1.243,0.612 1.216,0.64 1.247,0.672 1.247,0.673 "/>
  <path id="16" class="fil3" d="M1.325 0.664c0,0.002 -0.001,0.004 -0.002,0.006 -0.001,0.001 -0.003,0.002 -0.006,0.002l-0.059 0c-0.002,0 -0.004,-0.001 -0.006,-0.002 -0.001,-0.001 -0.002,-0.003 -0.002,-0.006l0 -0.045c0,-0.002 0.001,-0.004 0.002,-0.006 0.001,-0.001 0.003,-0.002 0.006,-0.002l0.059 0c0.002,0 0.004,0.001 0.006,0.002 0.001,0.001 0.002,0.003 0.002,0.006l0 0.045zm-0.023 -0.037l-0.029 0 0 0.028 0.029 0 0 -0.028z"/>
  <polygon id="17" class="fil3" points="1.359,0.629 1.359,0.673 1.337,0.673 1.337,0.611 1.404,0.611 1.404,0.629 "/>
  <path id="18" class="fil3" d="M1.485 0.664c0,0.002 -0.001,0.004 -0.002,0.006 -0.001,0.001 -0.003,0.002 -0.006,0.002l-0.059 0c-0.002,0 -0.004,-0.001 -0.006,-0.002 -0.001,-0.001 -0.002,-0.003 -0.002,-0.006l0 -0.045c0,-0.002 0.001,-0.004 0.002,-0.006 0.001,-0.001 0.003,-0.002 0.006,-0.002l0.059 0c0.002,0 0.004,0.001 0.006,0.002 0.001,0.001 0.002,0.003 0.002,0.006l0 0.045zm-0.023 -0.037l-0.029 0 0 0.028 0.029 0 0 -0.028z"/>
  <path id="19" class="fil3" d="M1.596 0.649c0,0.002 -0.001,0.004 -0.002,0.006 -0.001,0.001 -0.003,0.002 -0.006,0.002l-0.041 0 0 0.016 -0.023 0 0 -0.062 0.064 0c0.002,0 0.004,0.001 0.006,0.002 0.001,0.001 0.002,0.003 0.002,0.006l0 0.03zm-0.023 -0.021l-0.026 0 0 0.013 0.026 0 0 -0.013z"/>
  <path id="20" class="fil3" d="M1.66 0.673l-0.003 -0.008 -0.029 0 -0.004 0.008 -0.023 0 0 -0 0.03 -0.061 0.024 0 0.03 0.061 0 0 -0.024 0zm-0.018 -0.042l-0.007 0.018 0.015 0 -0.007 -0.018z"/>
  <path id="21" class="fil3" d="M1.69 0.673l0 -0.062 0.023 0 0 0.03 0.029 -0.03 0.022 0 0 0.062 -0.023 0 0 -0.032 -0.029 0.032 -0.022 0zm0.019 -0.065c-0.001,0 -0.002,-0.001 -0.003,-0.001 -0.001,-0.001 -0.001,-0.002 -0.001,-0.003l0 -0.011 0.014 0 0 0.003 0.016 0 0 -0.003 0.014 0 0 0.011c0,0.001 -0,0.002 -0.001,0.003 -0.001,0.001 -0.002,0.001 -0.003,0.001l-0.035 0z"/>
  <path id="22" class="fil3" d="M1.85 0.664c0,0.002 -0.001,0.004 -0.002,0.006 -0.001,0.001 -0.003,0.002 -0.006,0.002l-0.059 0c-0.002,0 -0.004,-0.001 -0.006,-0.002 -0.001,-0.001 -0.002,-0.003 -0.002,-0.006l0 -0.045c0,-0.002 0.001,-0.004 0.002,-0.006 0.001,-0.001 0.003,-0.002 0.006,-0.002l0.059 0c0.002,0 0.004,0.001 0.006,0.002 0.001,0.001 0.002,0.003 0.002,0.006l0 0.045zm-0.023 -0.037l-0.029 0 0 0.028 0.029 0 0 -0.028z"/>
  <polygon id="23" class="fil3" points="1.913,0.673 1.913,0.653 1.884,0.653 1.884,0.673 1.861,0.673 1.861,0.611 1.884,0.611 1.884,0.633 1.913,0.633 1.913,0.611 1.936,0.611 1.936,0.673 "/>
  <path id="24" class="fil3" d="M2.001 0.673l-0.003 -0.008 -0.029 0 -0.004 0.008 -0.023 0 0 -0 0.03 -0.061 0.024 0 0.03 0.061 0 0 -0.024 0zm-0.018 -0.042l-0.007 0.018 0.015 0 -0.007 -0.018z"/>
 </g>
</svg>
