<?xml version="1.0" encoding="UTF-8"?>
<!DOCTYPE svg PUBLIC "-//W3C//DTD SVG 1.1//EN" "http://www.w3.org/Graphics/SVG/1.1/DTD/svg11.dtd">
<!-- Creator: CorelDRAW 2019 (64-Bit) -->
<svg xmlns="http://www.w3.org/2000/svg" xml:space="preserve" width="8.19941cm" height="1.95228cm" version="1.1" style="shape-rendering:geometricPrecision; text-rendering:geometricPrecision; image-rendering:optimizeQuality; fill-rule:evenodd; clip-rule:evenodd"
viewBox="0 0 73.327 17.459"
 xmlns:xlink="http://www.w3.org/1999/xlink"
 xmlns:xodm="http://www.corel.com/coreldraw/odm/2003">
 <defs>
  <style type="text/css">
   <![CDATA[
    .fil10 {fill:#166C70}
    .fil7 {fill:#18757A}
    .fil1 {fill:#1B5A5C}
    .fil2 {fill:#217073}
    .fil8 {fill:#219FA6}
    .fil9 {fill:#25B3BA}
    .fil5 {fill:#29878C}
    .fil0 {fill:#2A8E91}
    .fil3 {fill:#2F9BA0}
    .fil4 {fill:#39BBC2}
    .fil6 {fill:white;fill-rule:nonzero}
   ]]>
  </style>
 </defs>
 <g id="Слой_x0020_1">
  <metadata id="CorelCorpID_0Corel-Layer"/>
  <polygon class="fil0" points="1.06,2.502 4.859,0 73.008,0 69.209,2.502 "/>
  <polygon class="fil1" points="69.209,2.502 73.008,0 73.008,14.957 69.209,17.459 "/>
  <polygon class="fil2" points="1.06,2.502 69.209,2.502 69.209,17.459 1.06,17.459 "/>
  <polygon class="fil3" points="-0,4.296 25.017,4.296 25.017,10.415 -0,10.415 "/>
  <polygon class="fil4" points="1.06,3.574 1.06,4.061 25.371,4.056 25.017,4.296 -0,4.296 "/>
  <polygon class="fil5" points="25.371,4.056 25.371,10.147 25.017,10.415 25.017,4.296 "/>
  <polygon class="fil6" points="2.167,11.775 2.167,12.083 2.721,12.083 2.721,12.251 2.167,12.251 2.167,12.583 2.754,12.583 2.754,12.769 1.943,12.769 1.943,11.587 2.749,11.587 2.749,11.775 "/>
  <path id="1" class="fil6" d="M3.651 12.346l0.222 0 0 0.069c0,0.091 -0.016,0.164 -0.047,0.217 -0.031,0.053 -0.082,0.091 -0.153,0.115 -0.071,0.023 -0.167,0.035 -0.289,0.035 -0.1,0 -0.182,-0.009 -0.245,-0.028 -0.063,-0.019 -0.113,-0.051 -0.15,-0.097 -0.037,-0.046 -0.064,-0.108 -0.079,-0.188 -0.016,-0.079 -0.024,-0.183 -0.024,-0.312 0,-0.141 0.014,-0.254 0.043,-0.337 0.028,-0.083 0.078,-0.145 0.149,-0.185 0.071,-0.04 0.171,-0.06 0.299,-0.06 0.127,0 0.225,0.015 0.294,0.044 0.069,0.03 0.117,0.073 0.145,0.131 0.028,0.058 0.045,0.136 0.052,0.233l-0.221 0c-0.004,-0.062 -0.014,-0.108 -0.029,-0.138 -0.016,-0.029 -0.042,-0.049 -0.078,-0.06 -0.036,-0.01 -0.09,-0.015 -0.162,-0.015 -0.074,0 -0.129,0.01 -0.164,0.029 -0.035,0.019 -0.06,0.057 -0.074,0.113 -0.014,0.056 -0.021,0.145 -0.021,0.267 0,0.086 0.004,0.156 0.012,0.208 0.008,0.053 0.021,0.094 0.04,0.123 0.019,0.029 0.046,0.049 0.078,0.06 0.033,0.011 0.077,0.017 0.133,0.017 0.071,0 0.125,-0.005 0.164,-0.014 0.038,-0.01 0.066,-0.026 0.082,-0.05 0.016,-0.024 0.024,-0.058 0.024,-0.102l0 -0.074z"/>
  <path id="2" class="fil6" d="M5.022 11.587l0 1.182 -0.226 0 0 -0.987 -0.45 0 0 0.661c0,0.095 -0.024,0.174 -0.071,0.236 -0.047,0.062 -0.123,0.093 -0.227,0.093 -0.038,0 -0.077,-0.004 -0.116,-0.011l0 -0.186c0.019,0.003 0.042,0.005 0.071,0.005 0.045,0 0.077,-0.011 0.095,-0.032 0.018,-0.021 0.026,-0.051 0.026,-0.088l0 -0.872 0.898 0z"/>
  <path id="3" class="fil6" d="M6.265 11.587l-0.325 0 -0.402 0.792c-0.013,0.027 -0.025,0.051 -0.035,0.07 -0.01,0.019 -0.031,0.061 -0.063,0.124 0.012,-0.057 0.017,-0.127 0.017,-0.21l0 -0.776 -0.227 0 0 1.182 0.325 0 0.402 -0.795c0.014,-0.028 0.027,-0.054 0.039,-0.077 0.012,-0.023 0.031,-0.062 0.059,-0.117 -0.012,0.057 -0.017,0.127 -0.017,0.21l0 0.779 0.227 0 0 -1.182z"/>
  <polygon id="4" class="fil6" points="7.179,12.769 7.179,11.785 6.837,11.785 6.837,11.587 7.758,11.587 7.758,11.785 7.408,11.785 7.408,12.769 "/>
  <path id="5" class="fil6" d="M7.898 12.769l0 -1.182 0.227 0 0 0.461 0.373 0c0.054,0 0.102,0.008 0.145,0.025 0.042,0.016 0.078,0.04 0.107,0.072 0.029,0.032 0.051,0.07 0.066,0.115 0.015,0.045 0.022,0.096 0.022,0.152 0,0.074 -0.013,0.139 -0.039,0.192 -0.026,0.054 -0.065,0.095 -0.115,0.123 -0.051,0.028 -0.111,0.042 -0.181,0.042l-0.603 0zm0.227 -0.188l0.297 0c0.048,0 0.085,-0.005 0.112,-0.014 0.027,-0.009 0.046,-0.026 0.058,-0.05 0.012,-0.024 0.018,-0.059 0.018,-0.105 0,-0.067 -0.014,-0.113 -0.043,-0.138 -0.029,-0.025 -0.077,-0.038 -0.145,-0.038l-0.297 0 0 0.345zm1.137 -0.994l0 1.182 -0.227 0 0 -1.182 0.227 0z"/>
  <path id="6" class="fil6" d="M10.178 12.084l0.183 0c0.071,0 0.123,-0.013 0.156,-0.039 0.033,-0.026 0.049,-0.067 0.049,-0.124 0,-0.043 -0.007,-0.077 -0.022,-0.102 -0.015,-0.024 -0.04,-0.041 -0.075,-0.052 -0.035,-0.01 -0.084,-0.016 -0.148,-0.016 -0.052,0 -0.094,0.003 -0.125,0.008 -0.031,0.006 -0.056,0.015 -0.074,0.029 -0.018,0.014 -0.031,0.032 -0.038,0.055 -0.008,0.023 -0.012,0.053 -0.012,0.09l-0.216 0c0.007,-0.095 0.026,-0.169 0.058,-0.22 0.032,-0.052 0.08,-0.088 0.144,-0.108 0.064,-0.021 0.153,-0.031 0.266,-0.031 0.155,0 0.269,0.025 0.345,0.074 0.075,0.049 0.113,0.126 0.113,0.229 0,0.083 -0.012,0.145 -0.037,0.186 -0.024,0.041 -0.068,0.071 -0.131,0.091l0 0.006c0.051,0.014 0.09,0.032 0.119,0.054 0.028,0.022 0.049,0.05 0.06,0.085 0.012,0.035 0.018,0.078 0.018,0.13 0,0.083 -0.014,0.15 -0.043,0.2 -0.028,0.051 -0.078,0.088 -0.149,0.113 -0.071,0.025 -0.17,0.037 -0.298,0.037 -0.08,0 -0.148,-0.005 -0.206,-0.014 -0.057,-0.009 -0.106,-0.026 -0.146,-0.05 -0.04,-0.024 -0.07,-0.059 -0.091,-0.104 -0.021,-0.045 -0.031,-0.103 -0.031,-0.174l0 -0.049 0.213 0c0.001,0.06 0.007,0.104 0.016,0.131 0.01,0.028 0.033,0.048 0.069,0.062 0.037,0.013 0.095,0.02 0.176,0.02 0.071,0 0.126,-0.005 0.165,-0.016 0.039,-0.01 0.067,-0.028 0.084,-0.053 0.017,-0.024 0.025,-0.059 0.025,-0.104 0,-0.064 -0.016,-0.11 -0.049,-0.137 -0.033,-0.027 -0.083,-0.041 -0.15,-0.041l-0.219 0 0 -0.169z"/>
  <path id="7" class="fil6" d="M11.713 12.543l-0.512 0 -0.074 0.226 -0.235 0 0.393 -1.182 0.333 0 0.401 1.182 -0.23 0 -0.075 -0.226zm-0.053 -0.169l-0.205 -0.614 -0.202 0.614 0.407 0z"/>
  <polygon id="8" class="fil6" points="12.375,11.587 12.375,12.07 12.481,12.07 12.875,11.587 13.153,11.587 12.675,12.163 13.203,12.769 12.916,12.769 12.481,12.264 12.375,12.264 12.375,12.769 12.148,12.769 12.148,11.587 "/>
  <path id="9" class="fil6" d="M13.314 12.154c0,-0.117 0.008,-0.212 0.023,-0.285 0.015,-0.073 0.041,-0.131 0.079,-0.174 0.037,-0.043 0.088,-0.074 0.152,-0.092 0.064,-0.018 0.148,-0.028 0.251,-0.028 0.103,0 0.186,0.009 0.25,0.028 0.064,0.019 0.115,0.049 0.152,0.092 0.037,0.043 0.064,0.101 0.08,0.175 0.016,0.073 0.024,0.168 0.024,0.285 0,0.134 -0.008,0.242 -0.024,0.323 -0.016,0.081 -0.043,0.144 -0.08,0.189 -0.037,0.044 -0.088,0.076 -0.151,0.093 -0.063,0.018 -0.147,0.026 -0.251,0.026 -0.11,0 -0.198,-0.009 -0.262,-0.026 -0.064,-0.017 -0.114,-0.048 -0.149,-0.092 -0.035,-0.044 -0.06,-0.107 -0.073,-0.187 -0.013,-0.08 -0.02,-0.189 -0.02,-0.325zm0.23 0.025c0,0.098 0.003,0.174 0.01,0.226 0.007,0.052 0.019,0.092 0.038,0.119 0.019,0.027 0.045,0.045 0.079,0.053 0.034,0.009 0.083,0.013 0.147,0.013 0.063,0 0.112,-0.005 0.147,-0.014 0.035,-0.01 0.062,-0.028 0.08,-0.055 0.019,-0.027 0.031,-0.067 0.038,-0.119 0.007,-0.052 0.01,-0.126 0.01,-0.223 0,-0.098 -0.004,-0.174 -0.011,-0.228 -0.008,-0.054 -0.021,-0.094 -0.04,-0.12 -0.019,-0.026 -0.045,-0.043 -0.078,-0.051 -0.033,-0.008 -0.082,-0.012 -0.146,-0.012 -0.066,0 -0.116,0.004 -0.149,0.012 -0.033,0.008 -0.059,0.025 -0.077,0.051 -0.018,0.026 -0.031,0.066 -0.038,0.118 -0.007,0.052 -0.01,0.129 -0.01,0.23z"/>
  <polygon id="10" class="fil6" points="15.514,11.587 15.514,12.769 15.287,12.769 15.287,12.264 14.737,12.264 14.737,12.769 14.51,12.769 14.51,11.587 14.737,11.587 14.737,12.072 15.287,12.072 15.287,11.587 "/>
  <path id="11" class="fil6" d="M16.666 11.587l-0.227 0 0 0.485c-0.034,0.014 -0.069,0.022 -0.107,0.026 -0.038,0.004 -0.095,0.005 -0.17,0.005 -0.057,0 -0.101,-0.006 -0.132,-0.018 -0.031,-0.012 -0.053,-0.03 -0.065,-0.056 -0.012,-0.025 -0.019,-0.06 -0.019,-0.102l0 -0.339 -0.227 0 0 0.333c0,0.088 0.012,0.16 0.037,0.215 0.025,0.055 0.067,0.096 0.126,0.122 0.059,0.027 0.141,0.04 0.244,0.04 0.157,0 0.262,-0.013 0.314,-0.039l0 0.511 0.227 0 0 -1.182z"/>
  <path id="12" class="fil6" d="M17.906 11.587l-0.325 0 -0.402 0.792c-0.013,0.027 -0.025,0.051 -0.035,0.07 -0.01,0.019 -0.031,0.061 -0.063,0.124 0.012,-0.057 0.017,-0.127 0.017,-0.21l0 -0.776 -0.227 0 0 1.182 0.325 0 0.402 -0.795c0.014,-0.028 0.027,-0.054 0.039,-0.077 0.012,-0.023 0.031,-0.062 0.059,-0.117 -0.012,0.057 -0.017,0.127 -0.017,0.21l0 0.779 0.227 0 0 -1.182z"/>
  <path id="13" class="fil6" d="M19.13 11.587l0 1.182 -0.226 0 0 -0.987 -0.45 0 0 0.661c0,0.095 -0.024,0.174 -0.071,0.236 -0.047,0.062 -0.123,0.093 -0.227,0.093 -0.038,0 -0.077,-0.004 -0.116,-0.011l0 -0.186c0.019,0.003 0.042,0.005 0.071,0.005 0.045,0 0.077,-0.011 0.095,-0.032 0.018,-0.021 0.026,-0.051 0.026,-0.088l0 -0.872 0.898 0z"/>
  <path id="14" class="fil6" d="M20.491 11.587l-0.229 0.593c-0.019,0.055 -0.034,0.112 -0.046,0.171 -0.008,-0.084 -0.018,-0.139 -0.032,-0.164l-0.236 -0.6 -0.273 0 0.407 0.871c0.01,0.023 0.016,0.041 0.016,0.053 0,0.013 -0.004,0.025 -0.013,0.037 -0.017,0.023 -0.058,0.035 -0.124,0.035 -0.013,0 -0.04,-0.003 -0.08,-0.008l0 0.193c0.047,0.005 0.095,0.008 0.143,0.008 0.046,0 0.087,-0.008 0.124,-0.023 0.037,-0.015 0.072,-0.042 0.105,-0.08 0.033,-0.039 0.065,-0.092 0.096,-0.16l0.41 -0.924 -0.268 0z"/>
  <path id="15" class="fil6" d="M21.827 11.587l-0.227 0 0 0.485c-0.034,0.014 -0.069,0.022 -0.107,0.026 -0.038,0.004 -0.095,0.005 -0.17,0.005 -0.057,0 -0.101,-0.006 -0.132,-0.018 -0.031,-0.012 -0.053,-0.03 -0.065,-0.056 -0.012,-0.025 -0.019,-0.06 -0.019,-0.102l0 -0.339 -0.227 0 0 0.333c0,0.088 0.012,0.16 0.037,0.215 0.025,0.055 0.067,0.096 0.126,0.122 0.059,0.027 0.141,0.04 0.244,0.04 0.157,0 0.262,-0.013 0.314,-0.039l0 0.511 0.227 0 0 -1.182z"/>
  <path id="16" class="fil6" d="M23.067 11.587l-0.325 0 -0.402 0.792c-0.013,0.027 -0.025,0.051 -0.035,0.07 -0.01,0.019 -0.031,0.061 -0.063,0.124 0.012,-0.057 0.017,-0.127 0.017,-0.21l0 -0.776 -0.227 0 0 1.182 0.325 0 0.402 -0.795c0.014,-0.028 0.027,-0.054 0.039,-0.077 0.012,-0.023 0.031,-0.062 0.059,-0.117 -0.012,0.057 -0.017,0.127 -0.017,0.21l0 0.779 0.227 0 0 -1.182z"/>
  <polygon id="17" class="fil6" points="23.559,12.769 23.559,11.785 23.217,11.785 23.217,11.587 24.138,11.587 24.138,11.785 23.788,11.785 23.788,12.769 "/>
  <path id="18" class="fil6" d="M24.282 12.769l0 -1.182 0.227 0 0 0.461 0.372 0c0.109,0 0.192,0.032 0.251,0.096 0.058,0.064 0.087,0.153 0.087,0.267 0,0.075 -0.013,0.14 -0.038,0.193 -0.025,0.054 -0.063,0.095 -0.114,0.123 -0.05,0.028 -0.111,0.042 -0.182,0.042l-0.603 0zm0.227 -0.188l0.297 0c0.048,0 0.084,-0.005 0.111,-0.014 0.026,-0.009 0.045,-0.026 0.057,-0.05 0.012,-0.024 0.018,-0.059 0.018,-0.105 0,-0.067 -0.014,-0.113 -0.042,-0.139 -0.028,-0.025 -0.076,-0.038 -0.144,-0.038l-0.297 0 0 0.345z"/>
  <path id="19" class="fil6" d="M26.129 12.346l0.222 0 0 0.069c0,0.091 -0.016,0.164 -0.047,0.217 -0.031,0.053 -0.082,0.091 -0.153,0.115 -0.071,0.023 -0.167,0.035 -0.289,0.035 -0.1,0 -0.182,-0.009 -0.245,-0.028 -0.063,-0.019 -0.113,-0.051 -0.15,-0.097 -0.037,-0.046 -0.064,-0.108 -0.079,-0.188 -0.016,-0.079 -0.024,-0.183 -0.024,-0.312 0,-0.141 0.014,-0.254 0.043,-0.337 0.028,-0.083 0.078,-0.145 0.149,-0.185 0.071,-0.04 0.171,-0.06 0.299,-0.06 0.127,0 0.225,0.015 0.294,0.044 0.069,0.03 0.117,0.073 0.145,0.131 0.028,0.058 0.045,0.136 0.052,0.233l-0.221 0c-0.004,-0.062 -0.014,-0.108 -0.029,-0.138 -0.016,-0.029 -0.042,-0.049 -0.078,-0.06 -0.036,-0.01 -0.09,-0.015 -0.162,-0.015 -0.074,0 -0.129,0.01 -0.164,0.029 -0.035,0.019 -0.06,0.057 -0.074,0.113 -0.014,0.056 -0.021,0.145 -0.021,0.267 0,0.086 0.004,0.156 0.012,0.208 0.008,0.053 0.021,0.094 0.04,0.123 0.019,0.029 0.046,0.049 0.078,0.06 0.033,0.011 0.077,0.017 0.133,0.017 0.071,0 0.125,-0.005 0.164,-0.014 0.038,-0.01 0.066,-0.026 0.082,-0.05 0.016,-0.024 0.024,-0.058 0.024,-0.102l0 -0.074z"/>
  <path id="20" class="fil6" d="M27.408 12.769l0 -1.182 -0.598 0c-0.124,0 -0.215,0.033 -0.273,0.1 -0.058,0.067 -0.087,0.161 -0.087,0.282 0,0.1 0.019,0.176 0.058,0.228 0.038,0.053 0.095,0.094 0.169,0.125l-0.259 0.446 0.259 0 0.232 -0.416 0.274 0 0 0.416 0.224 0zm-0.224 -0.598l-0.328 0c-0.043,0 -0.077,-0.006 -0.103,-0.018 -0.026,-0.012 -0.045,-0.032 -0.057,-0.06 -0.012,-0.029 -0.019,-0.068 -0.019,-0.119 0,-0.07 0.014,-0.12 0.04,-0.148 0.027,-0.028 0.073,-0.043 0.138,-0.043l0.328 -0.002 0 0.39z"/>
  <path id="21" class="fil6" d="M29.071 11.587l-0.325 0 -0.402 0.792c-0.013,0.027 -0.025,0.051 -0.035,0.07 -0.01,0.019 -0.031,0.061 -0.063,0.124 0.012,-0.057 0.017,-0.127 0.017,-0.21l0 -0.776 -0.227 0 0 1.182 0.325 0 0.402 -0.795c0.014,-0.028 0.027,-0.054 0.039,-0.077 0.012,-0.023 0.031,-0.062 0.059,-0.117 -0.012,0.057 -0.017,0.127 -0.017,0.21l0 0.779 0.227 0 0 -1.182z"/>
  <path id="22" class="fil6" d="M30.742 11.587l-0.325 0 -0.402 0.792c-0.013,0.027 -0.025,0.051 -0.035,0.07 -0.01,0.019 -0.031,0.061 -0.063,0.124 0.012,-0.057 0.017,-0.127 0.017,-0.21l0 -0.776 -0.227 0 0 1.182 0.325 0 0.402 -0.795c0.014,-0.028 0.027,-0.054 0.039,-0.077 0.012,-0.023 0.031,-0.062 0.059,-0.117 -0.012,0.057 -0.017,0.127 -0.017,0.21l0 0.779 0.227 0 0 -1.182z"/>
  <polygon id="23" class="fil6" points="30.953,12.769 30.953,11.587 31.18,11.587 31.18,12.575 31.666,12.575 31.666,11.587 31.893,11.587 31.893,12.575 32.379,12.575 32.379,11.587 32.606,11.587 32.606,12.575 32.712,12.575 32.712,13.042 32.501,13.042 32.501,12.769 "/>
  <polygon id="24" class="fil6" points="33.07,11.775 33.07,12.083 33.624,12.083 33.624,12.251 33.07,12.251 33.07,12.583 33.657,12.583 33.657,12.769 32.846,12.769 32.846,11.587 33.652,11.587 33.652,11.775 "/>
  <polygon id="25" class="fil6" points="33.816,12.769 33.816,11.587 34.043,11.587 34.043,12.575 34.529,12.575 34.529,11.587 34.756,11.587 34.756,12.575 35.242,12.575 35.242,11.587 35.469,11.587 35.469,12.769 "/>
  <path id="26" class="fil6" d="M35.674 12.769l0 -1.182 0.227 0 0 0.461 0.372 0c0.109,0 0.192,0.032 0.251,0.096 0.058,0.064 0.087,0.153 0.087,0.267 0,0.075 -0.013,0.14 -0.038,0.193 -0.025,0.054 -0.063,0.095 -0.114,0.123 -0.05,0.028 -0.111,0.042 -0.182,0.042l-0.603 0zm0.227 -0.188l0.297 0c0.048,0 0.084,-0.005 0.111,-0.014 0.026,-0.009 0.045,-0.026 0.057,-0.05 0.012,-0.024 0.018,-0.059 0.018,-0.105 0,-0.067 -0.014,-0.113 -0.042,-0.139 -0.028,-0.025 -0.076,-0.038 -0.144,-0.038l-0.297 0 0 0.345z"/>
  <path id="27" class="fil6" d="M37.208 12.769l0 -1.182 0.503 0c0.103,0 0.186,0.01 0.249,0.031 0.063,0.021 0.111,0.059 0.144,0.115 0.032,0.057 0.049,0.137 0.049,0.242 0,0.081 -0.007,0.148 -0.022,0.2 -0.015,0.052 -0.039,0.093 -0.071,0.123 -0.033,0.03 -0.075,0.051 -0.128,0.064 -0.053,0.012 -0.119,0.018 -0.2,0.018l-0.297 0 0 0.388 -0.227 0zm0.227 -0.577l0.279 0c0.054,0 0.095,-0.006 0.124,-0.017 0.029,-0.011 0.051,-0.03 0.064,-0.058 0.013,-0.028 0.02,-0.068 0.02,-0.121 0,-0.057 -0.007,-0.102 -0.02,-0.133 -0.013,-0.031 -0.035,-0.053 -0.065,-0.066 -0.03,-0.013 -0.071,-0.019 -0.124,-0.019l-0.279 0 0 0.413z"/>
  <path id="28" class="fil6" d="M39.065 12.543l-0.512 0 -0.074 0.226 -0.235 0 0.393 -1.182 0.333 0 0.401 1.182 -0.23 0 -0.075 -0.226zm-0.053 -0.169l-0.205 -0.614 -0.202 0.614 0.407 0z"/>
  <path id="29" class="fil6" d="M39.5 12.769l0 -1.182 0.825 0 0 0.188 -0.599 0 0 0.273 0.374 0c0.072,0 0.134,0.014 0.184,0.043 0.05,0.029 0.088,0.07 0.114,0.125 0.025,0.055 0.038,0.12 0.038,0.196 0,0.075 -0.013,0.139 -0.038,0.193 -0.025,0.053 -0.063,0.094 -0.113,0.122 -0.05,0.028 -0.11,0.042 -0.182,0.042l-0.603 0zm0.226 -0.188l0.289 0c0.049,0 0.087,-0.005 0.115,-0.014 0.028,-0.009 0.048,-0.026 0.06,-0.05 0.013,-0.024 0.019,-0.059 0.019,-0.105 0,-0.068 -0.014,-0.114 -0.042,-0.139 -0.028,-0.025 -0.076,-0.038 -0.144,-0.038l-0.297 0 0 0.345z"/>
  <path id="30" class="fil6" d="M40.575 12.154c0,-0.117 0.008,-0.212 0.023,-0.285 0.015,-0.073 0.041,-0.131 0.079,-0.174 0.037,-0.043 0.088,-0.074 0.152,-0.092 0.064,-0.018 0.148,-0.028 0.251,-0.028 0.103,0 0.186,0.009 0.25,0.028 0.064,0.019 0.115,0.049 0.152,0.092 0.037,0.043 0.064,0.101 0.08,0.175 0.016,0.073 0.024,0.168 0.024,0.285 0,0.134 -0.008,0.242 -0.024,0.323 -0.016,0.081 -0.043,0.144 -0.08,0.189 -0.037,0.044 -0.088,0.076 -0.151,0.093 -0.063,0.018 -0.147,0.026 -0.251,0.026 -0.11,0 -0.198,-0.009 -0.262,-0.026 -0.064,-0.017 -0.114,-0.048 -0.149,-0.092 -0.035,-0.044 -0.06,-0.107 -0.073,-0.187 -0.013,-0.08 -0.02,-0.189 -0.02,-0.325zm0.23 0.025c0,0.098 0.003,0.174 0.01,0.226 0.007,0.052 0.019,0.092 0.038,0.119 0.019,0.027 0.045,0.045 0.079,0.053 0.034,0.009 0.083,0.013 0.147,0.013 0.063,0 0.112,-0.005 0.147,-0.014 0.035,-0.01 0.062,-0.028 0.08,-0.055 0.019,-0.027 0.031,-0.067 0.038,-0.119 0.007,-0.052 0.01,-0.126 0.01,-0.223 0,-0.098 -0.004,-0.174 -0.011,-0.228 -0.008,-0.054 -0.021,-0.094 -0.04,-0.12 -0.019,-0.026 -0.045,-0.043 -0.078,-0.051 -0.033,-0.008 -0.082,-0.012 -0.146,-0.012 -0.066,0 -0.116,0.004 -0.149,0.012 -0.033,0.008 -0.059,0.025 -0.077,0.051 -0.018,0.026 -0.031,0.066 -0.038,0.118 -0.007,0.052 -0.01,0.129 -0.01,0.23z"/>
  <polygon id="31" class="fil6" points="42.049,12.769 42.049,11.785 41.706,11.785 41.706,11.587 42.627,11.587 42.627,11.785 42.278,11.785 42.278,12.769 "/>
  <path id="32" class="fil6" d="M43.503 11.587l-0.229 0.593c-0.019,0.055 -0.034,0.112 -0.046,0.171 -0.008,-0.084 -0.018,-0.139 -0.032,-0.164l-0.236 -0.6 -0.273 0 0.407 0.871c0.01,0.023 0.016,0.041 0.016,0.053 0,0.013 -0.004,0.025 -0.013,0.037 -0.017,0.023 -0.058,0.035 -0.124,0.035 -0.013,0 -0.04,-0.003 -0.08,-0.008l0 0.193c0.047,0.005 0.095,0.008 0.143,0.008 0.046,0 0.087,-0.008 0.124,-0.023 0.037,-0.015 0.072,-0.042 0.105,-0.08 0.033,-0.039 0.065,-0.092 0.096,-0.16l0.41 -0.924 -0.268 0z"/>
  <path id="33" class="fil6" d="M44.085 12.557l0 0.207c0,0.053 -0.005,0.093 -0.015,0.122 -0.01,0.029 -0.029,0.05 -0.056,0.063 -0.028,0.013 -0.068,0.02 -0.121,0.02 -0.009,0 -0.016,-0.001 -0.02,-0.002l0 -0.093c0.034,-0.001 0.058,-0.006 0.072,-0.017 0.014,-0.011 0.021,-0.032 0.021,-0.063l0.002 -0.025 -0.08 0 0 -0.211 0.199 0z"/>
  <polygon id="34" class="fil6" points="2.948,13.461 2.948,14.642 2.721,14.642 2.721,13.655 2.17,13.655 2.17,14.642 1.943,14.642 1.943,13.461 "/>
  <path id="35" class="fil6" d="M3.155 14.642l0 -1.182 0.503 0c0.103,0 0.186,0.01 0.249,0.031 0.063,0.021 0.111,0.059 0.144,0.115 0.032,0.057 0.049,0.137 0.049,0.242 0,0.081 -0.007,0.148 -0.022,0.2 -0.015,0.052 -0.039,0.093 -0.071,0.123 -0.033,0.03 -0.075,0.051 -0.128,0.064 -0.053,0.012 -0.119,0.018 -0.2,0.018l-0.297 0 0 0.388 -0.227 0zm0.227 -0.577l0.279 0c0.054,0 0.095,-0.006 0.124,-0.017 0.029,-0.011 0.051,-0.03 0.064,-0.058 0.013,-0.028 0.02,-0.068 0.02,-0.121 0,-0.057 -0.007,-0.102 -0.02,-0.133 -0.013,-0.031 -0.035,-0.053 -0.065,-0.066 -0.03,-0.013 -0.071,-0.019 -0.124,-0.019l-0.279 0 0 0.413z"/>
  <polygon id="36" class="fil6" points="4.491,13.648 4.491,13.956 5.045,13.956 5.045,14.125 4.491,14.125 4.491,14.456 5.078,14.456 5.078,14.642 4.267,14.642 4.267,13.461 5.073,13.461 5.073,13.648 "/>
  <path id="37" class="fil6" d="M5.259 14.448c0.023,-0.024 0.043,-0.052 0.058,-0.081 0.016,-0.03 0.028,-0.064 0.037,-0.102 0.009,-0.038 0.016,-0.082 0.02,-0.133 0.004,-0.05 0.007,-0.109 0.007,-0.176l0 -0.498 0.855 0 0 0.989 0.106 0 0 0.467 -0.211 0 0 -0.273 -0.749 0 0 0.273 -0.213 0 0 -0.467 0.09 0zm0.344 -0.795l0 0.304c0,0.085 -0.003,0.157 -0.009,0.217 -0.006,0.06 -0.017,0.113 -0.032,0.159 -0.015,0.045 -0.036,0.084 -0.063,0.115l0.511 0 0 -0.795 -0.407 0z"/>
  <path id="38" class="fil6" d="M7.503 13.461l0 1.182 -0.226 0 0 -0.987 -0.45 0 0 0.661c0,0.095 -0.024,0.174 -0.071,0.236 -0.047,0.062 -0.123,0.093 -0.227,0.093 -0.038,0 -0.077,-0.004 -0.116,-0.011l0 -0.186c0.019,0.003 0.042,0.005 0.071,0.005 0.045,0 0.077,-0.011 0.095,-0.032 0.018,-0.021 0.026,-0.051 0.026,-0.088l0 -0.872 0.898 0z"/>
  <path id="39" class="fil6" d="M8.457 14.417l-0.512 0 -0.074 0.226 -0.235 0 0.393 -1.182 0.333 0 0.401 1.182 -0.23 0 -0.075 -0.226zm-0.053 -0.169l-0.205 -0.614 -0.202 0.614 0.407 0z"/>
  <polygon id="40" class="fil6" points="9.12,14.642 9.12,13.658 9.666,13.658 9.666,13.461 8.892,13.461 8.892,14.642 "/>
  <path id="41" class="fil6" d="M10.533 14.417l-0.512 0 -0.074 0.226 -0.235 0 0.393 -1.182 0.333 0 0.401 1.182 -0.23 0 -0.075 -0.226zm-0.053 -0.169l-0.205 -0.614 -0.202 0.614 0.407 0z"/>
  <polygon id="42" class="fil6" points="11.192,13.648 11.192,13.956 11.746,13.956 11.746,14.125 11.192,14.125 11.192,14.456 11.779,14.456 11.779,14.642 10.968,14.642 10.968,13.461 11.774,13.461 11.774,13.648 "/>
  <polygon id="43" class="fil6" points="13.332,13.461 13.332,14.642 13.108,14.642 13.108,13.647 12.736,14.642 12.533,14.642 12.162,13.653 12.162,14.642 11.938,14.642 11.938,13.461 12.309,13.461 12.629,14.337 12.635,14.337 12.949,13.461 "/>
  <path id="44" class="fil6" d="M13.938 14.027c0,-0.117 0.008,-0.212 0.023,-0.285 0.015,-0.073 0.041,-0.131 0.079,-0.174 0.037,-0.043 0.088,-0.074 0.152,-0.092 0.064,-0.018 0.148,-0.028 0.251,-0.028 0.103,0 0.186,0.009 0.25,0.028 0.064,0.019 0.115,0.049 0.152,0.092 0.037,0.043 0.064,0.101 0.08,0.175 0.016,0.073 0.024,0.168 0.024,0.285 0,0.134 -0.008,0.242 -0.024,0.323 -0.016,0.081 -0.043,0.144 -0.08,0.189 -0.037,0.044 -0.088,0.076 -0.151,0.093 -0.063,0.018 -0.147,0.026 -0.251,0.026 -0.11,0 -0.198,-0.009 -0.262,-0.026 -0.064,-0.017 -0.114,-0.048 -0.149,-0.092 -0.035,-0.044 -0.06,-0.107 -0.073,-0.187 -0.013,-0.08 -0.02,-0.189 -0.02,-0.325zm0.23 0.025c0,0.098 0.003,0.174 0.01,0.226 0.007,0.052 0.019,0.092 0.038,0.119 0.019,0.027 0.045,0.045 0.079,0.053 0.034,0.009 0.083,0.013 0.147,0.013 0.063,0 0.112,-0.005 0.147,-0.014 0.035,-0.01 0.062,-0.028 0.08,-0.055 0.019,-0.027 0.031,-0.067 0.038,-0.119 0.007,-0.052 0.01,-0.126 0.01,-0.223 0,-0.098 -0.004,-0.174 -0.011,-0.228 -0.008,-0.054 -0.021,-0.094 -0.04,-0.12 -0.019,-0.026 -0.045,-0.043 -0.078,-0.051 -0.033,-0.008 -0.082,-0.012 -0.146,-0.012 -0.066,0 -0.116,0.004 -0.149,0.012 -0.033,0.008 -0.059,0.025 -0.077,0.051 -0.018,0.026 -0.031,0.066 -0.038,0.118 -0.007,0.052 -0.01,0.129 -0.01,0.23z"/>
  <path id="45" class="fil6" d="M15.421 13.958l0.183 0c0.071,0 0.123,-0.013 0.156,-0.039 0.033,-0.026 0.049,-0.067 0.049,-0.124 0,-0.043 -0.007,-0.077 -0.022,-0.102 -0.015,-0.024 -0.04,-0.041 -0.075,-0.052 -0.035,-0.01 -0.084,-0.016 -0.148,-0.016 -0.052,0 -0.094,0.003 -0.125,0.008 -0.031,0.006 -0.056,0.015 -0.074,0.029 -0.018,0.014 -0.031,0.032 -0.038,0.055 -0.008,0.023 -0.012,0.053 -0.012,0.09l-0.216 0c0.007,-0.095 0.026,-0.169 0.058,-0.22 0.032,-0.052 0.08,-0.088 0.144,-0.108 0.064,-0.021 0.153,-0.031 0.266,-0.031 0.155,0 0.269,0.025 0.345,0.074 0.075,0.049 0.113,0.126 0.113,0.229 0,0.083 -0.012,0.145 -0.037,0.186 -0.024,0.041 -0.068,0.071 -0.131,0.091l0 0.006c0.051,0.014 0.09,0.032 0.119,0.054 0.028,0.022 0.049,0.05 0.06,0.085 0.012,0.035 0.018,0.078 0.018,0.13 0,0.083 -0.014,0.15 -0.043,0.2 -0.028,0.051 -0.078,0.088 -0.149,0.113 -0.071,0.025 -0.17,0.037 -0.298,0.037 -0.08,0 -0.148,-0.005 -0.206,-0.014 -0.057,-0.009 -0.106,-0.026 -0.146,-0.05 -0.04,-0.024 -0.07,-0.059 -0.091,-0.104 -0.021,-0.045 -0.031,-0.103 -0.031,-0.174l0 -0.049 0.213 0c0.001,0.06 0.007,0.104 0.016,0.131 0.01,0.028 0.033,0.048 0.069,0.062 0.037,0.013 0.095,0.02 0.176,0.02 0.071,0 0.126,-0.005 0.165,-0.016 0.039,-0.01 0.067,-0.028 0.084,-0.053 0.017,-0.024 0.025,-0.059 0.025,-0.104 0,-0.064 -0.016,-0.11 -0.049,-0.137 -0.033,-0.027 -0.083,-0.041 -0.15,-0.041l-0.219 0 0 -0.169z"/>
  <polygon id="46" class="fil6" points="17.217,13.461 17.217,14.642 16.99,14.642 16.99,14.137 16.439,14.137 16.439,14.642 16.212,14.642 16.212,13.461 16.439,13.461 16.439,13.945 16.99,13.945 16.99,13.461 "/>
  <path id="47" class="fil6" d="M18.168 14.417l-0.512 0 -0.074 0.226 -0.235 0 0.393 -1.182 0.333 0 0.401 1.182 -0.23 0 -0.075 -0.226zm-0.053 -0.169l-0.205 -0.614 -0.202 0.614 0.407 0z"/>
  <polygon id="48" class="fil6" points="18.83,13.461 18.83,13.943 18.936,13.943 19.33,13.461 19.608,13.461 19.13,14.036 19.658,14.642 19.371,14.642 18.936,14.137 18.83,14.137 18.83,14.642 18.603,14.642 18.603,13.461 "/>
  <path id="49" class="fil6" d="M19.769 14.027c0,-0.117 0.008,-0.212 0.023,-0.285 0.015,-0.073 0.041,-0.131 0.079,-0.174 0.037,-0.043 0.088,-0.074 0.152,-0.092 0.064,-0.018 0.148,-0.028 0.251,-0.028 0.103,0 0.186,0.009 0.25,0.028 0.064,0.019 0.115,0.049 0.152,0.092 0.037,0.043 0.064,0.101 0.08,0.175 0.016,0.073 0.024,0.168 0.024,0.285 0,0.134 -0.008,0.242 -0.024,0.323 -0.016,0.081 -0.043,0.144 -0.08,0.189 -0.037,0.044 -0.088,0.076 -0.151,0.093 -0.063,0.018 -0.147,0.026 -0.251,0.026 -0.11,0 -0.198,-0.009 -0.262,-0.026 -0.064,-0.017 -0.114,-0.048 -0.149,-0.092 -0.035,-0.044 -0.06,-0.107 -0.073,-0.187 -0.013,-0.08 -0.02,-0.189 -0.02,-0.325zm0.23 0.025c0,0.098 0.003,0.174 0.01,0.226 0.007,0.052 0.019,0.092 0.038,0.119 0.019,0.027 0.045,0.045 0.079,0.053 0.034,0.009 0.083,0.013 0.147,0.013 0.063,0 0.112,-0.005 0.147,-0.014 0.035,-0.01 0.062,-0.028 0.08,-0.055 0.019,-0.027 0.031,-0.067 0.038,-0.119 0.007,-0.052 0.01,-0.126 0.01,-0.223 0,-0.098 -0.004,-0.174 -0.011,-0.228 -0.008,-0.054 -0.021,-0.094 -0.04,-0.12 -0.019,-0.026 -0.045,-0.043 -0.078,-0.051 -0.033,-0.008 -0.082,-0.012 -0.146,-0.012 -0.066,0 -0.116,0.004 -0.149,0.012 -0.033,0.008 -0.059,0.025 -0.077,0.051 -0.018,0.026 -0.031,0.066 -0.038,0.118 -0.007,0.052 -0.01,0.129 -0.01,0.23z"/>
  <polygon id="50" class="fil6" points="22.356,13.461 22.356,14.642 22.132,14.642 22.132,13.647 21.76,14.642 21.556,14.642 21.186,13.653 21.186,14.642 20.962,14.642 20.962,13.461 21.332,13.461 21.652,14.337 21.659,14.337 21.973,13.461 "/>
  <path id="51" class="fil6" d="M23.591 13.461l-0.325 0 -0.402 0.792c-0.013,0.027 -0.025,0.051 -0.035,0.07 -0.01,0.019 -0.031,0.061 -0.063,0.124 0.012,-0.057 0.017,-0.127 0.017,-0.21l0 -0.776 -0.227 0 0 1.182 0.325 0 0.402 -0.795c0.014,-0.028 0.027,-0.054 0.039,-0.077 0.012,-0.023 0.031,-0.062 0.059,-0.117 -0.012,0.057 -0.017,0.127 -0.017,0.21l0 0.779 0.227 0 0 -1.182z"/>
  <polygon id="52" class="fil6" points="24.083,14.642 24.083,13.658 23.741,13.658 23.741,13.461 24.662,13.461 24.662,13.658 24.312,13.658 24.312,14.642 "/>
  <path id="53" class="fil6" d="M24.806 14.642l0 -1.182 0.227 0 0 0.461 0.372 0c0.109,0 0.192,0.032 0.251,0.096 0.058,0.064 0.087,0.153 0.087,0.267 0,0.075 -0.013,0.14 -0.038,0.193 -0.025,0.054 -0.063,0.095 -0.114,0.123 -0.05,0.028 -0.111,0.042 -0.182,0.042l-0.603 0zm0.227 -0.188l0.297 0c0.048,0 0.084,-0.005 0.111,-0.014 0.026,-0.009 0.045,-0.026 0.057,-0.05 0.012,-0.024 0.018,-0.059 0.018,-0.105 0,-0.067 -0.014,-0.113 -0.042,-0.139 -0.028,-0.025 -0.076,-0.038 -0.144,-0.038l-0.297 0 0 0.345z"/>
  <path id="54" class="fil6" d="M26.653 14.219l0.222 0 0 0.069c0,0.091 -0.016,0.164 -0.047,0.217 -0.031,0.053 -0.082,0.091 -0.153,0.115 -0.071,0.023 -0.167,0.035 -0.289,0.035 -0.1,0 -0.182,-0.009 -0.245,-0.028 -0.063,-0.019 -0.113,-0.051 -0.15,-0.097 -0.037,-0.046 -0.064,-0.108 -0.079,-0.188 -0.016,-0.079 -0.024,-0.183 -0.024,-0.312 0,-0.141 0.014,-0.254 0.043,-0.337 0.028,-0.083 0.078,-0.145 0.149,-0.185 0.071,-0.04 0.171,-0.06 0.299,-0.06 0.127,0 0.225,0.015 0.294,0.044 0.069,0.03 0.117,0.073 0.145,0.131 0.028,0.058 0.045,0.136 0.052,0.233l-0.221 0c-0.004,-0.062 -0.014,-0.108 -0.029,-0.138 -0.016,-0.029 -0.042,-0.049 -0.078,-0.06 -0.036,-0.01 -0.09,-0.015 -0.162,-0.015 -0.074,0 -0.129,0.01 -0.164,0.029 -0.035,0.019 -0.06,0.057 -0.074,0.113 -0.014,0.056 -0.021,0.145 -0.021,0.267 0,0.086 0.004,0.156 0.012,0.208 0.008,0.053 0.021,0.094 0.04,0.123 0.019,0.029 0.046,0.049 0.078,0.06 0.033,0.011 0.077,0.017 0.133,0.017 0.071,0 0.125,-0.005 0.164,-0.014 0.038,-0.01 0.066,-0.026 0.082,-0.05 0.016,-0.024 0.024,-0.058 0.024,-0.102l0 -0.074z"/>
  <path id="55" class="fil6" d="M27.932 14.642l0 -1.182 -0.598 0c-0.124,0 -0.215,0.033 -0.273,0.1 -0.058,0.067 -0.087,0.161 -0.087,0.282 0,0.1 0.019,0.176 0.058,0.228 0.038,0.053 0.095,0.094 0.169,0.125l-0.259 0.446 0.259 0 0.232 -0.416 0.274 0 0 0.416 0.224 0zm-0.224 -0.598l-0.328 0c-0.043,0 -0.077,-0.006 -0.103,-0.018 -0.026,-0.012 -0.045,-0.032 -0.057,-0.06 -0.012,-0.029 -0.019,-0.068 -0.019,-0.119 0,-0.07 0.014,-0.12 0.04,-0.148 0.027,-0.028 0.073,-0.043 0.138,-0.043l0.328 -0.002 0 0.39z"/>
  <path id="56" class="fil6" d="M29.295 14.219l0.222 0 0 0.069c0,0.091 -0.016,0.164 -0.047,0.217 -0.031,0.053 -0.082,0.091 -0.153,0.115 -0.071,0.023 -0.167,0.035 -0.289,0.035 -0.1,0 -0.182,-0.009 -0.245,-0.028 -0.063,-0.019 -0.113,-0.051 -0.15,-0.097 -0.037,-0.046 -0.064,-0.108 -0.079,-0.188 -0.016,-0.079 -0.024,-0.183 -0.024,-0.312 0,-0.141 0.014,-0.254 0.043,-0.337 0.028,-0.083 0.078,-0.145 0.149,-0.185 0.071,-0.04 0.171,-0.06 0.299,-0.06 0.127,0 0.225,0.015 0.294,0.044 0.069,0.03 0.117,0.073 0.145,0.131 0.028,0.058 0.045,0.136 0.052,0.233l-0.221 0c-0.004,-0.062 -0.014,-0.108 -0.029,-0.138 -0.016,-0.029 -0.042,-0.049 -0.078,-0.06 -0.036,-0.01 -0.09,-0.015 -0.162,-0.015 -0.074,0 -0.129,0.01 -0.164,0.029 -0.035,0.019 -0.06,0.057 -0.074,0.113 -0.014,0.056 -0.021,0.145 -0.021,0.267 0,0.086 0.004,0.156 0.012,0.208 0.008,0.053 0.021,0.094 0.04,0.123 0.019,0.029 0.046,0.049 0.078,0.06 0.033,0.011 0.077,0.017 0.133,0.017 0.071,0 0.125,-0.005 0.164,-0.014 0.038,-0.01 0.066,-0.026 0.082,-0.05 0.016,-0.024 0.024,-0.058 0.024,-0.102l0 -0.074z"/>
  <path id="57" class="fil6" d="M30.303 13.648l0 0.306 0.287 0c0.052,0 0.091,-0.004 0.118,-0.012 0.027,-0.008 0.047,-0.024 0.06,-0.047 0.013,-0.023 0.019,-0.058 0.019,-0.105 0,-0.055 -0.012,-0.092 -0.037,-0.112 -0.024,-0.02 -0.065,-0.03 -0.123,-0.03l-0.325 0zm0 0.475l0 0.331 0.287 0c0.078,0 0.135,-0.012 0.171,-0.037 0.036,-0.025 0.053,-0.069 0.053,-0.132 0,-0.042 -0.006,-0.075 -0.018,-0.098 -0.012,-0.023 -0.032,-0.04 -0.058,-0.05 -0.026,-0.01 -0.062,-0.014 -0.107,-0.014l-0.328 0zm-0.224 0.519l0 -1.182 0.606 0c0.072,0 0.132,0.01 0.181,0.031 0.049,0.021 0.086,0.053 0.111,0.097 0.025,0.044 0.038,0.1 0.038,0.168 0,0.15 -0.056,0.24 -0.169,0.272l0 0.008c0.063,0.01 0.111,0.038 0.145,0.084 0.034,0.046 0.05,0.107 0.05,0.183 0,0.052 -0.007,0.099 -0.02,0.141 -0.014,0.042 -0.035,0.078 -0.063,0.107 -0.028,0.03 -0.063,0.052 -0.105,0.068 -0.042,0.016 -0.092,0.023 -0.149,0.023l-0.625 0z"/>
  <path id="58" class="fil6" d="M31.189 14.027c0,-0.117 0.008,-0.212 0.023,-0.285 0.015,-0.073 0.041,-0.131 0.079,-0.174 0.037,-0.043 0.088,-0.074 0.152,-0.092 0.064,-0.018 0.148,-0.028 0.251,-0.028 0.103,0 0.186,0.009 0.25,0.028 0.064,0.019 0.115,0.049 0.152,0.092 0.037,0.043 0.064,0.101 0.08,0.175 0.016,0.073 0.024,0.168 0.024,0.285 0,0.134 -0.008,0.242 -0.024,0.323 -0.016,0.081 -0.043,0.144 -0.08,0.189 -0.037,0.044 -0.088,0.076 -0.151,0.093 -0.063,0.018 -0.147,0.026 -0.251,0.026 -0.11,0 -0.198,-0.009 -0.262,-0.026 -0.064,-0.017 -0.114,-0.048 -0.149,-0.092 -0.035,-0.044 -0.06,-0.107 -0.073,-0.187 -0.013,-0.08 -0.02,-0.189 -0.02,-0.325zm0.23 0.025c0,0.098 0.003,0.174 0.01,0.226 0.007,0.052 0.019,0.092 0.038,0.119 0.019,0.027 0.045,0.045 0.079,0.053 0.034,0.009 0.083,0.013 0.147,0.013 0.063,0 0.112,-0.005 0.147,-0.014 0.035,-0.01 0.062,-0.028 0.08,-0.055 0.019,-0.027 0.031,-0.067 0.038,-0.119 0.007,-0.052 0.01,-0.126 0.01,-0.223 0,-0.098 -0.004,-0.174 -0.011,-0.228 -0.008,-0.054 -0.021,-0.094 -0.04,-0.12 -0.019,-0.026 -0.045,-0.043 -0.078,-0.051 -0.033,-0.008 -0.082,-0.012 -0.146,-0.012 -0.066,0 -0.116,0.004 -0.149,0.012 -0.033,0.008 -0.059,0.025 -0.077,0.051 -0.018,0.026 -0.031,0.066 -0.038,0.118 -0.007,0.052 -0.01,0.129 -0.01,0.23z"/>
  <path id="59" class="fil6" d="M33.119 14.219l0.222 0 0 0.069c0,0.091 -0.016,0.164 -0.047,0.217 -0.031,0.053 -0.082,0.091 -0.153,0.115 -0.071,0.023 -0.167,0.035 -0.289,0.035 -0.1,0 -0.182,-0.009 -0.245,-0.028 -0.063,-0.019 -0.113,-0.051 -0.15,-0.097 -0.037,-0.046 -0.064,-0.108 -0.079,-0.188 -0.016,-0.079 -0.024,-0.183 -0.024,-0.312 0,-0.141 0.014,-0.254 0.043,-0.337 0.028,-0.083 0.078,-0.145 0.149,-0.185 0.071,-0.04 0.171,-0.06 0.299,-0.06 0.127,0 0.225,0.015 0.294,0.044 0.069,0.03 0.117,0.073 0.145,0.131 0.028,0.058 0.045,0.136 0.052,0.233l-0.221 0c-0.004,-0.062 -0.014,-0.108 -0.029,-0.138 -0.016,-0.029 -0.042,-0.049 -0.078,-0.06 -0.036,-0.01 -0.09,-0.015 -0.162,-0.015 -0.074,0 -0.129,0.01 -0.164,0.029 -0.035,0.019 -0.06,0.057 -0.074,0.113 -0.014,0.056 -0.021,0.145 -0.021,0.267 0,0.086 0.004,0.156 0.012,0.208 0.008,0.053 0.021,0.094 0.04,0.123 0.019,0.029 0.046,0.049 0.078,0.06 0.033,0.011 0.077,0.017 0.133,0.017 0.071,0 0.125,-0.005 0.164,-0.014 0.038,-0.01 0.066,-0.026 0.082,-0.05 0.016,-0.024 0.024,-0.058 0.024,-0.102l0 -0.074z"/>
  <polygon id="60" class="fil6" points="33.758,14.642 33.758,13.658 33.416,13.658 33.416,13.461 34.337,13.461 34.337,13.658 33.987,13.658 33.987,14.642 "/>
  <path id="61" class="fil6" d="M34.481 14.642l0 -1.182 0.503 0c0.103,0 0.186,0.01 0.249,0.031 0.063,0.021 0.111,0.059 0.144,0.115 0.032,0.057 0.049,0.137 0.049,0.242 0,0.081 -0.007,0.148 -0.022,0.2 -0.015,0.052 -0.039,0.093 -0.071,0.123 -0.033,0.03 -0.075,0.051 -0.128,0.064 -0.053,0.012 -0.119,0.018 -0.2,0.018l-0.297 0 0 0.388 -0.227 0zm0.227 -0.577l0.279 0c0.054,0 0.095,-0.006 0.124,-0.017 0.029,-0.011 0.051,-0.03 0.064,-0.058 0.013,-0.028 0.02,-0.068 0.02,-0.121 0,-0.057 -0.007,-0.102 -0.02,-0.133 -0.013,-0.031 -0.035,-0.053 -0.065,-0.066 -0.03,-0.013 -0.071,-0.019 -0.124,-0.019l-0.279 0 0 0.413z"/>
  <polygon id="62" class="fil6" points="35.817,13.648 35.817,13.956 36.371,13.956 36.371,14.125 35.817,14.125 35.817,14.456 36.404,14.456 36.404,14.642 35.593,14.642 35.593,13.461 36.399,13.461 36.399,13.648 "/>
  <path id="63" class="fil6" d="M36.566 14.642l0 -1.182 0.825 0 0 0.188 -0.599 0 0 0.273 0.374 0c0.072,0 0.134,0.014 0.184,0.043 0.05,0.029 0.088,0.07 0.114,0.125 0.025,0.055 0.038,0.12 0.038,0.196 0,0.075 -0.013,0.139 -0.038,0.193 -0.025,0.053 -0.063,0.094 -0.113,0.122 -0.05,0.028 -0.11,0.042 -0.182,0.042l-0.603 0zm0.226 -0.188l0.289 0c0.049,0 0.087,-0.005 0.115,-0.014 0.028,-0.009 0.048,-0.026 0.06,-0.05 0.013,-0.024 0.019,-0.059 0.019,-0.105 0,-0.068 -0.014,-0.114 -0.042,-0.139 -0.028,-0.025 -0.076,-0.038 -0.144,-0.038l-0.297 0 0 0.345z"/>
  <path id="64" class="fil6" d="M37.642 14.027c0,-0.117 0.008,-0.212 0.023,-0.285 0.015,-0.073 0.041,-0.131 0.079,-0.174 0.037,-0.043 0.088,-0.074 0.152,-0.092 0.064,-0.018 0.148,-0.028 0.251,-0.028 0.103,0 0.186,0.009 0.25,0.028 0.064,0.019 0.115,0.049 0.152,0.092 0.037,0.043 0.064,0.101 0.08,0.175 0.016,0.073 0.024,0.168 0.024,0.285 0,0.134 -0.008,0.242 -0.024,0.323 -0.016,0.081 -0.043,0.144 -0.08,0.189 -0.037,0.044 -0.088,0.076 -0.151,0.093 -0.063,0.018 -0.147,0.026 -0.251,0.026 -0.11,0 -0.198,-0.009 -0.262,-0.026 -0.064,-0.017 -0.114,-0.048 -0.149,-0.092 -0.035,-0.044 -0.06,-0.107 -0.073,-0.187 -0.013,-0.08 -0.02,-0.189 -0.02,-0.325zm0.23 0.025c0,0.098 0.003,0.174 0.01,0.226 0.007,0.052 0.019,0.092 0.038,0.119 0.019,0.027 0.045,0.045 0.079,0.053 0.034,0.009 0.083,0.013 0.147,0.013 0.063,0 0.112,-0.005 0.147,-0.014 0.035,-0.01 0.062,-0.028 0.08,-0.055 0.019,-0.027 0.031,-0.067 0.038,-0.119 0.007,-0.052 0.01,-0.126 0.01,-0.223 0,-0.098 -0.004,-0.174 -0.011,-0.228 -0.008,-0.054 -0.021,-0.094 -0.04,-0.12 -0.019,-0.026 -0.045,-0.043 -0.078,-0.051 -0.033,-0.008 -0.082,-0.012 -0.146,-0.012 -0.066,0 -0.116,0.004 -0.149,0.012 -0.033,0.008 -0.059,0.025 -0.077,0.051 -0.018,0.026 -0.031,0.066 -0.038,0.118 -0.007,0.052 -0.01,0.129 -0.01,0.23z"/>
  <path id="65" class="fil6" d="M39.063 13.648l0 0.306 0.287 0c0.052,0 0.091,-0.004 0.118,-0.012 0.027,-0.008 0.047,-0.024 0.06,-0.047 0.013,-0.023 0.019,-0.058 0.019,-0.105 0,-0.055 -0.012,-0.092 -0.037,-0.112 -0.024,-0.02 -0.065,-0.03 -0.123,-0.03l-0.325 0zm0 0.475l0 0.331 0.287 0c0.078,0 0.135,-0.012 0.171,-0.037 0.036,-0.025 0.053,-0.069 0.053,-0.132 0,-0.042 -0.006,-0.075 -0.018,-0.098 -0.012,-0.023 -0.032,-0.04 -0.058,-0.05 -0.026,-0.01 -0.062,-0.014 -0.107,-0.014l-0.328 0zm-0.224 0.519l0 -1.182 0.606 0c0.072,0 0.132,0.01 0.181,0.031 0.049,0.021 0.086,0.053 0.111,0.097 0.025,0.044 0.038,0.1 0.038,0.168 0,0.15 -0.056,0.24 -0.169,0.272l0 0.008c0.063,0.01 0.111,0.038 0.145,0.084 0.034,0.046 0.05,0.107 0.05,0.183 0,0.052 -0.007,0.099 -0.02,0.141 -0.014,0.042 -0.035,0.078 -0.063,0.107 -0.028,0.03 -0.063,0.052 -0.105,0.068 -0.042,0.016 -0.092,0.023 -0.149,0.023l-0.625 0z"/>
  <path id="66" class="fil6" d="M40.709 14.417l-0.512 0 -0.074 0.226 -0.235 0 0.393 -1.182 0.333 0 0.401 1.182 -0.23 0 -0.075 -0.226zm-0.053 -0.169l-0.205 -0.614 -0.202 0.614 0.407 0z"/>
  <polygon id="67" class="fil6" points="42.149,13.461 42.149,14.642 41.922,14.642 41.922,14.137 41.371,14.137 41.371,14.642 41.144,14.642 41.144,13.461 41.371,13.461 41.371,13.945 41.922,13.945 41.922,13.461 "/>
  <polygon id="68" class="fil6" points="43.36,13.461 43.36,14.642 43.133,14.642 43.133,14.137 42.582,14.137 42.582,14.642 42.355,14.642 42.355,13.461 42.582,13.461 42.582,13.945 43.133,13.945 43.133,13.461 "/>
  <path id="69" class="fil6" d="M43.564 14.642l0 -1.182 0.227 0 0 0.461 0.373 0c0.054,0 0.102,0.008 0.145,0.025 0.042,0.016 0.078,0.04 0.107,0.072 0.029,0.032 0.051,0.07 0.066,0.115 0.015,0.045 0.022,0.096 0.022,0.152 0,0.074 -0.013,0.139 -0.039,0.192 -0.026,0.054 -0.065,0.095 -0.115,0.123 -0.051,0.028 -0.111,0.042 -0.181,0.042l-0.603 0zm0.227 -0.188l0.297 0c0.048,0 0.085,-0.005 0.112,-0.014 0.027,-0.009 0.046,-0.026 0.058,-0.05 0.012,-0.024 0.018,-0.059 0.018,-0.105 0,-0.067 -0.014,-0.113 -0.043,-0.138 -0.029,-0.025 -0.077,-0.038 -0.145,-0.038l-0.297 0 0 0.345zm1.137 -0.994l0 1.182 -0.227 0 0 -1.182 0.227 0z"/>
  <polygon id="70" class="fil6" points="46.526,13.461 46.526,14.642 46.302,14.642 46.302,13.647 45.93,14.642 45.726,14.642 45.355,13.653 45.355,14.642 45.131,14.642 45.131,13.461 45.502,13.461 45.822,14.337 45.828,14.337 46.143,13.461 "/>
  <path id="71" class="fil6" d="M47.761 13.461l-0.325 0 -0.402 0.792c-0.013,0.027 -0.025,0.051 -0.035,0.07 -0.01,0.019 -0.031,0.061 -0.063,0.124 0.012,-0.057 0.017,-0.127 0.017,-0.21l0 -0.776 -0.227 0 0 1.182 0.325 0 0.402 -0.795c0.014,-0.028 0.027,-0.054 0.039,-0.077 0.012,-0.023 0.031,-0.062 0.059,-0.117 -0.012,0.057 -0.017,0.127 -0.017,0.21l0 0.779 0.227 0 0 -1.182z"/>
  <polygon id="72" class="fil6" points="2.948,15.334 2.948,16.515 2.721,16.515 2.721,15.528 2.17,15.528 2.17,16.515 1.943,16.515 1.943,15.334 "/>
  <path id="73" class="fil6" d="M3.155 16.515l0 -1.182 0.503 0c0.103,0 0.186,0.01 0.249,0.031 0.063,0.021 0.111,0.059 0.144,0.115 0.032,0.057 0.049,0.137 0.049,0.242 0,0.081 -0.007,0.148 -0.022,0.2 -0.015,0.052 -0.039,0.093 -0.071,0.123 -0.033,0.03 -0.075,0.051 -0.128,0.064 -0.053,0.012 -0.119,0.018 -0.2,0.018l-0.297 0 0 0.388 -0.227 0zm0.227 -0.577l0.279 0c0.054,0 0.095,-0.006 0.124,-0.017 0.029,-0.011 0.051,-0.03 0.064,-0.058 0.013,-0.028 0.02,-0.068 0.02,-0.121 0,-0.057 -0.007,-0.102 -0.02,-0.133 -0.013,-0.031 -0.035,-0.053 -0.065,-0.066 -0.03,-0.013 -0.071,-0.019 -0.124,-0.019l-0.279 0 0 0.413z"/>
  <path id="74" class="fil6" d="M4.251 15.901c0,-0.117 0.008,-0.212 0.023,-0.285 0.015,-0.073 0.041,-0.131 0.079,-0.174 0.037,-0.043 0.088,-0.074 0.152,-0.092 0.064,-0.018 0.148,-0.028 0.251,-0.028 0.103,0 0.186,0.009 0.25,0.028 0.064,0.019 0.115,0.049 0.152,0.092 0.037,0.043 0.064,0.101 0.08,0.175 0.016,0.073 0.024,0.168 0.024,0.285 0,0.134 -0.008,0.242 -0.024,0.323 -0.016,0.081 -0.043,0.144 -0.08,0.189 -0.037,0.044 -0.088,0.076 -0.151,0.093 -0.063,0.018 -0.147,0.026 -0.251,0.026 -0.11,0 -0.198,-0.009 -0.262,-0.026 -0.064,-0.017 -0.114,-0.048 -0.149,-0.092 -0.035,-0.044 -0.06,-0.107 -0.073,-0.187 -0.013,-0.08 -0.02,-0.189 -0.02,-0.325zm0.23 0.025c0,0.098 0.003,0.174 0.01,0.226 0.007,0.052 0.019,0.092 0.038,0.119 0.019,0.027 0.045,0.045 0.079,0.053 0.034,0.009 0.083,0.013 0.147,0.013 0.063,0 0.112,-0.005 0.147,-0.014 0.035,-0.01 0.062,-0.028 0.08,-0.055 0.019,-0.027 0.031,-0.067 0.038,-0.119 0.007,-0.052 0.01,-0.126 0.01,-0.223 0,-0.098 -0.004,-0.174 -0.011,-0.228 -0.008,-0.054 -0.021,-0.094 -0.04,-0.12 -0.019,-0.026 -0.045,-0.043 -0.078,-0.051 -0.033,-0.008 -0.082,-0.012 -0.146,-0.012 -0.066,0 -0.116,0.004 -0.149,0.012 -0.033,0.008 -0.059,0.025 -0.077,0.051 -0.018,0.026 -0.031,0.066 -0.038,0.118 -0.007,0.052 -0.01,0.129 -0.01,0.23z"/>
  <path id="75" class="fil6" d="M6.221 15.637l0 0.554 0.15 0c0.081,0 0.137,-0.021 0.17,-0.062 0.032,-0.042 0.048,-0.112 0.048,-0.212 0,-0.067 -0.007,-0.121 -0.021,-0.162 -0.014,-0.041 -0.037,-0.07 -0.068,-0.089 -0.031,-0.019 -0.075,-0.028 -0.129,-0.028l-0.15 0zm-0.224 0.746l-0.142 0c-0.104,0 -0.189,-0.016 -0.255,-0.049 -0.067,-0.032 -0.116,-0.083 -0.148,-0.152 -0.032,-0.069 -0.049,-0.157 -0.049,-0.266 0,-0.084 0.009,-0.155 0.028,-0.215 0.019,-0.06 0.048,-0.108 0.086,-0.146 0.038,-0.038 0.086,-0.066 0.144,-0.084 0.058,-0.018 0.127,-0.027 0.207,-0.027l0.129 0 0 -0.112 0.224 0 0 0.112 0.142 0c0.08,0 0.148,0.009 0.205,0.028 0.056,0.019 0.103,0.047 0.14,0.086 0.037,0.038 0.064,0.087 0.082,0.146 0.018,0.059 0.026,0.13 0.026,0.213 0,0.109 -0.016,0.198 -0.048,0.267 -0.032,0.069 -0.081,0.119 -0.148,0.151 -0.067,0.032 -0.152,0.049 -0.257,0.049l-0.142 0 0 0.133 -0.224 0 0 -0.133zm0 -0.746l-0.15 0c-0.053,0 -0.095,0.009 -0.127,0.028 -0.032,0.019 -0.055,0.049 -0.069,0.09 -0.014,0.041 -0.022,0.094 -0.022,0.161 0,0.066 0.007,0.119 0.022,0.159 0.015,0.04 0.038,0.07 0.07,0.088 0.032,0.018 0.074,0.027 0.127,0.027l0.148 0 0 -0.554z"/>
  <polygon id="76" class="fil6" points="7.199,15.522 7.199,15.829 7.753,15.829 7.753,15.998 7.199,15.998 7.199,16.329 7.786,16.329 7.786,16.515 6.975,16.515 6.975,15.334 7.781,15.334 7.781,15.522 "/>
  <path id="77" class="fil6" d="M8.683 16.093l0.222 0 0 0.069c0,0.091 -0.016,0.164 -0.047,0.217 -0.031,0.053 -0.082,0.091 -0.153,0.115 -0.071,0.023 -0.167,0.035 -0.289,0.035 -0.1,0 -0.182,-0.009 -0.245,-0.028 -0.063,-0.019 -0.113,-0.051 -0.15,-0.097 -0.037,-0.046 -0.064,-0.108 -0.079,-0.188 -0.016,-0.079 -0.024,-0.183 -0.024,-0.312 0,-0.141 0.014,-0.254 0.043,-0.337 0.028,-0.083 0.078,-0.145 0.149,-0.185 0.071,-0.04 0.171,-0.06 0.299,-0.06 0.127,0 0.225,0.015 0.294,0.044 0.069,0.03 0.117,0.073 0.145,0.131 0.028,0.058 0.045,0.136 0.052,0.233l-0.221 0c-0.004,-0.062 -0.014,-0.108 -0.029,-0.138 -0.016,-0.029 -0.042,-0.049 -0.078,-0.06 -0.036,-0.01 -0.09,-0.015 -0.162,-0.015 -0.074,0 -0.129,0.01 -0.164,0.029 -0.035,0.019 -0.06,0.057 -0.074,0.113 -0.014,0.056 -0.021,0.145 -0.021,0.267 0,0.086 0.004,0.156 0.012,0.208 0.008,0.053 0.021,0.094 0.04,0.123 0.019,0.029 0.046,0.049 0.078,0.06 0.033,0.011 0.077,0.017 0.133,0.017 0.071,0 0.125,-0.005 0.164,-0.014 0.038,-0.01 0.066,-0.026 0.082,-0.05 0.016,-0.024 0.024,-0.058 0.024,-0.102l0 -0.074z"/>
  <path id="78" class="fil6" d="M9.78 16.093l0.222 0 0 0.069c0,0.091 -0.016,0.164 -0.047,0.217 -0.031,0.053 -0.082,0.091 -0.153,0.115 -0.071,0.023 -0.167,0.035 -0.289,0.035 -0.1,0 -0.182,-0.009 -0.245,-0.028 -0.063,-0.019 -0.113,-0.051 -0.15,-0.097 -0.037,-0.046 -0.064,-0.108 -0.079,-0.188 -0.016,-0.079 -0.024,-0.183 -0.024,-0.312 0,-0.141 0.014,-0.254 0.043,-0.337 0.028,-0.083 0.078,-0.145 0.149,-0.185 0.071,-0.04 0.171,-0.06 0.299,-0.06 0.127,0 0.225,0.015 0.294,0.044 0.069,0.03 0.117,0.073 0.145,0.131 0.028,0.058 0.045,0.136 0.052,0.233l-0.221 0c-0.004,-0.062 -0.014,-0.108 -0.029,-0.138 -0.016,-0.029 -0.042,-0.049 -0.078,-0.06 -0.036,-0.01 -0.09,-0.015 -0.162,-0.015 -0.074,0 -0.129,0.01 -0.164,0.029 -0.035,0.019 -0.06,0.057 -0.074,0.113 -0.014,0.056 -0.021,0.145 -0.021,0.267 0,0.086 0.004,0.156 0.012,0.208 0.008,0.053 0.021,0.094 0.04,0.123 0.019,0.029 0.046,0.049 0.078,0.06 0.033,0.011 0.077,0.017 0.133,0.017 0.071,0 0.125,-0.005 0.164,-0.014 0.038,-0.01 0.066,-0.026 0.082,-0.05 0.016,-0.024 0.024,-0.058 0.024,-0.102l0 -0.074z"/>
  <path id="79" class="fil6" d="M11.176 15.334l-0.325 0 -0.402 0.792c-0.013,0.027 -0.025,0.051 -0.035,0.07 -0.01,0.019 -0.031,0.061 -0.063,0.124 0.012,-0.057 0.017,-0.127 0.017,-0.21l0 -0.776 -0.227 0 0 1.182 0.325 0 0.402 -0.795c0.014,-0.028 0.027,-0.054 0.039,-0.077 0.012,-0.023 0.031,-0.062 0.059,-0.117 -0.012,0.057 -0.017,0.127 -0.017,0.21l0 0.779 0.227 0 0 -1.182z"/>
  <path id="80" class="fil6" d="M12.308 16.515l0 -1.182 -0.598 0c-0.124,0 -0.215,0.033 -0.273,0.1 -0.058,0.067 -0.087,0.161 -0.087,0.282 0,0.1 0.019,0.176 0.058,0.228 0.038,0.053 0.095,0.094 0.169,0.125l-0.259 0.446 0.259 0 0.232 -0.416 0.274 0 0 0.416 0.224 0zm-0.224 -0.598l-0.328 0c-0.043,0 -0.077,-0.006 -0.103,-0.018 -0.026,-0.012 -0.045,-0.032 -0.057,-0.06 -0.012,-0.029 -0.019,-0.068 -0.019,-0.119 0,-0.07 0.014,-0.12 0.04,-0.148 0.027,-0.028 0.073,-0.043 0.138,-0.043l0.328 -0.002 0 0.39z"/>
  <polygon id="81" class="fil6" points="13.906,15.334 13.906,16.515 13.682,16.515 13.682,15.52 13.31,16.515 13.106,16.515 12.736,15.526 12.736,16.515 12.512,16.515 12.512,15.334 12.882,15.334 13.203,16.211 13.209,16.211 13.523,15.334 "/>
  <path id="82" class="fil6" d="M15.141 15.334l-0.325 0 -0.402 0.792c-0.013,0.027 -0.025,0.051 -0.035,0.07 -0.01,0.019 -0.031,0.061 -0.063,0.124 0.012,-0.057 0.017,-0.127 0.017,-0.21l0 -0.776 -0.227 0 0 1.182 0.325 0 0.402 -0.795c0.014,-0.028 0.027,-0.054 0.039,-0.077 0.012,-0.023 0.031,-0.062 0.059,-0.117 -0.012,0.057 -0.017,0.127 -0.017,0.21l0 0.779 0.227 0 0 -1.182z"/>
  <path id="83" class="fil6" d="M16.003 15.522l0 0.306 0.287 0c0.052,0 0.091,-0.004 0.118,-0.012 0.027,-0.008 0.047,-0.024 0.06,-0.047 0.013,-0.023 0.019,-0.058 0.019,-0.105 0,-0.055 -0.012,-0.092 -0.037,-0.112 -0.024,-0.02 -0.065,-0.03 -0.123,-0.03l-0.325 0zm0 0.475l0 0.331 0.287 0c0.078,0 0.135,-0.012 0.171,-0.037 0.036,-0.025 0.053,-0.069 0.053,-0.132 0,-0.042 -0.006,-0.075 -0.018,-0.098 -0.012,-0.023 -0.032,-0.04 -0.058,-0.05 -0.026,-0.01 -0.062,-0.014 -0.107,-0.014l-0.328 0zm-0.224 0.519l0 -1.182 0.606 0c0.072,0 0.132,0.01 0.181,0.031 0.049,0.021 0.086,0.053 0.111,0.097 0.025,0.044 0.038,0.1 0.038,0.168 0,0.15 -0.056,0.24 -0.169,0.272l0 0.008c0.063,0.01 0.111,0.038 0.145,0.084 0.034,0.046 0.05,0.107 0.05,0.183 0,0.052 -0.007,0.099 -0.02,0.141 -0.014,0.042 -0.035,0.078 -0.063,0.107 -0.028,0.03 -0.063,0.052 -0.105,0.068 -0.042,0.016 -0.092,0.023 -0.149,0.023l-0.625 0z"/>
  <polygon id="84" class="fil6" points="17.554,16.515 17.554,15.531 18.1,15.531 18.1,15.334 17.325,15.334 17.325,16.515 "/>
  <path id="85" class="fil6" d="M19.231 15.334l0 1.182 -0.226 0 0 -0.987 -0.45 0 0 0.661c0,0.095 -0.024,0.174 -0.071,0.236 -0.047,0.062 -0.123,0.093 -0.227,0.093 -0.038,0 -0.077,-0.004 -0.116,-0.011l0 -0.186c0.019,0.003 0.042,0.005 0.071,0.005 0.045,0 0.077,-0.011 0.095,-0.032 0.018,-0.021 0.026,-0.051 0.026,-0.088l0 -0.872 0.898 0z"/>
  <path id="86" class="fil6" d="M20.184 16.29l-0.512 0 -0.074 0.226 -0.235 0 0.393 -1.182 0.333 0 0.401 1.182 -0.23 0 -0.075 -0.226zm-0.053 -0.169l-0.205 -0.614 -0.202 0.614 0.407 0z"/>
  <path id="87" class="fil6" d="M20.906 15.831l0.183 0c0.071,0 0.123,-0.013 0.156,-0.039 0.033,-0.026 0.049,-0.067 0.049,-0.124 0,-0.043 -0.007,-0.077 -0.022,-0.102 -0.015,-0.024 -0.04,-0.041 -0.075,-0.052 -0.035,-0.01 -0.084,-0.016 -0.148,-0.016 -0.052,0 -0.094,0.003 -0.125,0.008 -0.031,0.006 -0.056,0.015 -0.074,0.029 -0.018,0.014 -0.031,0.032 -0.038,0.055 -0.008,0.023 -0.012,0.053 -0.012,0.09l-0.216 0c0.007,-0.095 0.026,-0.169 0.058,-0.22 0.032,-0.052 0.08,-0.088 0.144,-0.108 0.064,-0.021 0.153,-0.031 0.266,-0.031 0.155,0 0.269,0.025 0.345,0.074 0.075,0.049 0.113,0.126 0.113,0.229 0,0.083 -0.012,0.145 -0.037,0.186 -0.024,0.041 -0.068,0.071 -0.131,0.091l0 0.006c0.051,0.014 0.09,0.032 0.119,0.054 0.028,0.022 0.049,0.05 0.06,0.085 0.012,0.035 0.018,0.078 0.018,0.13 0,0.083 -0.014,0.15 -0.043,0.2 -0.028,0.051 -0.078,0.088 -0.149,0.113 -0.071,0.025 -0.17,0.037 -0.298,0.037 -0.08,0 -0.148,-0.005 -0.206,-0.014 -0.057,-0.009 -0.106,-0.026 -0.146,-0.05 -0.04,-0.024 -0.07,-0.059 -0.091,-0.104 -0.021,-0.045 -0.031,-0.103 -0.031,-0.174l0 -0.049 0.213 0c0.001,0.06 0.007,0.104 0.016,0.131 0.01,0.028 0.033,0.048 0.069,0.062 0.037,0.013 0.095,0.02 0.176,0.02 0.071,0 0.126,-0.005 0.165,-0.016 0.039,-0.01 0.067,-0.028 0.084,-0.053 0.017,-0.024 0.025,-0.059 0.025,-0.104 0,-0.064 -0.016,-0.11 -0.049,-0.137 -0.033,-0.027 -0.083,-0.041 -0.15,-0.041l-0.219 0 0 -0.169z"/>
  <path id="88" class="fil6" d="M21.681 15.901c0,-0.117 0.008,-0.212 0.023,-0.285 0.015,-0.073 0.041,-0.131 0.079,-0.174 0.037,-0.043 0.088,-0.074 0.152,-0.092 0.064,-0.018 0.148,-0.028 0.251,-0.028 0.103,0 0.186,0.009 0.25,0.028 0.064,0.019 0.115,0.049 0.152,0.092 0.037,0.043 0.064,0.101 0.08,0.175 0.016,0.073 0.024,0.168 0.024,0.285 0,0.134 -0.008,0.242 -0.024,0.323 -0.016,0.081 -0.043,0.144 -0.08,0.189 -0.037,0.044 -0.088,0.076 -0.151,0.093 -0.063,0.018 -0.147,0.026 -0.251,0.026 -0.11,0 -0.198,-0.009 -0.262,-0.026 -0.064,-0.017 -0.114,-0.048 -0.149,-0.092 -0.035,-0.044 -0.06,-0.107 -0.073,-0.187 -0.013,-0.08 -0.02,-0.189 -0.02,-0.325zm0.23 0.025c0,0.098 0.003,0.174 0.01,0.226 0.007,0.052 0.019,0.092 0.038,0.119 0.019,0.027 0.045,0.045 0.079,0.053 0.034,0.009 0.083,0.013 0.147,0.013 0.063,0 0.112,-0.005 0.147,-0.014 0.035,-0.01 0.062,-0.028 0.08,-0.055 0.019,-0.027 0.031,-0.067 0.038,-0.119 0.007,-0.052 0.01,-0.126 0.01,-0.223 0,-0.098 -0.004,-0.174 -0.011,-0.228 -0.008,-0.054 -0.021,-0.094 -0.04,-0.12 -0.019,-0.026 -0.045,-0.043 -0.078,-0.051 -0.033,-0.008 -0.082,-0.012 -0.146,-0.012 -0.066,0 -0.116,0.004 -0.149,0.012 -0.033,0.008 -0.059,0.025 -0.077,0.051 -0.018,0.026 -0.031,0.066 -0.038,0.118 -0.007,0.052 -0.01,0.129 -0.01,0.23z"/>
  <path id="89" class="fil6" d="M23.102 15.522l0 0.306 0.287 0c0.052,0 0.091,-0.004 0.118,-0.012 0.027,-0.008 0.047,-0.024 0.06,-0.047 0.013,-0.023 0.019,-0.058 0.019,-0.105 0,-0.055 -0.012,-0.092 -0.037,-0.112 -0.024,-0.02 -0.065,-0.03 -0.123,-0.03l-0.325 0zm0 0.475l0 0.331 0.287 0c0.078,0 0.135,-0.012 0.171,-0.037 0.036,-0.025 0.053,-0.069 0.053,-0.132 0,-0.042 -0.006,-0.075 -0.018,-0.098 -0.012,-0.023 -0.032,-0.04 -0.058,-0.05 -0.026,-0.01 -0.062,-0.014 -0.107,-0.014l-0.328 0zm-0.224 0.519l0 -1.182 0.606 0c0.072,0 0.132,0.01 0.181,0.031 0.049,0.021 0.086,0.053 0.111,0.097 0.025,0.044 0.038,0.1 0.038,0.168 0,0.15 -0.056,0.24 -0.169,0.272l0 0.008c0.063,0.01 0.111,0.038 0.145,0.084 0.034,0.046 0.05,0.107 0.05,0.183 0,0.052 -0.007,0.099 -0.02,0.141 -0.014,0.042 -0.035,0.078 -0.063,0.107 -0.028,0.03 -0.063,0.052 -0.105,0.068 -0.042,0.016 -0.092,0.023 -0.149,0.023l-0.625 0z"/>
  <path id="90" class="fil6" d="M24.738 16.093l0.222 0 0 0.069c0,0.091 -0.016,0.164 -0.047,0.217 -0.031,0.053 -0.082,0.091 -0.153,0.115 -0.071,0.023 -0.167,0.035 -0.289,0.035 -0.1,0 -0.182,-0.009 -0.245,-0.028 -0.063,-0.019 -0.113,-0.051 -0.15,-0.097 -0.037,-0.046 -0.064,-0.108 -0.079,-0.188 -0.016,-0.079 -0.024,-0.183 -0.024,-0.312 0,-0.141 0.014,-0.254 0.043,-0.337 0.028,-0.083 0.078,-0.145 0.149,-0.185 0.071,-0.04 0.171,-0.06 0.299,-0.06 0.127,0 0.225,0.015 0.294,0.044 0.069,0.03 0.117,0.073 0.145,0.131 0.028,0.058 0.045,0.136 0.052,0.233l-0.221 0c-0.004,-0.062 -0.014,-0.108 -0.029,-0.138 -0.016,-0.029 -0.042,-0.049 -0.078,-0.06 -0.036,-0.01 -0.09,-0.015 -0.162,-0.015 -0.074,0 -0.129,0.01 -0.164,0.029 -0.035,0.019 -0.06,0.057 -0.074,0.113 -0.014,0.056 -0.021,0.145 -0.021,0.267 0,0.086 0.004,0.156 0.012,0.208 0.008,0.053 0.021,0.094 0.04,0.123 0.019,0.029 0.046,0.049 0.078,0.06 0.033,0.011 0.077,0.017 0.133,0.017 0.071,0 0.125,-0.005 0.164,-0.014 0.038,-0.01 0.066,-0.026 0.082,-0.05 0.016,-0.024 0.024,-0.058 0.024,-0.102l0 -0.074z"/>
  <polygon id="91" class="fil6" points="25.327,15.334 25.327,15.817 25.432,15.817 25.827,15.334 26.104,15.334 25.626,15.91 26.155,16.515 25.868,16.515 25.432,16.011 25.327,16.011 25.327,16.515 25.1,16.515 25.1,15.334 "/>
  <path id="92" class="fil6" d="M26.265 15.901c0,-0.117 0.008,-0.212 0.023,-0.285 0.015,-0.073 0.041,-0.131 0.079,-0.174 0.037,-0.043 0.088,-0.074 0.152,-0.092 0.064,-0.018 0.148,-0.028 0.251,-0.028 0.103,0 0.186,0.009 0.25,0.028 0.064,0.019 0.115,0.049 0.152,0.092 0.037,0.043 0.064,0.101 0.08,0.175 0.016,0.073 0.024,0.168 0.024,0.285 0,0.134 -0.008,0.242 -0.024,0.323 -0.016,0.081 -0.043,0.144 -0.08,0.189 -0.037,0.044 -0.088,0.076 -0.151,0.093 -0.063,0.018 -0.147,0.026 -0.251,0.026 -0.11,0 -0.198,-0.009 -0.262,-0.026 -0.064,-0.017 -0.114,-0.048 -0.149,-0.092 -0.035,-0.044 -0.06,-0.107 -0.073,-0.187 -0.013,-0.08 -0.02,-0.189 -0.02,-0.325zm0.23 0.025c0,0.098 0.003,0.174 0.01,0.226 0.007,0.052 0.019,0.092 0.038,0.119 0.019,0.027 0.045,0.045 0.079,0.053 0.034,0.009 0.083,0.013 0.147,0.013 0.063,0 0.112,-0.005 0.147,-0.014 0.035,-0.01 0.062,-0.028 0.08,-0.055 0.019,-0.027 0.031,-0.067 0.038,-0.119 0.007,-0.052 0.01,-0.126 0.01,-0.223 0,-0.098 -0.004,-0.174 -0.011,-0.228 -0.008,-0.054 -0.021,-0.094 -0.04,-0.12 -0.019,-0.026 -0.045,-0.043 -0.078,-0.051 -0.033,-0.008 -0.082,-0.012 -0.146,-0.012 -0.066,0 -0.116,0.004 -0.149,0.012 -0.033,0.008 -0.059,0.025 -0.077,0.051 -0.018,0.026 -0.031,0.066 -0.038,0.118 -0.007,0.052 -0.01,0.129 -0.01,0.23z"/>
  <polygon id="93" class="fil6" points="28.852,15.334 28.852,16.515 28.628,16.515 28.628,15.52 28.256,16.515 28.053,16.515 27.682,15.526 27.682,16.515 27.458,16.515 27.458,15.334 27.829,15.334 28.149,16.211 28.155,16.211 28.469,15.334 "/>
  <path id="94" class="fil6" d="M29.474 16.515l0 -1.182 0.503 0c0.103,0 0.186,0.01 0.249,0.031 0.063,0.021 0.111,0.059 0.144,0.115 0.032,0.057 0.049,0.137 0.049,0.242 0,0.081 -0.007,0.148 -0.022,0.2 -0.015,0.052 -0.039,0.093 -0.071,0.123 -0.033,0.03 -0.075,0.051 -0.128,0.064 -0.053,0.012 -0.119,0.018 -0.2,0.018l-0.297 0 0 0.388 -0.227 0zm0.227 -0.577l0.279 0c0.054,0 0.095,-0.006 0.124,-0.017 0.029,-0.011 0.051,-0.03 0.064,-0.058 0.013,-0.028 0.02,-0.068 0.02,-0.121 0,-0.057 -0.007,-0.102 -0.02,-0.133 -0.013,-0.031 -0.035,-0.053 -0.065,-0.066 -0.03,-0.013 -0.071,-0.019 -0.124,-0.019l-0.279 0 0 0.413z"/>
  <path id="95" class="fil6" d="M31.331 16.29l-0.512 0 -0.074 0.226 -0.235 0 0.393 -1.182 0.333 0 0.401 1.182 -0.23 0 -0.075 -0.226zm-0.053 -0.169l-0.205 -0.614 -0.202 0.614 0.407 0z"/>
  <path id="96" class="fil6" d="M32.801 15.334l-0.325 0 -0.402 0.792c-0.012,0.023 -0.026,0.05 -0.042,0.082 -0.016,0.032 -0.035,0.069 -0.056,0.11 0.012,-0.055 0.017,-0.124 0.017,-0.208l0 -0.776 -0.227 0 0 1.182 0.325 0 0.402 -0.796c0.014,-0.027 0.046,-0.091 0.098,-0.193 -0.012,0.056 -0.017,0.126 -0.017,0.21l0 0.779 0.227 0 0 -1.182zm-0.544 -0.069c-0.084,0 -0.149,-0.017 -0.196,-0.05 -0.047,-0.034 -0.07,-0.093 -0.07,-0.177l0.147 0c0,0.025 0.003,0.043 0.01,0.057 0.007,0.013 0.018,0.022 0.036,0.028 0.017,0.006 0.042,0.008 0.074,0.008 0.052,0 0.087,-0.006 0.104,-0.019 0.017,-0.013 0.026,-0.037 0.026,-0.074l0.142 0c0,0.085 -0.024,0.144 -0.071,0.177 -0.048,0.033 -0.114,0.05 -0.201,0.05z"/>
  <path id="97" class="fil6" d="M33.001 15.901c0,-0.117 0.008,-0.212 0.023,-0.285 0.015,-0.073 0.041,-0.131 0.079,-0.174 0.037,-0.043 0.088,-0.074 0.152,-0.092 0.064,-0.018 0.148,-0.028 0.251,-0.028 0.103,0 0.186,0.009 0.25,0.028 0.064,0.019 0.115,0.049 0.152,0.092 0.037,0.043 0.064,0.101 0.08,0.175 0.016,0.073 0.024,0.168 0.024,0.285 0,0.134 -0.008,0.242 -0.024,0.323 -0.016,0.081 -0.043,0.144 -0.08,0.189 -0.037,0.044 -0.088,0.076 -0.151,0.093 -0.063,0.018 -0.147,0.026 -0.251,0.026 -0.11,0 -0.198,-0.009 -0.262,-0.026 -0.064,-0.017 -0.114,-0.048 -0.149,-0.092 -0.035,-0.044 -0.06,-0.107 -0.073,-0.187 -0.013,-0.08 -0.02,-0.189 -0.02,-0.325zm0.23 0.025c0,0.098 0.003,0.174 0.01,0.226 0.007,0.052 0.019,0.092 0.038,0.119 0.019,0.027 0.045,0.045 0.079,0.053 0.034,0.009 0.083,0.013 0.147,0.013 0.063,0 0.112,-0.005 0.147,-0.014 0.035,-0.01 0.062,-0.028 0.08,-0.055 0.019,-0.027 0.031,-0.067 0.038,-0.119 0.007,-0.052 0.01,-0.126 0.01,-0.223 0,-0.098 -0.004,-0.174 -0.011,-0.228 -0.008,-0.054 -0.021,-0.094 -0.04,-0.12 -0.019,-0.026 -0.045,-0.043 -0.078,-0.051 -0.033,-0.008 -0.082,-0.012 -0.146,-0.012 -0.066,0 -0.116,0.004 -0.149,0.012 -0.033,0.008 -0.059,0.025 -0.077,0.051 -0.018,0.026 -0.031,0.066 -0.038,0.118 -0.007,0.052 -0.01,0.129 -0.01,0.23z"/>
  <polygon id="98" class="fil6" points="35.202,15.334 35.202,16.515 34.975,16.515 34.975,16.011 34.424,16.011 34.424,16.515 34.197,16.515 34.197,15.334 34.424,15.334 34.424,15.818 34.975,15.818 34.975,15.334 "/>
  <polygon id="99" class="fil6" points="35.633,15.522 35.633,15.829 36.187,15.829 36.187,15.998 35.633,15.998 35.633,16.329 36.22,16.329 36.22,16.515 35.409,16.515 35.409,15.334 36.215,15.334 36.215,15.522 "/>
  <polygon id="100" class="fil6" points="36.565,16.301 36.565,16.515 36.368,16.515 36.368,16.301 "/>
  <polygon class="fil7" points="69.28,4.555 73.327,1.814 73.327,4.1 69.28,6.841 "/>
  <polygon class="fil8" points="69.28,4.555 50.832,4.555 50.832,6.841 69.28,6.841 "/>
  <polygon class="fil9" points="51.14,4.32 69.634,4.316 69.28,4.555 50.832,4.555 "/>
  <polygon class="fil10" points="73.008,1.814 69.202,4.32 69.28,4.555 73.327,1.814 "/>
  <polygon class="fil6" points="55.327,5.495 55.327,6.288 54.917,6.288 54.917,5.18 56.135,5.18 56.135,5.495 "/>
  <polygon id="1" class="fil6" points="56.58,6.288 56.16,6.288 56.16,6.286 56.694,5.18 57.122,5.18 57.656,6.286 57.656,6.288 57.229,6.288 56.905,5.534 "/>
  <path id="2" class="fil6" d="M58.737 6.288l-0.059 -0.149 -0.524 0 -0.065 0.149 -0.421 0 0 -0.003 0.534 -1.106 0.428 0 0.534 1.106 0 0.003 -0.427 0zm-0.324 -0.755l-0.132 0.321 0.267 0 -0.135 -0.321z"/>
  <path id="3" class="fil6" d="M60.597 6.142c0,0.045 -0.012,0.08 -0.037,0.107 -0.025,0.027 -0.058,0.04 -0.101,0.04l-1.189 0 0 -1.109 1.181 0c0.043,0 0.076,0.013 0.099,0.04 0.024,0.027 0.036,0.062 0.036,0.107l0 0.207c0,0.03 -0.006,0.055 -0.018,0.075 -0.012,0.02 -0.031,0.037 -0.056,0.05l-0.135 0.074 0.142 0.073c0.025,0.013 0.044,0.028 0.057,0.046 0.013,0.018 0.02,0.042 0.02,0.072l0 0.219zm-0.419 -0.676l-0.498 0 0 0.151 0.373 0 0.125 -0.086 0 -0.065zm0.01 0.459l-0.135 -0.078 -0.373 0 0 0.157 0.508 0 0 -0.078z"/>
  <polygon id="4" class="fil6" points="61.732,6.288 61.732,5.93 61.21,5.93 61.21,6.288 60.801,6.288 60.801,5.18 61.21,5.18 61.21,5.582 61.732,5.582 61.732,5.18 62.142,5.18 62.142,6.288 "/>
  <path id="5" class="fil6" d="M63.319 6.288l-0.059 -0.149 -0.524 0 -0.065 0.149 -0.421 0 0 -0.003 0.534 -1.106 0.428 0 0.534 1.106 0 0.003 -0.427 0zm-0.324 -0.755l-0.132 0.321 0.267 0 -0.135 -0.321z"/>
  <path id="6" class="fil6" d="M63.782 6.288l0 -0.012 0.335 -0.315 -0.128 0c-0.042,0 -0.075,-0.013 -0.1,-0.038 -0.025,-0.025 -0.038,-0.06 -0.038,-0.105l0 -0.493c0,-0.045 0.013,-0.08 0.038,-0.107 0.025,-0.027 0.058,-0.04 0.1,-0.04l1.142 0 0 1.109 -0.409 0 0 -0.808 -0.462 0 0 0.223 0.398 0 0 0.177 -0.409 0.408 -0.467 0z"/>
  <polygon class="fil7" points="69.28,10.893 73.327,8.151 73.327,10.437 69.28,13.179 "/>
  <polygon class="fil8" points="69.28,10.893 50.832,10.893 50.832,13.179 69.28,13.179 "/>
  <polygon class="fil9" points="51.14,10.658 69.634,10.653 69.28,10.893 50.832,10.893 "/>
  <polygon class="fil10" points="73.008,8.151 69.202,10.658 69.28,10.893 73.327,8.151 "/>
  <polygon class="fil7" points="69.28,7.724 73.327,4.983 73.327,7.269 69.28,10.01 "/>
  <polygon class="fil8" points="69.28,7.724 50.832,7.724 50.832,10.01 69.28,10.01 "/>
  <polygon class="fil9" points="51.14,7.489 69.634,7.484 69.28,7.724 50.832,7.724 "/>
  <polygon class="fil10" points="73.008,4.983 69.202,7.489 69.28,7.724 73.327,4.983 "/>
  <polygon class="fil6" points="55.906,9.457 55.906,9.076 55.349,9.076 55.349,9.457 54.914,9.457 54.914,8.277 55.349,8.277 55.349,8.705 55.906,8.705 55.906,8.277 56.341,8.277 56.341,9.457 "/>
  <path id="1" class="fil6" d="M57.595 9.457l-0.063 -0.159 -0.558 0 -0.069 0.159 -0.448 0 0 -0.003 0.569 -1.178 0.456 0 0.569 1.178 0 0.003 -0.454 0zm-0.345 -0.804l-0.141 0.342 0.284 0 -0.144 -0.342z"/>
  <polygon id="2" class="fil6" points="59.264,9.122 59.511,9.122 59.511,8.277 59.936,8.277 59.936,9.457 58.164,9.457 58.164,8.277 58.587,8.277 58.587,9.122 58.836,9.122 58.836,8.277 59.264,8.277 "/>
  <path id="3" class="fil6" d="M61.613 8.277l0.436 0 0 1.181 -0.436 0 0 -0.298 -0.784 0c-0.045,0 -0.081,-0.014 -0.107,-0.042 -0.026,-0.028 -0.039,-0.066 -0.039,-0.114l0 -0.726 0.436 0 0 0.573 0.495 0 0 -0.573z"/>
  <path id="4" class="fil6" d="M63.287 9.457l-0.063 -0.159 -0.558 0 -0.069 0.159 -0.448 0 0 -0.003 0.569 -1.178 0.456 0 0.569 1.178 0 0.003 -0.454 0zm-0.345 -0.804l-0.141 0.342 0.284 0 -0.144 -0.342z"/>
  <polygon id="5" class="fil6" points="64.701,8.612 64.701,9.457 64.265,9.457 64.265,8.612 63.767,8.612 63.767,8.277 65.198,8.277 65.198,8.612 "/>
  <polygon class="fil7" points="69.28,14.062 73.327,11.32 73.327,13.606 69.28,16.347 "/>
  <polygon class="fil8" points="69.28,14.062 50.832,14.062 50.832,16.347 69.28,16.347 "/>
  <polygon class="fil9" points="51.14,13.827 69.634,13.822 69.28,14.062 50.832,14.062 "/>
  <polygon class="fil10" points="73.008,11.32 69.202,13.827 69.28,14.062 73.327,11.32 "/>
  <path class="fil6" d="M4.598 7.343c0,0.078 -0.021,0.139 -0.064,0.186 -0.043,0.046 -0.102,0.069 -0.176,0.069l-2.07 0 0 -1.931 2.057 0c0.074,0 0.132,0.023 0.173,0.069 0.041,0.046 0.062,0.108 0.062,0.186l0 0.361c0,0.052 -0.011,0.096 -0.032,0.13 -0.021,0.035 -0.053,0.064 -0.097,0.087l-0.235 0.129 0.248 0.126c0.044,0.022 0.077,0.048 0.1,0.08 0.023,0.031 0.034,0.073 0.034,0.125l0 0.382zm-0.73 -1.178l-0.867 0 0 0.263 0.65 0 0.217 -0.149 0 -0.114zm0.018 0.799l-0.235 -0.136 -0.65 0 0 0.273 0.884 0 0 -0.136z"/>
  <path id="1" class="fil6" d="M6.647 7.598l-0.104 -0.26 -0.912 0 -0.114 0.26 -0.733 0 0 -0.005 0.93 -1.926 0.745 0 0.93 1.926 0 0.005 -0.743 0zm-0.563 -1.314l-0.23 0.558 0.465 0 -0.235 -0.558z"/>
  <polygon id="2" class="fil6" points="8.942,7.598 8.289,6.913 8.289,7.598 7.577,7.598 7.577,5.667 8.289,5.667 8.289,6.309 8.813,5.667 9.72,5.667 9.72,5.685 8.868,6.58 9.866,7.58 9.866,7.598 "/>
  <path id="3" class="fil6" d="M11.668 7.598l-0.104 -0.26 -0.912 0 -0.114 0.26 -0.733 0 0 -0.005 0.93 -1.926 0.745 0 0.93 1.926 0 0.005 -0.743 0zm-0.563 -1.314l-0.23 0.558 0.465 0 -0.235 -0.558z"/>
  <polygon id="4" class="fil6" points="14.22,7.598 14.22,6.974 13.311,6.974 13.311,7.598 12.598,7.598 12.598,5.667 13.311,5.667 13.311,6.367 14.22,6.367 14.22,5.667 14.933,5.667 14.933,7.598 "/>
  <path id="5" class="fil6" d="M17.622 7.343c0,0.078 -0.021,0.139 -0.064,0.186 -0.043,0.046 -0.102,0.069 -0.176,0.069l-1.86 0c-0.074,0 -0.132,-0.023 -0.173,-0.069 -0.041,-0.046 -0.062,-0.108 -0.062,-0.186l0 -1.42c0,-0.078 0.021,-0.139 0.062,-0.186 0.041,-0.046 0.099,-0.069 0.173,-0.069l1.86 0c0.074,0 0.133,0.023 0.176,0.069 0.043,0.046 0.064,0.108 0.064,0.186l0 0.558 -0.713 0 0 -0.291 -0.91 0 0 0.884 0.91 0 0 -0.291 0.713 0 0 0.558z"/>
  <polygon id="6" class="fil6" points="17.975,7.598 17.975,5.667 18.691,5.667 18.691,6.6 19.605,5.667 20.31,5.667 20.31,7.598 19.598,7.598 19.598,6.582 18.681,7.598 "/>
  <polygon id="7" class="fil6" points="20.664,7.598 20.664,5.667 21.379,5.667 21.379,6.6 22.294,5.667 22.999,5.667 22.999,7.598 22.287,7.598 22.287,6.582 21.369,7.598 "/>
  <polygon id="8" class="fil6" points="2.628,8.707 2.628,9.345 2.299,9.345 2.299,8.454 3.278,8.454 3.278,8.707 "/>
  <polygon id="9" class="fil6" points="3.636,9.345 3.297,9.345 3.297,9.343 3.727,8.454 4.071,8.454 4.5,9.343 4.5,9.345 4.157,9.345 3.897,8.739 "/>
  <path id="10" class="fil6" d="M5.369 9.345l-0.048 -0.12 -0.421 0 -0.052 0.12 -0.338 0 0 -0.002 0.429 -0.889 0.344 0 0.429 0.889 0 0.002 -0.343 0zm-0.26 -0.607l-0.106 0.258 0.215 0 -0.108 -0.258z"/>
  <path id="11" class="fil6" d="M6.876 9.227c0,0.036 -0.01,0.064 -0.029,0.086 -0.019,0.021 -0.046,0.032 -0.08,0.032l-0.861 0c-0.034,0 -0.061,-0.011 -0.08,-0.032 -0.019,-0.021 -0.029,-0.05 -0.029,-0.086l0 -0.187 0.329 0 0 0.063 0.42 0 0 -0.052 -0.351 -0.111 0 -0.105 0.351 -0.111 0 -0.029 -0.42 0 0 0.063 -0.329 0 0 -0.187c0,-0.036 0.009,-0.064 0.029,-0.086 0.019,-0.021 0.046,-0.032 0.08,-0.032l0.861 0c0.034,0 0.061,0.011 0.08,0.032 0.019,0.021 0.029,0.05 0.029,0.086l0 0.181c0,0.055 -0.031,0.091 -0.093,0.106l-0.124 0.029 0.124 0.017c0.03,0.004 0.052,0.013 0.069,0.029 0.016,0.015 0.025,0.037 0.025,0.066l0 0.227z"/>
  <path id="12" class="fil6" d="M8.117 9.227c0,0.036 -0.01,0.064 -0.029,0.086 -0.019,0.021 -0.046,0.032 -0.08,0.032l-0.861 0c-0.034,0 -0.061,-0.011 -0.08,-0.032 -0.019,-0.021 -0.029,-0.05 -0.029,-0.086l0 -0.656c0,-0.036 0.009,-0.064 0.029,-0.086 0.019,-0.021 0.046,-0.032 0.08,-0.032l0.861 0c0.034,0 0.061,0.011 0.08,0.032 0.019,0.021 0.029,0.05 0.029,0.086l0 0.656zm-0.329 -0.532l-0.42 0 0 0.408 0.42 0 0 -0.408z"/>
  <path id="13" class="fil6" d="M9.346 9.227c0,0.036 -0.01,0.064 -0.03,0.086 -0.02,0.021 -0.047,0.032 -0.081,0.032l-0.955 0 0 -0.891 0.949 0c0.034,0 0.061,0.011 0.08,0.032 0.019,0.021 0.029,0.05 0.029,0.086l0 0.167c0,0.024 -0.005,0.044 -0.015,0.06 -0.01,0.016 -0.025,0.029 -0.045,0.04l-0.108 0.059 0.114 0.058c0.02,0.01 0.036,0.022 0.046,0.037 0.011,0.014 0.016,0.034 0.016,0.058l0 0.176zm-0.337 -0.544l-0.4 0 0 0.121 0.3 0 0.1 -0.069 0 -0.052zm0.008 0.369l-0.108 -0.063 -0.3 0 0 0.126 0.408 0 0 -0.063z"/>
  <path id="14" class="fil6" d="M10.587 9.227c0,0.036 -0.01,0.064 -0.03,0.086 -0.02,0.021 -0.047,0.032 -0.081,0.032l-0.858 0c-0.034,0 -0.061,-0.011 -0.08,-0.032 -0.019,-0.021 -0.029,-0.05 -0.029,-0.086l0 -0.656c0,-0.036 0.009,-0.064 0.029,-0.086 0.019,-0.021 0.046,-0.032 0.08,-0.032l0.858 0c0.034,0 0.061,0.011 0.081,0.032 0.02,0.021 0.03,0.05 0.03,0.086l0 0.258 -0.329 0 0 -0.134 -0.42 0 0 0.408 0.42 0 0 -0.134 0.329 0 0 0.258z"/>
  <polygon id="15" class="fil6" points="11.38,9.345 11.079,9.029 11.079,9.345 10.75,9.345 10.75,8.454 11.079,8.454 11.079,8.75 11.321,8.454 11.74,8.454 11.74,8.462 11.346,8.875 11.807,9.337 11.807,9.345 "/>
  <path id="16" class="fil6" d="M12.934 9.227c0,0.036 -0.01,0.064 -0.029,0.086 -0.019,0.021 -0.046,0.032 -0.08,0.032l-0.861 0c-0.034,0 -0.061,-0.011 -0.08,-0.032 -0.019,-0.021 -0.029,-0.05 -0.029,-0.086l0 -0.656c0,-0.036 0.009,-0.064 0.029,-0.086 0.019,-0.021 0.046,-0.032 0.08,-0.032l0.861 0c0.034,0 0.061,0.011 0.08,0.032 0.019,0.021 0.029,0.05 0.029,0.086l0 0.656zm-0.329 -0.532l-0.42 0 0 0.408 0.42 0 0 -0.408z"/>
  <polygon id="17" class="fil6" points="13.426,8.707 13.426,9.345 13.097,9.345 13.097,8.454 14.076,8.454 14.076,8.707 "/>
  <path id="18" class="fil6" d="M15.25 9.227c0,0.036 -0.01,0.064 -0.029,0.086 -0.019,0.021 -0.046,0.032 -0.08,0.032l-0.861 0c-0.034,0 -0.061,-0.011 -0.08,-0.032 -0.019,-0.021 -0.029,-0.05 -0.029,-0.086l0 -0.656c0,-0.036 0.009,-0.064 0.029,-0.086 0.019,-0.021 0.046,-0.032 0.08,-0.032l0.861 0c0.034,0 0.061,0.011 0.08,0.032 0.019,0.021 0.029,0.05 0.029,0.086l0 0.656zm-0.329 -0.532l-0.42 0 0 0.408 0.42 0 0 -0.408z"/>
  <path id="19" class="fil6" d="M16.853 9.002c0,0.036 -0.01,0.064 -0.03,0.086 -0.02,0.021 -0.047,0.032 -0.081,0.032l-0.591 0 0 0.225 -0.329 0 0 -0.891 0.923 0c0.034,0 0.061,0.011 0.08,0.032 0.019,0.021 0.029,0.05 0.029,0.086l0 0.43zm-0.329 -0.307l-0.373 0 0 0.191 0.373 0 0 -0.191z"/>
  <path id="20" class="fil6" d="M17.787 9.345l-0.048 -0.12 -0.421 0 -0.052 0.12 -0.338 0 0 -0.002 0.429 -0.889 0.344 0 0.429 0.889 0 0.002 -0.343 0zm-0.26 -0.607l-0.106 0.258 0.215 0 -0.108 -0.258z"/>
  <path id="21" class="fil6" d="M18.216 9.345l0 -0.891 0.33 0 0 0.43 0.422 -0.43 0.325 0 0 0.891 -0.329 0 0 -0.469 -0.423 0.469 -0.325 0zm0.281 -0.941c-0.019,0 -0.035,-0.007 -0.048,-0.022 -0.014,-0.014 -0.02,-0.031 -0.02,-0.05l0 -0.162 0.206 0 0 0.049 0.232 0 0 -0.049 0.206 0 0 0.162c0,0.019 -0.007,0.035 -0.02,0.05 -0.014,0.014 -0.03,0.022 -0.048,0.022l-0.507 0z"/>
  <path id="22" class="fil6" d="M20.535 9.227c0,0.036 -0.01,0.064 -0.029,0.086 -0.019,0.021 -0.046,0.032 -0.08,0.032l-0.861 0c-0.034,0 -0.061,-0.011 -0.08,-0.032 -0.019,-0.021 -0.029,-0.05 -0.029,-0.086l0 -0.656c0,-0.036 0.009,-0.064 0.029,-0.086 0.019,-0.021 0.046,-0.032 0.08,-0.032l0.861 0c0.034,0 0.061,0.011 0.08,0.032 0.019,0.021 0.029,0.05 0.029,0.086l0 0.656zm-0.329 -0.532l-0.42 0 0 0.408 0.42 0 0 -0.408z"/>
  <polygon id="23" class="fil6" points="21.447,9.345 21.447,9.057 21.027,9.057 21.027,9.345 20.698,9.345 20.698,8.454 21.027,8.454 21.027,8.777 21.447,8.777 21.447,8.454 21.776,8.454 21.776,9.345 "/>
  <path id="24" class="fil6" d="M22.722 9.345l-0.048 -0.12 -0.421 0 -0.052 0.12 -0.338 0 0 -0.002 0.429 -0.889 0.344 0 0.429 0.889 0 0.002 -0.343 0zm-0.26 -0.607l-0.106 0.258 0.215 0 -0.108 -0.258z"/>
  <polygon class="fil6" points="52.379,15.674 52.379,15.019 51.947,15.019 51.947,15.674 51.609,15.674 51.609,14.758 52.717,14.758 52.717,15.674 "/>
  <path id="1" class="fil6" d="M53.993 15.553c0,0.037 -0.01,0.066 -0.029,0.088 -0.02,0.022 -0.047,0.033 -0.082,0.033l-0.885 0c-0.035,0 -0.063,-0.011 -0.082,-0.033 -0.02,-0.022 -0.029,-0.051 -0.029,-0.088l0 -0.674c0,-0.037 0.01,-0.066 0.029,-0.088 0.02,-0.022 0.047,-0.033 0.082,-0.033l0.885 0c0.035,0 0.063,0.011 0.082,0.033 0.02,0.022 0.029,0.051 0.029,0.088l0 0.674zm-0.338 -0.547l-0.432 0 0 0.42 0.432 0 0 -0.42z"/>
  <path id="2" class="fil6" d="M55.268 15.553c0,0.037 -0.01,0.066 -0.031,0.088 -0.02,0.022 -0.048,0.033 -0.083,0.033l-0.882 0c-0.035,0 -0.063,-0.011 -0.082,-0.033 -0.02,-0.022 -0.029,-0.051 -0.029,-0.088l0 -0.674c0,-0.037 0.01,-0.066 0.029,-0.088 0.02,-0.022 0.047,-0.033 0.082,-0.033l0.882 0c0.035,0 0.063,0.011 0.083,0.033 0.02,0.022 0.031,0.051 0.031,0.088l0 0.265 -0.338 0 0 -0.138 -0.432 0 0 0.42 0.432 0 0 -0.138 0.338 0 0 0.265z"/>
  <polygon id="3" class="fil6" points="56.092,15.019 56.092,15.674 55.754,15.674 55.754,15.019 55.368,15.019 55.368,14.758 56.478,14.758 56.478,15.019 "/>
  <polygon id="4" class="fil6" points="57.232,15.676 56.87,15.676 56.992,15.426 56.501,14.758 56.899,14.758 57.147,15.12 57.33,14.756 57.707,14.756 "/>
  <polygon id="5" class="fil6" points="58.56,15.674 58.56,15.019 58.129,15.019 58.129,15.674 57.791,15.674 57.791,14.758 58.898,14.758 58.898,15.674 "/>
  <polygon id="6" class="fil6" points="59.066,15.674 59.066,14.758 59.405,14.758 59.405,15.201 59.839,14.758 60.174,14.758 60.174,15.674 59.836,15.674 59.836,15.192 59.401,15.674 "/>
  <polygon id="7" class="fil6" points="60.342,15.414 60.342,15.17 60.909,15.17 60.909,15.414 "/>
  <path id="8" class="fil6" d="M62.185 15.553c0,0.037 -0.01,0.066 -0.029,0.088 -0.02,0.022 -0.047,0.033 -0.082,0.033l-0.885 0c-0.035,0 -0.063,-0.011 -0.082,-0.033 -0.02,-0.022 -0.029,-0.051 -0.029,-0.088l0 -0.674c0,-0.037 0.01,-0.066 0.029,-0.088 0.02,-0.022 0.047,-0.033 0.082,-0.033l0.885 0c0.035,0 0.063,0.011 0.082,0.033 0.02,0.022 0.029,0.051 0.029,0.088l0 0.674zm-0.338 -0.547l-0.432 0 0 0.42 0.432 0 0 -0.42z"/>
  <polygon id="9" class="fil6" points="63.122,15.674 63.122,15.378 62.69,15.378 62.69,15.674 62.352,15.674 62.352,14.758 62.69,14.758 62.69,15.09 63.122,15.09 63.122,14.758 63.46,14.758 63.46,15.674 "/>
  <polygon id="10" class="fil6" points="63.897,15.674 63.549,15.674 63.549,15.672 63.99,14.758 64.344,14.758 64.785,15.672 64.785,15.674 64.432,15.674 64.165,15.051 "/>
  <path id="11" class="fil6" d="M65.678 15.674l-0.049 -0.124 -0.433 0 -0.054 0.124 -0.348 0 0 -0.002 0.441 -0.914 0.354 0 0.441 0.914 0 0.002 -0.352 0zm-0.267 -0.623l-0.109 0.265 0.221 0 -0.112 -0.265z"/>
  <path id="12" class="fil6" d="M66.119 15.674l0 -0.916 0.339 0 0 0.442 0.434 -0.442 0.335 0 0 0.916 -0.338 0 0 -0.482 -0.435 0.482 -0.335 0zm0.289 -0.968c-0.019,0 -0.036,-0.007 -0.05,-0.022 -0.014,-0.015 -0.021,-0.032 -0.021,-0.051l0 -0.167 0.212 0 0 0.05 0.239 0 0 -0.05 0.212 0 0 0.167c0,0.019 -0.007,0.036 -0.021,0.051 -0.014,0.015 -0.031,0.022 -0.05,0.022l-0.522 0z"/>
  <polygon id="13" class="fil6" points="68.165,15.674 68.165,15.378 67.733,15.378 67.733,15.674 67.395,15.674 67.395,14.758 67.733,14.758 67.733,15.09 68.165,15.09 68.165,14.758 68.503,14.758 68.503,15.674 "/>
  <polygon class="fil6" points="52.101,12.428 51.796,12.428 51.899,12.218 51.485,11.656 51.82,11.656 52.029,11.96 52.183,11.654 52.5,11.654 "/>
  <path id="1" class="fil6" d="M53.179 11.656l0.285 0 0 0.771 -0.285 0 0 -0.195 -0.512 0c-0.03,0 -0.053,-0.009 -0.07,-0.028 -0.017,-0.019 -0.026,-0.043 -0.026,-0.074l0 -0.475 0.285 0 0 0.375 0.323 0 0 -0.375z"/>
  <polygon id="2" class="fil6" points="53.595,12.427 53.595,11.656 54.461,11.656 54.461,11.875 53.879,11.875 53.879,11.944 54.323,11.944 54.323,12.137 53.879,12.137 53.879,12.208 54.469,12.208 54.469,12.427 "/>
  <path id="3" class="fil6" d="M55.187 12.119l-0.323 0 0 0.109 0.323 0 0 -0.109zm-0.323 -0.244l0 0.087 0.512 0c0.03,0 0.053,0.009 0.07,0.028 0.017,0.019 0.026,0.043 0.026,0.074l0 0.261c0,0.031 -0.008,0.056 -0.025,0.074 -0.016,0.019 -0.04,0.028 -0.069,0.028l-0.799 0 0 -0.771 0.847 0 0 0.219 -0.562 0z"/>
  <polygon id="4" class="fil6" points="56.251,12.427 56.251,12.178 55.888,12.178 55.888,12.427 55.603,12.427 55.603,11.656 55.888,11.656 55.888,11.935 56.251,11.935 56.251,11.656 56.536,11.656 56.536,12.427 "/>
  <path id="5" class="fil6" d="M57.569 12.019l0 0.306c0,0.031 -0.008,0.056 -0.025,0.074 -0.016,0.019 -0.04,0.028 -0.069,0.028l-0.799 0 0 -0.771 0.285 0 0 0.261 0.512 0c0.03,0 0.053,0.009 0.07,0.028 0.017,0.018 0.026,0.043 0.026,0.074zm-0.285 0.1l-0.323 0 0 0.109 0.323 0 0 -0.109zm0.345 0.308l0 -0.771 0.285 0 0 0.771 -0.285 0z"/>
  <polygon id="6" class="fil6" points="57.985,12.427 57.985,11.656 58.852,11.656 58.852,11.875 58.27,11.875 58.27,11.944 58.713,11.944 58.713,12.137 58.27,12.137 58.27,12.208 58.86,12.208 58.86,12.427 "/>
  <path id="7" class="fil6" d="M60.256 12.325c0,0.031 -0.008,0.056 -0.025,0.074 -0.017,0.019 -0.04,0.028 -0.069,0.028l-0.745 0c-0.03,0 -0.053,-0.009 -0.069,-0.028 -0.017,-0.019 -0.025,-0.043 -0.025,-0.074l0 -0.162 0.285 0 0 0.054 0.363 0 0 -0.045 -0.304 -0.096 0 -0.091 0.304 -0.096 0 -0.025 -0.363 0 0 0.055 -0.285 0 0 -0.162c0,-0.031 0.008,-0.056 0.025,-0.074 0.016,-0.019 0.04,-0.028 0.069,-0.028l0.745 0c0.03,0 0.053,0.009 0.069,0.028 0.016,0.019 0.025,0.043 0.025,0.074l0 0.157c0,0.048 -0.027,0.078 -0.081,0.092l-0.107 0.025 0.107 0.015c0.026,0.003 0.045,0.012 0.06,0.025 0.014,0.013 0.021,0.032 0.021,0.057l0 0.197z"/>
  <path id="8" class="fil6" d="M61.075 12.427l-0.041 -0.104 -0.364 0 -0.045 0.104 -0.293 0 0 -0.002 0.372 -0.769 0.298 0 0.371 0.769 0 0.002 -0.297 0zm-0.225 -0.525l-0.092 0.223 0.186 0 -0.094 -0.223z"/>
  <path id="9" class="fil6" d="M62.369 12.325c0,0.031 -0.009,0.056 -0.026,0.074 -0.017,0.019 -0.041,0.028 -0.07,0.028l-0.827 0 0 -0.771 0.822 0c0.03,0 0.053,0.009 0.069,0.028 0.016,0.019 0.025,0.043 0.025,0.074l0 0.144c0,0.021 -0.004,0.038 -0.013,0.052 -0.008,0.014 -0.021,0.025 -0.039,0.035l-0.094 0.051 0.099 0.051c0.018,0.009 0.031,0.019 0.04,0.032 0.009,0.013 0.014,0.029 0.014,0.05l0 0.152zm-0.292 -0.47l-0.346 0 0 0.105 0.259 0 0.087 -0.06 0 -0.045zm0.007 0.319l-0.094 -0.054 -0.259 0 0 0.109 0.353 0 0 -0.055z"/>
  <polygon id="10" class="fil6" points="62.51,12.427 62.51,11.656 63.376,11.656 63.376,11.875 62.795,11.875 62.795,11.944 63.238,11.944 63.238,12.137 62.795,12.137 62.795,12.208 63.385,12.208 63.385,12.427 "/>
  <path id="11" class="fil6" d="M63.834 12.208l0.264 0 -0.131 -0.306 -0.132 0.306zm0.549 0l0.144 0 0 0.299 -0.285 0 0 -0.08 -0.525 0 0 0.08 -0.285 0 0 -0.299 0.119 0 0.266 -0.552 0.298 0 0.267 0.552z"/>
  <polygon id="12" class="fil6" points="64.605,12.427 64.605,11.656 65.471,11.656 65.471,11.875 64.89,11.875 64.89,11.944 65.333,11.944 65.333,12.137 64.89,12.137 64.89,12.208 65.479,12.208 65.479,12.427 "/>
  <polygon id="13" class="fil6" points="66.238,12.427 66.238,12.178 65.874,12.178 65.874,12.427 65.589,12.427 65.589,11.656 65.874,11.656 65.874,11.935 66.238,11.935 66.238,11.656 66.522,11.656 66.522,12.427 "/>
  <polygon id="14" class="fil6" points="66.664,12.427 66.664,11.656 66.949,11.656 66.949,12.028 67.315,11.656 67.596,11.656 67.596,12.427 67.312,12.427 67.312,12.021 66.945,12.427 "/>
  <path id="15" class="fil6" d="M67.688 12.427l0 -0.008 0.233 -0.219 -0.089 0c-0.029,0 -0.052,-0.009 -0.07,-0.026 -0.017,-0.017 -0.026,-0.042 -0.026,-0.073l0 -0.343c0,-0.031 0.009,-0.056 0.026,-0.074 0.018,-0.019 0.041,-0.028 0.07,-0.028l0.795 0 0 0.771 -0.285 0 0 -0.562 -0.321 0 0 0.156 0.277 0 0 0.123 -0.285 0.284 -0.325 0z"/>
 </g>
</svg>
