<?xml version="1.0" encoding="UTF-8"?>
<!DOCTYPE svg PUBLIC "-//W3C//DTD SVG 1.1//EN" "http://www.w3.org/Graphics/SVG/1.1/DTD/svg11.dtd">
<!-- Creator: CorelDRAW -->
<svg xmlns="http://www.w3.org/2000/svg" xml:space="preserve" width="49.6257mm" height="61.7506mm" version="1.1" style="shape-rendering:geometricPrecision; text-rendering:geometricPrecision; image-rendering:optimizeQuality; fill-rule:evenodd; clip-rule:evenodd"
viewBox="0 0 282.67 351.74"
 xmlns:xlink="http://www.w3.org/1999/xlink"
 xmlns:xodm="http://www.corel.com/coreldraw/odm/2003">
 <defs>
  <style type="text/css">
   <![CDATA[
    .fil0 {fill:#29878C}
    .fil2 {fill:#2C9196}
    .fil1 {fill:#39BBC2}
    .fil3 {fill:#1D6163;fill-rule:nonzero}
   ]]>
  </style>
 </defs>
 <g id="Слой_x0020_1">
  <metadata id="CorelCorpID_0Corel-Layer"/>
  <polygon class="fil0" points="0,1.53 280.42,1.53 280.42,351.74 0,351.74 "/>
  <polygon class="fil1" points="2.25,0 282.67,0 280.42,1.53 -0,1.53 "/>
  <polygon class="fil2" points="282.67,0 282.67,350.03 280.42,351.74 280.42,1.53 "/>
  <polygon class="fil3" points="56.72,340.05 56.72,346.07 55.56,346.07 55.56,341.03 52.75,341.03 52.75,346.07 51.6,346.07 51.6,340.05 "/>
  <path id="_1" class="fil3" d="M57.69 342.93c0,-0.6 0.04,-1.08 0.12,-1.45 0.08,-0.37 0.21,-0.67 0.4,-0.89 0.19,-0.22 0.45,-0.37 0.77,-0.47 0.33,-0.09 0.75,-0.14 1.28,-0.14 0.52,0 0.95,0.05 1.28,0.14 0.33,0.1 0.58,0.25 0.78,0.47 0.19,0.22 0.33,0.51 0.41,0.89 0.08,0.37 0.12,0.86 0.12,1.45 0,0.68 -0.04,1.23 -0.12,1.64 -0.08,0.41 -0.22,0.73 -0.41,0.96 -0.19,0.23 -0.45,0.39 -0.77,0.48 -0.32,0.09 -0.75,0.13 -1.28,0.13 -0.56,0 -1.01,-0.04 -1.34,-0.13 -0.33,-0.09 -0.58,-0.24 -0.76,-0.47 -0.18,-0.23 -0.3,-0.54 -0.37,-0.95 -0.07,-0.41 -0.1,-0.96 -0.1,-1.66zm1.17 0.13c0,0.5 0.02,0.89 0.05,1.15 0.03,0.27 0.1,0.47 0.19,0.61 0.1,0.14 0.23,0.23 0.4,0.27 0.18,0.04 0.42,0.07 0.75,0.07 0.32,0 0.57,-0.02 0.75,-0.07 0.18,-0.05 0.31,-0.14 0.41,-0.28 0.1,-0.14 0.16,-0.34 0.2,-0.6 0.04,-0.26 0.05,-0.64 0.05,-1.14 0,-0.5 -0.02,-0.89 -0.06,-1.16 -0.04,-0.27 -0.11,-0.48 -0.21,-0.61 -0.1,-0.13 -0.23,-0.22 -0.4,-0.26 -0.17,-0.04 -0.42,-0.06 -0.75,-0.06 -0.34,0 -0.59,0.02 -0.76,0.06 -0.17,0.04 -0.3,0.13 -0.39,0.26 -0.09,0.13 -0.16,0.33 -0.19,0.6 -0.03,0.27 -0.05,0.66 -0.05,1.17z"/>
  <path id="_2" class="fil3" d="M69.68 343.91l1.13 0 0 0.35c0,0.47 -0.08,0.83 -0.24,1.1 -0.16,0.27 -0.42,0.46 -0.78,0.58 -0.36,0.12 -0.85,0.18 -1.47,0.18 -0.51,0 -0.93,-0.05 -1.25,-0.14 -0.32,-0.1 -0.58,-0.26 -0.77,-0.49 -0.19,-0.23 -0.32,-0.55 -0.4,-0.96 -0.08,-0.4 -0.12,-0.93 -0.12,-1.59 0,-0.72 0.07,-1.29 0.22,-1.72 0.14,-0.42 0.4,-0.74 0.76,-0.94 0.36,-0.2 0.87,-0.31 1.52,-0.31 0.65,0 1.15,0.08 1.5,0.22 0.35,0.15 0.59,0.37 0.74,0.67 0.14,0.3 0.23,0.69 0.26,1.19l-1.12 0c-0.02,-0.32 -0.07,-0.55 -0.15,-0.7 -0.08,-0.15 -0.21,-0.25 -0.4,-0.3 -0.19,-0.05 -0.46,-0.08 -0.83,-0.08 -0.38,0 -0.66,0.05 -0.84,0.15 -0.18,0.1 -0.3,0.29 -0.37,0.58 -0.07,0.29 -0.1,0.74 -0.1,1.36 0,0.44 0.02,0.79 0.06,1.06 0.04,0.27 0.11,0.48 0.21,0.63 0.1,0.15 0.23,0.25 0.4,0.31 0.17,0.06 0.39,0.09 0.68,0.09 0.36,0 0.64,-0.02 0.83,-0.07 0.2,-0.05 0.33,-0.13 0.42,-0.26 0.08,-0.12 0.12,-0.3 0.12,-0.52l0 -0.38z"/>
  <path id="_3" class="fil3" d="M71.44 342.93c0,-0.6 0.04,-1.08 0.12,-1.45 0.08,-0.37 0.21,-0.67 0.4,-0.89 0.19,-0.22 0.45,-0.37 0.77,-0.47 0.33,-0.09 0.75,-0.14 1.28,-0.14 0.52,0 0.95,0.05 1.28,0.14 0.33,0.1 0.58,0.25 0.78,0.47 0.19,0.22 0.33,0.51 0.41,0.89 0.08,0.37 0.12,0.86 0.12,1.45 0,0.68 -0.04,1.23 -0.12,1.64 -0.08,0.41 -0.22,0.73 -0.41,0.96 -0.19,0.23 -0.45,0.39 -0.77,0.48 -0.32,0.09 -0.75,0.13 -1.28,0.13 -0.56,0 -1.01,-0.04 -1.34,-0.13 -0.33,-0.09 -0.58,-0.24 -0.76,-0.47 -0.18,-0.23 -0.3,-0.54 -0.37,-0.95 -0.07,-0.41 -0.1,-0.96 -0.1,-1.66zm1.17 0.13c0,0.5 0.02,0.89 0.05,1.15 0.03,0.27 0.1,0.47 0.19,0.61 0.1,0.14 0.23,0.23 0.4,0.27 0.18,0.04 0.42,0.07 0.75,0.07 0.32,0 0.57,-0.02 0.75,-0.07 0.18,-0.05 0.31,-0.14 0.41,-0.28 0.1,-0.14 0.16,-0.34 0.2,-0.6 0.04,-0.26 0.05,-0.64 0.05,-1.14 0,-0.5 -0.02,-0.89 -0.06,-1.16 -0.04,-0.27 -0.11,-0.48 -0.21,-0.61 -0.1,-0.13 -0.23,-0.22 -0.4,-0.26 -0.17,-0.04 -0.42,-0.06 -0.75,-0.06 -0.34,0 -0.59,0.02 -0.76,0.06 -0.17,0.04 -0.3,0.13 -0.39,0.26 -0.09,0.13 -0.16,0.33 -0.19,0.6 -0.03,0.27 -0.05,0.66 -0.05,1.17z"/>
  <path id="_4" class="fil3" d="M81.27 343.91l1.13 0 0 0.35c0,0.47 -0.08,0.83 -0.24,1.1 -0.16,0.27 -0.42,0.46 -0.78,0.58 -0.36,0.12 -0.85,0.18 -1.47,0.18 -0.51,0 -0.93,-0.05 -1.25,-0.14 -0.32,-0.1 -0.58,-0.26 -0.77,-0.49 -0.19,-0.23 -0.32,-0.55 -0.4,-0.96 -0.08,-0.4 -0.12,-0.93 -0.12,-1.59 0,-0.72 0.07,-1.29 0.22,-1.72 0.14,-0.42 0.4,-0.74 0.76,-0.94 0.36,-0.2 0.87,-0.31 1.52,-0.31 0.65,0 1.15,0.08 1.5,0.22 0.35,0.15 0.59,0.37 0.74,0.67 0.14,0.3 0.23,0.69 0.26,1.19l-1.12 0c-0.02,-0.32 -0.07,-0.55 -0.15,-0.7 -0.08,-0.15 -0.21,-0.25 -0.4,-0.3 -0.19,-0.05 -0.46,-0.08 -0.83,-0.08 -0.38,0 -0.66,0.05 -0.84,0.15 -0.18,0.1 -0.3,0.29 -0.37,0.58 -0.07,0.29 -0.1,0.74 -0.1,1.36 0,0.44 0.02,0.79 0.06,1.06 0.04,0.27 0.11,0.48 0.21,0.63 0.1,0.15 0.23,0.25 0.4,0.31 0.17,0.06 0.39,0.09 0.68,0.09 0.36,0 0.64,-0.02 0.83,-0.07 0.2,-0.05 0.33,-0.13 0.42,-0.26 0.08,-0.12 0.12,-0.3 0.12,-0.52l0 -0.38z"/>
  <polygon id="_5" class="fil3" points="84.53,346.07 84.53,341.05 82.79,341.05 82.79,340.05 87.48,340.05 87.48,341.05 85.69,341.05 85.69,346.07 "/>
  <path id="_6" class="fil3" d="M88.13 342.93c0,-0.6 0.04,-1.08 0.12,-1.45 0.08,-0.37 0.21,-0.67 0.4,-0.89 0.19,-0.22 0.45,-0.37 0.77,-0.47 0.33,-0.09 0.75,-0.14 1.28,-0.14 0.52,0 0.95,0.05 1.28,0.14 0.33,0.1 0.58,0.25 0.78,0.47 0.19,0.22 0.33,0.51 0.41,0.89 0.08,0.37 0.12,0.86 0.12,1.45 0,0.68 -0.04,1.23 -0.12,1.64 -0.08,0.41 -0.22,0.73 -0.41,0.96 -0.19,0.23 -0.45,0.39 -0.77,0.48 -0.32,0.09 -0.75,0.13 -1.28,0.13 -0.56,0 -1.01,-0.04 -1.34,-0.13 -0.33,-0.09 -0.58,-0.24 -0.76,-0.47 -0.18,-0.23 -0.3,-0.54 -0.37,-0.95 -0.07,-0.41 -0.1,-0.96 -0.1,-1.66zm1.17 0.13c0,0.5 0.02,0.89 0.05,1.15 0.03,0.27 0.1,0.47 0.19,0.61 0.1,0.14 0.23,0.23 0.4,0.27 0.18,0.04 0.42,0.07 0.75,0.07 0.32,0 0.57,-0.02 0.75,-0.07 0.18,-0.05 0.31,-0.14 0.41,-0.28 0.1,-0.14 0.16,-0.34 0.2,-0.6 0.04,-0.26 0.05,-0.64 0.05,-1.14 0,-0.5 -0.02,-0.89 -0.06,-1.16 -0.04,-0.27 -0.11,-0.48 -0.21,-0.61 -0.1,-0.13 -0.23,-0.22 -0.4,-0.26 -0.17,-0.04 -0.42,-0.06 -0.75,-0.06 -0.34,0 -0.59,0.02 -0.76,0.06 -0.17,0.04 -0.3,0.13 -0.39,0.26 -0.09,0.13 -0.16,0.33 -0.19,0.6 -0.03,0.27 -0.05,0.66 -0.05,1.17z"/>
  <path id="_7" class="fil3" d="M98.9 346.07l0 -6.02 -3.05 0c-0.63,0 -1.09,0.17 -1.39,0.51 -0.3,0.34 -0.44,0.82 -0.44,1.44 0,0.51 0.1,0.9 0.3,1.16 0.2,0.27 0.48,0.48 0.86,0.64l-1.32 2.27 1.32 0 1.18 -2.12 1.4 0 0 2.12 1.14 0zm-1.14 -3.05l-1.67 0c-0.22,0 -0.39,-0.03 -0.52,-0.09 -0.13,-0.06 -0.23,-0.16 -0.29,-0.31 -0.06,-0.15 -0.1,-0.35 -0.1,-0.61 0,-0.36 0.07,-0.61 0.21,-0.76 0.14,-0.14 0.37,-0.22 0.7,-0.22l1.67 -0.01 0 1.99z"/>
  <polygon id="_8" class="fil3" points="105.07,340.05 105.07,346.07 103.91,346.07 103.91,343.49 101.11,343.49 101.11,346.07 99.95,346.07 99.95,340.05 101.11,340.05 101.11,342.51 103.91,342.51 103.91,340.05 "/>
  <path id="_9" class="fil3" d="M111.4 340.05l-1.66 0 -2.05 4.04c-0.07,0.14 -0.13,0.26 -0.18,0.36 -0.05,0.1 -0.16,0.31 -0.32,0.63 0.06,-0.29 0.09,-0.65 0.09,-1.07l0 -3.95 -1.16 0 0 6.02 1.66 0 2.05 -4.05c0.07,-0.14 0.14,-0.27 0.2,-0.39 0.06,-0.12 0.16,-0.32 0.3,-0.6 -0.06,0.29 -0.09,0.65 -0.09,1.07l0 3.97 1.16 0 0 -6.02z"/>
  <path id="_10" class="fil3" d="M113.65 342.51l1.32 0c0.03,-0.5 0.09,-0.91 0.17,-1.23 0.08,-0.31 0.22,-0.57 0.4,-0.76 0.18,-0.19 0.43,-0.33 0.75,-0.42 0.32,-0.09 0.74,-0.13 1.25,-0.13 0.52,0 0.95,0.05 1.28,0.14 0.33,0.09 0.59,0.24 0.78,0.46 0.19,0.22 0.33,0.51 0.41,0.89 0.08,0.38 0.12,0.86 0.12,1.47 0,0.68 -0.04,1.23 -0.12,1.64 -0.08,0.41 -0.22,0.73 -0.41,0.96 -0.19,0.23 -0.45,0.38 -0.77,0.47 -0.32,0.09 -0.75,0.13 -1.28,0.13 -0.53,-0 -0.94,-0.04 -1.26,-0.11 -0.31,-0.07 -0.56,-0.2 -0.74,-0.38 -0.18,-0.19 -0.32,-0.44 -0.4,-0.78 -0.09,-0.33 -0.14,-0.79 -0.17,-1.38l-1.32 0 0 2.57 -1.16 0 0 -6.02 1.16 0 0 2.47zm2.49 0.55c0,0.5 0.02,0.88 0.05,1.15 0.04,0.27 0.1,0.48 0.2,0.61 0.1,0.13 0.23,0.22 0.4,0.26 0.17,0.04 0.42,0.06 0.74,0.06 0.33,-0 0.58,-0.03 0.75,-0.07 0.17,-0.04 0.31,-0.13 0.4,-0.27 0.1,-0.13 0.17,-0.34 0.2,-0.6 0.04,-0.27 0.05,-0.65 0.05,-1.15 0,-0.5 -0.02,-0.89 -0.05,-1.16 -0.04,-0.27 -0.1,-0.47 -0.2,-0.6 -0.1,-0.13 -0.23,-0.22 -0.4,-0.26 -0.17,-0.04 -0.42,-0.06 -0.75,-0.07 -0.33,0 -0.58,0.02 -0.75,0.06 -0.17,0.04 -0.3,0.13 -0.4,0.26 -0.1,0.13 -0.16,0.34 -0.2,0.61 -0.04,0.27 -0.05,0.66 -0.05,1.15z"/>
  <polygon id="_11" class="fil3" points="128.32,340.05 128.32,346.07 127.16,346.07 127.16,343.49 124.36,343.49 124.36,346.07 123.2,346.07 123.2,340.05 124.36,340.05 124.36,342.51 127.16,342.51 127.16,340.05 "/>
  <path id="_12" class="fil3" d="M133.17 344.92l-2.61 0 -0.38 1.15 -1.2 0 2 -6.02 1.7 0 2.04 6.02 -1.17 0 -0.38 -1.15zm-0.27 -0.86l-1.04 -3.13 -1.03 3.13 2.07 0z"/>
  <path id="_13" class="fil3" d="M173.9 346.07l0 -6.02 1.16 0 0 2.35 1.9 0c0.56,0 0.98,0.16 1.28,0.49 0.29,0.33 0.44,0.78 0.44,1.36 0,0.38 -0.07,0.71 -0.2,0.98 -0.13,0.27 -0.32,0.48 -0.58,0.63 -0.26,0.14 -0.57,0.21 -0.93,0.21l-3.07 0zm1.16 -0.96l1.51 0c0.24,0 0.43,-0.02 0.57,-0.07 0.13,-0.05 0.23,-0.13 0.29,-0.25 0.06,-0.12 0.09,-0.3 0.09,-0.54 0,-0.34 -0.07,-0.58 -0.22,-0.71 -0.14,-0.13 -0.39,-0.19 -0.73,-0.19l-1.51 0 0 1.76z"/>
  <path id="_14" class="fil3" d="M186.19 345.16l0 0.91 -4.55 0 0 -1.24c0,-0.36 0.04,-0.65 0.13,-0.86 0.09,-0.22 0.21,-0.38 0.37,-0.49 0.16,-0.11 0.35,-0.2 0.57,-0.25 0.22,-0.05 0.52,-0.12 0.9,-0.18 0.41,-0.06 0.7,-0.11 0.89,-0.16 0.18,-0.05 0.33,-0.15 0.43,-0.3 0.1,-0.15 0.15,-0.37 0.15,-0.68 0,-0.3 -0.04,-0.52 -0.11,-0.67 -0.07,-0.15 -0.19,-0.24 -0.35,-0.29 -0.16,-0.05 -0.39,-0.07 -0.7,-0.07 -0.34,0 -0.6,0.03 -0.76,0.08 -0.16,0.05 -0.28,0.15 -0.34,0.31 -0.07,0.16 -0.1,0.4 -0.1,0.74l0 0.19 -1.09 0 0 -0.26c0,-0.53 0.07,-0.94 0.21,-1.21 0.14,-0.28 0.37,-0.47 0.69,-0.58 0.32,-0.11 0.78,-0.16 1.38,-0.16 0.4,0 0.73,0.03 1,0.08 0.27,0.05 0.5,0.14 0.69,0.28 0.19,0.14 0.33,0.33 0.43,0.59 0.1,0.25 0.15,0.58 0.15,0.98 0,0.43 -0.06,0.78 -0.19,1.03 -0.12,0.26 -0.3,0.45 -0.52,0.58 -0.22,0.13 -0.44,0.22 -0.66,0.27 -0.22,0.05 -0.62,0.12 -1.19,0.22 -0.28,0.05 -0.48,0.1 -0.6,0.17 -0.12,0.07 -0.21,0.16 -0.25,0.28 -0.04,0.12 -0.06,0.3 -0.06,0.55l0 0.16 3.47 0z"/>
  <path id="_15" class="fil3" d="M192.24 343.06c0,0.68 -0.03,1.21 -0.09,1.59 -0.06,0.38 -0.18,0.68 -0.35,0.9 -0.17,0.22 -0.42,0.37 -0.75,0.45 -0.33,0.08 -0.78,0.13 -1.36,0.13 -0.57,0 -1.02,-0.04 -1.35,-0.13 -0.32,-0.09 -0.57,-0.24 -0.74,-0.45 -0.17,-0.22 -0.28,-0.51 -0.34,-0.89 -0.06,-0.38 -0.09,-0.91 -0.09,-1.6 0,-0.68 0.03,-1.21 0.09,-1.6 0.06,-0.38 0.17,-0.68 0.34,-0.9 0.17,-0.22 0.42,-0.37 0.74,-0.45 0.32,-0.08 0.77,-0.13 1.35,-0.13 0.58,0 1.03,0.04 1.36,0.13 0.33,0.09 0.57,0.24 0.75,0.45 0.17,0.22 0.29,0.52 0.35,0.9 0.06,0.38 0.09,0.91 0.09,1.6zm-3.94 0c0,0.54 0.01,0.94 0.03,1.2 0.02,0.25 0.08,0.45 0.16,0.58 0.08,0.13 0.21,0.22 0.39,0.26 0.17,0.04 0.44,0.06 0.8,0.06 0.36,0 0.63,-0.02 0.81,-0.06 0.18,-0.04 0.31,-0.12 0.4,-0.25 0.09,-0.13 0.15,-0.33 0.18,-0.58 0.03,-0.26 0.04,-0.66 0.04,-1.19 0,-0.55 -0.01,-0.95 -0.04,-1.21 -0.02,-0.25 -0.08,-0.45 -0.17,-0.58 -0.09,-0.13 -0.22,-0.22 -0.39,-0.25 -0.18,-0.04 -0.45,-0.06 -0.82,-0.06 -0.36,0 -0.63,0.02 -0.81,0.06 -0.18,0.04 -0.31,0.13 -0.39,0.26 -0.09,0.14 -0.14,0.33 -0.16,0.58 -0.02,0.25 -0.03,0.65 -0.03,1.19z"/>
  <path id="_16" class="fil3" d="M197.52 345.16l0 0.91 -4.55 0 0 -1.24c0,-0.36 0.04,-0.65 0.13,-0.86 0.09,-0.22 0.21,-0.38 0.37,-0.49 0.16,-0.11 0.35,-0.2 0.57,-0.25 0.22,-0.05 0.52,-0.12 0.9,-0.18 0.41,-0.06 0.7,-0.11 0.89,-0.16 0.18,-0.05 0.33,-0.15 0.43,-0.3 0.1,-0.15 0.15,-0.37 0.15,-0.68 0,-0.3 -0.04,-0.52 -0.11,-0.67 -0.07,-0.15 -0.19,-0.24 -0.35,-0.29 -0.16,-0.05 -0.39,-0.07 -0.7,-0.07 -0.34,0 -0.6,0.03 -0.76,0.08 -0.16,0.05 -0.28,0.15 -0.34,0.31 -0.07,0.16 -0.1,0.4 -0.1,0.74l0 0.19 -1.09 0 0 -0.26c0,-0.53 0.07,-0.94 0.21,-1.21 0.14,-0.28 0.37,-0.47 0.69,-0.58 0.32,-0.11 0.78,-0.16 1.38,-0.16 0.4,0 0.73,0.03 1,0.08 0.27,0.05 0.5,0.14 0.69,0.28 0.19,0.14 0.33,0.33 0.43,0.59 0.1,0.25 0.15,0.58 0.15,0.98 0,0.43 -0.06,0.78 -0.19,1.03 -0.12,0.26 -0.3,0.45 -0.52,0.58 -0.22,0.13 -0.44,0.22 -0.66,0.27 -0.22,0.05 -0.62,0.12 -1.19,0.22 -0.28,0.05 -0.48,0.1 -0.6,0.17 -0.12,0.07 -0.21,0.16 -0.25,0.28 -0.04,0.12 -0.06,0.3 -0.06,0.55l0 0.16 3.47 0z"/>
  <polygon id="_17" class="fil3" points="207.68,346.07 207.68,341.05 210.46,341.05 210.46,340.05 206.52,340.05 206.52,346.07 "/>
  <path id="_18" class="fil3" d="M211 342.93c0,-0.6 0.04,-1.08 0.12,-1.45 0.08,-0.37 0.21,-0.67 0.4,-0.89 0.19,-0.22 0.45,-0.37 0.77,-0.47 0.33,-0.09 0.75,-0.14 1.28,-0.14 0.52,0 0.95,0.05 1.28,0.14 0.33,0.1 0.58,0.25 0.78,0.47 0.19,0.22 0.33,0.51 0.41,0.89 0.08,0.37 0.12,0.86 0.12,1.45 0,0.68 -0.04,1.23 -0.12,1.64 -0.08,0.41 -0.22,0.73 -0.41,0.96 -0.19,0.23 -0.45,0.39 -0.77,0.48 -0.32,0.09 -0.75,0.13 -1.28,0.13 -0.56,0 -1.01,-0.04 -1.34,-0.13 -0.33,-0.09 -0.58,-0.24 -0.76,-0.47 -0.18,-0.23 -0.3,-0.54 -0.37,-0.95 -0.07,-0.41 -0.1,-0.96 -0.1,-1.66zm1.17 0.13c0,0.5 0.02,0.89 0.05,1.15 0.03,0.27 0.1,0.47 0.19,0.61 0.1,0.14 0.23,0.23 0.4,0.27 0.18,0.04 0.42,0.07 0.75,0.07 0.32,0 0.57,-0.02 0.75,-0.07 0.18,-0.05 0.31,-0.14 0.41,-0.28 0.1,-0.14 0.16,-0.34 0.2,-0.6 0.04,-0.26 0.05,-0.64 0.05,-1.14 0,-0.5 -0.02,-0.89 -0.06,-1.16 -0.04,-0.27 -0.11,-0.48 -0.21,-0.61 -0.1,-0.13 -0.23,-0.22 -0.4,-0.26 -0.17,-0.04 -0.42,-0.06 -0.75,-0.06 -0.34,0 -0.59,0.02 -0.76,0.06 -0.17,0.04 -0.3,0.13 -0.39,0.26 -0.09,0.13 -0.16,0.33 -0.19,0.6 -0.03,0.27 -0.05,0.66 -0.05,1.17z"/>
  <path id="_19" class="fil3" d="M217.19 345.08c0.12,-0.12 0.22,-0.26 0.3,-0.41 0.08,-0.15 0.14,-0.32 0.19,-0.52 0.05,-0.19 0.08,-0.42 0.1,-0.67 0.02,-0.26 0.03,-0.55 0.04,-0.89l0 -2.54 4.36 0 0 5.04 0.54 0 0 2.38 -1.08 0 0 -1.39 -3.82 0 0 1.39 -1.09 0 0 -2.38 0.46 0zm1.75 -4.05l0 1.55c0,0.43 -0.01,0.8 -0.05,1.11 -0.03,0.31 -0.09,0.58 -0.16,0.81 -0.08,0.23 -0.19,0.43 -0.32,0.59l2.6 0 0 -4.05 -2.07 0z"/>
  <path id="_20" class="fil3" d="M227.28 344.92l-2.61 0 -0.38 1.15 -1.2 0 2 -6.02 1.7 0 2.04 6.02 -1.17 0 -0.38 -1.15zm-0.27 -0.86l-1.04 -3.13 -1.03 3.13 2.07 0z"/>
  <path id="_21" class="fil3" d="M141.48 341.59l0 2.82 0.76 0c0.41,0 0.7,-0.11 0.86,-0.32 0.16,-0.21 0.25,-0.57 0.25,-1.08 0,-0.34 -0.04,-0.62 -0.11,-0.82 -0.07,-0.21 -0.19,-0.36 -0.35,-0.46 -0.16,-0.1 -0.38,-0.14 -0.66,-0.14l-0.76 0zm-1.14 3.8l-0.72 0c-0.53,0 -0.96,-0.08 -1.3,-0.25 -0.34,-0.17 -0.59,-0.42 -0.76,-0.77 -0.16,-0.35 -0.25,-0.8 -0.25,-1.36 0,-0.43 0.05,-0.79 0.14,-1.09 0.1,-0.3 0.24,-0.55 0.44,-0.75 0.19,-0.19 0.44,-0.34 0.73,-0.43 0.3,-0.09 0.65,-0.14 1.06,-0.14l0.66 0 0 -0.57 1.14 0 0 0.57 0.72 0c0.41,0 0.75,0.05 1.04,0.14 0.29,0.1 0.53,0.24 0.71,0.44 0.19,0.2 0.33,0.44 0.42,0.74 0.09,0.3 0.13,0.66 0.13,1.08 0,0.56 -0.08,1.01 -0.24,1.36 -0.16,0.35 -0.41,0.61 -0.75,0.77 -0.34,0.16 -0.78,0.25 -1.31,0.25l-0.72 0 0 0.67 -1.14 0 0 -0.67zm0 -3.8l-0.76 0c-0.27,0 -0.49,0.05 -0.65,0.14 -0.16,0.1 -0.28,0.25 -0.35,0.46 -0.07,0.21 -0.11,0.48 -0.11,0.82 0,0.33 0.04,0.6 0.11,0.81 0.08,0.21 0.19,0.35 0.36,0.45 0.16,0.09 0.38,0.14 0.65,0.14l0.76 0 0 -2.82z"/>
  <polygon id="_22" class="fil3" points="146.46,341 146.46,342.57 149.28,342.57 149.28,343.43 146.46,343.43 146.46,345.12 149.45,345.12 149.45,346.07 145.32,346.07 145.32,340.05 149.43,340.05 149.43,341 "/>
  <path id="_23" class="fil3" d="M151.43 341l0 1.56 1.46 0c0.26,0 0.46,-0.02 0.6,-0.06 0.14,-0.04 0.24,-0.12 0.31,-0.24 0.06,-0.12 0.1,-0.3 0.1,-0.54 0,-0.28 -0.06,-0.47 -0.19,-0.57 -0.12,-0.1 -0.33,-0.15 -0.62,-0.15l-1.66 0zm0 2.42l0 1.69 1.46 0c0.4,0 0.69,-0.06 0.87,-0.19 0.18,-0.13 0.27,-0.35 0.27,-0.67 0,-0.21 -0.03,-0.38 -0.09,-0.5 -0.06,-0.12 -0.16,-0.21 -0.29,-0.25 -0.13,-0.05 -0.32,-0.07 -0.55,-0.07l-1.67 0zm-1.14 2.64l0 -6.02 3.09 0c0.37,0 0.67,0.05 0.92,0.16 0.25,0.11 0.44,0.27 0.57,0.5 0.13,0.22 0.19,0.51 0.19,0.86 0,0.76 -0.29,1.23 -0.86,1.38l0 0.04c0.32,0.05 0.57,0.19 0.74,0.43 0.17,0.23 0.26,0.55 0.26,0.93 0,0.27 -0.03,0.51 -0.1,0.72 -0.07,0.21 -0.18,0.4 -0.32,0.55 -0.14,0.15 -0.32,0.27 -0.54,0.34 -0.21,0.08 -0.47,0.12 -0.76,0.12l-3.18 0z"/>
  <path id="_24" class="fil3" d="M156.02 346.07l0 -6.02 2.56 0c0.53,0 0.95,0.05 1.27,0.16 0.32,0.11 0.57,0.3 0.73,0.59 0.16,0.29 0.25,0.7 0.25,1.23 0,0.41 -0.04,0.75 -0.11,1.02 -0.08,0.27 -0.2,0.48 -0.36,0.63 -0.17,0.15 -0.38,0.26 -0.65,0.32 -0.27,0.06 -0.61,0.09 -1.02,0.09l-1.51 0 0 1.98 -1.16 0zm1.16 -2.94l1.42 0c0.27,0 0.48,-0.03 0.63,-0.08 0.15,-0.06 0.26,-0.16 0.33,-0.3 0.07,-0.14 0.1,-0.35 0.1,-0.61 0,-0.29 -0.03,-0.52 -0.1,-0.68 -0.07,-0.16 -0.18,-0.27 -0.33,-0.33 -0.15,-0.07 -0.36,-0.1 -0.63,-0.1l-1.42 0 0 2.11z"/>
  <path id="_25" class="fil3" d="M165.48 344.92l-2.61 0 -0.38 1.15 -1.2 0 2 -6.02 1.7 0 2.04 6.02 -1.17 0 -0.38 -1.15zm-0.27 -0.86l-1.04 -3.13 -1.03 3.13 2.07 0z"/>
  <path id="_26" class="fil3" d="M172.84 340.05l0 6.02 -1.15 0 0 -5.03 -2.29 0 0 3.37c0,0.49 -0.12,0.89 -0.36,1.2 -0.24,0.32 -0.63,0.48 -1.16,0.48 -0.19,0 -0.39,-0.02 -0.59,-0.05l0 -0.95c0.1,0.02 0.22,0.02 0.36,0.02 0.23,0 0.39,-0.06 0.48,-0.16 0.09,-0.11 0.13,-0.26 0.13,-0.45l0 -4.44 4.57 0z"/>
  <path id="_27" class="fil3" d="M203.07 340.04l0 0.87 -3.2 0 0 1.49c0.15,-0.2 0.34,-0.33 0.57,-0.39 0.23,-0.06 0.51,-0.09 0.84,-0.09 0.36,0 0.67,0.04 0.93,0.12 0.26,0.08 0.47,0.19 0.63,0.35 0.16,0.16 0.29,0.35 0.37,0.6 0.08,0.25 0.12,0.54 0.12,0.89 0,0.43 -0.03,0.78 -0.09,1.05 -0.06,0.27 -0.17,0.5 -0.33,0.68 -0.16,0.18 -0.39,0.31 -0.69,0.4 -0.3,0.09 -0.7,0.13 -1.2,0.13 -0.43,0 -0.79,-0.03 -1.08,-0.09 -0.29,-0.06 -0.52,-0.15 -0.7,-0.29 -0.18,-0.14 -0.32,-0.32 -0.4,-0.55 -0.09,-0.24 -0.13,-0.53 -0.13,-0.89l1.12 0c0,0.25 0.04,0.44 0.12,0.57 0.08,0.13 0.19,0.22 0.34,0.26 0.15,0.04 0.35,0.07 0.61,0.07 0.38,0 0.66,-0.03 0.84,-0.1 0.18,-0.07 0.31,-0.18 0.37,-0.34 0.06,-0.16 0.1,-0.41 0.1,-0.75 0,-0.32 -0.03,-0.56 -0.08,-0.73 -0.06,-0.17 -0.16,-0.29 -0.3,-0.36 -0.14,-0.07 -0.35,-0.11 -0.62,-0.11l-0.4 0c-0.25,0 -0.46,0.02 -0.62,0.07 -0.16,0.05 -0.26,0.16 -0.31,0.35l-1.01 0 0 -3.21 4.21 0z"/>
 </g>
</svg>
