<?xml version="1.0" encoding="UTF-8" standalone="no"?>
<svg
   xmlns:dc="http://purl.org/dc/elements/1.1/"
   xmlns:cc="http://creativecommons.org/ns#"
   xmlns:rdf="http://www.w3.org/1999/02/22-rdf-syntax-ns#"
   xmlns:svg="http://www.w3.org/2000/svg"
   xmlns="http://www.w3.org/2000/svg"
   xmlns:sodipodi="http://sodipodi.sourceforge.net/DTD/sodipodi-0.dtd"
   xmlns:inkscape="http://www.inkscape.org/namespaces/inkscape"
   width="7.9423499mm"
   height="7.34728mm"
   viewBox="0 0 7.9423499 7.34728"
   version="1.1"
   id="svg8"
   inkscape:version="1.0.1 (3bc2e813f5, 2020-09-07)"
   sodipodi:docname="рисунок.svg">
  <defs
     id="defs2">
    <pattern
       id="EMFhbasepattern"
       patternUnits="userSpaceOnUse"
       width="6"
       height="6"
       x="0"
       y="0" />
  </defs>
  <sodipodi:namedview
     id="base"
     pagecolor="#ffffff"
     bordercolor="#666666"
     borderopacity="1.0"
     inkscape:pageopacity="0.0"
     inkscape:pageshadow="2"
     inkscape:zoom="5.6"
     inkscape:cx="38.959213"
     inkscape:cy="37.501283"
     inkscape:document-units="mm"
     inkscape:current-layer="layer1"
     inkscape:document-rotation="0"
     showgrid="false"
     fit-margin-top="0"
     fit-margin-left="0"
     fit-margin-right="0"
     fit-margin-bottom="0"
     inkscape:window-width="1280"
     inkscape:window-height="967"
     inkscape:window-x="0"
     inkscape:window-y="0"
     inkscape:window-maximized="0" />
  <metadata
     id="metadata5">
    <rdf:RDF>
      <cc:Work
         rdf:about="">
        <dc:format>image/svg+xml</dc:format>
        <dc:type
           rdf:resource="http://purl.org/dc/dcmitype/StillImage" />
        <dc:title></dc:title>
      </cc:Work>
    </rdf:RDF>
  </metadata>
  <g
     inkscape:label="Слой 1"
     inkscape:groupmode="layer"
     id="layer1"
     transform="translate(-17.951441,-81.74898)">
    <path
       style="fill:#ffffff;fill-opacity:1;fill-rule:nonzero;stroke:none;stroke-width:0.264583"
       d="m 19.151801,81.74898 h 5.54164 c 0.67019,0 1.20035,0.5398 1.20035,1.19955 v 4.94818 c 0,0.65975 -0.53016,1.19955 -1.20035,1.19955 h -5.54164 c -0.6602,0 -1.20036,-0.5398 -1.20036,-1.19955 v -4.94818 c 0,-0.65975 0.54016,-1.19955 1.20036,-1.19955 z"
       id="path13" />
    <path
       style="fill:#68d7a7;fill-opacity:1;fill-rule:nonzero;stroke:none;stroke-width:0.264583"
       d="m 24.793471,86.75713 c -0.01,-0.02 -0.02,-0.03 -0.02,-0.04 -0.10003,-0.17993 -0.30009,-0.40985 -0.58017,-0.66975 h -0.01 v -0.01 0 0 c -0.13004,-0.11995 -0.21007,-0.20992 -0.25008,-0.24991 -0.06,-0.08 -0.07,-0.15994 -0.04,-0.23991 0.02,-0.06 0.11003,-0.19992 0.27008,-0.39985 0.08,-0.1 0.15004,-0.18993 0.20006,-0.24991 0.3401,-0.46982 0.50015,-0.75972 0.45013,-0.88967 l -0.02,-0.03 c -0.01,-0.02 -0.04,-0.03 -0.09,-0.05 -0.05,-0.01 -0.12004,-0.02 -0.20006,-0.01 l -0.86025,0.01 c -0.02,-0.01 -0.04,0 -0.06,0 -0.03,0.01 -0.04,0.01 -0.04,0.01 l -0.02,0.01 -0.01,0.01 c -0.01,0 -0.02,0.01 -0.03,0.03 -0.02,0.01 -0.03,0.03 -0.03,0.05 -0.10003,0.2399 -0.21006,0.46982 -0.3301,0.67974 -0.07,0.11996 -0.14004,0.22991 -0.20006,0.31988 -0.06,0.09 -0.12003,0.15994 -0.16004,0.20992 -0.04,0.04 -0.08,0.07 -0.11004,0.1 -0.04,0.03 -0.06,0.04 -0.08,0.03 -0.02,0 -0.04,-0.01 -0.05,-0.01 -0.03,-0.02 -0.05,-0.04 -0.07,-0.07 -0.02,-0.03 -0.03,-0.07 -0.03,-0.11995 -0.01,-0.05 -0.01,-0.09 -0.02,-0.11996 0,-0.04 0,-0.09 0.01,-0.14994 0,-0.06 0,-0.1 0,-0.11996 0,-0.08 0,-0.15994 0,-0.24991 0.01,-0.09 0.01,-0.15994 0.01,-0.21992 0,-0.05 0,-0.1 0,-0.15994 0,-0.06 0,-0.10996 -0.01,-0.13995 0,-0.03 -0.01,-0.06 -0.03,-0.1 -0.01,-0.03 -0.03,-0.05 -0.06,-0.07 -0.03,-0.01 -0.06,-0.03 -0.10002,-0.04 -0.11004,-0.02 -0.24008,-0.04 -0.41013,-0.04 -0.37011,0 -0.61018,0.02 -0.72021,0.08 -0.04,0.02 -0.08,0.05 -0.11003,0.09 -0.04,0.04 -0.04,0.06 -0.02,0.07 0.12004,0.02 0.21006,0.06 0.26008,0.12995 l 0.02,0.03 c 0.01,0.03 0.02,0.08 0.04,0.13995 0.01,0.07 0.02,0.13995 0.03,0.21992 0.01,0.14994 0.01,0.2699 0,0.37986 -0.01,0.1 -0.02,0.17993 -0.03,0.23991 -0.01,0.06 -0.03,0.10996 -0.04,0.13995 -0.02,0.04 -0.03,0.06 -0.04,0.07 -0.01,0.01 -0.01,0.01 -0.01,0.02 -0.03,0.01 -0.06,0.01 -0.09,0.01 -0.02,0 -0.06,-0.01 -0.10003,-0.04 -0.04,-0.03 -0.08,-0.07 -0.12003,-0.11996 -0.05,-0.05 -0.10003,-0.10996 -0.15004,-0.19993 -0.05,-0.09 -0.11004,-0.19992 -0.17005,-0.31988 l -0.05,-0.08 c -0.03,-0.06 -0.07,-0.13995 -0.12003,-0.24991 -0.05,-0.10995 -0.10003,-0.20992 -0.14005,-0.30988 -0.02,-0.04 -0.04,-0.08 -0.07,-0.1 l -0.02,-0.01 c -0.01,-0.01 -0.02,-0.01 -0.04,-0.02 -0.03,-0.01 -0.05,-0.02 -0.07,-0.02 h -0.83025 c -0.08,0 -0.14004,0.02 -0.17005,0.06 l -0.01,0.02 c -0.01,0.01 -0.01,0.03 -0.01,0.05 0,0.02 0,0.05 0.02,0.08 0.12004,0.2799 0.25007,0.5598 0.39012,0.8197 0.14004,0.2599 0.26007,0.46983 0.3701,0.62977 0.10003,0.16993 0.21007,0.31988 0.3201,0.45983 0.11003,0.13995 0.18005,0.22991 0.21006,0.2699 0.04,0.04 0.07,0.07 0.09,0.09 l 0.07,0.08 c 0.05,0.04 0.12003,0.1 0.21006,0.16994 0.10003,0.07 0.20006,0.12995 0.31009,0.19993 0.12004,0.06 0.25008,0.11995 0.40012,0.15994 0.15005,0.04 0.30009,0.06 0.44013,0.05 h 0.3501 c 0.07,-0.01 0.12004,-0.03 0.16005,-0.07 l 0.01,-0.01 c 0.01,-0.02 0.02,-0.03 0.02,-0.06 0.01,-0.02 0.01,-0.05 0.01,-0.08 0,-0.09 0.01,-0.16994 0.02,-0.23991 0.02,-0.06 0.03,-0.11996 0.05,-0.14995 0.02,-0.04 0.04,-0.07 0.07,-0.09 0.02,-0.03 0.04,-0.04 0.05,-0.04 0.01,-0.01 0.02,-0.01 0.02,-0.02 0.05,-0.01 0.11003,0 0.17005,0.05 0.07,0.05 0.13004,0.10996 0.19005,0.17993 0.06,0.07 0.12004,0.13995 0.20006,0.22992 0.08,0.09 0.16005,0.14994 0.22007,0.18993 l 0.06,0.04 c 0.04,0.02 0.09,0.05 0.15004,0.07 0.07,0.02 0.12004,0.02 0.17005,0.01 l 0.77023,-0.01 c 0.08,0 0.14004,-0.01 0.18005,-0.04 0.04,-0.02 0.07,-0.05 0.08,-0.08 0,-0.03 0,-0.07 0,-0.1 -0.01,-0.04 -0.02,-0.07 -0.02,-0.08 z"
       id="path15" />
  </g>
</svg>
